<mxfile host="app.diagrams.net" modified="2022-03-28T03:22:06.248Z" agent="5.0 (Windows NT 10.0; Win64; x64) AppleWebKit/537.36 (KHTML, like Gecko) Chrome/99.0.4844.84 Safari/537.36" etag="nGEIj8bae6SSYVCbs4ph" version="17.2.4" type="github">
  <diagram id="6lnhXrvLaTiMjUzT_P8g" name="Page-1">
    <mxGraphModel dx="2031" dy="1134" grid="1" gridSize="10" guides="1" tooltips="1" connect="1" arrows="1" fold="1" page="1" pageScale="1" pageWidth="1654" pageHeight="1169" background="#F1FAEE" math="0" shadow="0">
      <root>
        <mxCell id="0" />
        <mxCell id="1" parent="0" />
        <mxCell id="UyWXllwboFjSRBBQRdUh-6" value="" style="shape=image;verticalLabelPosition=bottom;verticalAlign=top;aspect=fixed;imageAspect=0;image=data:image/jpeg,/9j/4AAQSkZJRgABAQAAAQABAAD/2wCEAAYGBgYGBgcICAcKCgkKCg4NDAwNDhUPEA8QDxUgFBgUFBgUIB0jHBocIx0zKCQkKDM7Mi8yO0hAQEhaVlp2dp8BBgYGBgYGBwgIBwoKCQoKDg0MDA0OFQ8QDxAPFSAUGBQUGBQgHSMcGhwjHTMoJCQoMzsyLzI7SEBASFpWWnZ2n//CABEIA3kHOwMBIgACEQEDEQH/xAAdAAEAAwEBAQEBAQAAAAAAAAAABgcIBQQDAgEJ/9oACAEBAAAAANUgAAAAAAAAAAAAAAAAAAAAAAAAAAAAAAAAAAAAAAAAAAAAAAAAAAAAAAAAAAAAAAAAAAAAAAAAAAAAAAAAAAAAAAAAAAAAAAAAAAAAAAAAAAAAAAAAAAAAAAAAAAAAAAAAAAAAAAAAAAAAAAAAAAAAAAAAAAAAAAAAAAAAAAAAAAAAAAAAAAAAAAAAAAAAAAAAAAAAAAAAAAAAAAAAAAAAAAAAAAAAAAAAAAAAAAAAAAAAAAAAAAAAAAAAAAAAAAAAAAAAAAAAAAAAAAAAAAAAAAAAAAAAAAAAAAAAAAAAAAAAAAAAAAAAAAAAAAAAAAAAAAAAAAAAAAAAAAAAAAAAAAAAAAAAAAAAAAAAAAAAAAAAAAAAAAAAAAAAAAAAAAAAAAAAAAAAAAAAAAAAAAAAAAAAAAAAAAAAAAAAAAAAAAAAAAAAAAAAAAAAAAAAAAAAAAAAAAAAAAAAAAAAAAAAAAAAAAAAAAAAAAAAAAAAAAAAAAAAAAAAAAAAAAAAAAAAAAAAAAAAAAAAAAAAAAAAAAAAAAAAAAAAAAAAAAAAVJCuP3dBekAAAAAAAAAAAAAAAAAAAAAAAAAAAAAAAAAAABHIBBozzPN9LF7Xe9yMUbsWRAAAAAAAAAAAAAAAAAAAAAAAAAAAAAAAAAAAAzZUk27nsEVgF6Tc51CbaAAAAAAAAAAAAAAAAAAAAAAAAAAAAAAAAAAAD8Yk/Hpsf+h+K6+N591Us/ukAAAAAAAAAAAAAAAAAAAAAAAAAAAAAAAAAAARDMU841f2N0weGq5Td/oy1vcAAAAAAAAAAAAAAAAAAAAAAAAAAAAAAAAAAAVDU0nfivPrPfoCN1LoOndiygAAAAAAAAAAAAAAAAAAAAAAAAAAAAAAAAAAAoGL9Yc2uJR3uNwOX4PB9Jr5NOWGAAAAAAAAAAAAAAAAAAAAAAAAAAAAAAAAAAAZY6X1BRvJ6Hv+ok8B3n2AAAAAAAAAAAAAAAAAAAAAAAAAAAAAAAAAAADOHG7AKq8AEbne3QAAAAAAAAAAAAAAAAAAAAAAAAAAAAAAAAAAB58UyKWBSn3B5YZ/oHLgAAAAAAAAAAAAAAAAAAAAAAAAAAAAAAAAAAA/OdaQtXrFB9gHH1ZcAAAAAAAAAAAAAAAAAAAAAAAAAAAAAAAAAAAAH5zlli2LL/dAdsPl4P8AQH7gAAAAAAAAAAAAAAAAAAAAAAAAAAAAAAAAAAApbN1r2TVFS2VV/d+fPWBad0e0AAAAAAAAAAAAAAAAAAAAAAAAAAAAAAAAAAAFMZV1n0Ct6KWNYVlTj+gAAAAAAAAAAAAAAAAAAAAAAAAAAAAAAAAAAAH+dWmpaRWC6w/QAAAAAAAAAAAAAAAAAAAAAAAAAAAAAAAAAAAAEYwtsIVPqYAAAAAAAAAAAAAAAAAAAAAAAAAAAAAAAAAAAAAguUtMn851wAAAAAAAAAAAAAAAAAAAAAAAAAAAAAAAAAAAAAEXyBpkRi9QAAAAAAAAAAAAAAAAAAAAAAAAAAAAAAAAAAAhNXwjgeH99iSzWwplhjTQgmiQAAAAAAAAAAAAAAAAAAAAAAAAAAAAAAAAAAERoWkeZMpH1vQ8fIjEL7331BITm/C5wAAAAAAAAAAAAAAAAAAAAAAAAAAAAAAAAAAiuUKoty15d/QHxglWVfY1+SJX9g2aAAAAAAAfLNESua4wAAAAAAFfUb2tJ/YAAAAAAAAAAAAAAAAABQmSbcvbogAOZR1PXpd/6ovR8zAAAAAAAVnk59d6/sAAAAAADE0baUukAAAAAAAAAAAAAAAAADLOfdQzkAAEYzV7NOdDNOsJwAAAAAABVWVzfn9AAAAAAAwlz2h72AAAAAAAAAAAAAAAAABmXPOtO8AAA+dA1dq3p5R2rOgAAAAAAVVlc35/QAAAAAAMJc9oe9gAAAAAAAAAAAAAAAAAqPFmvZIAAAFQUNrT4Zb3hLQAAAAAAqrK5vz+gAAAAAAYS57Q97AAAAAAAAAAAAAAAAADwf53X/aYAAAFP0hr+B0J/oN7wAAAAABVWVzfn9AAAAAAAwlz2h72AAAAAAAAAAAAAAAAAGWqn1eAAAAZ34uos8ePcIAAAAPlCot4/wCdSZSoqrK5vz+gItC+a90km/2AAIvB+D+fpJJ/2QYS57Q97BD+ZP8A6APPXsM5H3708mYAA8sT4/3sP6AAAAAAAAAAeL/N7V8xAAAAPhjnQ8syZqS9wAAADmUNT3PBIb1uSrcrm/P6H4pujI4D1W3f/ZACq6DiQFj6LlYwlz2h72FGZ2/lq6oB5KJpLwA713XV9wAr+ja5+RaOrAAAAAAAAAAKAzzrcAAAAKuo7TEKon/Rv0AAAAVlmLmACY2dQBvz+iN5XhwA9WmLbAeDLlaAD67b7phLntD3sULnwk+1grrMPFAEi1bLgHkzLU4OvuYAAAAAAAAADCU/uAAAAAPxim+u7SF26SAAABSubf4H1/P4AN+f0huRuaH7/XyBpO6gcnIEXDo+nlfIa+n5hLntD3soGgBpi5RT+ZfwP72fnyQ9Otp8DlZDiYPtoS8wAAAAAAAAAfH/ADO2f2gAAAAZs/dnRymv9F/6AAAKwyl/CVXzYfXRqp6M8QN+f1xcY8o6N5WtJHKrOh42f3XFiD547hR6r3uHtvxBaQrufaq9BhLntD3tn2hBf9/CAZE/BJ75s/3OVVdDcQ6G0+0PNjuHn7ty25H1/SAAAAAAAAEFp6M+m57Q/qEYR2uAAAABT9VXmzVuOwgAADw4l5Rc+kvoDj5Nhgb8/rJlakz1j2QfHNlNnb216CiM8na11KQAMJc9ofx0IL70EPliqOF2aM+oPPmOpi0tVjOdHHb1bNQAAAAAAAAVxTMW68r+nhgPBuO/60zBrQAAAACvc6aLU7bWmAAACiM8loatAPPjeJDfn9hmNTu7O6QBmmmDRV5vPhvnPtseYAAMJc93uCL80CFMZpLl0wAUhnE927zhYk+TrbHkAAAAAAAAAV/mX1zn7A/lT8HRtFahAAAAAhWWtMIF4NuAAAGK4s9m3OqAItiz+G/P7nCkTV9nAD4YqjyQ7cVjlAvbQ4ABhLngvPRQMYRF1dveoD+ZxpEXfo4obPZqm1AAAAAAAAArvLsbmdh/QfKHu7WF/UXp8AAAACAZk0wjNW/6EAAAOdhMvDRoAMlVub8/uNoWk+1gAUnm425Ic8US/W5OuAAYS54XnooHHw0Xho0DzZXrMXVpL+mQ6+d/bwAAAAAAAAcnK3zh/l59kTXzQT8zr2Kl0Dm3VoAAAAFV0TohxqK/0eAAARHGBrWyAAUXnY35/cJc9eOjAARTFprqw8sVSle0gABhLni7dIAV3kY1ZaIONkyHH70pcwYd4i49NAAAAAAAABQH3g9afd4PXNpZ9hV2ocRbPAAAAAoaE3a4NKf6MgAAIZjU2fLgAVLlw35/cFedom9AAcvCxrCzcq1YsTXIAAwlzy29RAKyyebDnQRLJfDPZqqxwYS57QF+gAAAAAAABlO06vqf2nttcFV7c/zQ2r1AAAAAZImFiohAN/AAAIZjU2PNgAUxmk3x9cG+Rf8AfwAIzig1pZOVqrTfYwAAwlzzr7BkoFb5KNcWKK3yt4zta0l4GEue0PewAAAAAAAAZYsCKUV0z7W8ObUdwaewtP7cAAAADhYv0z0lZdbY4AADj4aNKXSADMFQvXvJiiMrM1iACpMumx5tnOjnr3f+wADCXPHX2DJQR3Ehom9Cl82/gl2te0Awlz2h72AAAAAAAACjodaGYeL1n7uF5qvaisdSGatbAAAABnyCX4UPoy/AAADDPITnYgAczEHkT7X7MNQPtuHrABj6BvpvD01flI1PawABhLnh19gyUGIo+lG1GdKOFj6s9QBhLntD3sAAAAAAAAHmwbfcvoas+56bfgFe6mu0fL/OnTE1AAAAOTjC95Y8+Y/9Ge2AAAZwpE1JbIAy5Upo28Fa5MLU1SAKgzCWPrZ8cK+J3Np+4ABhLng6+wZKFEZ5NAQ6sBculf2AMJc9oe9gAAAAAAAAcfLFfyOWVzGevMphp/6BSmYtc/0CNJKAAGZI5fhXHz22AAAOHiT4vTrCxAFCZ9Oht3oP5i6KF2aQ/oEAyV5jXFimdaMJprfpAAYS564q/jp19iSIeTEPLB/dDXsADCXPaHvYAAAAAAAAB+KpzTJ5t+ixLMBiaR3QH4m+UaJvq7fS+fK7H9AKnzdpDrvzmzcVhgAABQefj9XZfnTHBzxU40zcghGO/wAk70rLR5qQoH4Fq6oHPxRyTraItz9nyqusZ9dIwlz2h7fx/GTtbCkIqXLgejT9rEFqaOaNlIMJc9oe9gAAAAAAAAB/MqfrtEquYHk/z+0lLD5/K143V1y5XuTtcPC9qXbLwILlC5LDK4++0AAAAfnJVcj6zuTfGLwn8i59LAovOwSuaenhQDxiYbA9oQDIn4HtmPX8sD8BsqZmEue0Pe3IyBGDvbD7gzTTA/Ut7/njMfJvsYGEue0PewAAAAAAAAAfzN36JdcQEQxLrD1oHoL0DKcyvr+UxZufLK+wQbKlkW0c+ht/dsAAAD45TrQAP7fGhAFEZ6/gAWJqr3gVflrzgBsiamEue0PezkZAjBYWux/M50eAE52IDCXPaHvYAAAAAAAAAFfVg4Og5WAqnOWlVa6X/oyLbNwipo5LhWWZLQtYUNq+2nz/AD+voAAAFLZ95oCXaPsAAQDNcVAdTQF0f0AjGaIAA/t2aQGJY40pdJzMgRRMdmAr/OsMAWRpWQAw/wAJpK6wAAAAAAAAA/FJ+XkR7WIAzZy7ZjvbtUq6nrKugUR9pG/lHUNdNgCsJ/penYvynH51haN/QAAB8qtruLeF1phZlgAAK/rSH8r8e+U2LZ/3AAh1Xwnh/LoyGZ2nIAr2he9pP1jyZmjOibBAQyroPwXanVry8BWFBdzUHQAAAAAAAAAClep9qU0TMgB/MVXf2acl87raEXxXWlD848vd8s3Vpe8oEQ8moanmX9Cvab2ZKAAAAAAAAAAAAAAAAAAAAAAAAAAAAADk56s3y1bqoAHCyLolyY/IuohvBsTkVtZ/d/GXolfXVHEiGwqblz+fj6DlZs2RLgAAAAAAAAAAAAAAAAAAAAAAAAAAAAGZbJ/dMaMlIAGZJt1wPzwPT2DOsLvT0DnwbaFJyaHV/GOz1JNYxwch3TeFngAAAAAAAAAAAAAAAAAAAAAAAAAAABHs6W8oTZIACP54tkAEAom8f0PHDNf0/SfY90h+pE/pdRRcZtDTAAAAAAAAAAAAAAAAAAAAAAAAAAAAAZdsX3xjiaQAAMnXGAH8zLb/AFPu+Efg+xoLi6bzjqAgU7sRy8l37pkAAAAAAAAAAAAAAAAAAAAAAAAAAAAMRaPU/adtgAPhlS5AAhv9mI8FQa09FbY96vG6s3mSKcL68fTxkG8NOAAAAAAAAAAAAAAAAAAAAAAAAAAAACH5jv5QOirCAAUT5JnwuP0+n7wcnrDwQjSH0QfE/cPP+exP+urS5pOzhY2lwAB+eR/fn2PoAAAAAAAAAAAAAAAAAAAAAAAABR0JtlQ1124ABGMbaiqjvzgADncm9RHcEyQJxLCI9+0VFSzS4ADzVtCPgfqX2l7QAAAAAAAAAAAAAAAAAAAAAAAAy70bDVvF9fAAiWJdJQOxe8AD8839W39Rzf8APOVBM5iQ7uWupjvaXAA8dJcjqTPq+KKxr23n0AAAAAAAAAAAAAAAAAAAAAAAABkmWTx88dbSsUAUTlnTMYlkwP5CZuBU8C6f5inT0fbZnTNkg9RM5iVLcs3UVItQgAUrGZrbH7Fd1nJbrAAAAAAAAAAAAAAAAAAAAAAAAGSZJYhDsuavvL+h/Kuy94NLdfMmojywT5WUQ+YILFbkEYoj17C76KZhrDre6bymExSB7c+7OVn6MABGaV7N6/oFEca/OoeGK+f7SroCMeaYcWL/ANl3T/kT5H3l/uIx8JdxIz9O/wB4Ef4Hz6sp+ocaMPRK/aHzivL/AFKeuAAAAAAAAAAAAAZqi93iNZ5jNmy7o+CJ1h27qspC6q0SVF67R/pSt0fqir0/vJ9kflSE531pbB5M8Z99c6vPl0fpIyFra1QAVRBrWnQHJ8XX9iC1b8z+2BZ39UjxrFrE/VyV1Hj63h21I8qcV0JtbP8AXxqCKD23BIysa9H7t2YHDpznCZW3+wAAAAAAAAAAAAIFiPY/0DjQCJeHoSuf9kQaotLIV1ahv458T6kop24kGrG9a8tVz8rbEsMfz5faN4Q1Z2XHxn/pN7AAUVxL76oARel+7bnX51WROz7BUjHujbshjFLf3vW51IfUEtuNSMd9twyHw1RFbOsJUUMsSw/RGqi899dGPUhMbW9PHp3naC9Pkob8W3KvhW0BntpgAAAAAAAAAAAAMJ9rQgAAq6ktfKQn8PuAgV85Vu6NRWy4L6qX7LQbiZe3/wCsKnyXoWcmf/VsQADPvh0Z9AAo/g350j50B+NC/wBpGO3VJiguZfnUM8+m/VIx23ZmfHPn30FyaFk11CKU1P7RgNW3FLiLwOyu1W1cXBMBRXH0R9QAAAAAAAAAAAAODgCe6I9QAODQPggW5f3QX2ktpEH0NhXTP78sEm36hXJrW2LKUrK9G/GJVbRXy0dIyI5L/wBB5SABn7waO/QA82eJJdgVHC747FIx3Rv7KM5GihnxoNSMe0V9RTkS0JDqstyaD85y7d6ROm+lZko9QUXxdGfoVvW96dwAAAAAAAAAAAABHcTxi9bT9YHFgVYc7TV1/wCbGuJDTlC6LtIr3SGaYbfQ/EAfKk9ZvHiWZ/LoyyzZcI1k7U1/AAKK4mgfeB8vr8+VRE9tMKyry+OxSPB0YKM5ehxnxoNSPI0KFWQK+oRXl6dwM8+q/P5Wdffl15bPOgzv5wF0SgAAAAAAAAAAAAA/lLZ2r2ayfofzmR6Lfi4r4tAwBd9hQzIWkreKf1d5P89LUvP+vnATN20f0yXq77A/FMUjru6wACpYTcctAq+v7f7NDz20wqyBXp3KR4OjBRnL0OM+NBqR5OhAqaEaAgFfXl3gzn075PNF4zF+d9L07Gd/5boHd94AAAAAAAAAAAAHIoCsObIZP7eJz/t15ZYM/wDoGIptbPzw7c9/me9leiIYUkGgpV4IYZg2/wDpmi+u6PxWVESrXUxAAERp2T3SD50D49A/bO0ju0KN4Wh/RSPB0YKM5ehxnxoNSMd0T9xRHL0TBKst2Zjl0HLri4fwkYhFTWBaFF8TRf0HG8ve+oAAAAAAAAAAAAKsyFcVke+NVRV2ltG/0AYy7txMm/LW5XHo0a8GY6B68s63R4cO18ZvvjsfCE1xBrNv6wAAAfih+Vac9Cq4HNraUfwL465w6LlNzqR4OjBRnL0OM+NBqRjtlWMRKnJfcPLoPv3h/SroBb0yqGHaG9JzKCn1pVzWtpz0+NE+bQX7AAAAAAAAAAAACFYk1X1w4GaPttKWAGFrHtRQNK7V6b85P2vKT+VlUVdxCP6btUy7O+X85ta8/wD6AAAcakPPLJj1eTCYz2Lv9KP0h7rK63JrbxXj3FI8HRgozl6HGfGg1Ix76TTv8eB/u8uuqmCyuefeJV/3Ly/sUpqR2V2OHW0fu2R+eiufY8g8decS2ZuAAAAAAAAAAAADBV7TED80tRmiNLe4EHwJs3sKvy/a+mSMZs2pNAr7Fky0ofyh9jgAAADl1NHB+pnaPqEWqbwnTtWUFW8q5xVfguMU+uBSPBuap+a79qd0/NYwL8Ettj1la11/D6WbPzw1LFz22XOAAAAAAAAAAAAAQvG2r3FqGyPTJv6R7O0GvK87J/cepLMd5XURXHXu1LPCJ5ese2urHKirK+Lr/pAJ3aQAAAAPBH/3++/6gP5yH76oAABSPB0Y8n1+wHy5H56XsB8I95/vIfQDx8779X+gAAAAAAAAAAAAUdWN4s87F9/5qnz9IQSna/8AF9vlMbusoc7Eu8sa619x5KdgHg687tfpD51jqAAAAAAAAAAABSPB0YAAAAAAAAAAAAAAAAAABQ0GuRnrWMiIlCeqDx/L3/oHJxT/AKdQPK+kPscWKSzsg/lUaa9gAAAAAAAAAACkeDowAAAAAAAAAAAAAAAAAACs856KcOgNrdMh9fSMABW1G/6Eo/mWyoxDvjOK3+10yE5tZaR7gAAAAAAAAAABVvKucAAAAAAAAAAAAAAAAAAD5/55619ri502LLiLUjYv0AD+ZKuzTBluKTX1DmVl9bY/cnuf9AAAAAAAAAAAAAAAAAAAAAAAAAAAAAAAKApLTv8AUSq/ZY5OVrGlYB/M8wT/AEC9yFZW6k5/oPDWPw1vPAAAAAAAAAAAAAAAAAAAAAAAAAAAAAAABj6L6J6VT8zXIfjM1ZWXP+iEPz58dwyYh+b5NC/fLwPFWvX03NQAAAAAAAAAAAAAAAAAAAAAAAAAAAAAAChs0eaWbV7AHHzjn30yjseSIc/SujPQPJjqwHCgUulgfyBQbkf6PAAAAAAAAAAAAAAAAAAAAAAAAAAAAAAAB4/YAH4qWF872Tm1PSBjaciExmw+yi1b/r18T/Q8AAAAAAAAAAAAAAAAAAAAAAAAAAAAAAAAAAADNHH74/MB5vh5vuPB/oGAAAAAAAAAAAAAAAAAAAAAAAAAAAAAAAAAAAB+Mh8ixghMK+4/u8wAAAAAAAAAAAAAAAAAAAAAAAAAAAAAAAAAAACic5Wz2iJwH7HMnOzgAAAAAAAAAAAAAAAAAAAAAAAAAAAAAAAAAAABGMWyGyETgP2+Ec0Jpj9AAAAAAAAAAAAAAAAAAAAAAAAAAAAAAAAAAAAB+MzU7b3DgHgkeuZcAAAAAAAAAAAAAAAAAAAAAAAAAAAAAAAAAAAAARTHXM8mn7vAAAAAAAAAAAAAAAAAAAAAAAAAAAAAAAAAAAAAB+KPtzrgAAAAAAAAAAAAAAAAAAAAAAAAAAAAAAAAAAAAAAAAAAAAAAAAAAAAAAAAAAAAAAAAAAAAAAAAAAAAAAAAAAAAAAAAAAAAAAAAAAAAAAAAAAAAAAAAAAAAAAAAAAAAAAAAAAAAAAAAAAAAAAAAAAAAAAAAAAAAAAAAAAAAAAAAAAAAAAAAAAAAAAAAAAAAAAAAAAAAAAAAAAAAAAAAAAAAAAAAAAAAAAAAAAAAAAAAAAAAAAAAAAAAAAAAAAAAAAAAAAAAAAAAAAAAAAAAAAAAAAAAAAAAAAAAAAAAAAAAAAAAAAAAAAAAAAAAAAAAAAAAAAAAAAAAAAAAAAAAAAAAAAAAAAAAAAAAAAAAAAAAAAAAAAAAAAAAAAAAAAAAAAAAAAAAAAAAAAAAAAAAAAAAAAAAAAAAAAAAAAAAAAAAAAAAAAAAAAAAAAAAAAAAAAAAAAAAAAAAAAAAAAAAAAAAAAAAAAAAAAAAAAAAAAAAAAAAAAAAAAAAAAAAAAAAAAAAAAAAAAAAAAAAAAAAAAAAAAAAAAAAAAAAAAAAAAAAAAAAAAAAAAAAAAAAP//EABsBAQACAwEBAAAAAAAAAAAAAAACAwEEBgUH/9oACAECEAAAAAAAAAAAAAAAAAAAAAAAAAAAAAAAAAAAAAAAAAAAAAAAAAAAAAAAAAAAAAAAAAAAAAAAAAAAAAAAAAAAAAAAAAAAAAAAAAAAAAAAAAAAAAAAAAAAAAAAAAAAAAAAAAAAAAAAAAAAAAAAAAldBZVWAAAAAAAAAAAAAAAAADZ6X35Vc14+dSAAAAAAAAAAAAAAAAAAe52Hm7uw0eW8/XAAAAAAAAAAAAAAAAADpOraXkqo+JqgAAAAAAAAAAAAAAAAB6fb2uZsR5aIAAAAAAAAAAAAAAAAAL+q93lNpp88AAAAAAAAAAAAAAAAADOzPYQ1dcAAAAAAAAAAAAAAAAADYvr1AAAAAAAAAAAAAAAAAAA2raNcAAAAAAAAAAAAAAAAAMzyjG++GmAAAAAAAAAAAAAAAAATutyI1xuq1wAAAthEAAAzOGAAAAAAAAAW7OQGKJ1VAAAGbIwAAAJTrwAAAAAAAAE9vIAU5ogAAAzZGAAABKdeAAAAAAAABnasAAonrRAASkxjFkYEs5RiCWcoxSnXjMo4JSIxBmSOAAAAAWbYACNbWABmeQxmMFmQxDBOQRhKdaxCKzIYrE5EIgAAALIYbF4ABRdpYACzMY4zPKMLM4hjMpYrTliGEsYlOE0YLMxjjM84rTliGAAAALPd9z0dXnOf2bQADX2NWoASnisLMxjZisJyhG1UBKZGCU4wE5Ks2YrAAAAS9P2vahRf8+ttAANfY16ABOVeAlOOJwiGbI4nGAEpowJyrwTliGJThEAAABf6HrU9De+azvAANfY1qQBOVeAzZFKvALY4nCIEpqhOVeFmcVkp14AAAAXbfs56TU5XxbNsABCF2pWAJyhEJTgnCISnGNkYASmxWTlDFiMBKdeAAAAGb7N/b56o27DDIDXvxp4AGbMVjNivFqvAszXi1XgEpmK2bBGASnXgAAAAZ2badYnt5r1c7UMXZKc269AAJyQJowSmjhNGCU0cJRjKcJZxWnJiOcwwlOvAAAAAWbevQLtnVqWVr9hTi+GpgACcghESmEYCUwhGU68WZhFKYV4SnXgAAAALr9PAbWNaVtDYuplbjUnbmujAAzkiAkYwBIxglElEJEQlEAAAAM7lFIJbmMqM3Uzsxqzu39equGuAAAAAAAAAAAAAAXbGlgDcmEE8a0un9y2ri6LPPgAAAAAAAAAAAAAA2s6gDcznJGWNarf9me9bo87XqgGzXUAAAAAAAAAAAANxpgW3TyGNaptdGu9zU4dpgep1+tbq8bAAAAAAAAAAAADO5nWqC22xXbjNbFVTe9bf9XmvKhqAt+g8NpOu1+Zl6FGo3dbe0J7mhDc19/RqW72prrN/W1Wd+GkAAAAAAG1biqvErbKbqJW02xzRfHVw2KZ7VGuD3PX4wssj3Hmbmhy/0XzKvU06drhvomhqexw9nZeR6nO+T3Xk+l4Hi9xp3UckAAAAAAJbUwQ19rV2J6l08Kr6tYt2WpAHR3csHSZ5rP0T599C+f0/SPnUPo/zj6NwOv0V234Xk393xvX8TDc2PU5F9B4OoAAAAAAZtsziNcG5RdPSbcsZpt17JTjrVge76fHm56PpeR47vuK7z50+i/On0f5x9D+ePY9X0eK1n0f5x0Ht3cxt+5qHI64AAAAABOyNbAbkM26lcrp5hdVZGqnAC/6BwOs7Lz5S5mz6D87+ifOn0X50+j/OPo3CanVa3peH5G/1vKbPi7fZ836/HZ6zk8AAAAAALNrKGtAZ3MU7NerhnO3LTjgAHtdV5+zqcdZ3Gttc94XecG7zg3fcD9F0LMcTs9ppbvI6fd+dt+Lz/aSu8XnAAAAAADbzq23qacZvujp7VldGJ3yr1AACe3TrjZpgAPovzqcDOxRFLbpoL4VgAAAAADbzqYs2ssMo6bau9Tzasw1YgAAAADvODAAAAAAAAAF2zXqJbNga9DqOllDw+e0AAAAAAAAAAAAAAAAWyoFlklVR9Bi9BHkfDgAAAAAAAAAAAAAAAAADsfep0M+e5ugAAAAAAAAAAAAAAAAAGek6efPxhzEAAAAAAAAAAAAAAAAAAG72fned4tYAAAAAAAAAAAAAAAAAAzsawAAAAAAAAAAAAAAAAAAAAAAAAAAAAAAAAAAAAAAAAAAAAAAAAAAAAAAAAAAAAAAAAAAAAAAAAAAAAAAAAAAAAAAAAAAAAAAAAAAAAAAAAAAAAAAAAAAAAAAAAAAAAAAAAAAAAAAAAAAAAAAAAAAAAD//xAAbAQEAAgMBAQAAAAAAAAAAAAAAAgMBBAYFB//aAAgBAxAAAAAAAAAAAAAAAAAAAAAAAAAAAAAAAAAAAAAAAAAAAAAAAAAAAAAAAAAAAAAAAAAAAAAAAAAAAAAAAAAAAAAAAAAAAAAAAAAAAAAAAAAAAAAAAAAAAAAAAAAAAAAAAAAAAAAAAAAAAAAAAAAI61soTsAAAAAAAAAAAAAAAAABp8jy8buw6JszAAAAAAAAAAAAAAAAADm+D9bz9V6Pb+reAAAAAAAAAAAAAAAAAHI8S3/dzfZ0W0AAAAAAAAAAAAAAAAAHjfOqXZ1pdjIAAAAAAAAAAAAAAAAAGtxXM91qN7pwAAAAAAAAAAAAAAAAAYohop7m0AAAAAAAAAAAAAAAAABRVPZAAAAAAAAAAAAAAAAAADWhdcAAAAAAAAAAAAAAAAAGI4ZlTVLaAAAAAAAAAAAAAAAAAI0wwMzlVZeAAAMa9tgAABCnYyAAAAAAAACujABdC2wAAAjrW3AAAFVOxMAAAAAAAAIawALcWzAAAR1rbgAACqnYmAAAAAAAAMa8AALq9nIACuGM2Z1rbiFeMzsBCvCdqqnYnim2RXDGZ2AhDFsgAAAAQ1gAGbF4AMUQCUbbsUQZwlsZKK2cLbqqdiWvHYniiDOE78lFZfYAAAArnlRUAAXVbWQA14WXZjTBbdRXO6WKa57Cmqd0sQlKqm+qN1rXhZdnFNdl6mqd2cgAAAp5vm/K3Ou6iisAAup2LABDXsvDXhbZrT2AorvnrZ2Mgqpzi61DXsvFVMtmOtLZAAAAR8nnedns631SFYABdTdcAKatmQQ17c032BHWtnr3WgVUrbimrZkUVyvlXRfYAAAAp8rxbuS1317FQABdTfaAKatrIR1rc07Ewxq2TovsAqplsiivaziiE78qqdiYAAACrT5+HH73a9DDWAASnVszAFVOxMK6L1F1oQ17bNa24CqlO/Kqm+VEbLxVTsTAAAAYqq8rQ6q01oAAXVNrIAjrS2MmNZstZsSMa8dieti+YKqZRnsMa2cYutCqnYmAAAAMUV23kdVPYxryzXgsV3XAApqlZKNWLrVdGbZYqjZehQskrssqp2K657CqlOyMLpqqdiYAAAAQ1rrhVRsWITU0rM1S2cgAU14M22iqrBmy4V04F1tVOzKiu+xVVgzsSVU7MgAAAAqp2shr5vjXcoqtxXnZhXiy3IAxBmWQYjhPIMRwlJiFhXPJiMZTGIWAAAABjVutBHVzjNuKrYRbEavK3NieNoAAAAAAAAAAAAAAqp2sgasQkivr43nKbvou7q+nMAAAAAAAAAAAAABrNkBq4YM4bFnneBV5dHp9lPYAY1bLwAAAAAAAAAAABqtoCunGAbFjT5ZrczvfTG0B43B7lG59BmAAAAAAAAAAAA1MbFgV1wxOGcTLbHn+L5fhdf0MtkFHy36R6LhdrsIeXsb7z9vzPUq0PVn5+35npXKfN3tpV5m3useXZ6IAAAAAAa9a2eY1wtqtxXZDOLqZbGWrsQotvBzfhfQSqqfzb2fP9Ts/k/r3+Nv7Gn9I+Uepu+D9Ip4D3fF6z3PmvueP1PQ/N9/X2u5AAAAAAEdeIJXa+xTHZqiWVT2CuhsyByWv2ocjjr8fKPqfyv6jsfJPq9nyT638m+n7XKa+j0vua3zP6DwX0WzQ1PG7t8s+mXgAAAAADFcMZzObVuqjtNbBZXfCMc32Ac143fGh5Pke97z5h9D+Z/WHyj6u+SfW/lX1V4HieX9D23yT63y3O6/Y6XN7x3W2AAAAAAQhKeQas4w2LI1QTqsrlZbkBrfLvp+24D1IQ7Gr5Z9W+U/WHyj6u+SfW/k30ve4nc8jo/e8zhu21Oh0fn3XeD3+OH7eQAAAAACGsSvmMaubaJ7GWMa2NmWQAc9xPq6e931fzfb0+q6X5l9NfMvpr5f9Q+TepVn6Lp/PfR8/ut/5r6uh0XUfPY6/Q9aAAAAAAa2NiulbblTVna14TuzCnE9kAAr0djaGpfYAPk/1iuwjq7UkNHY2TWstAAAAAAGtjZzDXwDO01qPD9jZS2cgAAAAD5l9NAAAAAAAAAFVE9lGiAXXON4+M+k6z0QAAAAAAAAAAAAAAAVYuEK8LLD5bLHmJd30dgAAAAAAAAAAAAAAAAAOA5rY9OPr56rZAAAAAAAAAAAAAAAAABjkeOr6q2fXWAAAAAAAAAAAAAAAAAAPP+fet6/v2gAAAAAAAAAAAAAAAAACOttgAAAAAAAAAAAAAAAAAAAAAAAAAAAAAAAAAAAAAAAAAAAAAAAAAAAAAAAAAAAAAAAAAAAAAAAAAAAAAAAAAAAAAAAAAAAAAAAAAAAAAAAAAAAAAAAAAAAAAAAAAAAAAAAAAAAAAAAAAAAAAAAAAAAAP//EADwQAAEFAAECAwUFBwQCAgMBAAUBAgMEBgcAEBETIAgSFDA1FTZAUHAWFyEiI0ZgMTIzNCQlJjcYQbBE/9oACAEBAAEIAP8A+nsqo1FVT3MQKjYlohbe95pvqklObkfmwS9JLID2jKksiQngpoQcoNvDP1aK7XIAJVjJXue8BR8fIve0j4eKD5ObuSibV+AdtuaCPj4PI8yyO8Vi0nMobwn6yvtCRPVKumtaROUltxVh4weJrNrUe2gx4HSRu+NfFreITkd2ji9iM2QGEjS/Vjmfky6NtOzgYDkM2Yg81tbG5uqrXNrD6FP/AK3oP5Iadar1H2tRxxefKmY3wLTIyKPuWF0zQ+xRt4c5c4r3slO+1yPRHN/VaeaOtDLNJj3roC+jLXC2GsU5/jgIPcKkvwJtFRyIqemSOOVjmSHOPqtn3pxgbkPS5Ww2gcBaQNo6/nD+3LGaQkJaVg4L26ns+4Pb/Vbkm6orA6Sx1x3AsIB0i9GAIw5D7ltJj2ElayUWXoGa6T1PVfHUSkCwWyeLLg50vBM1y7LErap+gRolKzLNKaGKxDJDLniM3HPIkbnoqKiKn6q87WFq8fWY+sbE6HMjWu7SRxzRujkI4qenYW8AHbbyZ/gjkUsU8bZIvUbyok2jnzS/a+JIeYOwe0ZraUqTcvVGV9WkrcAVeVw+dtP/AFV9pC2rM6EqdAW+4EFN9JMSPLweTcshtDjnSWhQfbBScaJM80HYni6zt83X99OrPJg5qf8Ajyb89Z/jUlL7O4j2ySDLVxWOuxhh7G+C8Wwsg2ZKOPmZ6LoR7OuH/fj41zrX/qr7Sk73FM5B1BE2CCKJvq3waAYRhsQVgDFYi2Iw49iIixwQwu96P0cVOfLqzb13ZdNBqrssGYF/YeaDDf1W9o8HPJVBmYwZiubHxWovVyHLFNfCU19SJ4r0I1FwNVNMr8KY9+m1sNyb9ViwmgaGWx5DVYfU8Wk33agDXjTiMiX06eRbe1WN/qvSJFTsOUaNvGL9ajSwuRr4zOVRsf6ryxRzxSRS7/gWG151/LUdboM1bfQLiTY01D5lTvYV1nXE5F9RyRWUFROGsPRzucplpv1ZmmhrxPkl5S2/E5qB9SaC1NSsJNVz/IMM/uVyrHskY17OoHOfojD/AFSzwwJ4y0hJHbGagwTRqRj6NSnF+rHIXMo3KSSjhbre95QIObMB4mADkZIQhHD69Z1WHT8S0Lyvshob2pw9v4WyJ24QkzwlDzfEWSUq9STQw+HmSmR8afwqWSpeVYRIziPkoz4Osg+ActQVJSwsOKCVkrjv1Y5n5BfkhjBQ7IZa3rSvkIMF0A1KKnS78h6XPCx7qV4Lx9stJQlIjBmV3KWX16g/hTkYp4PvjPZ1AVvcUmM4twAXw8iKGKCNscX6tOcjEVztroZdXqSpRcTnWZoBWrL32Gnr5URJadxzxbb19ldLqIIYa8McEP6v7y6ozEaO0zBjmFNaJgf6AQT95fIl6e6iI1ERP1g5g/8ArfR9cOMR2psr6HL4NcvXAsNeHBpOz9Yd6NeRw+krt4ccjdTaT08KzKGK6/Lyfqsqo1FVS3J+EAK9LRH2jAVdXIOue0VqpPFKc/O/Isq/y/vr5N6j5u5KZ/ure0DvoFRZKPtIlYvBLgz2icnN4NuCOScEbVraqoyWNWrn6L8hyooyX0FLbchtgOnVFRURU/VPSb7J5RHIS0PtE3pPfiAHtrq9Oq/ag8EaKqnwVPinYWkRZK/CpJ3h58XClRPDzf3Liuv3LiupOE4V/wCOzwuYai/D3uMtjSRVS3QvUJPLtgdrq8wqfZZ3aEtAcom7IDUBdHXZJS7mBVU2Mt0LPFevsVp5Mad/VHWbrN4uqkpPX826nRebXoUqBIxb8mqD4cvToyQuJwmWD+6sCIiIiJ8ievXtRLFOV4xyRNHKw1xAbpI6QdYrEBNv3J87ysdFqyIgA1QTSw+/Q7bzMTl60JIbxZyXBt6Hwlz8tsWIKsEtifS8vG7tmSIOzkTascjk4+5PcdtxCjH5ZuOQKmQZHDHY5b3U0rnsBczH6k7GlRxKmTH17lL/AC7knmeqAWcUBtWyJm/JYs5biSzbSO0bGCRoauleh84oGFm66wX9NxDYro+wDRb4m74pj+V2TrHSPMeyRjXs632ev5wpDrAXH+/Hb0Qk0P5ZzBddSxr42dq88tWeGeKrYSzVrTJ+V7AjIV05iy/tweTllFFqLv8ALeVOYnzrYB5wKDJaC8ynQyOEFZaJsn4PR5ELp4PduarCmMs9XyY7kEnmHsglDmhx6jHcoSxRzxSRSnhpnjDTVyofj7kUVuhavh/K+cfunR9Ab6QN/LC31Uh34F/uX/LeZuUVi8/NBc5nb+mJR0qmdzg3M0G1KX4SWKKeN8Uu24udWSW+Dz+iKZm8lqjl9SO1VD4mqYEUjg6ejcvVD3HmlY6DjfkShvBSPX8q5x+6dH0BvpA38sLfVSHfgX+5f8s5e5AXGh0p0hw+8bIw1K2WzVLLC2VIPw++44jLpKSFBzBPNE2WquX01DUjWW62vytTVi3V5KV07iNCyeHAbkZtwjbkH5Tzj906PoDfSBv5YW+qkO/Av9y/5WZK0wQm6TuajRX9WculbvGGRQKNQla/E8kYJCscpcbmNJey5WO5XFFKZkfWvVORcS3RUlu08hrCmKOQkaef0Q3TBqpSh+Uc4/dOj6A30gb+WFvqpDvwL/cv+V+0DsFfPWzFXjjMJojrXz/i+UsWlGVxuhxnr1Ak/gLXXK2PSnOp2nxFyE/GGkq22uR6I5v42ezWqROmsXuTsSNVUdNzgBiVUg/fxV6ZzpRRU8aXNubf/CwI5AxxRUbC1yORHN7c4/dOj6A30gb8hVREVVIbzHiHKlq1zTl4f4QLzrSYv8n7+KvVfnECvgk47lHEXVai07w+/B51X55TdZMKqpatc3gK/i2pJzrIi/0f373eq/Oz2fwlHc1ZiZUS0G1GaO+DaPqLfVSHfgX+5fUe3+XzU/kXKPL2KtSpEtezXtwRz1vkXLtOhCs1sly5jxyuSG1zrN4+FSTnHSu/2R85nUd/Voc50V91LojkvGE0RjGPZI1Hs+fbIjBzffu2uTMLU/g798eMi6p8uYqy5I31LdS7XjsVvz0uTqghF8pbLlLZspdI2sJnkzmerQP/ABdqtBcrzV59Znpsybs0X8aadT4NIJz3kSjpqs2nASACCxJwPvFMDFzt78WWNiwVVbJDRczXp1fCEIliZeZZr3qC6rQZ56KPzHM1G69kByGeC1CyaHnH7p0fQG+kDfVNNDWifLNpOZaFBZIAhvW6LQuX7Q9VO9dHTtnqZzmY4PVkJbPagFp6yyjvl6nlcKEV9ege3Om0aubc9SKqKipm+UdOAcxkmT3We1TEZW9Bb6qQ78C/3L6eQuT/AIRZhINznPcrndcT6i2I0NYa71XiQ8VWfZvafmiZ3v1gBEqSL2FnveoLpz2ekR47N8015lZAepXKZGrHZq/L03JOdzfmQob5W1hZXNrzTzWJHSTd+K9VZCaGtRf+e+0NoPgQY4JFx0D+3NRUa/8AG8q59CoBb0WGPrndHTsvMyo+y1iaMLGdFzVlAmSOVO0yVYQapmxNElU/E7fkmhmPfp1C5omduOtkPlZTcGslOi1uRtWH1WFpT0O4b6QN9Om1YjKUvPu6rbmtXMvxHyqV64OsxWqmE5RrHVjHGfkFSw4JSku39nyUU0zpK1X5UE81aaOaHKnP2jzgwi7uW+qkO/Av9y+jkjkny/ODBu+Kglsa/PMj9O15FGZZrq0JzQl9FbWyR+VndSZy9tJx+O3wzX1lSP5BElREUpbd3Y8pkjiy1Bnqz8Us54RHF+e8yG/trflUbw6I+GC2yLvxskbJo3xvPi3hTRCg7M31JAqE69cgh0ok2XYvZ31ayw383Y/Ecj8kfZnmiBDnOe5XO9LIJ5E8WPiliVEf8kN9IG+ja7SjkKHvOLFyBy/Ndv8ApZHJKvgx9eeNvvP9XF/I633wBS/qPHaGdGTX7uq1hPWX1sWvTAHLWme/BLm9FAqpLNBPXd7s3o4pbJDhhvj3LfVSHfgX+5e/IvJn8bAgL6OKsRIIi+2r/o5H5FUF74sXJI+V7pJPQ1rnuRrYM3orKeMNgAdpoq2PTTuWh9qG1VwG+rayosU/qOGx2eHS3r2t2BPW3llseqCvPalZFBxrxzcGW4zBf88vWox9C5cktWZrtqxZmzY5BIEZS/H8xjUrnqd1OM7ivpkKi9awX9rA7USYzQyZbTiSzGPZIxr2fhuS9t+zVBKdNznPcrnd83jD2pk/8EJwxn6CNeUp53PDU8KfT2MkarXlMTkS7XefoOEpUa+YGQG3xNp9W76g30gb30Z6nmQ9gjaNmr58lPfu9xQgmbttq0APCjGo2Q5QxOTE+CVmRxxNRkfV/N5wmittneFgttj5ROiyZ3Lz+UR7tc5jkc3jfapqRK1rXonsQ1IZZ5tzr7GtLOkTvSo3CVqKtUzvC/8AKyY8Ny+dCo1KHaaGKdixyn+LMobRywneJNUJ8ZK0owlBKsUuX4v0J2aOS3Sp1h1SvVr9y31Uh34F/uXtyRyT7/nBg3o4045XxhNmPRyFsWZQT4QyyyTyvlk75zHntTL7tAFw2BoIyQoPEixTPcpdiefBGGubfP8ACVGdr5QhvOGs5Y8gl3FFLoYhXvU8xoaenCVyEHovXao2pPbs7PXW9aUdO/vHFJNIyOPOcPGybWzkx3FGLoMRZP2GxsTW+FMcOHNclP8ANFVERVU7ydhc6jktkefyNyVYs6/lzlxzlXof7Q+rpyLEUzPMmH0SMikY9kjGvZ25WvIM470cjc5T+0D4mqv4/mWp5oGhZ647sthPrGvbRD0Fm79VvEh9TmAEyO/ClSVUONuX7JwxcPlbZG33494xUyyEqZrwQVYI4IPVosuG01Fa1/ZYknj7iMm9Ib6QN78nap2gOvrQd8bi7+vuqyMGAFZyk2oP9VypTIVZK1rf8XTAmykhHfOnbebMVCNYcQqE6FW7U78yal0TIgFfuAAkdISio0cpkBOSppFV+aW+qkO/Av8AcvXJHJPv+cGDejjfjb3/ACTJn0WrMFGtNZn1eisag5aIS98Fxc8kkJI3WrQU4Iq9f1X6A8pUkqXd/wAZ2c175Af34o1DgehjozejmHXLauIAqdwGeKaW+2nQyeCDZOJro/zVVREVV0XLmHzSyRvJc86o1ItbPWhW91a+9oB+Hz1HwVYoooI2xxdXRtAlH7lspxvTl954+oT5B4+f41M37Rv+yLQ5vVZ7V1fPE8/z/C4FsScZ1/P2gv8AIOUovMxZB3WQnSvpBj+/JlNGXqFtPZtL/XxDvwvNh5YmUQUXfjPEppSC3bjWtY1rW/IKDaBYbPQubPJ28gYkqSegN9IG9uQTzs7l7liPvmwFzTF64+sGEUQI2vQpfIVEVPBeUuPmhJHGBvfhLRLIy4Cm7XbkNCnZtzlydgyUuX5+1eCa1PFBDiMjWyQhkPzy31Uh3F6MkHGlKVP0cbcbJIkBoz6eZtC6iNrBoe/FuGYYmQwQ+TyJyVXqw2QwnuLZNKTosh76c0zPAb5J080tmeWaXsDC3tCUrD6WZzQ3LDY6dT815D5FH8f06zpSZ7kPkrxfKM48EVPB9uCvXqxJFB6lRFRUXZicrXilli44M3QW3BTV/aM8WZUOzriJiO1v5ByKxr8WZRQH10T35GrLMBZKnBF9aXIlKL8NtSymtSWt9x1CyUvVaVYEGqABNQdW+VusvBqwFiqxzXMc5ru4b6QN7c2FVlKjhbe/FmYQEBbcm+VbqV71WatY1QCfMnbg6XtlDDgGiFkE7cuFVH5F8DO/DOZbNZnPWPnlvqpD18b8b/GeSYMerdGlPaopbTsCEznS9EdCPo1hdGtSreuSSOGN8km+5RkvrKNB+jiLFz3r7DtvvzgVVjRIlnfinLNCg0Iz/mu75ME4dIaycmG9UfJB59FDCUDSrMKEcg15XpAVilinjbJF6Jp4a0TpZrO1pvmWsKaK0pdPEmNAiBKJ8JmIfP5XGM69o/7sBeuIFRNY/wDIOT3o3ElE6AIrjonw7bKJZsySanG1lam9zD0/CGriDgpW56OEgbbRa8Wl+ZyqFaH19p0fcN9IG9uRLq39qdkXtjQqaDSjaLkRETwT5fN4RH0BpZnfIEFKZYJZd1zlb8SAWl3Yx0j2sbnRUYEEOGs+eW+qkPVxvxv8Z5Jgx6tQR+yM4XuM78JC0lKEib/Xev0RdSa5d3XIt3USPqVfRheLJyXlETcUUUETIou/KV9b+2K98qHU9oRg7prWsa1rfzTQm6ucCECtrjula1R4rrS3NjFVgB/S+CKvhZp17bPdlqyG85Kso8Dtxpb3IZ+rVyrRhdNZtbO2RldWz9fG3iczbOgpUKY6FIavbFNc7l6gjfaGq+bhq0icWTpDs6LV/H8v2UhyscfWNhSfTDWr20bffAFesjI+HV56Rn4TkZ618UccnfiKklPFQS/N5yoIlQHc9Ab6QN7F5viCpCbvwZRbKaLXV+ZyFQbcxZyJe/EU6vxNNF65klWTY+73w1JpDXgoHfgC31Uh6eN+NlJeSYMIiIngnq5bnStiLbE78M1m1cfJN6z+gGZug+5f1+0Ka63783eKKWeVkUWC4viFeSSNenS2Ft6I1OvbhOi2fT2rL/zX2ii61s8HGR4igwbkw0LeZ4kUENl6qq51Wu53a2Nq3PFXjL+rr2KwmrDjKcsyWCkEEFaJsUPowH/3HR65eGpe45PsTJXUH6YPYX8fzVeTxD0U44q+aannXtqZGx54orsXCljYZqL8Lyt9wTXo4+RGYkC1Pmc3MRuUo+gN9IG9rf8A2rHfgxGpU0K/N0jGuzZtF78Kfc+XtzH99p+/FPuft4HV34At9VIejivHDNDcmu30RERET181/c+L0cVe5FghCp6ddshmRpeZY0GhJ6W++5e70B90pbhqU8Lx7SysTLVn1FvqpDvwS1nv6J/5t7ST1U0AZ1QRG0aiJzL92KXQ6TzaNZ3oCr/8jFJ6+PXsk5goPYSowkxl+lLPBNStSwyBCLSwcfeT8dyOVQrrb6t43orCKtWl7buZsWZuNXimp8byHm4/wvJkHmYM2i9+L7bJsMI+bzpO2IQGq+gZ/RGUGdr7FivW2L24Kte7IfrfN29ltTHn5F78Mx+5jUXtzGxWbN/fjeylXbgn/gS31Uh6AZwjniMN+hktaM1wxtiD18wVVkxUz/RxFZbJiajfTueRKWWjdVrECF0rcmt3O4HPlNJfZToZDFi8hUVkHrLfVSHfgX+5fzb2koVQlm5+s5ZW5nw868pUJL2QtqwO5rh0CJ3BucusHN9JIsOEQ+bcO768QR8FDhPjgvQJs0hXrmcAoLeklbw+X+MAzj3/AI3SmGAQd++5VknlVVD0GixdOmnbky17lEfV69noYtzaz3F/Ca6gt3Lm66d+EiaThyY13zOZy6XtTHTZ2oVXXb1Ss1ERE8E62dRaOsOwd+JSiDdlVjd8zmcoylm69BO/Gtb4TDBmL1zlR8owItp2oW5B96pbjqWobdSvYg+eW+qkPSDOEc8Rhv0MlrRmuGNsQerZD/tTJmqyd+CyiLEYFr333KEQxJhgWWWWeV8svfJY0prbnl18/nBeYHsp0fkFvqpDvwL/AHL+be0OHW9lKBJnEpuO/nVoOliinikil1eMMY+3Nbo0i9e34Md2BL/8woJ3t3KtGB89k3yKv88IrMcY7TdyNvzZHijKY/ypou3P+YUpmq5iHjk6gPT1Vf8AjeYj/nWaoWHCilInI5Xd9/eS2ffEns8Blp5omVd+EVEVFRT4xwY0RoL2470SZrUVLEvyzZeoCFXCFm/dsEr1q5Y7cZDPtPaCkXtzQLdU1Md1O1eeWrYhnhzR2toQdIjF8vkbSN0mlsSQ9oYpJ5o4oxtVo4ZRos65jDfGZVLbO/D+iaVBKLl+eW+qkPUDOEc8Rhv0MlrRmuGNsQelURU8F1QdQOiJj++M0C5nRUb6xSRzRsljkeyJj3v33KL7nnDAXow3Ht7VSts2B4+iIpQ0aPyS31Uh34F/uX82MCqBgXdG3CNDRcUa5WOze6A6SKNIpY2yxvjdpuOqk8srqT5SoCdKpGCxDZZ78QL740OnOaxrnOOb+hR9+KhSp6jfGGVa+G4QC5zyrpr0XKdW/Ts1LOtzlrJ6EgKnwOiTR56vLJ+LOGKwEVbIWCF6wTvWbljGhlDho/M7XLUVKpYsyyPsErz39ZUMzNZkSIZ+F5sArUL0y8XfinbMMD2B7nyuUtoh2+gyl34TCLBRImZO3LIH7Wyr7MXfi/bpmSLqV1FRURU+Tyrs2iKDg9PvxYEUvrKsr+1+hXJULdKYlQsCyFulY7Zw9bzReuQrBi484LrkKXzi31Uh6wZwjniMN+hktaM1wxtiD082ZtfCmch78Ych06tB4kzu+R7mne+lT9GA4xlMeUSMQxRV4mRQ/KLfVSHfgX+5fzfT5EBrBvwRbTez7pRqyTBWaHf4udKtqHliW4saE4ref1VN8SGcSTESraE1j9qgVivIkev2bk94Tx2Nqe7JeZ7matVjQyldr3qda3W9POeEXQBUN0sFqFzBxj5Gua9rXN9d7Y5cdIsdijscuRkSOt+B5R1qGSKDauJBfa5VJZe/IxVK4+EezhDLoe2MV2b8Nqc7HqM7dHOsQTVZ5YJu1O5aH2obVXB8kUdRHFUufI5I5IYjJwwbuKG2jJKpQqiBlcKMpj6/aSNk0b45NpmpcqftUV78c8nKHbEJMxyRzRski9e53dLJ1Viiu3bRG3Patd+Mc1+z+cZLN35nzS171c5B3xe1IY+8r4wR8UfHsuD/AJpb6qQ78W5wZpxunpXtNmSWVJPp3O4I4QzxKG/SyuqGa0a2zV9BUXVLjbdC0bEWwJW4OteprXPcjW4Hi1IPKJnvmFvqpDvwL/cv5zdq078LoLWk4NxRtj5Kmt411/H06XeslrmG2JVtOjjcqK7vxFdfJmrYx/q5i47djzK36XFOwS5XQHc9LZYnXqNLpc2IlrOgtc8AxQE2HgG9U7mv41qBJjFO5WIVYbVbtNNDXjWSZmjz0snlsRUciKnyeTNqgWo4XSq1Z7tiKvACDwgxsNSPtJJHDG+SQ+VebL2LXXFuS/Y/JVa834fmHGKj10NLux7o3NezJ8xXqDWVTgc6FP10mG+g1qQGdj98jsOVCZ5stMd6OJ8Y4VU+2bvo5FyDdWFXyXsfG9zH98hyCbyT0jjze9y+lRjYPRdv0htd9i3q+Y4mJJWz9mzYuWJbFjvxfjP2gKIQueguKpnBtsfbOBbufK2h1zuGOFc/dZbHZjmMQRSOubr2q1uFk1fvYtVqcLprJ/l/PjPfiHLzJsvMVzMrzJVvzxVTXoLfVSHfgX+5etLmhukGvo3tVlCeSIrUudwB8jmyMV6jlNSL1gxLVb0cs4xTI9DFL01Klq9ZirVsFxtWzqR3yPZVRE8VN8lZMEr2PLc2HLHiwZU5X29a2k8mL2ovXUXSw+ot9VId+Bf7l/O5I45Y3xycq8TOzqv0mczxdhsVXtp34jmd9v7pi+rQAx2jD2xl/UZs1x7pVrSY7UVtUJZZb3mmirQyzS8ZUZCa2tdd62mIA7cfHWKBuAM2KKRWrZoCO0ge4LvYCe/mNMXx9+zZgpwSzzgKLDNGC+vLgcbVwRednWApb2YcVJZ/I7Cjqqiqz17jaVspR91lq1Yu2ZrNjD5dRsP2hb78gnfhajRsPCWIXQHkL2/xEsMViJ8UvIWGnyd9ZoPRBPPVlbLAO5Q2o5EakPN+mYxGvm5r1T0VIiXJG0KI5sr3vkcr3+jjXjx5SWEwU9XKnH7rKzHhfpF7jVhmoypX5r1sSIkq84aRE/kvct7a61WtvESBOZZrvoxuOIa4h5UQwbTD0K9Gn6eRcNHrByT1JYpYJXxS+iiTIjJPMpVuT9xWb7iR8y7Ri+K3eXNvbYrWkCpMrL5t7vxsSsEcUJkm7lvqpDvwL/cvY8BGaQZLQv6vKEskSdUt987oiWYIsu0s1pheoFx3qfo5O48eHnlMDPQx743I5lDfbIaiJBFy9uI/9ZeWN3KiohHV6QtG6O5346KyidiIez1FvqpDvwL/AHL+ePYyRjmPtY5+MPmK1fvw410seqKfI5BxFDdA31JxN8xx3qJI7NC9VJ069yr25JszQZWzDCPpwjaFOlD6OSFZQ5rCyxpTTZ7OuBf1JHHNG+OQh7PuKt3nWYs9mw+VGsHi+XAq4fUi9cLrzxWq8M8Xp2m3pZSt7iESN0tdmuXMVkVesRO/3Kkq4ihPbnH0DG40sVaDM56jlQlIVT/EkB9EhSmp293xwQykrrVf5bWuc5GtwnFL5FhJH2taxrWt9fIfFqyvnLAXNc1ytd8vF8eE9VIyxKKEjwlGKlR9fIPG0WkY8gPt07VCzLWtfL42pTjMWJil7lvqpDvwL/cvc8BGaQZLQv6vKEskSdUt9+MTs4XWUI2+iSNkrHsfveKZ6D5iIH5fHAiwW1wtY/UW+qkO/Av9y/nvICzWbFOCPtpS6BhE86cfgVy+PDjn/I5c41j2g34+hxtr5ABBwYj25UfJBnatlkM0ViGKaP0aG6mn5x/ocMNZZoacw/0c7VY3cdXHPwUzp8eFc70bjkOpnGSUqVu3av2pbNnJYhWqy8U9Gw0Lz19tarxFx4mLE/HXu01ivVb70/2+C6q26VxfGD8M9jJGOY/X8O1biyWwBQOUCWVrEPkZzEaLTuR1PI8dBct7lhflbDjcLqPMtM0WM0OXkVL/AMgSFKnLKVx+T4gpUFjtHGMZGxrGfJ1WLA6yDwtafjfR5lZJV+Q1rnuRrcNxVctzw3zqIiIiJ3146QVpzFV/bg6jJXFGbz+58EJ0VCWje12QJZEi6vY7cfj5iOxCsj9Wu40AaZZbMWjwOlzKvdZ+RluMdBolZNNm8uJytH4aj6tRRlG6MxVk7cG05IBhm6v53YsQ1K81ifOn7+oguFrJSitd/mM6xoxd/vWWF+Vzlxoj2zakTxhsftml9l3OtYIU7nSVFvDWvgP5StQn78o8h1cSKfBBxLnJqtWwbt8EWmrmDVT0+0OUZTyg4d1kKTh2YD139lVERVXc8oJD5o4HHHYuToxmVxUQvy7l70bzTpDG8VU4U40/4NOWIkqAmnLbvXOUjJpXxZC4C5FP+Kl14fASqr7C8NZjq7wxGiq8esvL+DVZoMn7Q8Ez46+koFR5anFcofhSFAaRrOrWzHDOZvIstAhwpqayqtWxxpuKy/zrhti1VRWYXYvXwSpxbuba9DuECr1RSIbi7JBVY9WtaxrWt+Y9jJGqx5ninJGPfkYS4OLxeK0LXFm4qr0/B7KP/VMNsVXqDjXcWV8GUOFNPY8HWxXDeaGuY+7Vp0x8DK9P5pvj3KH1fJYK8F22K5wy5xRuKir4S4fYQqqOZjNdJ/pX4529n/ZV4b18yp543hGjGqOIhshm86iLQ9O+49ra5GWYbPFm5rPVOgfDekuzscUGjqQijXo0/QbFDj1Galf0nEWiFTPeNp8ebS7K2NmDwkGQrSSzfIO8cZE4r5JCnB11ni8Xc4t3FNen47WMVEVuP1jneCU+Mdvc8FQZwfeVWuKhMDls65r6nyOQuOU1XukB9jj/AGlaRWPB8UaonOz4sQKphBtWhU/O+Xjctn4DGjqlWCjVgrQPYyRjmP5AIyCWIKp8f5KLF5ioOT5T2MkY5j+SMhc401dcoKz5uroRFUhX61OWPAzX7T5XO+0MNeiQaJOZ+NWwe/1p+fK8sa08vnOPC50i8zq2taxqNbgSTMhyccD3O888NaGWecwQk5c5FSWLtPPDWhkmm3nI85pZRwsaMuFrbK1XN5amAh97067TNA1Ejh4l40l1t37cMazWiscPjnstClNPdYW1iIjURE9Op45CaJJJoh5Xa8TGlRmG3gfdi/iqf6Y6Q7SyoK+Xu4KjeJT39YW6u3K4+nYt2OIQ1ja7MjriPzNbmKOsz1wXc48I3cnqrubJ9iIEKW/jeTjnFI/3+hwQOJRfge2yx9XV0mJ0H5W2WE9yhq6/O/Hc0TVcW9ojJVmKlAmS5H5YekNnPZ0dmhzKdPqWWKCJ8su+302kmdSpAM5fP2EZCHC0AdVIKvoPnaoCi6eXjzAEuRzEpQoRvicmAmtSiKZAySfpTnZzmtTxdHNDMnjH6DQUcfoS0rz4tFxPqq1uvjOQsztKkb6f6YcmlHbbcDshUiijgijij65fOPiqUwlfBZyPIZQcLb83n/MPq2R2qpACjDQYffb63sZI1WvlyWXner3088CHv9+r35R2y3p5AlHL5Cycek89SpWo1469f0FCdQRSktWsjjzPKpx964PoUxVKvSp7Quml5CpZpFVERVUtv8oHRyS3OW7pFZKwL9kNLoJUsnIeOwsKo5Ht2ABvnCsvyOLOzJSt99Ln6mmEz0LElCUSbSnfsneQsVUfcpcUckz7+nfiu/pbs9DFkcwSLycSiZUo3jlrtj6677l5LK/O2oKPQ5E0NXh68tjN2Kzvmciar9mwrmQZHJPNSfGXI444Y2Rx+ggQqC6klq1lsoZ5aOLasUqQvPCmQV7fOYuR80QGnR5AkPEjiT5YgV977YqY/OU1RWwwQV40jh76PJ0jrHSsxG0v0r7c6f78w51FjrHIMLWomYJ1v8B+DNDtUT9Lefzkt0mGzFUWPhFDadGLrZk1EZctaT2bRSJWPlV+fxYxICuyrs+Wqo1FVbTZ+RNZatuqDpVijjrsCWXf70Ar/wDtQK//AKeEsp/sM2IgFV1m/mMwZ5ZM+fYGjaAehXo0eX5pqnGuhkYDaSoxx3aNTkF8DmxlhxoUWb40/VvqY2YV58/HGsXSCFhs9jYyI0IvUJMuWdnjaLY4Bkjef2b0/SxVRqKqhbS7XlewUd25lurCCoVU4IqpT48qy/Pu24aFG3cm4ebJPVPEH/L3dyeABJVrZvK1Q9CCBURETwTuUJ0Q1Ga7dD5o3zGcQjbGjaAehXo0euZWK7jTQeAN6uoNRXMY9qtdOEgcqPgpaPVB1RsordBCPuslRUciKiqiIqqR2gAd4tRxPanv5aNDAweelorDOmG3sMzO/INBB2wLxt9mpGI/Vv8A0t5ILfYWF0FxvCtLxnM3V7c2OVZwTeuIlbFxvnUZ87nfYRCc+0DBx+JcHyg6F/RrShc+xq34TWoL/wAw+IdoXp42K9OxDIj3+q2KiulB9yb0FCdENRmu3QWPLcoXoTB2tVrUq8Vev25Rredx5pUUA5q05G+iepWs/wDLXYQGov2cCB3dTU+NMDwQcX4LU7cl1GvH0bfWMJOLZYRad25mqLGdHWevZn/u78DJLFC33pJNKAg8ff8A2zzXUeoz8v8ABta3UtMV1f8ARf2iL/wmPoU2cO1vKzNmbvzXA/xBT9cEEornH1Sv87Y64XiwspC6DgJ8l7aW+T/gidHNvfK33BMpmcRSBvW5b+aVK0AtKW5dzORubW5XP6RERqIid9xA2fFaaPrO/wC236sQ5HZuono3TGuzF5V4isunySsXtzZH4xgZOvZn/u759u5WowOmsFdzZmV0dCxas25Fkn7se+NyOYK2hSgrWWBZekUq+bV/RX2kbP8AXzFXri2L3MXQd35UFKRys0rOANWwTobIax8zZ7oHhx/xN88f03JeijfNkszWywmOpHo9CQ1pV2Zz+ezg3M0G1KXzHPYxquc84EiVyPhrcZmLg8iTp3KRBnv1fQdqvugDVeMBMxks0bvTg18c3W9G8lbHmbbV4djVmWsKvbmhGfZApevZn/u75xAhXGVJLM5gzbM2llm6GhSZZypVrcfP8EW0vHY1EVVm4+gcjlgKZQuLR73dDyNoXaZYrCC1cvSjsxfop7Rz3rpgzOuMvuQI7zQxWIZIZdKEuZHQSV28XcjVdwKjjm+S5yMRXO3nOQsH51HPImi2xtXPxmLpZOn1ybsZRkLQw/E5eLLhooV7qqIiqsO8E3zsAgZ69pyZCCsPHjVynIu18LJCHhS6qJ50/Ct9qL5N7j3aAH+fCA5i32ckSN+L5uy+jWOpe78j8GJeltFs0l8kJsSVL1a7Wtt8Yu+C+7VX0cjl68raw2Ljmm+ljRLX9ubJESIDH17NiPSzqH/O1Bpxa8rY+sxl/tLwt24oo4I2xxejXZeJscpCj1lS6iSkfv8A6Ke0cx6agM/riyZJcXRZ6Npka2sG+V0yQ7jzaOjw3PAUuyGpoIpobETJYfS97I2Oe/TczYzNJJHDtOVtTtFfBNlePjOlcyZ2fzYrNU0r0bdmKnVsWZcSyTV8gJetd716oNqTWrSlpTYAucK8b5uAYOkKO77a/aGi6ktbtyDp3ZkE50HGuHjqwRGyXoP48BpGL8bo+KjYhHz0MNy/o8Y6OnZyW1zuxorYF9tjx7l9nD/7PS8EasM51gO6+UE2HVSVYlTteCM6xEaR5up1LLFBG6SUpvw1H3mVoSW82cr4RNWjPdIw0oqtaKnVgrQ9uZ7ayGxtXr2bq/lDNHb+briKjxEjWdARalyUNdWMZHGyNnpVEVFRdANQUWs129Abrr4WjM7veKDxrfG1Pvx0SqkH7yeq/INF7mJONOCiiIyv6COvFjbk1SWHdB5JGMTolohIpVbO/kKBrv5IOQoEenmCdAJKN8K/T3sjarn3NqGqOVsaci+54+7ByBSc5EnGlhxZvjU7kdeLG3Jqktfbh554Ym9EdGHFqrJpOQoGu/px8kMV39QbqwxH+k31XtSEoKrXych12f8AEnIqeDUWnuxE/utnr2qtuJJIPTf0IkYqtnl5AqtX+j+8nqtvxrnJ544qMJNV1b0zWIa8bpJre3C11VsT+R/FV8IeQaquTzR2lDEk8uH/ABH2khnhDmyDeFyaPplBrvRpMmH1FZI7ug4x0QVXyVw+m0uZld9mj+ft7T8EsV/aUvonhZT2kafuJ4ze0nZ8P/GJ+0Du7qKlYxqtNpXohIJxvqDSseud4vz4VWTWURETtyHYdVxhl7eF2NUsWf6KkMnK22QcnIt+PU7sLjqaIjURE78nFLV2CaCix7ZWMe3rbV10PI4IQ9ERqIidFD4gE6o4ofQyNqQkBef2YLRqsdXtqcGE07HyPvjNPx6ZhnZxjyzS2sKUL3c3ngehrLCW1vs815Uks5kjR1GStLVJidgcq0mDqYnifkPYvjsl87whigPuPuc0bCvlM4gEbxCAW6XmLS9+QiKEteWenBo1wrj2nK75m9sq8pDW7YOkkVCxbX1lc8LLTMktfsGA6oUK4yslav20us+Bc+pRmmlsSPll7o5zVRzc/spInMrEkc1zUc3trPvER6pf9ut1qdS6u59Giqqqqq9o5HxPa9mf01a6LlkvHdDaNTKnognmqzMmhzhyM1Q99/bWfeIj0N+pUetPrHq99Mf/AK/xXvnNdOOeyvcY9kjGvZ2s2YakMk0x7U3Crnww+iiRuDZ2zVc9papuNIpO+m1kr5JKdD0RSyQyNkjyup+00+Eudzp2sEro55ItfLTrLa9AHX2xzmQ24J4Z4WTQ/wCH8r5xdFhCsEWQPuzZ6pe6iljnijli9JTPBDSeF+/w/m7PitWfhUg1f6CcM6T3/wCNbhW8qp8RQ4fzdZUW0MzoMMifA+jkqN0mJMI3hyykWktwr25BMuCZa9LHxjWrYbiqwcn4ijmJmzpi13LEIhIy7elI5V9HgwtYnxZBCeVD2O2h8A3KAAjN25JijlxZb3+P+TDnHNhowoexuJ5ToIaBidUazRdc7sexQVQNUpad3S50rgzcEsHFvIcG7D+E/omiinY6OWvTo01d8N1rdUKxoeYlfuWzvIOpdNJnwlXPCao+v2PlowYa+QfUrWy5GvWhEj4RAqgPh+ZpJvOOkXds9GtYEOjT5eqNKJooyFVVVVVAgbBuwrW0c+HGta2FERE8OrocSQY5J9Hl5gypPD1hjjpfEZY7az7xEemqrXI5osVbMW0ggF5cSNYnXg3w93o/lqJKvJLX/wBP4KiqiKiAQFg3OqJQAihrESBzWParXaHJULVaael1irq1TkLO+s+8RHpFVFRUH0LRO1HWrissJGxtVzWtYiI2+IFkWqk+lzEwORJI+sIYV/mDZu2wNuvXXU4us9jmzxR2yMFKlUTwrvjjlb7ryuREkWOdCQH2hduStZrzzVZo5oQpOEuMhst61JF40NM5nWWzbC6vsWa9ClTajYHNa5PBSOcCEWuR5oPYC3XV5a88tWeKaKjbjvUqtlnV+7COpz2piF+wSty2Z6dOzfsx164nHjaDGvsMjZG33WWqA681yWNNjvs5jrdHrDmXV7iD5f8AEOWsQ/G6aZYOMt4yl5YUn+A5C2YOiJIik4+u/AbAQ/vzXZVtMLW65kvoD4vBhoeGYEaAITejbIpObO55unF/a2ZM0G8NGEkqEBL+tVmqupFSU5getthZIw2qZNFLGkrCNmrsCMQmrrwI8vBH8XJnNRkLv2jniXJ9LaBlE6/jnfvrTxBinbQgqWjFz0LQcmZ4317J0GE6hgbTv0/TtOYMxlWvgrGjup5HPRvsYnFVMnTVzu/L+kSWaAHBwDlHF9O8zN80oquJ31Xqm3y6VVnzNOQUiZsv6Yx0j2saHGRih0NZveeCK1BLBKRpPHXrNV9K3JRuV7McUjZI2Pb1rPvER7ZEcyiGhf6DcTYDBGNvQSiwaJpwN732NivW2NCSeUYGv76z7xEe2JGNqDltv73akN6pPXms15KtiaCQZccPIVbKIqKiKh6/9mibdhOsoKQoVYkno2olLgp1pOsBd9y9Ypv65E/lhHtTrETxSBEjb31wSwYpV3Vf2I0fWdqWqAetWs9b4g5X1aDesYKSiOS07uqIqKi6IagovZrsilfBLHKytOyzVrzt/wAP2ORF7AFYG3dRly+RLzDSWK5OsCEioF6d2mRrR2anzDmmCZ2FX39TymVMJJWHZHi7XbON9mnWnkpW4ZmxSMmjZIzrmxipMBf1zibQl+xkLOIfum70D/8A2PNAOHsVV/HnKN/qORkrGSM6uUqZCu+vbl4tycj1VgwXQD1I6lElGklKZOxIEILf9zS4SsNHTXaPGWoefCrWs9uX84lilAag9nfWJLUvZyz1YuUqie9Zv8m4AOirYN+0SErI5gfT8qbPVNfDZzXHB/QKyV+cyofL1Vho99lqq2UEvnVjL5ok1jMLmIsXmaIqP5pVqsKX2r1Xejq0Kp8q7Y+FpWp+lVVVVXI1G2z1RHend10hMsenWcm88EOevWs+8RHpEVV8EhjSGGKNO+m+vkuqzEksQsX0EvqV7ob9So99Z94iPSIrlRErQpWqwQN9G2rNgPzK3oRYWYSPevIE6x06MCdYOq2EVNYX0Twsmglie5qtc5q5mVYTw5e24HLaFJNF0LLXQ9lJ6o7di5URLVQkMu+HkenS2PiTpB/TGLI9jEijbDEyNno5Eg8LA+ftlJkmzw9zv8Q1+NBbMW6mR3HGWjw87nWAWlM5yfzR4Dl0PeRkRWnfpEIUmqeu/owIvx+MKcv5yp4pSM8qacmjo6+cwWx28/nU8hwZnQHlWCzWoxEa3RVPgdAYq9ZK0t3MBZl65nqq8INsoTLWCqUPO4h+6b/RjJfHnQsjuvaHyiqwdo6/GG6axIgRH0SJ4xvTvPDHZglhkwRCbP7OrDJ2I0oSVC1Tmnhsjr00CrlOQ7SMke3jfbSfzdVOJ9hYX+oN4Wk/kcRCYXMgFY+t6NPqhmWorPaOHCWlJPuXOHuLHgGsPGfnaSJYTpJq9B52ziB8ieuaxXroizfaovqGevYYrodIvugSLu3HzPEpaf6uQ0T4ugvbGfdqh21n3iI9Qf8ANF6dN9fJdUv+3W9JL6le6G/UqPfWfeIj0PajyFNq+nkJEQrWXtnXqoAci8hr4XqTO2VakedHtT03kRLtpEB/WhfZURyKin8XNHI+wMfHJE9zH9qZ8xQ8PIo8g2mfwuiTowtGvw/a2/zLdh/ycQ//ANAzx/xGSOOaN8cmt4Hy5lX2RWk4k3GaV7pK1u5Ql8ytR5N2NFPBa/NBhiJ57ebXon8z+bJV8PcsczHXp4QW+UNla8US7oDpH3vihQMwcn8kaA4A1hFGSlM5w5iM77r1a1GIjW9uU6i0uQtJGvF1hZ8ZQReuQR/2jkC0adcMyIudvx+gVc+y+e6z5OiwmgaFXRt7YZQljDtkZcwXJbHthFm0VFRFTtM5GQyuXualWrpSEsbHte1rm9uRqijtoQcyvOyzXhmZ6pJI4Y3ySazlmtU8yoCYw3qS7WM414gp5PyiZb5+9q+QaSVOsNebOFdA717+211ypUb1ha6xBpJV0sfiBIovXHsrWlLTF9PIMvvFK0XbLMWPOjmL1rPvER6g/wCaL06b6+S6pf8Abrekl9SvdDfqVHvrPvER6HORhCm5fTvZEeZiYnQVqxBhzF5CjRt6k7tlpEkz49fSqoiKqzSebNJJ1n2LIcGIne2PH32K21cwQiXxWC3gS0Ce9BcEEx//AGeoZpa8rJYs4cQyLbI/q2zy7dhnVWNk1mCN/wC7wL1+7wL1+7wL1+7wL1+7wL1+7wL1+7wL0MGQCaiVYP8ADz2jCZqmtsqf9oyKJzogF7m/ke4q+6nL3I6dDue9/Seizu5N432n8msTg/J6Sst3LWPZy2DFXyP/AMfN70z2eNwrPF0Hs4HP/wDTS9nEFB4LfGcRcfhvcVkFeCpE2Kv6edqyQci33pw5L7+XtM7TRMnhkiffqSUL1upJwte8LJiivflVtgPqwhmuLMVzQmiQq9brCidyIWra1GSOY8k+iUynI5jOIytMB2me0SNSp0Tk8ulN3VUaiqtuRxMpYkjYxI2NYnbmSH3NNUk6y6q7MglX0SyxQxvkkP8AK2fFe/FS0WyPaZ6/GY7iHV6xWTvx+Dz2JqrGO/AbkatgU2w3rJF0ElWeZ6p5Y60MkspO88lfs2nMY57mtaMpoPH1avV2uluhcg6/0/guTuJTO1HL6dPd+POXZUa1XORqUoPhKdWunWs+8RHqD/mi9Om+vkuqX/brekl9SvdDfqVHvrPvER6RVRUVKVpl2jVsM9GhuoQM3Z0ghfYnihZGxsUbGJyDXR9ShYb1gLfnDbFVfRobf2cFuyr1iaq2DbZO13SiB1qStZi1wCWSONvdURUVF1OXqS0Jr1Trj2dWkbsPbS1lqHSDOkVWqipVtMt0q07PQTPjhEkcdr9vAHVWxFbqxWI/8O5J5Po4av8ADQL+1fIht8sgPiAPUax5WlngQ5qJVdSpvaqOJYTJk2u83QcPW66PmDVbh/JlPfr4Xn+KdYqOpgs17cEU9f5XtB/f1nXDH0Il35NofAbC+qcbEPs/YDVXvykFUtmJZo/Z82bZqlnMW+xsCGPD5KJPXez0SrPlsZssCNALCwExm51YlGtgj5bMTMSO/FyODf4I9u7zDv8AXTbYVMIsVx+AEuL6sbH6OZ3NU+Ob1noX1gAeF/Vm3VpxLLZJ8l5AZ76dFuZr0vvMFom53tjwjAez5pbvuSmczxPisp7ksP4KWKOaKSOQ0LlEEJqzusnqY5mQj73oVUROtdo2Xf8AwafWKELbu/GydtQOUaZtMRFVqoqZ81GZoRyu76EqwSMlk7ZAYpAxC93bWfeIj1B/zRenTfXyXVL/ALdb0kvqV7ob9So99Z94iPbDnWsaoybvqzzBlR1eHrFjluFknXo6N+1BFuBqoqKqLmi6BikUz2ubIxr2990WZYnioQ9YkatQY6y/rc1VgNrL01zmOa5o+3ERo1rTO5uzHUDkJH9cfxOUhcm7b8YqLVvs6wxlklZ42XvaswU4JJ5jJOQuRmtOoU5SFyCtHDEyCKKJn+G8ibSthgEt1wgUa32ilWUIDG56gynR9J/Mh9LW8m/rcCXy73TdYfknRYawnwuO5Cz23qeZQ+TzSUYU5EL+5xBXdDlJJF7c1UPCcPeSnalo3K1qIMWqHBlW/W7PY2RjmP0I0lx7rYrFHEbMbtAUBGr3sVa1yF0Nk7wvgDaPfGZ9nAtB77xV7hrkagq+JfJaUBCkxTrivMOECXEbHflidbexdCyEhzS+pHDHMC52L+DVh4K5HKS+bfF+zfEzwcWD8SYAD7qxxxRwRtjj/C6EFAbpo1LVWxSsSQT9CtiVHNbE+tvRMjUSb9uc71Z3YiJv9ExqyhZrol6ChbJq0kUVOpBQrRVoO2oB/bVDxiex0bnNcOJ3BVltirR31CWJGW27DN/wVbm8HQMVKpMpcL2VntRxyTSMjjzwZA1BIndtZ94iPUH/ADRenTfXyXVL/t1vSS+pXuhv1Kj31n3iI9IiuVESSOatM6OQXuyVJjY7TeQR6N6IbyzLGrKU00tiV8statPbnjghBiYw1BkCdtoAWlbfer9AdZdCokTq22ASIivds85C33mldzLMx0Q9VVyqq58LIZutYrGtjYxjetkKUgMSWLoBpbgJ6tbV2AC1GiL+0gHq5sAlVq+4c0Vs29Ed1lRThQpqSdXKsF6rNWmLirIe4+vNHJJDI2SMXv1jY1hCPagEb4rY3gmu1y1zB++ZenndY8A6jEt2z/h3KWtk2OusvgxGZjzASKBfW5rXtcx+u4ogteZcBf8Ats+SRUxftB2a6RVNMBOhNBWbaF+rkDb0MODlsyIlwrf6ACWAwtAe3ty5TSxlPO7cV6lRJX7Ls99ZmKmpFPqTBjOm400qyxYfkrP7msxK3p2vJ2axUL45tdsje0JLcJcdYCQvNEUJd1VERVXjSj+2XK85V/4w0ComYkbOVyxUWrn+ljHyORrBOKv21ZLdpUqo+u2Gv6NFlIC71nr3hl8bJ7lruPDEij0SsAzFYOnnSd9BmDl0xcngZj9FHIxzvQcyx24XvTwVchomWoHO9F7JaCa7alZRyWhhu1ZH9tZ94iPUH/NF1ocxWNIs0N8QSGPVtrsNzJckqKwLn6QWPxZ3lijnifHIexFmq90w6SOSJ6sk7IiqqIgfIESLmvno0KoysyvW76TGzNe+2Oc1zHK13eGGWeRscWbyK1XsuX+5QZSLV1gsF8kUFuc5nekOvEZPcqgsbHReyxe/w7ks0udwpy2zjEOhbVVnv7Hzw/ODZb1wae5O39yVufo4PmKkxHq82TCvZDpmua9rXN76DLhtNX8q/qONTYD35644mREWmWqGb9oPSjvciMAOZsAa9xrq9mtbhbLB0U2eSBIriOo9oWjAx8GcMGi2hvyXiXGWElH+4ZJ99zWS1kTcfTGOke1jSY0gDI2KNzj/AFbdMGak3fV5AZq6nuTnM8byV9jLOb532YRrIbo32jczI1qXk59wLGMd1f8AaODRNd9naTmrc6Fj4WUqN8raSGrkeJ4qro7h1rWsajW9+SD6A81YYzhzHrlMmyaz+OugQ91FdZmwwKTxVn7vAvUOLAQqiuqj6FFPCt63MbI1Wvs5vP2P4u/YzNdR58FVVPJREaiI38JrPvER6g/5ouyoip1KNGTf74qdKv4eT67NGlcjVLM2Szqr/Fcnm2PRW1ho+n4LX9V4WNut8LM2HAOVfB2CCNcq9Q4wBF/rWpU6Tfdr+q2LF3nK6Z2Szqqj+mZ4FAqeWxjI2o1n+H+0TZWHGjoGcK1GpVM2+/KEs5jXiAqCBA8CNqDh/U8ENiGSCYthiWbV93LCy1MvXWWv6NDx3nNAr5VL8SaSirnUrwQyNVfjILVmq734JyRG033Z69W1bf7lcVxzrSrm+GU40EZ57LVn0GI2yiSMbq0jYbEMjuS+NKO8pLNCLvGcDpl88YSpl6MF2p3vUKZKs+tcN8N1JnulEWeK9nAvgxOOdo5URKfEuusqnmiOGh0Co8mMDiw0HkUPRNNFXikllyAaXk/YPPXP8E1n3iI9Qf8ANF/mntGQqmTDv64XeihCbO/MA6emXGl4cVrKmwzVIpD302QhJTfaY4aVZefYrS+qUcPm8fNjDiIvH3GMaxqNb6j1htQGVndBC+eaKJnXI3Gove0ugBg3xienDnK1mC5BFPB3K6MEET/z/wB6eP8Ae6E6IGdb4j/U5zWNVzrU1/lA5+zwYULoAxlUbQ/wTWfeIj1B/wA0X+ac0hnEuPCis4ZJthKEqDu2jBVdIIsUJ8xpdJxFpJop85qgurGMvi++0xbdAyG5QDnnXJ5hxD53KhVB2VmgTjkQpzcZ6n32WMAbQatQnJR1/DlxYb1TXZm5USzGT5Qz9V/kULpHkXToqdDuPxdeTzrqQQJD5KG8NLHP8cDC8qmg0iUzoTVAdCxFodypcaEqPtX4E1nLdpaYrNZoRkREIwZ/gugzBy6YuTwMx+ijkY53+Z26sF2nZrT2YSPH+ylicNIVStGtdq9jufF6Ok6pft1dVxQfit0MJs6G3AxX4O+ywwzXVIle3VF8kTaG2MUsU8bJIvluc1jVc7kHUJpjjnQ+ztlHopDST9p5Ya0Es0xPlU/trZAWBH8dhq3gtqrRp0WKyr6CYcaYi8u4U48vVH+eJE8larPTJVJUeUshbqrNNAd2OsRG5YLwxUfaYT1kMMNaKOGH9POeMG8rQbpKPG+3+wLX2fea5r2o5vbdDq5LJl2Tez8WnpbZ9FPRos6F1AuUcTMi9fw3f8Ys5swWmjT4X5LnNY1zncicisIMlEiMTjiO2OQj6ooXSCDag6l25SmdT480kiAMwPJ5uhZhpaS6LsMoaBFRyIqeq+MoFIfKuGOOJWe/KLy3IGx47tfC9YnlDK7ONkMH6eqiORUXlriSfPTTmguH5JnAMjoERhgYZgSeh1ypqIBweQTD7PGenuaS4ad6bNOrdrS17W54EngllI5KhyNscvZfRKiuWsxeRrbVEwJJoi0vSf3WczzXtn1fIRjTe/AmKwB/c3Uio5DHh8WKbRH9+Sai2cDp2twkiPzNNEuUqt+u+CzIJP5v3pAwrZir7/Iseu8Ook4Vhtl+OnsVZxOe5f2+MmbRLYzkzKbP3YqX6eKiORUXccDDDLpb2fNZHY42wr7qbPVpEsfWP4v1O2tMszZ3PC8uJrjR3r0uUzuprJCX1fs73q/vz5wuCN5238OTpavSj/BK1XlbYVkRHs5n0CJ/PPzBqpUVGE9lpy7XNthwRnQWkqjMX7PbWLHb1FGlSG1YqtP0HKSXAhWovG7lcCnTuZzgo4z/AMl8Osxn80ITYiTPuR+pVREVVN7yhRV0FC68xopI5Cb0kBF6Fij+nyoioqKggM2bzmfLvjBxOo+tfM8D4EiqyQWfZsp/6wSezZcYq+Efs212Sf1g/AuEFKklqgNHiq7a9L142o8TZ0QmT0G8MKKe/LXiK6rHubEREHxhuP3qnY3rhIX3o1IXz+jVUs1aNamn9LqaBLOkDwp+rPL4EjmDbdeKBaMeeh96D0PYyRjmPLYWvLL8UJg2hQHItM9f0ps833a1UfVqfxZ3Cs+K5AzsLv1ZsVq1yvNXs8g8RGMhYeazuc3la6jK5L07+pDPnppn1l96tAvpxjGzcoAE/VzkXhGkeWYln6Wg0WOuPHEA+gGHIveq99z91yHVX/qVfRdKV6fi3rhfLFTWvqHZP1c2mEz23pLCR2PH+m49vJK/MbqO8rKhPtufuuQ6q/8AUq9rFmGrGr5VukzFqOnQwnA6RLDe1MEEFOCOvW/V21VrXK0tezv+A3sWW/lg+tLZudR5QcUoFoEmp7n7rkOqv/Uq9Xy0NTxYzHcXandSsuT5LBZvFV/KG/rDsOP83ua3hf1uC1fG15LLb22mLAbNC4AGafWzxDBOJ4QBZ9IrZhERERE/WOzTq3a0te1e9nrIS31miA54Nlx7aAn/APqsf//EAFkQAAIBAgEGBwkJDwIEBQQDAAECAwQRAAUSICExQRATIlFhcYEwMkJSYnKRobIUI0BDU1SSscEGJDNQYGNkcHOCk6LCw9Kz0RVVg6MlNETh4haElLA1dKT/2gAIAQEACT8A/wD2exAAFyTiiqcu16+BSC8K9b4+52ipI9wJUv28ZJjI8MycwpuNXtMDYyO1Pzz0xz17UbFdFVU7eHGb9hG0HoP628u0cEq7Yc8PKOtFucNXVp3GGDN/1SmPub6nnqPsRcZNpok54KR5faLYrKuMcwghg+tRjKuUeyrRfqbGUK2VQRdXaOr9Rz8UAh/SqUe3Hieem+5ymkELRIeLlrXsGPG71ixSx08I8FFtc855zw0gE1rCoj5Eq9u/txUF6WRrB7HiZx4kq7mwcxu8ngJu0Mo2qf1s1LwuEBrqmLv1D7IkxlWeofa6KFiZfOU5xxk9XYb5GZ/Uxtijgh/Zxqn1aIEFVumQbfPG/EIkpZSBINbQy9u5sS+5qw7aaU2JPkHY2hHnwzJY84O5h0jDkUEziCq8UxnvJ8EEEXBGwj9a7ZscSM7nmCi5xGHarkNw/KUiZi7LidopUNxDnWI8xj9RxGaaoUheNK5gJ8seDg3BFwRpIrowIZWFwQdxGHFPNt4o/gz1b1xBLVQDfIfflHOj7HGKpZLAF4zqkj85eFL1NCOX5UB/wxNeuyWqhDvem2J9D9a+omheEHmM9oh7WPjql3HUAF4IbsBZJV1SJ1HF63JJaynxL+ycTBxqzl2OhO5hpwJLGdx2g84O0HFTM+YbjMObOnVbvsQk7vdUa2I89MVMc8LbHjYEdR5jhA8ciFHUi4ZWFiDhjxFNVmCfy6aTf6CGwbg/rW/9TV08Xr4z+jG0o7djuW4UV0YEMrC4IO4g4qWppxr4knknoBP1HFM1HUrqz7cg4kV0YXVlIII6CNOLi5908epu3nxliIkm14ZFN7bpYzfEaxV1NbjkXvWDbHXA11NHFI3WCY/qXBu7UMSOd5aIcWT+tb42vaX+FGR/XgWIo4PYGjAsi+CdjL0qd2KhqmhHKkhYXsPKUe0MTLST70lay9jnGUqQDpmTFbxrLujRmv1G1sUE8h/OFY/qzsZLiRDsLB5PXyRivEC8y5q+goCcZSnn5wzE26ixOIi552Y39WFKoMmn248bRQA+mRsE5xSc9hncj9a3eJTTuOt2GAAERVHUBbTUJFVhiUG5029hviRgxHerYWPWb4iziN7McRIh51UL9WipstLmHscDBMkSMtPBbXcJq1dZx31LRwxv0uF5X61kvHA0lNN0B+UmCM4gCVN6PvGm29mceTIwUfUe4XFRlFVQy+ItyWt0m+Ir0OSytRKTsaT4tP1rwiSlqoyjp9o6RgvUZMLWWpAult0c43HDCCr3wudvmHfpbIERV7E4z6zpm3vbAHpIsMQNNU1DhI412knGa034SplHxkzbT+tiNZI3Uq6MAysp2gg4Ahm2vQObRn9i2KeZ+JbNkinBSePtOJwxA5UZ1OnWNA/g55vQp4saduW6qfa+zEIfKeUoFmLnbHDJykQfrakWONBdnchVUDeScQSZTrYgViqqIBTF/wBU7RiaSJ0JzHBs2AIpNgnA5DeeN2GDIwBVgbgg7xwb5p79sl9KRU1EjONr25sQNKb8uSxCIp2u/MowSYqaCOJL80ahR+tlI67Ki6n3wQHmfnbFZNVBWBbPbMpoAegahgtXz9PIiHUoxRwR07AgxJGqoQdoKgWw4pJ9pge5hbq3piF4lvcwTC8b9KEfWMTCklA1pMwC9jY2ySh/pFjwSol9mcwX68SFzfYqn7bDGR6qrkvYcXG0h7QgOEgyVCflZAH7Amc2KypypNvT8BDiggpIfEhQIOs22n9bMtsq1yG8g2wQ+P1nDMlPHZ6mbxVJ9psQLDBGNSjeecneToUkVfUzLeOlbd5bHauMiyzUik2cFUDW3IHIL4+57KJkbUytSuLW5ywxPT5PjIsRJNd7ebDjLVXVtzQIsCf14yBTyyDw6m9R/qXxGkaLsVQFA6gP1tkAAXJOwDBJWeciEc0S8lBhAKmQCWpO8yNu/d2aGa9Q/Ip4j4b/AOIwZDTTPxscDanqvKbmjxGkUUSBERAFVVXUAANgH64O/XJ06qeYyKUGBdFm41uqEGTRBfImQ24sR7pZAbBepiLnAAAFgB+uH5GL/VTHgZPlI+mg0Nwxrlqa2d523545H64lJc5PmZF52jXPAx4WTpPbQ6JKilqxV0w54pf1rkAAXJOMu07zD4qC87/9u+Mh1dUdzTyLAPVn4yVk2AeWJJW9pcV9NF0JTJj7oP8A/JTf4Yy0knXSwfYmBk6fokgI9hlx9z1NKPzM7xe0Hxk6vpeoJMmPuhphI2xJiYG6gJQuLMjr1gg4YqsNZPS+ejgiPRFqOYHJ+UTuVJNaSHBuD+tTKkaTjZTx++TH91cZKSBd09Vy37EXGWKmoQm/FZ2ZF2Illxk6pnHjJGSvadmKeCm/bTD+jOxlinj8yNpPrK4y3K3mwBfrY4ytVfQTGVqr6CYy6466cH6nGMq0knnq8f1BsUAnXngkV8Us1O/iyoUPrxlipp0BvxWdnxdqPdcQQJlCnEWfJEpUStC10ZhirRpCgLwE2ljO8FdAExVEeabbQdoYdIOJbZSoBajlOyppx+tKrAlIvFTR8qaXqXDf8KoTuhPvzjy5MU81TUOSSFBYm+8nFYKZd8MNnk7W2DGTInkHxs3vr/zYFgO4wxyxnajqGU9hxSGjlPh07Zg+ibrieOtj8Q+9S4hmpaiMggMDG6kbxj7/AKbnfVMvU+/FUDIBd4H5Mqda8JaLK+TzxlO6amcKb5nXvXBEWWaVPf49glA1cYn4ukWOKJGd3bYqqLknDCjpAbI+YDM/Sb7MZdqTbc1mHoIwEWqfVBMgssp8Rhub8WxCor5VzkiJsqL4z4ylHAD4CU8RA+mGwkVZTkgOyoI5R0i1gcTLLDUJnq45vyvZKjKQuktRtip/83xNNVVlRJdnYl3djh2p4topk/CnzzuxSRU8XMg29LHaT3ejjnj3Zw1r0qdoOJTMm000p5Y8xsGalq4H6Y5Eb1EYKo+xKwCyn9qMMGVgCCDcEHeOBmhkjlDz5ngP4/mtsbBWKvhAFXTb0bnXyD+LW11VXFAx9Mh9jhcrLE6ujDaGU3BwLcZEjgc2eL/ixrg1UiJ0RxnNUegcJutLPHJH0CcG/sfldUER95U10Z7/AJ0hxDxkh1k7FRfGY7hgCoryvLqGGzoQbh8DgtMBZJ01SJhePoybJUoNXU48E4vU5OvrhJ1x9MZxOJYm1HcyNvVhuOEDxupV1YXBB1EHE7xwM5MD7R0wSYAgr4F++aQtcr5a86H8Wf8ANIv9KTQ+aQ+wPxZ86l9o8P6H/d/K2exsUr6hfXAh9vC23yykcmNN7HEfTJI3fyNzt8FjV43BVkYXBB3EHEZeLbJSbWXpjxLY7JI27yQDcwwcyVLCaBjy4m+0HccR50Uq9qncy9IxO8NTTvxlPUJqEic/UdhGCkGUqdbVVMPbTyD+K/8AmkX+lJofNIfYH4s+dS+0eH9D/u/lZJbK1ehEPPDFsMuEMtTUPYXPaWY+snADSGzTy75H+ERqldraWHYJ+kcz4cxTxEq6MDZhvRxg5sgsJ4SbtE/N1cxxZKiO7U83iP8A4nDPS5QopdY3HnU86Ni0VTFZKum3xP8Aap3H8Vf80i/0pND5pD7A/FnzqX2jw/of938q3zKakiMkh3m2wDpOGvJUPcLujQalQdAGI7V1YgIB2xQnWB1n4VF9+ot5ol+OUbx5Yxyl72aImwkTeMSZ8E6Zy845wekYjH/EqdNX55PExtXkTwEkLNGdqNiXPhnW4B2o29G6R+Kf+aRf6Umh80h9gfiz51L7R4f0P+7+VcnIitUVvn+AmEvRUdpZuZz4CfDIrQSv99IuxHPh9TYktQVjgEk6opdgfgjtDM9qpR4Eh2P1Nia2SK5wJ+aF9gmwQQRcEbCPh08cMa7XkYIo6ycZS90OPBp0Mnr2YyVWy9LlI8ZAl/8AyB/hjIEw6RUAn2cUNdDfeFRxjLECSHwZ7wn+e2CCCLgjYRw/80i/0pND5pD7A7gbAYyxAXG1IiZm6iI74o6+dulERMZBmI6ZwMZAl/8AyB/hjJdag8nMfGUjA/izxsnrAIxVw1Ee54nDr6V+AZXgLj4qImZ+0R3tjJtZP0tmxDH3PIB5VSSfYxkGH+Ocfc8pHkVNvrTFJW0pO/NWRRjKtPO52IGzH+g1m0/nUvtHh/Q/7ulVNLUDbBAvGMvn7hieopvLmisvpQtiZJYpFukiMGVh0EdxqYqeJdryuEX0tiaorZPzEdl9L2xkJQBvlnv6gMZOycOtZD/XjJVEw5lLrjIs8fTDKJPUQmMqLBK3gVIMXrPJwwZSLhgbgj4BXQUybbzSKgPVnYywJH5oo5JPWox7tc9EIxUVNPc7ZYTb+TOxMk8MgujowZW6iPx8bQUcDyt5WaO9HScNnVFXO8r9bm9hhbVMw46o89937o+GRiSGVCjodhVhYjFzH38D+PE2w4kvWUNo5Cdrp4D4jWRKlTGyNsKnbi7U8l2gc7xzHpGJb1dAl6Zj4dPzdafDKuOni3FtrHmUDWTimFPHs4+YB5OxdgxWz1Mm4yOWt1A7Bp5RliTfETnRnrRrjEC0kp1CojBaHtG1cSJLG4ujoQykHeCMf80i/wBKTQ+aQ+wNKRI40Us7uQqqBvJOIBWTbOPkuIR1Da2MpTSR7ogc2IfuDTqpaeVdjxOUb0jEYr4PHFkmGKoOyi8kTciSPrXugGUKseKbQoel8V7iA/EQ+9xegbdM2IxOa6lHxVQSSB5L4lMNWBd6eU2cdK840fnUvtHh/Q/7ujN7/rSerXwPIjwSWJuSdZJPBKTRV7iMpuSU7HXTqo6eBO+dzbsHOcQBE31U63Y+YmKyapl8aRi1ugcw08ozQC9ygN4z1objFIIjs90wgletlxURzwuLq8bBgfR3SU1laPiID3p8t9gxUDJ8G5KbU/a+3ErySNtZyWJ6ydCQmhr5BE6HYsjalcfj5/fK+UzT/sYcJeCm++JepNg7T8OS9RQXfriPfjD2p5DxNR+zfefNNjg3CL6ziwlHLhY7nGLpU0c9yhuL7mRugjUcPnQ1UKyp1NuPSPhQSqylvS/Ih8/FU88p59ijmUbAO5ycbSs15KZzyG6vFOJbOmVIeNgfVJGTDJofNIfYGjLeRr8VAmuSQjEnFUgN46WM8gdfjHudRJBPGbpIhKsMFIK9iBHNsjm/xfuNQsFPHvO1jzKN5OM6kyds4sHly/tD3ORkkjYMjqbEEbxiwklitIB46Eo/rGh86l9o8P6H/d0JuVrSpqUPpRNBbkZRp37I3DnStVZS3Qg8mPpkOKp5W8BdiIOZF3dzqSoJ98hblRSecuDxFciXlpmPrQ7x3GoSCnjF2dz6hzk7hgvR0Owtsml6zuGnfjHrYAvWXH4+a8NCRRR9HE9//PgcusmzE/ZxfDlDI6lWB2EHURj4idlUnem1T2jBJfigjkm5LR8kk9duBbRVYJbolXb6cPrhvVUnmE2kT4TN9+d7UVC/E+Qnl4JLE3JOsknSidhzhScIyk7M4W7l80h9gaFpayUHiIOfym5kGKhpp5DrJ3DcqjcBpIzG17AXxC6jnKkDTlvU97S1DbZPIfy9OTNijFlUd87blUbycPmxISIIB3kSn6zznSydVSrzpC7D1DGRa9CBc51NILDtGInjbmdSp9eiLF3nYdRkOh86l9o8P6H/AHeGbnSoq0PpSPRjzayeO1PGdsUbbz5TaLg15Hvsu0QD/PDs7sSWZjckneSdEEk7AMZFyhL5lNI31DGSa2G23jIHT6xpTPDPC4aORTYqRgLFlOBBxsY2OPHTTlzIk2DaztuVRvJwxSmQniKcHkxj7W04XllY2VEUsxPQBiPipkB9zU+9CfDf8e/g6eCSV+qNSxw2dLNI0jnnZzc4FjDTIH88i7ev4eLLV01j0vDj4qVZB++LH2eBbyxjjovPTcOsXGCc2nnHGgb4m5LjtU4YMrAFSNYIPweT/wARq0OaRthj8fBJYm5J1kk6FNaAGz1EnJiXE81fLvQExRYyPSQ22MsS53aeBQynaCLjGRaYOR38ScS1+e8dsVhf8xU2B7HGKaSCdNqOLHrHONP5pD7A4TqQWjTfJIdiriXPmlPYi7lUbgNCkkqJj4KDYOdjsAxXEtvgpt3W5xkWmDAd/KnGv6ZL4RUUbAosBwZIpJ9XfmMBuwjFVJRybRG5MsWKQohNkmXlRP1NoEhgbgjUQRiQf8SpABN+eTdJoyLHFEjO7sbBVUXJOCyUUJK00XR458ptCneeeQ2SNBcnFUQ/zWA+2+MlU8JXw8wNJ2s1zwxpIh2q6hgew4pjQVHytOAq/vJiNMoQbQ0OqTtQ4oaiOQGxRomVvQRinkoKHa8kwzXYcyIcRhIYI1RFG5VFhofOpfaPD+h/3eCfka0qalDt50TRg5npKZx6JX0SDlCqBWnXxeeQ9WHZ5HYs7MblmOskk7zoUpMSmzzvyYk6ziZ6+bxATFDihp6ZeaKNUv124cm01ST4bIM7sYWIxVtTyboJyXj7G2jFE8BPettR/NYajoSZk8DhlO49BG8HBClhmyxbSkg2qdGURQQoXdzuAxdKWK600PiLznyjoIzu5AVVFySdwAxMMnwEXzCM+bFHJWPzzyn6ksMZAouoxA4oaemVtohjWMH6IH41NgMZZhlmHxFL7+/8moY+5sy+XUXkPbHDigzegUD4yTR1KDaED08uKs5Nqj8VV2VeyTDBlYAgg3BB3jhaxemEH8dxFgXWWrhVvNzhf8QbYazN7JEOD+Hp3QdYs/CAEWUsgG5H5SjsBw5M9KDRy9cGofyfBnCw00RdunmUdJOoYa8s7lrblG5R0AaCslAdcMGx5+noTESRRRrmoiKFVRzADTpwxA5EosJYzzqce/UkpPEVKiyv0HmbS+aQ+wOGS9DQs0cdtjvsd9C8NHERx9QRcL5K87YpxGnhNteQ+M53nTp0ngkWzo4uGxnT5PFzJFteAfamh30L8pNzodqnEmfDPGro3Qw9RGg9mcCWr83aiaEedI2tmPexpvZjzYTPqHUcfUuOXIfsXo7t86l9o8P6H/dxPyNaVNSh286JowcjU9NTONvM76LhIoY2kdjsVVFycXVGObBH8nEveroRulKeVFTd68o535lxEkUMa5qIihVUdAGnSpUQuOUji4OM+fJt+UDrkp/O510HPuPKLLE43LLsRtF/eKchqry5dydS6EOe+13OpI18ZzhRUVxFnqnGvqTxR+NjYDGUfdtSvxFGBMe1u9GMiRwDczA1MuMvzCIm5hL54+glkGKc1Dg99Oc7+UWXEaoiiwVQAB1AcFLHMu7PW5F+Y7RipaFt0cnLTqB2jFZUwU4bceNpm61NwMZJ66ij+2N8ZQiqVHfoLrIh8tGsRg/h8owR+pnxsj42Q9kZ/EHxckDemQLjfKU+mpTh+NiaM9cZv/Vj81VR+w/wZu/tU1H1INCO+TaRxnDdNJtCYUBQLADUAB3GFZYZ1s6nd0jmIwS8D3emm8dP8hv0fmkPsDgfNqJ/veDz5N46hoai+t3OyOMbXOI8yGFe1m3sx3k9yjtQSv79GNkDufYOg/eXqKbqJ5a8LZsUETyOeZUFzg++1MrSHovsUdAHCheWV1REG1mY2AGArVswD1UvO/ijyV7v86l9o8MnFDKHFCaQd/mRZ3JHXnaMPINnpaZt/NJJpMRLW++TdEKHUO06EV6OF7QRtsmkXf5q9yMc0zq0VTP3yIDqKLztoX416mJU84sANCxMMdo1PhStqRcOXlldndjtZmNyTwpnTTN2Iu9m6BhNe2aU9/K/O342pXqqyqz+IgBzByNrOcVIpcmOSFiRjFD2gXZ8O9XJzHkR+gYhSKMbERQqjsGmNWJUp67dBDY55PjJ4OHdeMrYaeZR4cUzhGU42HKf9p8eDRyn8QD4uM+iRTj57B7Y4R+BqUYnoYFcbKymqID9HjR7HwY3QztHF+zi5C8KZ01RKsaDpY4HvcCAFt7ttZj0k9zUe6oQZaWQ7pBu6mwCGUkEHaCND5pD7A4DyaaAzP58uglqzKAEj86xeAnc4xJDMhR0OxlYWOLkRteJ/HjbWp4WssM68Z+zbkv6jwm0ldOkP7g5baEd1pyYqUHfIdr/AAD51L7R04feNT01M4/CeW/k6bXiEpih/ZxckcJs9TKEzvFG1m7BhMyCnjVEXoHcHVEQFmZjYADeScTMlL3stULq0vQnMujGVpacn3MCPwknjdS6Dd9eql9hNBPvzKCh/Ng2ov42gavyrOBxNHGewFzjJMNBEEK06Rb0JBe5u2Kt0v30RIIbsOo4hNLN44BKdo2riRXRhdWUggjoI0ZUjjXa7sFUdZOKWfKNRzRghB1scZR9xwn/ANNR6m6mfFGiP8oeU5/eNzgE2+6EP9CfOx/zL+02N9FL9a/iDwjAB/GU4+eQepxw7kRvoOGwbXyjDH/FOZ8FNjT0c0i+ciEjQQFaOMRxftJe6pmw1qipTrckPofNIfYHAe8qTCOqACPhW8TS5837OPlN3VeVA5p5PMfWugbs1IgbzkGYfWODZHTyTEftWzR7HCCWYgADeThVHEQqHI8KQ63btJ+AfOpfaOlD7xqempnH4Ty38nTNmhpZCp8siy+vQGqmhEUfnS9wqFgp4lu7t9Q5ydwxn0+S1bUmx5vKk0UeKk2x02ySXpbmXCKkaKFVVFlVRqAA0GukBSBf3F4e8nnHGdEa8p/UMKAoFgBqAA/Gp95pIS9t7NsVB0sSBi0srTkQ32CU7SOhBYLjYDVD2MbMJfmbYR1HE5eG92iOtT1r9oxalqjYZrHkOfJbgnSKMbWc2GMnvUvvndbIMZRedtogjayDFOkMY3KLX6Sd54Rc/wDGZj6C2B+AypC3YUdcfGxzJ/IW/EG2etiX0Atgag7v2ohbh+aSn0KTg2ZMqUjDrEo+C7TAEP77AaG2rqJpT2Hix7HdRYiWaI9TgMND5pD7A4DfjKqZ/pOTwj8BSpGDzGVv/h3UXZKYzdXEkSaHxM86jtctwbIqOFB6zwi6msRyOcRcv4D86l9o6MNqPbT07fH+W/kdwbXPNDH/ADh9AcuprZH7FATTmzEGpEGt5G8VBvOCYqSM+80ynkp0nnbQRnkdgqqouWJ1AADEayVvfRU+1Ielud9I34yvqG7DIeHZTUbdjSED8bG3u2reV+lKcf7vjfTJK3nTe+H68bVrc36SHG1okJ7Rwpmv466jisV1muIpJVzuLCC528wxVT5Rn55WKoOpRiJIo12IihVHYNH/AJpV/U+Bd4o45+riXDnGxauMN5rnNP4g/Ozv7K4W4hpzY8zOQOHYadl7W1DGx8rUantmX4L+jf66aGziL+lie67RlSP1xSaHzSH2BwfKv9fDtMlMPU/dRcGgqQe2M6Hz+b2V4PmsHC1rCo/0H+A/OpfaOhNHJFRuLUm9zuZ/IwLAdw+fw+y2gOU5qCf47jSbjKqQHiKZTyn6TzLibObWEQakjXxVGhA808psiKLk4zZ8qOuuTwYfJj0/nUvtHh2gUg9v8bbBSTH0vgWAgj9nH/Mo/wDSkxujC/R5Oh4tT7A02BVsp1RB7HxqjqqaWA9UqlTgFJoJWRhvDIbHB/8AMU6OehiNY+Hm8dNamT/pbfXgEGomsOlIuE2MrRIv0w2N1Xxv8FDJ8FB7yFvoyqdDWyCWNutJD3XbLVvL/CS39ehrZaaNT1hQOC11nkB7G4drJTyDsLA91tyqKWP+KOL0PDrJm4NjUkJHDvnMf8VCnwH51L7R0JsyVNo2q671YbwcERzxgLUU5PKib7Qe4bYamGQ9pzNDbBPOnpcvo5lRlNl1R+BFffJidpp5Td3bQgLudbtsSNfGc7hgCWrkHv1Sw5TdC8y9w+dS+0eH9D/u/jbY9PUJ9Bhg3aSigZusoL4BLU0sc9hzKbH0A4Otc4N15xOhsEMxHap0ahYwe9G1m80DWcKaaA6s741v8cQPSiOJxRwuLSMZRYyHgS0Ffasi/wCr3/8APhuXRTcn9nLyvhxF4YjxY55G1KMXeSRusknFrxRANbYX2se08PxkzSfwxb+rA5FFQyN+/KQnwUcp6KbN84LcaB101QJl82YW7q10oacIf2knLPDtnnjjHW7AcO6umYea7Z44TZKyN6ftPLXur3lrqgX/AGcPKOgCGkR5T+/IWHANUtK8PbE9/wCvh7+nnjlXrjYMMNnRzxJKrc6uLj4B86l9o6M2ZKm0bVdd6sN4OCI54wFqKcnlRN9oOmLu1K7qPKj5Y9Y0G1hlqUHXyH0JFkrO9lqRrSHoTnfDs8jsWZmNyxOskk6CmOmQjj6lhyEH2tiEKNsjnW8reM57j86l9o8P6H/d/GwuaCr5fRFUYb3+gcjrjkJZThFeORSrqwuGVhYg4VpsmM1wwGdxY8WX/LHvch3HYT0Hh+byfU3DMkUS7WY2xF/9xIPZXAanpJD/AOcq78sfm12tiD3bXptrKgAkHyF2JwpefJkvL6YJcPmwVX3vL+/3p7D8Ofkw2mn8894uFvDSe+t53gDQ72miWLt744Wz19UI0/Z0/wAFFwcbKeodF6VB5J7Rwvm003vFR0I+/sPdGAjp4y1t7tsVR0k4bOmqJWkc9Lm/CLx07mpfoEQuPXwjkV1Mjfvxcg8LFZYpFdGG5lNwcWHHJy0B72QamU9R7o+dSU3vFP0qu1+08KlnkYKo5yxsBi2ZTQRwjpEaheBbyUM6yHzH5B0JL1NByVG8wN8A+dS+0dKbMlTaNquu9WG8HBEc8YC1FOTyom+0HTFkhnbi+mNuUnqPDfiQ2ZOBvifU2HDxuoZWBuCDrBGHCooLMzGwAG0k4mKU+tJqsamk6I+ZdHPp8mI3Kl3y+THiBYKaIWVF+sneT3L51L7R4f0P+7+Nkz4KqFopB0NgG6E8W5BEdVTnFQsFWQA1NKwDhvJ8fHeupU9Rxm0tT4vxL/44p3C7r83Oh2MMOGX1jrx82k+psEBQLknUABgCqn8f4pf8sJJWVRBYLcKkSbC3Mq4KZRyiLER7aeHsPfnRQSQVETxSJuZHGaRi96eU8W5FuMiOtH7Rh71UFoajnLLsb94fDDyIEJC73bYqjrOGzpp5Gkc9LYS1RUe+y84vsXsHD3kMbO3UovhS89TMTZR3zyHYMW+9adVcjfIeU57WPwZPeqyMRS/tYtCW1fSpaJidcsI+1e5y3oKR+Uw2TTc/UugtmnYU8HmJrc8K3nydJx3XHscaElsm1jDPJ2Qybnwbg9yl+/apLSkbYYT9raC3goR7pfrTvBwi8U8LxSHocW1YFpaeV4361NuHWYzZ03SIdqnEufDMurnVt4bpHd/nUvtHTmzJU2jarrvVhvBwRHPGAtRTk8qJvtB0k70CnqPrRtCrEMdNGXppnPgDbHjPp8mA97sefpfRR4qHbFBsefpPMmI1jjRQqIoAVQNwA7n86l9o8P6H/d/G9KJUFykg1SRsd6NiePKUG6M2hnw9bT2+IrIyQQNy8Zu6sZOQEXBlpifZfDRVMe1o21OnTbUR14d54d6bZV7PDGKZRPDE0ZR72ubi5HbjP9zE3BPvUA/yxIaqTxByIx9pxSRxz0Bz3SJQnHQfGRG2242dOJA8NREksbjwkcXB0ob1+TUPGjfLTbT2phj7jqLRVA6Nz/u4YMrAEEG4IPcMsUquNqq+eR1hL4yxTNIdil8wnqD2+BSXo6NznkbJJthPUuFvTUtne+xm8FdBuXUtnSdEaf7nCXpMlAVL9MuyIfBwokcZ8DndKmtThCksTsjodqspsQeGZop4XDxupsVIwyU2VUXvCbJP0x9xnuxulTUp60Q6C3mqJAi8wvvPQNpwPeqaIIvTbax6SdZ4VDI6lWUi4IIsQcAmAnjKZz4UTbNCVmodkM+0w+S3kYkV43AZWUgqwO8EdwKTZSlX3qHxPLkxM0s8zl5HY3JJ0EtWVxE0vOq+AmhGeKqAIajolUck6F5qOUjj6cmwbyl5mxUCWM6nXY6N4rjd3b51L7R4U+aGOQd/E/vvKXCXBuYZgORKnOuhLmSxnWPBdd6MN4OCEdLCeAnlxvoi8VTEUfnF9hHSDgWlp5CpO5huYdBGmCWJsANZJOILyamho32L0y91+dS+0eH9D/u/jmliqITtSVA6nsbET5LqNz02uLtjOAZaRH5FdTbF88bUwVSuUdQmA3jp5xhFJGwkaBP/AITXz0y32mE2kj9TacVskV8hMVtkEu0xYk9/gW9Kx8OMeB1rpP79VyMsa7TZFzmY9CgYp1qlcWYSC6nsxkumooXo2c8TGEDuX4I3q8i5Rp45E2lqcuL5lzsYeLiVZYJkDo42EHhkSNBtZyFA7TjLVAz+KKmMn68EEEXBHcpPv6oTluNsMZ/qOELyysFRRvJxYsOVI/jyHaeFgqIpZmOoADWScA5jNmxLzIupRiPNraq1RV84d9ifuD4RFzLWovoEugxVlIIINiCN4wj1cI1CpX8OvnePiuinFrsAbOvQynWNGvjiNriIHOlbqQYVqKhbUx+OlHlHcNGK1VVJaBDtjhO/rfRQCvpSz03lc8eFKupIZSLEEbQRoN7pob3alkJt1ofBOKsQ1J2005CP1LubRqYoIV2vIwUevCFn2GskWwHmIcTPLNKxZ5HJZmJ3knQj/wDDqNwSDsmlGsJoreGeMqedTuYdIOEzZYXtfc67mXoOhVPBMNttjDmYbCMJ7in2cctzA/2rieOaJu9eNg6ntGhPHDEvfPIwRR1k4Rsoz7mHIhHacNSKt7hBDimSld9S1EZJiLeWDcro/OpfaPD+h/3cJcHlRyL38b+MuFuja4Z1HIlXQlzXXUynvJE3qwwcx0sJ4SbvG+jHero1IlQbZYR9qaULzTytmpGgzmY4VJ8pbVG1IPN520Kz3XOvxNNaT0tsGKKCjj3M/v0mMorUDwopIkCEfuAEYTiauEDj4CblOlTvU6fzqX2jw/of938doro4KsrC4IOogg4R0pYn4yemTbT+XH5GLByM2VRudduhfMSTJzdrwnThD0tQmaedTuZekbsMySQuJaWoXUJE3OMWSpjslTF4j/4nQcJHGhd2OxVUXJOEImrg0OToj8RRKfakPBG4eIkwzxECWMnxTjKNRXxwuHSndAiHz8RZ9PURlTzqdzLzMp2Ye5hkcwda83Q68rEqxwxqWd2NgoG8442OnnGfErIUd03NY7AdoxkanqqmKJAkrxh5IQ7gM6HgkaaHJzRcbRNdhMHuTmJvItgcTWQ6p6cnWvSOde4Wkr51PEReL5b9GJWkmlcu7ttZjiO1VKvvaHbEh+pjoPaWoF5bboub97EN8n5McML7Jajai/CY1eJ1KsjC4ZTqIIwrNk2dvem28UfEbRleKRTdXRirDqIxlQ1Cc1Qgl9Z14oMnN1JIv9eKTJ8XSI3Y+t8ZYmiQ+DBaH1pY4YszG5JNyTow2okIaCF/jyN58jThLSWz6yFR3w3yjSyvOIx8XIRKnYHviCgn6WiYeywxk3JwPSsh/rxWxUwPyMSj1tfFZNUyeNK5c+vRBjpIiDUVG5BzDnY4iEdPAuaij6zzk6SKuUqZTxP51d8ZwjJIjFWVhYqRqIIOjWz0z+NFIyH1Yyw8i80scb+sjElI/XDitipx+ZhX62vitnqX3GVy9uq+g15I0eAt0ROVGh86l9o8P6H/AHeCLORtaOO/jfcynC3ja5gnA5EqaEljskjPeSpvVsGzDkywt30T71bRhvk+U500S/EMT7B0WKsDcEGxGMuVVhsEhEwHZIGxWwv50CYyqE82CLGV6qWJtsZkIQ9aiw0GISedaaQc6zHM0/nUvtHh/Q/7v48UMjAhlIuCDuOAf+FVTpU0XMhe4kj/AHNDZU5U4iPpWlQLfuAEVXHd6Oo3xSf4nfiB0kgfiqun8dOj61OJRJBMgdGG8HhNpKyWKmU/tGwLQ0sEcMYAtyY1CjRFjMlGH6S5MONeS8mRpWZSG6V9sUB4EV43UqysLhlOogg7QcVFfSQs1zBE6FB5meDimENOrFjvZ3O1nJ2nEeZFWTFKyIalaXafpjDZ0csauh51YXB0rTV8qkww83lv0YmaWeVrsxxHZRZqeI7/AC20DyI11DezblHXhOMrK6b91F3k8yoMD3qBLFyLNI51s7dJ+FQpPDOma6NstgPUZMY6pdrRdEndASSbADaTiErHtiojtfplwoCgWAGoADuEQJJLzUaetosAgg2IO0HugamyaG5U52v0RYp1hgjGpRtJ3sx3k9wVYcpINY2CcDc3McQPDPExV43FmUjugKySK8xB3CViy6HzqX2jw/of93hizkbWjjv433Mpwt42uYJwORKmg54iukSmlTnLmyHsOigZGUqysLgg6iCMRNNSa3kphreLzOde6ITHSTJVStuUQkMPSdP51L7R4f0P+7+PUuIYnlb94gcJ9+f3uAc8j7PRtwLTJBnz/tpeW47CbdxiAyxSJ73+fjHxRwWjpZpSoz9Rgm4b3pso08vovhg0ciK6EbCrC4Oi2dDQzCIN/wD1Uu38+LNNXZbmH/ThAzPa0dsVVTOvWXzcbRT5nYhKjRKT5SI60g6X6ejErSzysWd2NyScRdMVOw9cg0SzUsL5sYHxr7M77BiEf8ZrUBk56eLdFwzRxLzuwUevGVqL+OmKqGYDdG4f6vg6hkYEMpFwQdxGGEEp20r/AIJvMPg4o5aaUbnFr9KnYR3GkK0++pl5EQ7d/Zge668D8PINSH82u7uZFHXn49F1SHyxijbifBqI7vE3b3GjlqJN+YNS9LHYMOlXPtFMv4FPP8fChVUAAAWAA3DuURjqEFo6mOwkX/IYgNVRjX7ohUkAeWu1e4glibADWSTiEw0q2dKVu/l88blwLAaClcyrkK+Y5zlPaDwghKmeKJOniASfb0IOMjPeMLBkfxlO4jALwOSYKgDkyL9jcINoapKhzzLAeM0x7hr2ueNjHJc+WuKMy0yn/wAzDd4+3evcYzQ0W+aZeUw8hMRa2sZZX1ySsN5OmCGjrJR1gtcHtHCCFnniiTp4kEn2/wAeSCOGGNpJHOxUQXJOIRFBU1kpo0tZhTryVz8D3pj9E8AvkfIREnRLNu7nDy115QhT/WxJetpU5DHbLEPtXgAMkkV4v2icpfWMSWr8koKeaI7TGmqN9CVXyxVRkU8W0xA/HPgNx1YM2HO28Ve5f9841SwZZnzh56rokcbWVwf9yAYFnWlQsOZnGcRwmwGJLv3stYNg6IsK8s0ragLszMcASVm1U2pF/u2i/vjj74cblPgYg6aCB/8AXI9jFVFS0sQu8sjBVGMgmeHZ/wARrrwwdaJtbH3bywBtsFEhjj/lMeMpZSlkO1zIn2ocVuUv4kX+GMtSIw70TR3/AJ0IxlKqqKVNpVzVw9qSXIxQCDcaumBKdbx4qoqmmlF0ljYMp+DUcNTE21ZUDD14qJ6Bzu/DR+hsT0lUnnGN8ZEmPmOj+ycfc/X9kLHGQK3tiK4ySYhzyyxpjKtNAPEhBlb15uKVqydfDqSH/kFlwoCgWAGoADuqhlYWIIuCMUz0M2+SmIRfoG4xlSnnG5ZlMT+rPxknjRzxSxtjIFb2RFsfc/X/AMFsZEmHnsie0RippKRPOMj+hcTTZQkG5veo/QuKaKCFO9SNQi9dh3agEM7fHU9onPSdxxleOQbkqEKH0pfGTBOvPFMhxkCv7IWb6sfc9lLtppF+sYyFUDzysftkY9yUvny53sBsZXlm8iBBGPS18ZNijltrlbly/SbSmWmyhEmarsLpIu5XtjJPGjx45YyMZlBTDv8AlrJKfNCYi4ungTNjX7Tzk7zowLLTvu3hhsZTuIxGcoUm7Mtxy9DLjIdSl98oES+l8SLNlCcASyKOSi+IncaD3NMfjaYiI39k4yvDKu5KhDEfSt8ZJMy+NDIj4+57KR6qaRh6hj7nsp9tLIPrGMkPEvjTOkeMrQwjfHTqZG9LWxQiWZfj57SydY3DuLJFlJVzWVtSTKPqYYyDVkjfGnGD0pfFN7gpvCkm77sTCZsFOmavOTtLHpJ1n8eS/fuVnBqiPiaUYQJFDGsaLzKosMC6kWIwTJW11kjVNbhHNvSdgwFNS3vtW48KZ+5qGVgQQRcEHccXWgml42lbdE/hQNjUsq8pN6ONTKeCSSOquWnhi2k7yF8MNvXGTZqOpTU8sALx9qHWuMvdgpp872MUE81VJyVqJ09iMXLYlldpHzzDI15ZT+c5lwAABYAagAMPxVLlsiamYmymW5ZR6yNCRY4okLu7Gyqqi5JO4DAY5GoLKt98KH65TwyLHFGpZ3Y2CgbSTh2ioNayS7Hn/wBkxEXkb0KPGY7hi0tW45cx9leYaJU1sw97G3MXxzhGOS4pSQH21cwPsYRpJpm4qkpIReWeTciDEi1Ew10+TV10tJ2eG+AAALADSQUdcdfHRjkufLXDFEc8qM3amqlGCY6iOwqaVjy4WP1qdx/VkbRU0d1TfI51Kg6Sccqvyq5MfkQ9HA+ZDBG0jnoUXwl4KKW8A3cce8Ufs17qtuOW8Um+OVe8cYBi42YxFTsSoTYR0Pw5Opqg+M8YLdjbcZGS/wC0kt6M7GT6enJ2mOMBj1nhfiayC5p5+byW6MZJlr6ZORHWoeXbztkmKmrg50kp2PsXxQV1bJ2QR4T/AIXkXPuUsURvtlOE1bZJG76R/GbgdUjRSzMxsABrJOGaPJkbdRnI3t0cwwuZAp98mI5K/wC5xHa9s9z37kb2OjypGuIYt7t/sN5wZVyWkl5pdhmYfEx4CU1BQU4sqgABV1KiDnOwYjtXTrakpjsoac7EHlnwjwkADecSI48kg6MIkifYfCRtzIdxGHzlBJifZHUw70fFWkVWE98o5SFmQ/1DpH6sZSaCgk42uK75R330BhAkaKFVRsAAsAOAky1bCSVV2lFNlXtbAAmWMSVLDfPJrfuyGN89YKl13OmuJ8W9/gVmA3PsYdh7goZSLEEXBGMh0JY7TxCDGSqSF/HSFQ3p0JfvaJrVLqfwjjwOpcZ0VED3/hSdCYiWKJBZVXRfNjTYBtZjsVek4L0+SYHtJJ/ai8rECw01OgSONRYKBgg0ORohXVSbpZ7DMB8zPGDYDGUkmkHxVP763VydQxkSV5SORJJyyOkomMqMGJJCE8aw6ABZVxU1ufuYSKCOqy4yvLXxJrakrffSfNfUcRmgr75vFSHku3Mp5+g6Gq/KiktcxyDYwwXp2gqVSZk75ADrZezWMfdVLV0cRW8NWOONiQoAL3xSxwVtEY88xd5Ikn6rgC8MVoEPhzPyUGLvU18zASNtKA3Y9rcPLpKOVqjoEVLqj9Ld3UM89K/FftU5afzDB101WwXzXAbur2rqu8cHOg3yYVhRKeozNzDo5zhAiIAqqosABuGjIEiQdpPMOcnBelyFSPZn/tx87nEcdJQUcJPMkaILlifWTjIOUcpuhsJrCKEnFRT0VbXF+NdysnJdg1lFnx90VdVqSDxani4wfN1jGT45GtYmUmS/Y1xiJI0GxUUKB2DQtDWgcmUbGtufBInBCU077+ZGO++46CcoEQVNh9BzgPVz0jqI1mcuiRsNQVSbY54/bf8AVcSxFp5kG+WXkRLjvKeFIx05o28DWcQGND5cvIGBreSKlQ+Zy3+AW4uGtQIB58g7oQABck4LDJlMwjQ/m12KOl9pxT2iRQqACygDUAMOi+vFT/Jip/kxIjerDCKMGw3l25lA2nGfSZCpXszD2E55DimSnpKdMyKNcamMcMfZLMiHFXxUrE3Q60dQbWYYyc8R+Uh1qew4rI5TtK3s461NjpzJFVw64CTZn50w966jskvPIm6ThtaohZASL5reC3YcApExMNQDtXp/dOCGRzER2yP+q0gAC5JxriFTLUp0RQ8mLhNjPVZx6ViXG2qq6ib0Hiv6O7m0NNBJNIeZY1LHHfVNYoJ6VBc+33Q2qcoSLRxdHG98exQcJyUGzezb2fAsNCYRQRC5J9QA3k4ElF9z9MxSM72G9Y/LO9sUyU9JTpmRRrwLupj6KmPHgOwH14UMp2gi4w7QuNYtrGLV0A8blN2N32JDSTeLL3vY+CCCLgjBsBip90SeJBy/XsxQDJ0B+Nl770sPqGK2StmNiy3IUnpJuWwRHQ1BGeNwgmNm7EOgDmySicf9YBz6zjaBQ/3f1WtaT3I0MbeXUHigR1XwO9SKFT5xLHh2BKg+kpgAXim9cz93f78ynrl50plP9eFtLKpnk65dfBWJG7d5EOXK/mqMZESjgPez5Rcqx6oY9eMuqDzU9KiD/uGTGUqmcW7yRYQv8iKdM3WiWUxJ+dksM8+aNmjMIoIhck+oAbycJJR/c/Eb0dFcq9QPHbEKQwRKEjjQZqqo2AAcINxSZ/0GDY74SknqIGhCrHn3+kYylPANZ4snPjueg4yjUyQmQiOENZTmGxbFFFGw8O2c/wBJrnh76Kcx9kgv/TgkuacI5O0vFyCe0jh2TUeZ2xucfoH974DIqLzsbD14yhESPFu/s3xX/wDak/xxlGMG/hK6+0Bipil8xg1vR+pjbV5QS/mRITjbNXP6FVRw977+nsnG2hq6iE9rccPb7s1z3sEI76aXcgweMTPE9V4gRe9iHBGKiq2S1m2KIbyuJTX5Vk5UlVNyiD5F+7TrFDHtJ2k7gBvJxTtFk6Mh8m5LfeN004wAABYAaAzmOSawgdIiJGDvj+3S8F5h/wBwnQHemIj+IBjZBWSxjtAf+rh3NUr7GP0D+93eURxrtY4j4lPlW1ueobBieSV+d2LHQYqw2EGxGG91Q8znlgdDYludjodTJ1j9S26OqlPaUGPDknb0SFeEXkopVn/d71sPaHKajieiePusudO4PuelQ++zH7F5zi8s8pzKenTVHCnMPtOCHmblzy+O+JLRbK2sHehN4BG7EdthkkPfytzse6sFUbSTYYyrRoRtvOgt68fdFkypqKfXBSPXw8QreOY762xVwTpzxSK4/l0ReSWgqI0HlPGQMGzOFK9NtL5SX2zobZXiVesOGxsevlYfQQcNs8VTexj9A/vd2ayJu3sdwHScGyAni4x3qDgpmdRtfYg7TivVTvWJM71nFbUfy4yg628dAcRCaJdskWsDrG0cEma6nsYcxGPNeM7Ub9SuwZO+uU4/SP8AXfhQPHIhR1OwqwsRh3QxSCWlmGolL3VgRvGJETK9MgFVD4/51O5EAAXJOwDHF19cLqajbTw/5nDzV1fUG7Ox2DnO5VGLTV0o9+n/AKE5lw593VSjjGTbHG24eU2FBq5gJKl/L8XqXQNgMK9bKzHjZU1Qxou052/uESVNauqRybxxNzdLYmMUTa0FS5jUdUaDGWoU8yEv9ZGMswOfLiKfUWxTvLmbJqNyxHYLNjKLVsKGzQVoMv8AP3+P/C602AWZrwueiTQsk7kyS0BNlcnfCcQSB4mzXjkBSRCNxviQE71OphofKS+2dBw7pJxstvAIFlGBZpEebslcsOHe1SfYx3gjox2kv3ZvvaElYxuY724ARTA8hNhlI+zCKiKLKqiwA0Utm3M8Y9teBrU8xCS83Q3Z+pXYcm/VIcfFSzp6ZC+gVjq4btTzHcd6nyTh5aLKFI+ojaPsKnBXJ1bs4/4iT/DEqSRuLq6EMpHOCNJgqqLlibAAYqv+JVg2Q0vKUedJif3JQbqSAkKf2h2vhDS0O+eQd8PIG/EGbe3GSNreQjexwbRwxPI55lQXOBnZryVjjzO8HYSNCZYoIlLO7bAMRy0P3LRxFIVU5lXlBybBVPgo2KVYKjKJMixAkiCAm6RguSdCdopGyjSpcbwz614WtWVJMUHk879mI+MrJ+XAj6+LU+GfLbRpBx1rCePkSjtwfd9MNyC0y9ab8Xr8mpyTTSnlxDmibFWGKAGaB+TNF568NJapAslXCQkyYlXKcC6wE96qBikljlj1MkqGKVesHEoDHwW1Hg3vN6pCMSKiKLszEADrJxnVko8Tkp2scUc/F7xTKVVfPlOzBV5pp1hUg3UszZt782BaKGNI0HMqCw4dkNIZO2VyD7OPjamni/hKT/X3U2lqDxS9APfHguIxy5TzIMKFRFAVRsAGkLg7Rj8HfPj8xtY4Dc8Xmsd5ZOSfq0KpIuYHWx6gMUs0vSSEGMk/9/8A+GKCaNfJcSfXm4q0LHajcl/QdGKpMkRsxRVK9l2GKerzmdQLqgHtcE+dINsUfKft3DGTHcc7ShT7Jxk51HOsoY+sDE3v20xvqbgZVUayxNgBjPqWHiCyek4yX6Z//jigljHkOJPrC4qA7jah5LL2HQiqTJEbMUVSvZdhiCrvI6oLolrsfO4KjPlG2KMZzDr3DGTGYeVKF+oHGTCB5Mtz7IxNxMjbFl5JPbs06njXG1IRnn07MZMdul5APsOMl6v23/xwksB6RnJ/LiZJU8ZTfSqQZB8WnLbGT5H89wn1BsZJ/wC//wDDFHNH0qQ4xVJIVF8zY3aDpSpHGu1mNgMCaobnQZq+lsZL6iZtfs4ydIg8iQP9YGKkJIfAl5DH8khseop37bOmG5Ucq1CDocZjaMREqD3udNUiYi930w8OEXcDykxlSroiG5UaOQpPlIdRwaGt6ZoMw/8AaKY+5qCT9nUmP60fH3LyjqqwR7GPuXjQ+XVmT6kXC0FDzGKEu/plLYytV1lzqjdyUv0INWKT3JAfjajkehduAa+pHhSi0YPQnDviSPslcJjaKVR2F9B2/wDp3JLcZUlNk5H+eLDJmSypqEj1JnItyvUi8kYAAAsANCMvT5GqKaevlDWCyS3WKPBurAEHoPBrgSJC69pkf0quAAALADgmlp6aeTi/dKxGRI22gPY3F8ZMGWsnOgcy0sw43NOxkjsQ46jioKVI76mmGZKOGMU9buqYxr/fHhYlkpp0YmnqoTyH6vtU4zKbLSJrXZHUAb49DJtPVxbhKgLJ5jbVxWmNvmlSbp1JJihnp2BICzocxreI28dRxTpLKzvmNmF5LuS2oDDvQUxNw1X3/wC5CMQvlWpG+p1RdkYwI4KzKMZQpEAggptjfTwnvNECsXTM4+waBJSKUQL0cSAh9eBZ66onqf7Y9Sd12QRAnzn4ByppMweancEkMiJmAq1tWFn/AImM7ilYsAxudfCwafY8m0R9A6cSM8jG7MxuSdAkEG4Iw5eLYs3hL53OMEEEAgg3BHD8oPZGPlU+vElnFxLKPB8lenBuTwuVdTdWBsQRiUJLSL76fGXcwGCY6YHkRA+tuc6EjJIhurDaMACpiIEqjZ0N1Hh+UHsjHziL2hiQqouJZl2k8y6LGWl2BjraP/cYYMrAEEG4IPDIEjQXZjgmGk8Uai/S+jM0bg7th6xvwFhrFHKXc4510JCqKSJJl2seZejRdkdTcMpsRiwqQvJcauNA+3Q5c7/g4t56TzDExc7l2KvUNEmelvv1unUd46MSB0cXVl2EfkgheppgKuEDe0GLmK5jnA3xPtw4eORQyMNYKsLgjSydBOfGZeWOphrxPVUp5gwkT0NjLED+fEyfUWxX5PzPPkv7GMswp+ziL/WVxPVVZ5iwjT0LjJ0EB8dUu/ax16O0LCexZVONk1E/pR1PC1ppgKeI9MuFtLPDLXydIGqJMEyTlQGkO96hy7HQ7ynheQjnzRqHbgXyjlEQ5UqnPjvKr+pMNdvcyxufKi5B4CBT1cBgzjuexj/qHD4KxsOsSDFNNJkuQCTiG1SQiQXDxYr44MpbVrafU2fuFQmEENSPwFb4Eq7iTwwLLDINYO0HnU7iMTyKgfjaOrTkm6/U64ITK1IAKqLc/NKnQ2jGsiHarC4PWDikhgvt4uNUv6OB9gIhhB5c8m5EweNra6awHgRJzdCIMa1iXlPaxdzrZjw294hLKDvc6lXtOAZamrnWNBvaSVrD0k4AEVJTRQJ0iNQt+67pin0OTwCxMAcn9py+6NaonuEO9RvbBuTg5kCfhJeboHOTilRnG2Vxnue04GrFDESR3yjNYdowWkpGNgx75DzNwSmygtAT604flB7IwSCDcEYGvvnc7FHOcQiebfJKAfQNgwBa1rYiSGqAJXMFg9tzcBNjtweLgQ++SW9Q6cUqZw2yOAzntOFDA7QRcYiEVSils1NSSW3W4O8nUoR6xw/KD2Rg2Iwmc7egDeTiEVE++SUXF/JXCgAbAMUcR8oCz/SGGMlK5srnap5m4G2KWhJ9a8L/AHvTsQbbHcbTwAhWsUg2XHO2KaKJR4qgYVWXmIuMRClm3NGLKT0rhM2RPQRuI6MOUkRgysNxwLOeTIvM42jq4DmyTEQofO2kdnBcU0bZoUai7YpoogPFUA4AIO44plR90kQCEejbjWCM6N9zLhiskbBlI3EY2SxhiOYnaOA8iJb23sdwHScNd3Ozco3AdAxGXkc2A+09GEFTPvLi6DqXCqo5lFhikikvvKi/YcFngFy8R1sg5xzjga8U5Jj8mT/3/JGK2Ta4tNSncvjxfuYmtATalmbYhPgN8BlFRW1ELxcUmsRFt7nBsJJjCf8ArAoOHZJNNJ2xgAe1ggGpFJAR+ap4w2Nr1xTsRF0D/wDy+U4Y5f2EbBnwmuooJ4Y1A2FkIXDcqJxUReY/JbgOZIDnwS745BgGmqU5MFa34GoUby+JFeMi4dSCpHXh1noKWZJsoyrrjYobpADvJOtsQLItigOxkPOpxXz8n5I2ltzMuxxjJtqqK/ubKdMlpIZPLj9vFRnwMQlLUHwDsCEnweFeS4uj743GxxgWqKKbMmj3TRHaOphiXPpqqFJUboYXsekaUq5Syhs4mB+Qn7R8F6mqk5MEEYtHEvMg3DBWWvmUcfMPYTydB9URE1T55HITEd6XJa8jpqJO7G5NTKT9I8G1YUHVYd0N44jxUfUmBdmIAHOTjaBdz4znadBAySKVYHmONsUhW/ONxweXFIrjswbq6hgeg8Hyg9kcA99qbSueg96PRobFqZAPpcAswQPJ0u+s6GxZpFHUGwbAVUV+rOHD8oPZHAvvtTsPMg0EvHKhXt5xjv4nZG61NsH8FICereMHB5YTNj859QPZwC8MI4yTmNtg0UHHUpv+4do4GskyZ485OA6i8h4CM+KVw469YOhEGmil3kLyGGKVP4qYULJGX1Ag6ixPBqCjjZOs6l4B7/VC994j3Dt0BgWivnx+a27swbOjBlPMQbjGyWJJB+8L/kgLA8qGUDlwyjY4xDmSprRx3kqbnQ7wcF56Mao5tskP+S4qEmhcXV0Nwe61iRta6xDlSv1KMBqGkO8H35x0kbMUwhpbMRU1JKJIRuTAtJBKrgHnQ3wbq6hgeg8G9KkegphwUGRY6sf/AHX/ALJj57L9S6GtMn5Nmm6ndWHACKeKtc2G+mqOV6gcMGR1DKw1gg6wRwU8c8L7UkUMMRVMUbG7RRzsEOKdIIE2Kv1knacblzvRr4KOORvH71/pLY4mmbitbxvZuTzggDZh86sobI5O14z3j8Ke+U9oqjpjbYew4m5cJNRRg70bv04KqGBeeR1T2sfdHRuw8GBjUH0RBsZJqKqTdLORDHjKJp6RhY0tLeKMjp3tiI0VGdfHTDWw8hNpxDy2/CTvrkk6zoFWqpbpTRHwn5z5K4V6mtrJ7AbWklkP1k4IMoHGVMg8Od++PdhYiplB7GPBvjUj0dz+Khd+1RfBuTgcmMmU/uDVpD8LAjHrF14GvaEJ9Dk/ZwfKD2RgXJxsRFQdSi2h8ucbGkUHtOj84l9o4+cRe0OH5QeyMbScd7HGqD90W0VsJY0k9Wbway1PGT12w34SV3P7gsPa4Byp5iOxNHZIjIephbG0GxwbXmCfT5PALtTPnnzDqPBJmnYynWrDmIxE9NJvfv09WK2KS+5WGd6NI3CzGMdUfJxtYgDtwLKihR0AC2j4Ubp2KQRwN3gdPosR+SMNyLmCdNUsLc6HEJqKAtaOtiBMfU/iNiqaME8uM8qN/OXELUU3ji7xHFVFPGfDjcOPV3DKlLCfFaQZ/Yo14hnrX3EDik9L4dKCI7oe/wDpnFFK8ch5VZUErF9M99gjKlcNzi1MnUm/AAAFgBsAwLcRX1EVvMkK4NyaKEN1qoU8A/BVZTskTG2ko46VPMiJzcfPZfqXQOzJll+hEeCI2QClq/rjfEvRRyt/pE+zo71PCt45UZHHOrCxwc0SzNRzDzzm+1wi8dRE8bdTC2CyT08zRkqSCHQ5ptijr3uotny6/QzYyO+vnmiB9bYgp6b9rMD/AKefjK4HjR06fU74oFedbWnm98kuN4vqU9WjIGmYHiacHlyn7BznDl5XOaiL3qLuRBiG2UXT72gO2nRt7eWe7752f6fK4D31PHndYWx7hNHGDsLsFv6cV9N/FXE8cltuYwa3owSPerfSNuDatNYHrYaW+FtXbwfnf9RuD5QeyMeONH5c4+VT69H5xL7Rx84i9ocPyg9kY2GeMHtbSFj7mHtHg3QjG6En0ngFiVc/ScnSNwJn19uPnkHtjgFwdRBwheJjfiPDXzecYRkZTYqwsRw10ygbFJz19DXGKVJfLj5LYnGftaN9Tjh8KVz6T3HXaWQAfkkiujgqysLhgdxBw7ZJqW8BBnwE+ZjJjVlOvx9JeZcVE1PKPCjcow7RivFQvNPGG9YscZLpJPMLx/WWxkAE9FVYexjIKjrqb/0YydRR9LZ74r0gHNFEg9ZBOMq1cwO1WlYr6MZOqauTmhjZ7ddtmJ4MlxHcTx03oTFGco1I+Oq7OOxO9wAABYAbAOEWLVhl/jASYNzE8yfzk8Au0UQnX/okOeDauUGb0xpoG0dXmQ/xKYIP5hwRCSCqiaN15gd45iNowO8OdDLumiPeuMTWccmGrc7eZZMG4PDuQn0DQN2jr5HHWHvg3VgCOo8IAEjRzr1uoJwbpKiup6GFxpuqIgLMzGwAG8k4CzzawapheNPMHhYE9flCqewHfOx+wDGZVZX2oNsVN5vO/wAAFlnhU9q8ngN2p5Ctuh+UD3Br8VGXfrfg2zTsR1KAMbeJvbqIPAe+pifQw0vAp/aY8B8F2+k5PB8oPZGPHGj8ucfKp9ej84l9o4+cRe0OH5QeyMbBPGT9IaRNo6ZR2lieDaKaP1qDjfCw9DcGshXX0ORo7Bjw3Lek43VMbfRN9Cljl1WBI1jqOJ5oD9NfXiWGYc18xvXijliHjFeT6Rq4HZJEN1ZTYg4sJ4zmSAc/jdvB4Mrj0HBIR5FViNoBNjiorPpp/jiorPpp/jiorPpp/jiorPpp/jiorPpp/jiorPpp/jiorPpp/jhpGiDlgXIJueoD8kK+Klh8HPN2c8yKLljjIufzT1h/tpjKyUyndDTxD1sCcfdHP/DixNR1o3iaAL64szH3KCmnfbW03L7SUs+Puuz4PEkAnt0ErmFcZUyVIOl5UPsHD5N/jnFZkmPrml+yPGX6KMeRG8mMvVtR0QxpB7WfjIkdRLveqYz+puTiGOGJRZUjUKo6gNIW4+mpn9CBMbUr5B2FEPALpIhVh0MLHHf08zxN1obYPfxxzqPMJU6HJcIjo352mfOwbw1cCTJ0Bxe3WOAcVURAmlqgLvE/2qd4xTGNrni5BrilXxkbF6yhGyJzZ08xsVqic7YJeRKOw7ezg3jN9PCbAYXlVVS7KOmRrgY2KAB2cOySgT0h3wbk5OpSf4Y0XVEQEszGwAG8k4vlCoHyZtEOt8VNoL3Wni5EQxAcn5P2mpqFILD82m1sU+dO4tLVS2M0nbuHQPgIu9NJc+Y+o8DAQTji5Cdg5m7DpsFjRSzE7gMajK5IHMNw7BgEsxAAG8nFveowptvbaTgXMkMiAdLKRwNZZCYmPn6Ruofi16k5OBck2AxsiiRO1Ra/B8oPZGPHGj8ucfKp9ej84l9o4+cRe0OH5QeyMHWMbJY1c9BO7RN1Mmap6E5Ix30jqg62NsbFUAdQwNSSuhPngEezwG7Qy3C+S+jYM0RjTrfk8A5METue3k8E7pKlrgIT3wviocs7AAGNgLnQGIVimhBd1QWV0G3t4CQr0+ef3GA+3gFgZi46pOVg2INxg3WWJX6ri+i7hnXOAVc7Vhp/4eLlZVDLcW1H8jwlTleVLxQHvIwfDkw81dVv38jmyRL9SLid6yXfGhMcQxkuli6ViW/acU0JB3FAcZJgjY+HCOJb+TFV7oX5CayydjbDiaqydXRGxsTG/UecYjET7BXxDkH9qmJkmhkUMjowZWU7wR3P/lsHtPj59/QOEWSpCTr++LH1jBsk5aBv+oLD16C3moW48eZsfE1pICZ6LpjPfpw0cVVA+1HGw86ka1PSMVYqod1LOQko819jYydU0cu4SoUv0qd+MrTMg8CW0q/z3xRU8yAggxXibt77EFWnWikepsVrL1xP9gxUGWadTGeQyhUbvjygMC8cMgqJPNh5WhtFCD6XbHfRUNOh61jA4KiKGMbXkcIo7Tiv91SL4FMpk9Dalxk6OAbpJzxjegWAxFlDKZDd7GhMSdi2RMVkGTYt8a+/zYoPddYv/qKu0rDzRsHwNc5HUqwO8EWxrUG8b+Mh2HgcB0GbFIx74eKenSe8Cn3xx4ZG4dA4F95pzyPKk/8AbhW0cjGSPqbBsQbg4I46MBZV35/P1HQa00gKQjeWO/s4BeGmIlk7Ng4flB7Ix440flzj5VPr0fnEvtHHziL2hw/KD2RwMASSYD17U0H++plsLeAp2twD3ulGf++dSjgF5M3Oj85deBYjGuF+RKPJO/swwZWAII1gg6DXSA50pG+Q7uzgFnqjcfs12cA5M0SN2rycGzKQQekYPJkQE9B3jsOgQBxDqOkvyQODYlPmdrsD9nAhsQIpevap4Hs6XeHylO0aDhI41uzHAsGNkXxUGwY76VwOobz2YFkjQKo6FFh+R1nrJbx0cJ8OTnPkriZ5Zp3M1XUvrzQdp/2GIQkY1sdrO29mO86VOGIHIlXVJH5rYBqaG/JqEHe9Eg3Yl4+hJvLRSk8WelfEbFRmVKKDLSSG0sf+Q7k10pRFTDrjXlY+PrZXHUFVOEd8kkDHzSGXBtJBKkqechzhhrxTIDbep3qekHhUMrAgg6wQcO0YjlFRRS86+IfqOM1J1ASpgvdoZdCCOaJtscih1PWDigagm8ejfMH0DdcZcpp13JUoYT6Vz8ZCaZfGgljkxkeqo4i+YHmjKKW5geBLVNcAVB2pDu+loAu0NNDCFHO3LHtY+5R1KxACU0rq/WQ7Ypa+PzXhpfWCmHpYHbvnqarjG/kD4+6FumOlh+p3xkdKuYeHVnj/AFNycIqIosqqAFA6APgxCTJcxOefmPQcRlJUNmU8BFTCuxZO+HU2IZ4TvsA4xUSfw2xDNO/0Fwwgpz8VHvHlHfwDNjWxkkOxRhc2OMWA+09J4QvumC7R9IO1MKVZSQQdRBGJSjjaNzDmIxBJC+9k5aYrT1cVJ/tiCSeTcWGYmJM5tigalUcwGFLO5AVRtJOLGdyGlYc/N2cPyg9kY8caPy5x8qn16PziX2jj5xF7Q4flB7IxtJthWjljaxB1FSMRiqRbAMTmuB14o6gH93FMIb7ZHOe3YMSM8jm7MxuScIXkc2VRizSHlSNzseFb08zXkA2RufsPAvH03iMbFfNOJJYW8uMkD6F8VTSNzCNx9YGImhBFjK/f9g3YJJO04BECEGZujmHScCyqoCgbABwAtPTXcADah74cA42nY3aIm2vnU7jioMD7xKp+sXGMp0/08TmdvFjU/WbDC8VApusQN+1jvPACJpzxkg5uZeBc6OVSD/uMC+9HGx15xhyjqbqwNiDimMhHxsdrnrGJ5A3MYziKad7atWYuGCxKbrEupR0nnPAlp5V5CnaiH7T+R7s9FSsaajUb1G1x55wo91zWkqW8vxepe4KGVgQQRcEHFoZdrUp1Rt5ni4NRRV1O9wQTHIjDeCMQGdNgrYBy+uRMZQgq4iNsbXK9DDap6DpurVsylaOn3ySc58hcZ01VVT9rySH6yTgg8RCFYje51se08O2mqon7GunBJakrWAS51JNu+loEJKvKgmtcxvgGGphOZNC+uOePmPOpxMIK8C8tFIbSDpTx10phV5R8CihYFh+1PgDE2pbiGBNUUKncgxDagQ3ijYfhz/hoGwGFvS0k0tZ6ORCPhqZko7yRe+TEXHwbpYxcdo2jRUsx2AC5OAaaDmP4RuzdiIJGu4b+k6Noavf4r+dinePmJHJPUdCmd1vYuRZB1nBEtUR3+5OhdCkz4ncWfPRb2Uc5xQ2AYfGx/wCWjR58bykq3GILjtOKAgLIpJ4yPcevRoeQ8zspMkYuCek4obIkyFiJIzYA9B4flB7Ix44wVhqwAA257bmxTOg3Na6nqPDTmOLfJJyR2bzjlzMLPKw1noHMNBFdHFmUi4IOAZYjc8V4a9XOMIyMNqsLEcIuThTTQb2ccsjyVxHmxr6WPOTvOhHnIxu8A2qedcKQwNiCLEaEbO7bFUXJwBxq644toU87aEV1HeMO/U84OIzUQC9pIxcjzhu0Kd5TvzRqHWdgwVlnGtYxrRD9p/I9is5g4mLnDznMBwt4qNTUt1pqThchF1Kg76RzsVcUopqWM8pwFzE8+WTGX8j1Lb4Zw/tLGDjJEuTCxzVqgwmo3P7Re86mwwZWAIINwQdCmDMBaOZdUsfmthTW0Quc+MctB5a4rJqWdNkkTlG9WKSHKcQ8Me8TYyiaCZvArBxX84umJ45om2PGwdT1EcGXKKEjwONDyfQS7YoWnl3VVSMyMdKJislqqmTa7n1KNw6BiEpUEfe0LbYwfDbpOgL2pHk/hcvAuzEADpOIXgqqaQq6naCN46N4OHvXUoEdQN7c0nboDi6lAeJqFHKToPOuEeJg14aiMnNa29GGDFlWBR8fcTfTXGR6+mP5opOPrTAyizc3EDGQaudtxqJEh9jPxWLk6mbbHSAoe1zdsU8tRO5vmoCxPScFZZRYrSqbovnnfgAACwA1AAaD2qa28EXU3ft2DEZSvykRPPzongR/D6GJnPhqMxj2rbDVMfQrg+0DiorPpp/jiKWXz5CPZtilii6VUAnrPcFDKdoIuMZOjBPiXj9m2KD/ALsn+WMnw3G9hn+1gAAbB8F+UHsjHjjhoKZulolJxSQRkb0jC9wpopRsXPUMR1YoFzuiRwPUcUA7ZHI9ZxRwxHnVQD6dOkil5mK8r07cJNH0K/8AlfE1X0Lnp/jiCSXz5D9lsU0cI3hFtfr06GF28YqM70jGT1H/AFJP98ZPhJG9hn+1fChVGwAWA/JDZNlRL9SRvja8sUQ6kBPDJmRWhQcwkqHsWxAIaWmjCIu887NzsdpPBEksUilXR1DKwO4g7RgGeiJLTZHkf10rHvfMwzAoxSWJ1zJYXG1JFOtWGjAaWqPx0FlufKXYcNDXReSRHJ6Hxk2qgtvkiZR6cTyRNzoxU+rFbUSrzPIzD1nEEszc0alj6sZOamjO2Sp96A7DysMK2tGx2W0cZ8hdHvXpZlPUUOL2SRWNuYG+AkGVoEIp6jc/5uTFO8NRTOYqqnfVnpvX7QcSiSCZQyn7DzEaFPHPC/fI4uMVxg/Mz3dOxsUcU/THOg9srjI0nbJGPrbEdNTftJgfYzsV8lT+biHFJijip494Qaz0sdp0XVI41LOzGwVRrJOIj/wDJT5lLG+yeQdHrb8hflB7Ix44/LTYMpgHtifG0Vn1oOG6iSMRlx4MsRuMOONdQlRHvjmXv10HSjyui2EtrRVKj4uoA2rzNtXEL0tfStmVVJJ38Tf1IdqsNRGnRQPfbnRqb4ydSr5sKDChQNwFhpkWjo529CHHfSOEXrY24ClNlSEe8VVv5JOdcU0sdMz++x7c3mmi5xiVZIZFDI6m4YHeNDKMEB8Qtd+xRc4qp8y9uM4h83GUIZyBcoDZwOlTYjTIAAuSdQAGJSmR4CHyjXLsIG5cQCGlpowiKPrPOT+Qvyg9kY8cfloCXo3iqh1RmzehTg/+ZhWROuLh1BxdH3o42NiAvTyWFRT3ISdN0kZxVLLEbB12SRt4rruOhMKLLdIv3rVDYw28TN40ZxTNQ5YptU9JJ7cfjIe7m0tbIsK9XfNhbqaxJZPMg99b1Lww8tQTBUJqlhbnU4hev+56STkzxbELew+MsUgjIuc+VY2XrDWIws2U6nYscCmxPnHDJkikYd6rFZCOki7YmkrZb3OdyUPWMRIIs3N4vNGbm81ubEpgmU53Eh8yx5423Yo3qAlgX7ydevc2K5HktcxNyJR+6dCqSCIb2OtjzKNpOIpMnfc8HtPWSCxkH2+YMQ5kS65HOt5X3u5/Iakz4ncWfPRb2Uc5xQ2AYfGx/wCX5aIHhqInikXnVxmkYB4/JtWRzcZH/s64fPhnQOh69x6RwwB12o41PG3OpxVsEcniph+DnQbUlTAEU6HMqoL3Mcug7UmUKbXSV0WqWE/auKfiZD+AyjGPeJ1xIskbgFXUhlYHeCO6EAAXJOoADDXoqUGKn8rnftxGQCDS0n1yNwuEiiQu7HYqqLknC0VFk7NKtLUpxs8sZNrhDh5at+k8WnoXFNFCp2iNAt+u2jTJJbvW2MvURipMmabhHISUdTCwOI2q0TbHUApMB0PirelcbYZI2LdhQEHH3OyinfZlCu96h61G/GVJMtVm6HvKZcRJFEihURAFVQNwA/V7Depo0tWINrwbn/cxL/4dO+pjsgkO/wA04IIIuCNYIPCoPE00lQh5nhUuME8TX0kiuvlxcsHRpVnhbYdjI+50bcRgtlD7npZeQT3vU3iPioCVFuVTycmQdyYKqgkkmwAGJb0+yoqF+M8hPJwCkQs9TPa6wxb2xEIqamiEca9A3npO08JIJpDH2SkJgvTV3LZaqMkOGDkYjETk2irB+Cl68G4IuCNOmSZN2cNY6jtGJ88fIymzdjYMjUoPLoam+Z1x+Lif3LXkcujnID/uHY/6vgCCLEHEBfJMhLzQrtpCf7eA89ANSMNckP8AuuKyKojI8BrkecNoPBIDWVgAcDbHDvJ87CEU1DTmJW55ptKCOaCVSskcihlZTuIOJSQCX9wu9nT9i+IHnMJzXhqlMc6/vY46hk/OLnp2MmK+nqOiORWPoGlViWoGyCGzv27lx960O6BDrf8AaHfiEpTIwE9W4PFRf7tiPac6WZ/wkz876G6glf8AhcvHgPKp+mTiFJYm2qwxN7roxcmim1sn7M4vRVQOa0U2oX5g3cKdJk5mGzpB2g4qDcG4hkPsviFq+nT4qquJQPIlxU8RW5t2pJ+RL+7uf9XoBBFiDh0oKttZpW/AOf7eMn1dIUOqojuY+yRMZdrrftmLenCS0tC5DSVtQDdx5AOtziLMp4Rv1s7na7HeT3DJkVRbUjnVKnmOLEYrxUJupakhZOx8UFRRzDYJFK3tvU7COkYyxVoBsUyll9DXGKiCo/awj+jNxk+gJ6BIB7WIqGHpSJj7THGVp2RtqIRGh6wlsZPnq5t6xJe3Sx2AYqA28UMB9uTFNFT08QskUahVUdQ0Vv7oop4vpoVxurH9heGG0oFlmTkyDEnu7Jy7iCQg6tqYf3PUn4mQ7T5B36RsBgCsqNlx+CB6x32JRHGlykSAC18PIJonjljIPKz1bVa36vxcHGS6NZfHECBvTbulHBVQN30c0YkX0NhKqgJ3U8t19EofH3USoPLpA/1OuPuniKdNIQfbx91TuvMlEEPrkOEqsouN08lk9EYXFHBTQLsjhQRqOwdwBElDlF0IPag9nRApKg+Eg5DHpXEJq6EEASXLAea/2NicFwLtE2qRescL8fUj4mM3IPlHdiX3LSHZAu/rG/twnK3sdbHgBPGywJbzpbfraXPpqoJFlCPcH2Bj52HzZlF5IW75f9xoqGVgQVIuCDuOJjRVSm4AJCX6La0xQu0ii6ypYFh9Rx94UZ3g3lftwl38dtbaFypypQpq2gGVSf1tQpNDKhSSNwGVlbUQQcGaagQlyiXM1L/kmCsFRsEuyN+vxTpKDJTujRneM5ghGBa8SG3NcaJsBXwHtRQf1uJHSV5JMlPsgnP9D4p5bQnNemnurp5hxNywLvE2p16xofmf9VcfIReyNA58niDd1ndiBkoKKR5WmIsry2ICJ+t2C1RGCIapNUsOCz0uf7xXwXC9R8RsMsU+xJtiSdB5jw/mf9VcfIReyOB7DcN5PMMQSs8rZscUSl5HJ6sWJ1MlAjf6zDEKQwxKFREUKqqNwA/W9BHNDKpWSORQysp3EHGtdrUDt/oucQStHCcxopAVmhtuGd9RxULKm+21TzMNox+Z/wBVcfIReyMWkl5ty9eL0eTjtq5h3w5oU34przkWlq5bNNJ27h0D9cVLmVKi0VXFyZk7d4w7vSZ9oq6EEIfJkG44pxx7hM2ZNhzXDcpcUplZFAd15ComwGRzqAwUynX7cwj72i6lPf4FgP1yQRzQSqVkjkUMrKdxBxX18FOTc0yFD2KzYo0p4Abnezt4zsdp/wD2rP8A/8QARhEAAgEDAQQFBwkHAgYDAQAAAQIDAAQREAUSITEgMkFRcQYTIjBhgbEUMzRAQlJgc5EVI1BTcpLBJKFEYmODkKI1Q9Gy/9oACAECAQE/AP8AymBWY4AJpbO6blbynwQ1JDNCcSRsh7mBFJEWGTXmV7zTRlfxbZ2xu7hIgcFs8fAZq3W0tXEV1ZxxvyWTG8je88qVVUYUAD2aTQxToUkQMp7DV1sWWHLWx31+4eY8KzxKkEMOYPA6Ou6fxZsBN69Y/djJqSNJUKOoZTzBrzV1YH9zmaD+WT6a/wBJ7aguoLkExvkjmp4MPEa3ez7a8Hprh+xxzFXlhcWPFsPH2MOfvFSYZQR+LPJ1f3lw3cqj9dbmyiuCH4pKOUi8CKG0toRSyW7QpI8fNuXgaN3tOT7cUf8ASufjRS4k+cu5W9gO6P8AahawA53AT3tx+NTEZfAwC5x+LNl7Q+QytvDMb4Dd/DtqGeK4QPE4ZT3a7/nLu8f/AKm7/YMau26rN3AmiSfxbBcTWz78TlTVjtuKbCT4jf732TXOrTisjfelY63syJC67w3iMY/FoGTSxgc+JoqCOIq22lc2OFV99PuN2VBfxwwhSpLZJPdxNPtOU9VFH+9Pd3EnOQ+7h+LohzOkjbo/GUXU0mHAfiwChG3dXm27q823dRRh2ViojwI0dd5SK5filVLcqWIDnQAHRIB5ijEOyt50ODSsG5VKnaPq4rAphj6sozWB3UeB/i6JveFAAcvUkA0UK8VpHDeNSJg5HL6sOY0b6sujc/4si7xoDHrHTtXnSsHGDTpun6qOY0b6sujc/wCLRrur65xuMGFECRaIwfXhTW6K3RW6KKmhzGjdAKa3RW6K3RRXphSa3RW6K3RRXVdG56AZrdFEY6AU1uisCt0UVPTCk1u1uiiMfX4xlh69hkEVEeYqVe31oGaAx0saNqBjpEZojHQC46TctF0bnQGaAxox46c6Ax0iM9EL0GP1tYpGGVRiPYKwRrCOZ+ocpaIyCKIx6wDGhasnQEigc6tooxoTiiSdMkUG0Izqo7dCcUSTrvUTnRdCMtQGNCdQMaFqyTpkig2dGGdVGhOKJP1qKGWdwkaFm7gKtvJ+d8GZxGO4cTUGyrG3xiIOe9+NAADAq4srW6+diUnv5Gr/AGKLdGlimG6PsucH3Gu2our7/qEnXXSUYY+rXnoxx0gc6NQGToTgdJTow40NCcD1C9Bjqo46MeiF0PAaDidCcD62q7xxVlErNKMkMu6VYHBFRbQurbhOvno/vr1h4ioLiG5TficMKnu4LfAdvSPJBxY+AoNfXHJRbx959Jz7uQqO0hjbfILv99zvGpvnX/qNRdX6g/GQaTdYeHq10PPpLz0al0bn0hz0blS89G9QurHoLy0PPoBcaE4onOi6Nz+tw8zVif38g71B080oljZGaNmdVJQ7pIJwaitoIM7kYBPM8yfEnWb52T+o1CeY+oD0pdJusPD1a8tDz6Q5jRqXRufqG5UvPRufqF0PRXloeZ1AxoTjoLo3P63CeNRSiCbfIJBGDio5UlXeRgRR+ct/zo/jpdX1tZrmV8HsUcSavdtXFzlY/wB1H7OZ8TpGcMPXud1aiHM6SHLH1a6Nz6SjRqXnow6SjJ0al56MPULqRnoLow40BmgMaE46K6Nz+tg4pZe8Uj7rb0b7rUl8u9CZRulJUY45EA1dbbmlytsm4PvtzqXfLkuxYniSehG28OgSBQIPqXO+wAoDAApjugmj6sHB0Iz0QM0OGh4mhqRjogY0JydAcjQjHTXTOhGdQcHQjOpbpLo3P67mo33uB0mHojx6CNumgQRpI+6PbRJJ4mgxByKVt4ZppVHLjQm7xQIIyOhI+OA51GmBk89JW449ap0IzW7W6a3aAxox1U67tbprdoDGjHVTjUrW6a3awKYY0XQ86BzoRnVT2akE1umgtYFEY1XRuf16LrjSY8h0Y3wcHlpN1tckJ4nWE8xq8mOA50kfa2jtuiic+uDdIt0Q3SLdENjpMdF0bnoDnRueobpE51XRuf16EcSaJCjNMSxJ6Ub5GKlTPEaKpY1Iu6i6wrzOjyZ4LSR44nnoSAMmnYsaWLPOhGg7K82ndTRd1EEeryRW8a3jW8fU7xreNbxrJPqN41vVvGsk9DePQ3j0t41vVvHpbx+vAZOKUboAqVuOOmp3SDQ41ug9g0IBGDRh7jQhHaaAxTsWO6tIgXx1kfePsqJPtGt4EgDie4VFsy/lGRDuj/mODU8E1s4WVCpPI9h8Do6bw9tR2s0sckiLlY+vx4gfhiEZOaJwKJyfUR9QdJycYHM0qhBrJJvcByq3iEsoDBivM7vPHszVnZ7HfCqxd/uyEg/pwqOCGH5uJE8ABpNBFcRmORQymry3+R3Bi394Yyp7cdx0s5I4L2JpADGThs8vGpOu3ifwvEMLUnUPqUGFFbwrPs6GOJOskm9wHLTZxxcD2g1JDFL11BqKS7tvm599fuScf96TaMsjLGtqTIQT1hu8PbRt7uf5643F+5Fw/wDY1tLZ1vFYu0UYDIwbPMnsOTQORUo9H1IBJwKFndsMi2lI9iGpIJ4uvE6/1KR+DU6oqQZU+ojTeNEluXLvoADpZqR8nA5a2R3bmPW0P+tj9sb/ABGl/j5Fc5/lN8KTqipOofUbO2ZJfMSTuxLzb/AqK3s7CPKqiAc3PP3k0+2tnKcedJ8FNQ7TsbghVmGT2Nw+NX+xoLlS0SiOX2cAfGnR4nZHUhlOCPwUKTqjw0dN0+zpJGT7BTcAFHbQGBjTf3mwuhOBnRiSd0V5te3jRiWmjI1gvpYsA+kvcaiu4JuTYPcatB/rY/y3+Iqe5t7YZllVfHnW0dspcRNDChw3NjQGABUvUPTgha4mjiXm7AUqw2NtjqxxrV9fTX0pZiQg6q9gGuw795la3kbLIMqT2ivKG2AMVwBz9Bv8aIjyMFRSzHkAMml2RtFxkW595A+JqawvLcZkgYDv5j9Rquzr1kDi3cqRkH2VHFLMwWNGZu4DNfsfaWM/Jz/ctSRyRMUkQqw7CMVDbT3BxFEz+Ao7H2kBn5OfcymnR42KupVhzBGDoNn3rIHEDFSMg+yoopZm3Y0Z27gM1+x9pYz8nP8ActSwywNuyRsh7iMaxQyztuxxs59gzQ2PtIj6P/7LU9rc23zsTL7SOGscUkzbsaMzdwGaGx9pEZFufeyip7G7txmSFlHfzH6jUAkgAZJqPZW0JBkW7e8hfjU2zr2AZeBgO8cfh/Cojlcd2hANGLuNGJu6vNt3UImpY1GjfOLpK3ZUQwukrYAHfQ4ik5t402d04oSsDx40rBhkU8Ybxogg6x3VxFxSVl4Ec+w0zs7EsxJPMmolyc92kp5Dp7AjD3rOfsISPE8K2/KUswgPXcA+A49COWSF9+Nyrd4qW7uZ13ZJndc5wTmoIXuJkiQZZjioLa12Xbk5AwPTc8zUnlHGGxHbsw7y27Vnti2vHEZBjc8geRrbGykCNcQLjHF1HLHeNLUZsoB3wr8Kaex2JEsQG/IRkgcz7TUHlDFJIFkhMYJ629vVfWEV9GqvwIIIYc6uNoWey1EEaZZR1F7PE1b+UEMsgSSIxgnAOd4VtizS4tXfH7yMFgfYOY0thvWMC98Kj/annsdiwrGAWcjOBzPtNJ5RxlvTtiF7w2TRW02nbDk8bcj2g1eWr2dw8Tcccj3irCya+nCDgo4se4U8lnsq3HAIvYBzY0fKNd7hakj2vVpf2u0UZAOOPSRu6tr7MFmwliH7pjjH3TUMTTzRxrzdgKVLTZNqTyVeZ7WNHyjXPC1JHtfH+KstqW9+SgBV8dVu0VtqwS1kWWMYjk7O40qs7KqjJJwBVhs6Gwi33wZcZZz2ewVP5QwI5EULSAdpO7Vptu3uXEbqYmPLJyDW19lxvG9xCoV14sByYfwlWKnNK4bps4Wi5LA92knXNJ1BpIcuaibK+FEccjnXE86ZFatxk4igcjNSrkZ6CRk0AAMCicCmbeOen5OfO3H9K15R53LbxfpeTsILzzEdUBR768obgl4oAeAG+2gJBBBwRVrILq0idhnfQb3+alTzUsifdYr+hqz+iW35SfCriZp55ZSeLMTpA3+miY/y1J/SpHaWR3Y5LEk+/Q+lanPbF/jSz+h235SfCrqdrm4llJ6zHHh2aeT05WaWEn0WXeHiK8o4h/p5e3iprYEIjszJjjIxPuHCttXBnvXXPox+iP8AOltO1tcRSg9VgfdW0IhPZTr/AMhI8RxFbLdU2hbluW9j9RitpWbXtqY1IDAhlzyyKms7q3J85C6+3GR+tW8720ySpjeU8M1ebUuL2IRyKgAbe4A1sKAS3u+RwjUn3nhXlBcMkEUQPzhJPguuz5jc2MLtxJXB9pHCp4/NTyx/cdl/Q/wkHFLKe3jQlWvOJ3151aM3cKMjHtrNCl4qKlHpUnUGj9Y+NKxU5pWDDI6EX2hoqAlhnlXml7zQRR2aFgvOnct4eo8n5At46ffjP6ivKCIvaRuPsPx8D0LC0N7crFnAIJJ7gK2hsiOytzKJix3gACK8ncfJZvzf8CtuZ/aD/wBK67JBGzrfP3T8avTm8uT3zP8AGrX6Fb/kp8NYPoUX5K/DX/hf+3/jSD6BF+Qv/wDOuwgTtBfYjV5REfJ4B/1P8VsnH7Ot8dx+NXmfldznn51/jrL6Nq+eyM5/TSz29LEoSdPOAfaHWqHbFhN/9u4e5xipLOwvF3jHG2ftL/8AoramyfkQEsbFoicHPNa8nMb9z4LV3tC3siglLDeBxgZr9u2H3n/tr9u2H3n/ALa/bth95/7au5Emup5E6rOSPf8AwhULV5n20YmFcemnUFSjgDURyukow2gYihL3ihIh7aLqBzFRcidF67aF1HbTSnsokn1NrOba4ilH2Gz7qdYry2IzmOROfjV1ay2kzRyDwPYR3jXYlg1tG00gw8g4DuWtv3QklSBTwTi3ia8nZgHmhJ6wDD3V5Q2zZjuFHDG43s7tIonmlSNBlmOBTGOytM/Zij+ApmLMWPMnJq1+hW/5KfDWD6FF+Svw1/4X/t/40s/olt+Unwq+tWtLmSMjhnKnvU6bAtGQPcMMbw3U8O015Qzh54ogeopJ8WrYM4kszHnjGxHuPGttWrQXjPj0JfSB9vbps22N1eRLj0Qd5vAVtecQWMvHi43B762Xaw3lyYpSwG4SN3vFbW2bHYiJot8q2Qd7v0sZpobmIxMclwMDt9lbV3f2fcZ+6PjWwpxFe7hPCRSvv51t+2aW2SVRkxE58DoAWIAGSTgCothWq26vOzhguXweApt3ebd6ueH8HRN41y1ZA1MhXn0RSjCgVIMqajbBx36Ou8PbRHQUFjigN0Y0LkMSDRYn1uy9qmz/AHUuTCT71oiz2hF9iVKbYFgxyPOL7A1W+yrG1IdY8sPtMc4raG2YoFKQMHl7xxC0zFmLMSSTkk1BNJbypKhwynIq0v7XaEW6cbxGGjan2DYu2QZE9in/APQagsrHZwLgBTji7mtr7UF3+5hP7oHJP3jpbXlotpApuYgREoILju1hvLQWkam5iBEQGN8d2vyyz+T4+UxZ83y3x3aWnCzt/wAlPhUNxYbWiVZVXfHNDwIPspNjbPjbe81nxJIq92rbWaFUIeTGAg5DxqSR5pGdzlmOSasb17GcSLxU8GXvFLJZbTgx6Minmp5ij5P2JOd6UezIpUsdlwnqxr2knJNbSv2vpgQCI14IP8mred7aeOVOaHNRy2m07fsdSPSU8wafyetScrLIo7uBq12VZ2R3wCzj7TnlW2tpJOBBC2UByzDkT3ClYqwYHBByDWz9rQ3SCOYhJeRzyapdh2ErFgrJ7FPCrfZ1jY/vAvEfbc8q2ttZZlMEByp679/sH8IiGFp23VzW+3eaSXvoHNEA00XdRUjmNApNJHjidDyOkb7w9ujoG8aMbDsrcbuNLEe3hSqF5aSNur9QSSSI7yOynvBxQ2nfgfSXqW6uZhiSZ2HcScdEXl2owLmUD2OaeWSU5d2Y+059Xa/Qrf8AJT4aGSQjBdsd2egrMpBUkHvFfLbzl8pm/vNMzOcsxJ7yc6q7oQysVPeDihtK/A+kyfrUt1cz8JJnYdxJI6CXNzGMJPIo7gxFPLLL15GbxJP8Jj6gpxvKRRGNEkK+FAgjI1wOgxwDRoEg5pXDCo45ZjiKNnPsFQ7FupFJkdYu4dY1cQT2j7syYHYw4qaBzozhaZixyf4HbXlotpApuYgREoILju/jcb4ODy0dAR7dVcrypZA3SkfPAa2Nna26RPcwg+cAZZCcpx7D3GlVVACgAdw0dEkUq6hlPMEZFXOwony1u/m2+6eK1dW93anEsZXuYcj7/wAQrIRTS5GAOiJGFCbvFedWjKtNIT0Nn4k2fbggEGMAg01tPb8bWQbv8p+K+49lQ7Qid/NSqYZvuP2+B7dWVXUhgCDzBraFtYO5W13jJniF4oPfUkbROVPMfi3Yt9C9vHblsSJnAPaPZpPbw3KbkqBhQhvLL5ljPF/Lc+kP6TR2tbbvohzL/L3cMD7ame5u/nn3U/lp/k9tKioMKABV0c3Ev9R/FoJUgg4Iqw26VxHc5I7HHP31HJHKgdGDKeRGl4ANpNgc4VJ/U6SSJEu87ACpW35HbvJP4vs76eyk3o24Hmp5GrLaNver6J3X7UPOr3/5I/kL8TVzfJFlUwz/AOwqSV5Wy7En8YqzKQQSCORFS3dxMQXkJO7u57SP/MD/AP/EAEcRAAIBAgMEBgQJCgUFAQAAAAECAwAEBRAREiExQQYTIDJRcSIwUmFAUGBygZGxssEUFTM0NUNTc5LRFiNCYqFEY3SCg5D/2gAIAQMBAT8A/wD1MZ1UaswA99Nf2Sd66hHm6ioriCcExSo4HNWDfZTSAbq600rhvlbf3a2NrJOy6hNN3jqdKu3vr2Np7K/lmj4tEDsyJ5heNMzudWYk+85QXE1rIJIZCjjmKsekcM2iXa9W/wDEHdPnQ0KhlIZTvBG8HJG2h8rOlEmzhyr7cqj6gTUUskLq8blGHAg6Guus8TGk5EFz/FA9B/ngcD76urO4tGAlTQHusN6t5HOwxS7w9v8ALfVOaNvU1h+K2uI7lBjl5ofwNJqGI+VnSxtIbVfF2P1DO0xGe1BjOkkB70T71P8AY0cHwueGK6S4kijl3hNNog8xS2GDRfuppfnNs/dpTaRforGBfew2z9Zpry5I0EhUeC+j9lQA7MepJIRdT9HysxnC/wA5QKFbZlj1KE8N/EGri3ntZDHNGUYcjmqdTYWEf/Z2/wCs65opd1XxIFAAfK25tLe7jKTRq6+/l5ViXRya31kttZY/Z/1j+9cKvBsvEvsQoM7CB5LiNtk7CnUn5Wk6Uzk0GIq8wezxHV3QpJ7abifOrjDpZ52YOoTQAeO4UmEQjvuzf8VHZWsXdiHmd/yukPAZIu0fllJ3souJ+Vmtba+NdYvjXWL40HXxrWpBvByU7JB+VRYCjIeVEk9kEihIedbKvwoqRUb8j8HJ0BNFmPOo2JHwZ22RW03jSnUA/G7vs+dEk+pB0oOG3NTIV8qR9fgz905Rc/g0vLJO6PjZm2RXH1iPyNMpQ6ikbUfBX7pyi5/BpeWSd0fGztqfXKdobJoao1A6+vMgHCusausbxoSNQkBp+6coufYMgFGRq6xvGusahIOfbLgUZGrbbxrrGoSeIoEHKXlkndGRIUV1hpW2h2DIBwoyNW23jQkahID2y6ijIfCusalbaHw9zoD68HQg1IOBqNuXrSQBTMW7QYgEZRc8idKZyfLtKxWgQw7DOTw4Z6HOPicpeWSd0USFFEljlGNBkSAKZi2emauVoEEdhnJ4diMED4W00SHRpFB8CQKBBzlPAfAOMdA6GgdfWM20clTXeaCgcsiqnlTIVzi55O2pyVC3lQVRyyKg8qZNOGSNsnORuWSoWoKByyIBoxilULlLyyUhUFEljkiczm7bRyWPXjQUDgMioPKmQjJG0Ocja7slQtQRRWg+EzTw2yF5ZFRfEnSrvpRbR6rbxmU+0fRWrrG8SutQZii+yno0SSSSdTVriN7ZkdTOyj2eK/UawzpEbqRIZoDtndtRgkfSMpO98ATuHKM6qPVyHRckXU9p12TlFzpzopyRdo9p1035RnUUToCclGp0oDTty8uwicznIdBlGup17LvyGSjU5MdATkq7R+Fsdka1iMzoItysrbQZGGqmp8Ks7vfbt1Ev8Njqh8jyq5tbi0kMc0ZRvfz8qtrG5u9TGnoDvOx2UHmTRTDbTi5upfBfRjH08TUt9cSqUBEcf8OMbK/TpxqD9BF8xak73wBO4couB8/Vy8Rkg0UdqQejlFzqXgMox6PaYaqco+JqTu5RDifUS8s0TmexJxGSDRR2GfXcMlUsaVQuUnAZRjd8Ll5ViY1giPg5GRmYwSrIqSqkTuqyAMAVGo41Pd3NzoJZSwHBeCjyA3DOD9BF8xfsqUcD8AO6PKLh9Pq5eI8sl4DtP3TlFzqTlkndHaPA5R96pO7lHwPqJeWSkA76B17EneyXujyyJApnLZKpbyoAAZy8sk7o+FyjdVzCbmDqwQGDajWpYpIW2XUg1+5uv/Hl+7lZYdd37aQxkjm53KKw/o9a2mjy/wCdKPHujyGTjUH16jU1IeAyQaKPVyjhlGdV7Uh3aZRcDUg3ZRnl2nOi5RDeacaqcozv09RLyzVtnyoHXOUcDlGdRTMFFMxY5Imu88OzLyyTuj4WRrRi8KkjDrsyptLUuGvsTiEhg8LqNdxBIqy6NwwkPduJG9he7UIjVAqKFVdwAGgHYddD2ACa0I9So2V1NE6mgNSBQ9Ww1GStsmgQR2CQoonU5KNABRGoIojSgdDrSsGHYJAFM20ckGi5MNDpkrBvPty8stk6A5KxXyrjkw1BGQJU0STkicz2peWSd0fDnTZ3jKLiewy7QojTJF2jQAA3UQCN9MuydKWMnjuoxeBogjsImu807a7so15+tkXmMgSKEniK6xaMvgKJJyReZzddd4yBIoS+IrrFoyDkKLFuOSLrvzddRmJDzrrFoyDkKLsaRidxyl5ZJvQU6bPlkj7PlnIvMZqQDvFdYtGTwFbTeNI20M5eWSd0fDpO4cohxPZkXXeMou7npq/kM5RwOaJrvNO/IZKu0aA9c0fh2QCaWPx7LR67xRGnZWPx7LJrvFEEdmNSN+UvLJO6MnTTyyj4HNo/CiCOwATSLsjOTlkndHw6U7gKA1OlAaDTtSLodajbTdkWApG1Y5yngMlTTead9dwyAJNKoUU0vhW23jW23jSy+NA6+rIB4iurWuqHjQjWgAO2QDRjWurHjXVrQAHAdsgGjGtdUPGurWgqjlmQDXVr2OrWgAB2CAaMa11Q8aEa0AB2CARXVj4cToKJ1OtRLu17bDUZanxyB0oS+Ioy+AyVQo2jTOW8s0TZFSNyojQEncBxJ3CpsawyBtnr9s/7BqKtbu3vULwSBwOI4EeYyRtnyqW8t4JoYpH2Wl3JuOhPyYlO7SgNTQGg9Q/ePaUDXU8BTMWOaJpvPGrqZoYSylA3BdvXZ19+lX9/j8YLOojT2olBX+rfU1zcTnWWZ3+cxOVvcTWsqywuVccxWHXn5wtFmKFG12WHLUcxliMMtxYTLESJQNVI3Hy+mo/0afNHyXkOrUneHqWOrGtD2dd2aJpvPHLFBran3MKinlhPoOR7uVTw2F3vlt9h/bi9H6xwqTCIYkaV71RCpA7h29Ty0oXdhbfq9p1je3Pv+pRurB8WupsSjWeUskilNOCjmNAKO6o+96kkAak6Cmv7FTo13AD75FqK6tpt0c8b/NYH5Gt3jSHRh6h20FaBePGiSe2iAbzxzv12rSUacgfqOeIDXDpfdNH9jZYZqcRs9P4yfbT940neHqMWxiLDUCgB5mHor4e81Pd3+JygM7ysTuReH0AUnR7FXGvUBfNhVxg+JWoLvbtsjftKQ32VhmP3No6pOxlh9+9l8jUUkc0ayRsGRhqCPkW3ePnkjajtM4HnS7yWPKidTls7I1OQGpyUADU11jUJGpZAc7jDoZtSvoN4iprK4g4pqviu+sQOmHS++aP7Gq2s7q7bZhhZ/Ibh5msJ6PyWk6XFw67S71Rd+/3mjvJqPvDt3M6WtvLM/dRSad7jEbzU+lLM/wBtYbhsGHQhEALkem/Njn0kwxLd1uolCo50cDgG8a6K3jMJrVjqFG2n2HJ5EiUs7qqjiSdBT47hKHQ3Q+hWP2CrfE7C6IWK5RmPAcCfoObYrhyOUa6QMG2SPeKmnht0LyyKi+LHSvz9hOun5UP6W/tUU0U6B4nV1PNTqKuLu2tFBmmVAeGp3mlx7CWOguh9KsPwqOWOZA8bq6ngVOoybFcOWQxm5QOG2SPfU08NuheWRUXxY6V+f8J10/Kh/S39qguILlNuGVXXxU65zXEFsu1NKqL4sdKOP4QDp+VD+hv7Vb3tpd/oZ0f3A7/qzlmhgQvLIqL4sdKOP4Sp0N0PoVj+FW+JWN2dIbhGbw4H6jmSFBJIAFSY3hUTaNdLr/tBb7oNQYth1ywWO5QseAPok/X8VSDQ5A6UJPEUJF8a218aMgouxyX9G2US86kOrZRrqdaNNwXypeIoxqRuogqaVyPKgdc5bK1nBEkKMCQd44kUiJGoVFCqOAA0AqRtBlGOJ7fSiYph6oP3koB8hvroxAJMQaQj9FGSPM7uxNDFcIUljV18GGoqGxs7d9uK3jRtNNVGh0q5uIrSCSaQ6Kg1NXN3e4zdKoBOp0jjHAVF0TmZQZLpUbwVdr8RWIYBd2CGUMJYxxK7iPMVgONSNItpcvtBt0bnjr4HK8OziNyfC4f71LbYj0inaZiEhB0Unuj3LVz0WniiZ4rgSsBrs7OyT5bzWG4nPhsrMm9WBBQ8CeRq1wrEMZZrmWTZVj325+Qq66L3EMTPDOJSo1K7Oyfo41gN/JaXsce0eqmYKw953A5XjbGI3LeFw5+pqjtsR6QzvMzBYwdNT3V9yin6JyBNUu1ZvApoPtNK19hF2eMcqcRyYfiKsL1L+1jnTdruYeBHEVimIJhtqZCNXO5F8TUcV/jV2d5dzvLHcqih0SfZ33gDeATUfbV9hl7hLo5Po6+jIh5/gawHGGv1MMxHXINdfaFXE6W0Esz91FLH6KZ77G70DXadu6OCoKXok5X0rwA+ATUfbWI4Nd4YBIWDx67nXkffXR7E3vYXhmbWWLgx4stO6xozsQFUEknkBWKYrcYpP1ce0IdrRIxxb3mrborcyIGmnWIn/SBtmr7o5d2kbSo4mRd50GjAeVYDjUqSpazuWjc6Ix4qfDy+KWUEUyle2FLUFABGUfcFP3jlGNFqQaGgeRrcOBoMVrbV9xojQ6VG2h07DOBRJJoDWlGg7fSz9Ba/PauiQG3eeSfj2uldwVjt4AdzEu30bhXRW1URzXJG8nYXyG85EBgQRqCNCKvIjZX00aEjq5Dsn/kVBL10EUntorfWNav/ANeu/wCfJ96rWBba2hhUaBEAyuU0vJ0H8VgPrqKJYYkjUaKihR5DJfRvRpym/HK//X7v+fJ96rK2W0tIYVHcUa+fM5dKrZWt4bgD0kfYPka6JzHW6h5ei4+w10nuDLiAi13QoB9Lb66PWq2+HRvp6c3psfsyvLZbu1mhYd9SB58jWFzNb4javw/zAD5NuNY1G8uF3SoNTsA/QCCawi/XDrxZXUlCpVtOIBq3xCyugOquEYnlrofqNXVtHdwSQya7DjQ6VYYLaYdMZYmkLFSvpEEaGuk1wYcP2FO+Vwp8hvNdFrVJbmadhr1SgL5tnikAtMRuI03BX1X3Bt4q1l6+2gl9uNW+sa/FJFGMcq6tq2G8K6tqEXiaCKMjTcTUfdp+8cl7oplDCiCp7EnI5M5AB8a6xqLMeeQBNImz6jpREXsEcDuSjXyI0rotMEvpIyf0ke7zXsYnfDD7R59kMQQFU8yTWF47NiN2ITbqo2SxIJPCulev5bB4dT+Jro3p+a49PbfXPGyGxW7I9oD6gKw8EWFmDygj+7V7+0Lr+e/3s7n9oTfz2+9n/wBZ/wDb8crn9qT/APkt97PpKQMLf3yJXRQH8quD4RfjWOa/nW619ofYKsNPyG004dRH93OH07yPTnMNPpOV/wBGYZ3aS2fqmPFCNVqfAMUg/cdYPFDrUV/idg2yJpUI/wBD8PqasGxz84MYZlCzAajTgwrpbr1dn4bT/hVjhd3iCuYApCEA6nTjX+GsU9mP+qv8NYp7Mf8AVX+GsU9mP+qrGF4LO3ifvJGqnzHxQzha633UJAfUP3jUR3kVIPSyjOq5EA0Y/A0UYcq2W8Kk5DJu4uQRjyoR+NAaepvbZby1mgP+tSAfA8jUbz4fdhtNmWF+B8RVlewX8CyxNx4jmp8Dn0ixNLuZYIm1jiOpI4Fq6L2RihkunGhk9FPmiulduWjt5wNyko307xXRW8XZltWOja7ae/xynmjt4ZJZDoqKSaVZcRvtB355fq2jSqEVVHAAAVe/tC6/nv8Aezuf2hN/Pb72f/Wf/b8cr/8AX7v+fJ96sNvEvrOKUH0tNHHgw45dKL5JGjtUbXYO0/nwArorbGO2mnI/SsAPJa6TW5ixAS6ejMgP0ruro9eLc2CR6+nD6JHu5HLF7tbOwmfX0mBRPNqwK2NziUG70Yz1jf8ArWM3txYWYmhVSQ4B2gSNDWB4vLiRnSYIHQAqFBGoyxG3t7i0mEyggIx1PFdBxFYJtfnW02eO0fq0rpLbGbD9tRqYnDHyO410Yu1gu5IXOgmA0+cuTMFBZiAANSTU3SW9e6dLZIyhfZj1Ukmk2thdrTa0Gunj8Tu2yOwrlaVgeyaY6k0h0YU66jJG2T2SQBROp1yCjQa0AB63GcEW/wD86HRZwPocUGv8LnOnWQSfb/cUnSfE1GhETe8r/YirrGsRvFKNLsoeKoNNawro/PcuslypjhG/ZO5mpVVFVVACgaADkBVxbxXUEkMg1RxoavsMvcKm2xtbAOqSr+Pgaj6TYlGoBET+9lOv/BFXWI4jirLGxLDXdGg3VgWDNZazzgdcw0C+wP75XdhfNfXDLaTlTM5BEbaEFs57C+N9KwtJypnYg9W2mm1n+b7/APK9fySfTrdderbxyvhrf3Q/77/eq4tMTwKdnhd+rPB1GoI/3CpOkGKyoV6/Z15qoBrDsEu7+QM6tHFrqztxPlUMUcESRxroiAACsSw+PEbYxMdGG9G8DTxYjg9zr6UTjgw7rD8aHSjEQuhSEnxKnX7aeTEsZnHelbkANFWsIwtcNgIJDSvvdvwFXVtHd28sD91108vA1NBfYPdA+kjqfRccGFJ0qvVUBoYmPjvFXuNX+IL1RIVCe4g410ewiS2Jup12XI0RTxAPM0yq6lWAKkaEHmDWK4HcWUhlgVnh11BHFPOoOkeJwoFLJJpzcamrrFsSxLSIsdD+7jHGsCwN4HW5uV0cdxPD3n4okOrUo2jWwvhTReGXClk8aDA8DkSBTvruGQ4jJ10OSuVoOp51tDxFGQct9Ek5Iup+ASRRTLsyRq6+DAEUcHwwn9Uj+qobKztzrFbxofEKNexxprCwY6taQE+JjWo4YYRpHGiDwUAervf2hdfz3+9kIYgdRGoPjoOwyq6lWUEHkRrX5vsNdfyODX+WtIiRrsooUeAGgzdEkUq6BlPIjUU2E4Yx1NnF9C6VDZ2ludYreND4hQD2JLO0lOr20TnxZAajghh3RxInzVA+KX7xpToaBydA3nRBGevYUakUKIBFMhU1NPBbrrNKkY/3HSrjpJZxMBDG0w5t3B9FWd5bX8e3BJqeaHcwrhkqlqVQo+I7uwvmvrhltJypmcgiNtCC3x3IuuSMQc2UNTIV7SLpvOeJX97dSTpZ3BHVMyvCBsyejuJU8xTMzsSxJY8SeOUckkTh0cqw4EHQ1ZdJZ49Euk61faG5qs7yyvRrDKGPNTuYfR8oWjBpY9D2TGpoxeBrq2oRmlQDsYptRYpdFSQRKWBG4jXfS3dtdejexHa/jx7n/wDYcGqfC5o4+ugYXEHtpy+cOIzRnRgyMVYHcQdDWFXeKJGGvdkQ6bmfdIfIDjUUiyxq68D8rekOHXEd1LdBdqF9CSP9J0035W11cWkm3DKUb3c/OjcYfiP6wgtpz+9Qegx/3LQwO82/SaNYeU20CpHu03mreG0sdDAm3J/Fcb//AFHKnd5GLMxJPM1ZjS1h+YPlaQGBBAINYn0aVy0tnop4mM8D5VLFLA7JIhRxxBGWHEnCU1PC4cDy0ByjiklYKikmolKRIvsqB8r7/DbbEItmVfSHdcd5axDCbrDmO2u1HykHCsN/ZI/8lvuirTDnn0aTVU/5NRQxwqFRQB8sWVXUqwBB4g1DY2tupWOJQu2X05Anw/8A2B//2Q==;fillColor=#A8DADC;strokeColor=#457B9D;fontColor=#1D3557;imageBorder=default;" parent="1" vertex="1">
          <mxGeometry x="660" y="820" width="374.78" height="180" as="geometry" />
        </mxCell>
        <mxCell id="UyWXllwboFjSRBBQRdUh-25" style="edgeStyle=orthogonalEdgeStyle;rounded=0;orthogonalLoop=1;jettySize=auto;html=1;fontSize=24;strokeColor=#457B9D;fontColor=#1D3557;labelBackgroundColor=#F1FAEE;" parent="1" source="UyWXllwboFjSRBBQRdUh-8" target="UyWXllwboFjSRBBQRdUh-10" edge="1">
          <mxGeometry relative="1" as="geometry">
            <Array as="points">
              <mxPoint x="230" y="370" />
            </Array>
          </mxGeometry>
        </mxCell>
        <mxCell id="UyWXllwboFjSRBBQRdUh-8" value="" style="shape=image;verticalLabelPosition=bottom;verticalAlign=top;aspect=fixed;imageAspect=0;image=data:image/png,iVBORw0KGgoAAAANSUhEUgAAADAAAAAwCAYAAABXAvmHAAAA2klEQVR4Ae3WsQmDUBSF4VTZIF3qQHCLFPZuZGtl4xaCGwjuoC5gL4KxFG7+wjYQ89RncX74+hyIei8bp5RSSgVI0eK9aJEiwGm7IsMM+2JGhusZf3wJ+1F5thEZbKUMpyjADFtpRgDvpbA/pfBe4zCggfdGhwGjBugv5PwQ6zWqD5nzKaFjTue0UuqGCAkK1Ohgiw41CiSIcIPXnojhegvFeOKwQlSwjVUIsVt3lLCdlbhj017oYQfp8cImPTDBDjbhAedymCc5nBtgngxwzjzTANuJBiillFIfPBEJG9OlHGwAAAAASUVORK5CYII=;fillColor=#A8DADC;strokeColor=#457B9D;fontColor=#1D3557;imageBorder=default;" parent="1" vertex="1">
          <mxGeometry x="155" y="620" width="130" height="130" as="geometry" />
        </mxCell>
        <mxCell id="UyWXllwboFjSRBBQRdUh-24" style="edgeStyle=orthogonalEdgeStyle;rounded=0;orthogonalLoop=1;jettySize=auto;html=1;entryX=0;entryY=0.5;entryDx=0;entryDy=0;fontSize=24;strokeColor=#457B9D;fontColor=#1D3557;labelBackgroundColor=#F1FAEE;" parent="1" source="UyWXllwboFjSRBBQRdUh-10" target="UyWXllwboFjSRBBQRdUh-11" edge="1">
          <mxGeometry relative="1" as="geometry" />
        </mxCell>
        <mxCell id="UyWXllwboFjSRBBQRdUh-10" value="&lt;font style=&quot;font-size: 24px&quot;&gt;MiddleWare&lt;/font&gt;" style="shape=ext;double=1;rounded=1;whiteSpace=wrap;html=1;fillColor=#A8DADC;strokeColor=#457B9D;fontColor=#1D3557;" parent="1" vertex="1">
          <mxGeometry x="350" y="320" width="220" height="100" as="geometry" />
        </mxCell>
        <mxCell id="UyWXllwboFjSRBBQRdUh-21" style="edgeStyle=orthogonalEdgeStyle;rounded=0;orthogonalLoop=1;jettySize=auto;html=1;entryX=0;entryY=0.5;entryDx=0;entryDy=0;fontSize=24;strokeColor=#457B9D;fontColor=#1D3557;labelBackgroundColor=#F1FAEE;" parent="1" source="UyWXllwboFjSRBBQRdUh-11" target="UyWXllwboFjSRBBQRdUh-14" edge="1">
          <mxGeometry relative="1" as="geometry">
            <Array as="points">
              <mxPoint x="827" y="230" />
            </Array>
          </mxGeometry>
        </mxCell>
        <mxCell id="UyWXllwboFjSRBBQRdUh-22" style="edgeStyle=orthogonalEdgeStyle;rounded=0;orthogonalLoop=1;jettySize=auto;html=1;fontSize=24;strokeColor=#457B9D;fontColor=#1D3557;labelBackgroundColor=#F1FAEE;" parent="1" source="UyWXllwboFjSRBBQRdUh-11" target="UyWXllwboFjSRBBQRdUh-12" edge="1">
          <mxGeometry relative="1" as="geometry">
            <Array as="points">
              <mxPoint x="1120" y="350" />
            </Array>
          </mxGeometry>
        </mxCell>
        <mxCell id="UyWXllwboFjSRBBQRdUh-28" style="edgeStyle=orthogonalEdgeStyle;rounded=0;orthogonalLoop=1;jettySize=auto;html=1;entryX=1;entryY=0.5;entryDx=0;entryDy=0;fontSize=24;strokeColor=#457B9D;fontColor=#1D3557;labelBackgroundColor=#F1FAEE;" parent="1" source="UyWXllwboFjSRBBQRdUh-11" target="UyWXllwboFjSRBBQRdUh-8" edge="1">
          <mxGeometry relative="1" as="geometry">
            <Array as="points">
              <mxPoint x="827" y="685" />
            </Array>
          </mxGeometry>
        </mxCell>
        <mxCell id="UyWXllwboFjSRBBQRdUh-11" value="&lt;span style=&quot;font-size: 24px&quot;&gt;Controller&lt;/span&gt;" style="shape=ext;double=1;rounded=1;whiteSpace=wrap;html=1;fillColor=#A8DADC;strokeColor=#457B9D;fontColor=#1D3557;" parent="1" vertex="1">
          <mxGeometry x="717" y="320" width="220" height="100" as="geometry" />
        </mxCell>
        <mxCell id="UyWXllwboFjSRBBQRdUh-23" style="edgeStyle=orthogonalEdgeStyle;rounded=0;orthogonalLoop=1;jettySize=auto;html=1;fontSize=24;strokeColor=#457B9D;fontColor=#1D3557;labelBackgroundColor=#F1FAEE;" parent="1" source="UyWXllwboFjSRBBQRdUh-12" target="UyWXllwboFjSRBBQRdUh-13" edge="1">
          <mxGeometry relative="1" as="geometry">
            <Array as="points">
              <mxPoint x="1030" y="630" />
              <mxPoint x="1030" y="630" />
            </Array>
          </mxGeometry>
        </mxCell>
        <mxCell id="UyWXllwboFjSRBBQRdUh-35" style="edgeStyle=orthogonalEdgeStyle;curved=0;rounded=1;sketch=0;orthogonalLoop=1;jettySize=auto;html=1;entryX=1;entryY=0.75;entryDx=0;entryDy=0;strokeColor=#457B9D;fontColor=#1D3557;labelBackgroundColor=#F1FAEE;" parent="1" source="UyWXllwboFjSRBBQRdUh-12" target="UyWXllwboFjSRBBQRdUh-11" edge="1">
          <mxGeometry relative="1" as="geometry">
            <Array as="points">
              <mxPoint x="1030" y="395" />
            </Array>
          </mxGeometry>
        </mxCell>
        <mxCell id="UyWXllwboFjSRBBQRdUh-12" value="" style="shape=ext;double=1;rounded=1;whiteSpace=wrap;html=1;fillColor=#A8DADC;strokeColor=#457B9D;fontColor=#1D3557;" parent="1" vertex="1">
          <mxGeometry x="954.78" y="485" width="220" height="100" as="geometry" />
        </mxCell>
        <mxCell id="UyWXllwboFjSRBBQRdUh-33" style="edgeStyle=orthogonalEdgeStyle;curved=0;rounded=1;sketch=0;orthogonalLoop=1;jettySize=auto;html=1;entryX=0.75;entryY=1;entryDx=0;entryDy=0;strokeColor=#457B9D;exitX=0.75;exitY=0;exitDx=0;exitDy=0;fontColor=#1D3557;labelBackgroundColor=#F1FAEE;" parent="1" source="UyWXllwboFjSRBBQRdUh-13" target="UyWXllwboFjSRBBQRdUh-12" edge="1">
          <mxGeometry relative="1" as="geometry">
            <Array as="points">
              <mxPoint x="1120" y="640" />
              <mxPoint x="1120" y="640" />
            </Array>
          </mxGeometry>
        </mxCell>
        <mxCell id="UyWXllwboFjSRBBQRdUh-13" value="&lt;span style=&quot;font-size: 24px&quot;&gt;SMS, E-mail&lt;/span&gt;" style="shape=ext;double=1;rounded=1;whiteSpace=wrap;html=1;fillColor=#A8DADC;strokeColor=#457B9D;fontColor=#1D3557;" parent="1" vertex="1">
          <mxGeometry x="954.78" y="680" width="220" height="100" as="geometry" />
        </mxCell>
        <mxCell id="UyWXllwboFjSRBBQRdUh-38" style="edgeStyle=orthogonalEdgeStyle;curved=0;rounded=1;sketch=0;orthogonalLoop=1;jettySize=auto;html=1;entryX=0.231;entryY=0.029;entryDx=0;entryDy=0;entryPerimeter=0;strokeColor=#457B9D;fontColor=#1D3557;labelBackgroundColor=#F1FAEE;" parent="1" source="UyWXllwboFjSRBBQRdUh-14" target="UyWXllwboFjSRBBQRdUh-16" edge="1">
          <mxGeometry relative="1" as="geometry">
            <Array as="points">
              <mxPoint x="1320" y="370" />
              <mxPoint x="1370" y="370" />
            </Array>
          </mxGeometry>
        </mxCell>
        <mxCell id="UyWXllwboFjSRBBQRdUh-14" value="&lt;span style=&quot;font-size: 24px&quot;&gt;Mongoose&lt;/span&gt;" style="shape=ext;double=1;rounded=1;whiteSpace=wrap;html=1;fillColor=#A8DADC;strokeColor=#457B9D;fontColor=#1D3557;" parent="1" vertex="1">
          <mxGeometry x="1210" y="180" width="220" height="100" as="geometry" />
        </mxCell>
        <mxCell id="UyWXllwboFjSRBBQRdUh-37" style="edgeStyle=orthogonalEdgeStyle;curved=0;rounded=1;sketch=0;orthogonalLoop=1;jettySize=auto;html=1;entryX=0.682;entryY=1;entryDx=0;entryDy=0;entryPerimeter=0;strokeColor=#457B9D;fontColor=#1D3557;labelBackgroundColor=#F1FAEE;" parent="1" source="UyWXllwboFjSRBBQRdUh-16" target="UyWXllwboFjSRBBQRdUh-14" edge="1">
          <mxGeometry relative="1" as="geometry" />
        </mxCell>
        <mxCell id="UyWXllwboFjSRBBQRdUh-16" value="&lt;span&gt;&lt;br&gt;&lt;br&gt;&lt;/span&gt;" style="strokeWidth=2;html=1;shape=mxgraph.flowchart.database;whiteSpace=wrap;fontSize=24;fillColor=#A8DADC;strokeColor=#457B9D;fontColor=#1D3557;" parent="1" vertex="1">
          <mxGeometry x="1310" y="440" width="260" height="210" as="geometry" />
        </mxCell>
        <mxCell id="UyWXllwboFjSRBBQRdUh-27" value="HTTP Response" style="text;html=1;resizable=0;autosize=1;align=center;verticalAlign=middle;points=[];rounded=0;fontSize=24;direction=east;rotation=90;dashed=1;strokeColor=#457B9D;fontColor=#1D3557;" parent="1" vertex="1">
          <mxGeometry x="170" y="490" width="190" height="30" as="geometry" />
        </mxCell>
        <mxCell id="UyWXllwboFjSRBBQRdUh-29" value="HTTP Request" style="text;html=1;resizable=0;autosize=1;align=center;verticalAlign=middle;points=[];rounded=0;fontSize=24;dashed=1;strokeColor=#457B9D;fontColor=#1D3557;strokeWidth=1;" parent="1" vertex="1">
          <mxGeometry x="480" y="640" width="170" height="30" as="geometry" />
        </mxCell>
        <mxCell id="UyWXllwboFjSRBBQRdUh-30" value="" style="shape=image;verticalLabelPosition=bottom;verticalAlign=top;aspect=fixed;imageAspect=0;image=data:image/png,iVBORw0KGgoAAAANSUhEUgAAAW0AAADJCAIAAABnmfQ5AABdkElEQVR42uxdCVwTx/ff3QQIyCEgN4KIKKAWBU+sZ6lSFUXrWW2rrVXRv7bWo+1PW++qVautv3rfWrX1ol5FxQMVVFC8RUFEbgE55Ygk2f1/2Ekmw26OTUgi7W/fxw+GZbP7ZubNd9578+Y9IUVRGE888cRTA4jgu4AnnnjicYQnnnjicYQnnnjicYQnnnjicYQnnnjiiccRnnjiiccRnnjiiccRnv7FJAX/kRSJYSTjb/RF+U8l8QFJPI7wxFN9mBACmMjPy9+8ZePFS+draqoBuJAUSeB18gN+Kr+C8z33P0dCvgt4UrvI4AQEi3v3bx89+qelpeXlDhemT/vSxcUFXIc30NoKAdEE/S5PPI7w9D9MlFLXKC8rr5WIayXiuCsX7969M2RIZOTQEc2aOSJIQTA0FB5EeLuGJ96oUVoo0ANC0V6S8orSffv2fPV11Jm/T5WUlKD6iwp3CU+8PsLT/7JRA0EBahZ43Qfa4YqT2dlZq35a9k77zsOGRb7bo7e5uTnQR1j2Dk88jvDEowlTxYDoQGIYcf9B0sOHyT179g4fEBEa2p12wQoZvhWeeBzhiSeSwDUYxSRJYXFXLt66ldgjtN+oUaP9/PxQDOLpf2K94buAJw5CQmgVoarqynOxJ35avSzjRQbfZTyO8MST/pSa+vTe3bu8t5XHEZ54aoA8EThJSfh+4HGEJ570J5KS0f9LgZ+V7xAeR3jiqUFyxftZeRzhiSe95AkXILoJr4/wOMITT/pbNxivj/A4whNPDdRK+D7gcYQnnvTXRGS8XPE4whNPPPHE4whPPPHE4whPPPHE4whPPPHE4whPPPHEE48jPPHEE48jPPHEE48jb4kaXxS2ouALhV7BkCuNleFGM471x5TUMNxvb/SlqrqxPlHwIt3DFHpFF6mm6ksOBZJIkTyOGFDy0OoHWP3p+vb6liLkcgY4oQj5ZxztfNJkmKJN5giEJRV3UpQpgIaRFxbhuV6VHMVwS9nfMtXUktK9IWQtGww5lNLDTSj+RNT9ipO6Tj067Tb9jwKihZH0KwiMaASi/s/EEYag0NJWb9mX3/B2o7PleCGk5UaqkCcSw1WmOzXFQGjI505SypWNpFTzQyd5JkwzvuqTRUvrN4RgN9BEKQsoIYAMxbsUnYPXXzMwoWIVATOfpJtAcNBJkQzbFMALAEOk4k+YHJUwIGA8jug1H1BMqbuiHD+Qsvwt96xi6ZCCqnQKeSLka0h94DPZeoKABROL1U1d02vODE7qMyCEMC1fP1imkInyS+NgYWAcRyQV+fShrqQo34GDcSdAE0jtmh3yWBxFCrrVSo2mUdg1//g8z2DxSUpKfPLkqb9/m86duyiqNwnfdr5yAG1CQg4oWNLLIxnldxxEHv28pxLyv5LIIkOYEoLZqEF/xi5fvnD1SrxIJBoaOcS/TaDpj+2itfjQQhYoicXi7OxsGSlp1ao1ISDqN4Ew/dxB3qu0MkiMSC2N83foQV+U1ukvOMQauNQJuWm19V6ntOkoIRQzHkf0cAcq5Sb9WfqBA79fi79YKxETuKBz53c/+2xiq1athYTwLZ9bR/wgLyruxKSvLRXnYRj2HCceFJ3t7T3pHccPhAJCCSWmnaiMWVdbW5ua9nj37p23byfRZ+3I2AtnRo8eO3LER3Z2dnTCRDNG5xt1YVBXkU8sFt+7f3fzpl9zcnMwDPP3bz/p88lt27UlCOItDDelUDQAzxhBYnU/y2tfnklfk1l+l8QpAUb4NO0ywGeGnblrfXcYoW32kZhysYGOGFJuE+G0YYXDp73liYxTFPWPc47QEkPm5ub/HXPi2LHDVdWVaNcTuGD06HERg4e5ubu9dSgpqH52I/dgSnEc0E9klAwTCHGybvhdmrTs6x3VwrbjW3HloAt+bm7useN/HDl6iKJIXOkDJgnczNXN5YtJ0zsEhRw7/se+/bvoG7R06Zcz5wwfNsqAeAcvpKWl79u/Iy7uMvARUBTtsqGI0aM/Gjwo0svLHVY1N8G4Mwsb07ZG+ZvCpPxjSQXRFCXDSYogBBRFUQQhxPCOLkM7uw2vQxNEK0EWG1U4QtUpqpWS0qLq51VvSjEMs7ZwojCphcDa3TqgRJxdWP3c36Gn3JzHeRzRkcrLy+MT4g4c3JudnaUAeKbcODVz/uijT3r17NusmdNbYbKmpjq+YPfdwtMysoaiFAoUThEUjlo+Ley7vOs53t064K2ASElx8YULFw4f2V/0qpClboCJWsdma7+AyqryvLw8INmmwRGUsrKyzp0//ccfB2slYpZOVMePna3j2DHj+/ULc3FxM52BI0cBMOGlSfnR13MPVUvKwCjbmju3tO/8oux2xZsCCscoirIya9rdY0xH50ghQasSGic/UHAwnMyrfHotZ39GWaKl0K61Q49Hr2IpDJvT5fSu+5MLqp5/2y3WZEbxvwpHrsVfjY4+rFC/tdA77TuP+HBU7949oOLHkDAdBA4KDbSBceVCBLY5CIWnIyFn/62X0W9kr2WknEkcZ3Y1uILjpLnAJsCxTz/P6ebm5si7gPFMKqYuASpOaeVWfYsUgEs3RCqTxp6PPX3m5P0HSYYdII44on4g6i0MtbW1Z86c/uuvw89fPNM0OLSiBIqE9uv7nmHnFfAcsaa9UhKelMZdz/m9sDqDJGUUgVsL7QOb9QtrMQ3IxtXsPXXCIK0CfDaz8urpNdHfoTfil0VsFrT5cvul7ue6pKHven7c0Tly+70JZW9e9vAc96joQklt/n+6XsAaQdaoxogj6mbC48ePDh8+fDPxSk1NDQARVM0Gn9mKt7mZqHv30A+Hjw0KCmqwN04uOoq1gmknYxiWUZ4Um/FbiTiXwAkAIgq8kHc1RZECXEDhMrIOInAcF2AyqQAXmAmturqNDPUcr2QPPlYOVSTtV9NuBGlrIHkzMfHo0aNJSde4YLGRcEQzn2DqXrx04fjx6Pv3b2tVgtDh7tix6yefjGvXtkMDugglBaAr0U2q8E0QNTXV0Rk/5Lx+QFKkDCPNcGF7p/Au7iMcLJorNhDrfpS8yb6atTu19JqMlAG5cbcJGNhqrvI2NWo1XEjWJEZ0dRvR1ins7PNfiqpf1JI1rla++VVP53Y5i+GcFpj/CT+rxpAB7NWrooOH9sXFXVSo3/IpjUIG+MyAlboFTVIdd+Xi3bt33n9/wKiRY11cXBoEIiozj9IiJZZWHHmyIL/qKR3BIqNwiuaHxDABzQ/4FccwgtZyibqPJInjJCUQSikZJq2+kr370avY932+bGHXXunep0GEFhQhgiCaXP3sjVt4JTc399Cf++MuXywrL8bxt7zxr6EGcGZm5q5dW27dSqyqrlSACMFhgLBaifhmYtzz5ykdO3SbMmVKs2aOJKWMKNGrhrlQqY/Q+7UEiAnCiJjn6x6+ipWRtSQpwwRCryZt320+sYVdx/rO1DpyEHkM9fs+ryolLmvHi7JkocAsu+LhzvtT2zULC/eZpQhUI5nKL/hJDzopq5V7mqUV3rZBaWU32jj2qhM2mjGC10dUbvWhXoazZ88eOfY77QphqehqVFwUUNCb3d3dR474aOAHQ0QiEYMBzs45dN9evjpJZVhs5oaHr2JJWS1ZhxikAtRwhCuKbeAQGE7hMooigEVdJw8yKSYQ+tp1Huj7tbXQEYIUhsYs4jr3KtjpOH788IlTR/Py8ow6mnr4R1BWa2qqt+/YfP782fKKUr2wXikYTs2cR44YP2TIEAuRSC8EYdizCgOENmT+Tv8Zmip2Fq79fKb4O/RANneVG3b1TTbySUn8xYwtFbWFwF9mKbB+33t6oFNY3T31HC71VpHbL495Nw2xM3fNKE90tmpZWP3c06ZdyqtLnd1GyGHurS4JjcuuQYcZ7PDt37/v3v2bOE5wnN7qrBvkbIswICDwk48/79ixo6WllV66bj0EeVJ88WLWVuhdA1hQX1FS0ckUQYBdG6Cz1H2k93Eg52YCiy5uIzq6DkHQhFTE2usEJZhYXHvrdtL+/btSnjyEM43ABTJSghtBGdbbrikvL79+/fqefZsbjnRg44miMByrG+6JEye/0/4dONy6oQlVD8rzqlLOPl9XWJ0BxtRMYBHkPKif91TFOqRUWhVjpIwcQd97NXvXzfwjMrJGVicgAlfLFgNaznK3blPPM1IvegAxczDUVUc2hmjSxulnJZ88fXL0yLHYC6ehAa+EBtVbBsrehHeq26QE1/v1GTh6zCj/Nv5Klwcn2YIGBfmi/N617F3ZFQ9xnMBxXIaRgrphF8gwUkgB40WFY5XmniJpq0eAEeg9imgBCoARQWA2Zq7dmo8NdopAfLr11ytNMKd0Kl28FEM7bpld9Fb1ESWfUpn0/r17u3bvhK4QXTjUbPXIt4f7hw0ZNmxYYGBb8F5doETe24U1Gdez9z8tviKjZDhOCAiBp037Ya1/EAls6/pW7rqSIk5TNlf1FI03ZM1facsyy28BPxqB4W0ce3V2H+FuHYCqMArfB4oa9Z39b3vTt1HgSP0RlRYUFJ08FX3iRHR5RTFYNhVQojfukmrcV0I7O7vw8EF06IEn14fTvQWiQlJLrwHvGkHhdMQRBVwhOKUi0B3VShgaCkWRtIEroC2iOgRSoJIcZVyatOzuOU7h4a+/QqqnrKysU6ejT52KpuNr5GLNMvreul1Tt2acPnPy1MloEP8GmARKJWBVEdVCcBhf9uwlFZ2MNbVzHDpkZHj4Bx4ebtBpwgFNpBiGxb7Y+qDorERaDUZWOSJK1QO6Y0mggKBeFcVsR1y2ismfV1mn4LyseUFQUooiLIRN2jsN6Nl8ooXATBGgCL6FIBS9GCl9qxT21rd+G5c+cjPxxq5dW1NSHiOBelh9yWC7JzQrt4QWmaOELX1afvzJRE6bhbQ6kJCz/2b+4RpZJRoJAnZhgJCROIWTFHSRMHoYhpDgOEl7W5VKCsN1Aq6ArUSwERDecpbGyCUlkw8f3V275id6r5Q9zRRnkXHy7eJITU31n4cPx5w9npeXg7pfOWgZWgdarYS09gsYP+6z3r17ctzjKH/z8uCjOSW1+WDUbM2dO7sP7+w2ghFXrdwYphCLpp4vnGGS0IECODgvQz4uir2Ws7fszUvQHHuR+6jAFQ6i5vVNG5I5ERoBgmDcx8lktHnTrylPHlLKI3YEK2ac4M45XNPUtFd+sOX5i2f79u4qKCjQduSJxHBMLK24mX/4jbSKoHBafHH4LqiD0AoFwXCvKt+qQB8QnAZuAN9Fb4ZX5DYaSd4tOJ1XmQKlUH2z68yEP/88pAi4YDUZU6yQGmemCYb77NmzO3f9RntDCFoNYYyvGg8X1zwpqiUkNS1l1U+L09LSNZx+RunY0x8AiAgFFj08x30WtJkGESm6w1IPj5TbvbQSUc9sRZsAj/DW6UTtnPtPeGdjD89xFsImAlxQ8abg6JPvkQdKWbAIIalRTGGiMfhW4U9xbbWa+a+PiCNR3lpIXFtdXSPmwuobWbWy70zSeXQrBBQuw3H8RdltuUqsfiKRFCmVSPPz83U6CcroVVzFGVbDj3t2Tob6l7K4otADJkKUMTXKiFqqqq5Me5bC0Sn2qiYTwzArs6afvbO5p+dEkdCWvixUqHVIeiElgsBD1UT9PlQgF8g5AI8g0E8QCa17ek4c1269rYWLFCdLa3IVXwR6DcE9+9H/Io6oHEgNBjx3257GI053CgRc4mjgyXopUENIEjOBVUgAW5giKIqSURLFkXNCp/7k0lcMGaXqJRAijDHujG5HUUOFHwcn6SLkNJ+4VCfDh021b2QcM5XISBlB4Q4id7mVAZVFSpETAJfCgGOlDaJQG9+QNWJpRaWklP5XXCktrpVVYjg9iBSyI4NLAbI4W3q3aBpCUHVW7YvyO/WO8zUOE0YlNZY4NO7Sz92Tr/nOhuxZKOJTTaOPELQjVkBRlAA341g9VyAQKE7H6LaoUBTZ1M6xpqamVlLN6iLSSGsPeBE7qrD+MJEykhQQZiSpMBAoFQaa4n6DMQlcVIiJQSo/0D4msbT6Ws7+qtpid5uAOpNHcU4ir/JpeumNJ8Vx5bVFFCWF279NhI4eNgFtmvWSpxRgCiFwq5EyDKdY5szbToXR6HFEx5VTPpxgSw+kC2jZ0jsvL+f69YRaiVgpl+q9ifqDSIOfoLtKAiJiSaCPcCGZTMYZRJSS2sTKunev/oMGhz9Lyzh9Jjo19Skr7SNhzDFVAfHKP1FCHJeSlIzCSA93z9DuvYqKCuOuxDJY4jIoqOKjddcGpzAKILc8xhTJmEX/WiLOTc4/LsXJ3Ncpnd2GAw0iIWd/Qt7BWlJshgtlpAy44aV1mixRJimoKC5MLb12q0mbD31XWoroqBZlmBwQbEKAk3i9zR2SDjrCeH2Ek6NEu6aAQAOOEwH+7YYMiezff6CwTkkm5Scy4Nkzbd5EXH0IuXo/JvPIjPFVEooVoUsYVB+pe2DXLr0jh0aGhnbHMKJd2w69evU+fvxY7MVTSFSYgXd5CIJgxA2iiolKMSBwweAhHw4aGOHfJhCjsJizMfCoYX13GMEdtjSPOIlRAqVTk6S7HmYGUQZuEBRO4PIowaT8I9ey98goGUbgTYSO9pbu9iIPcFtF7atycW5pTa6EkuZWPjya/u2YgJ9p0a3rWEXCNDrSvc7ukcrT6OGI/4XHEY6mjeYlhcKkOG2xOzVz/nD46PffD0cyAxD9+r7fISjkclzs4SMHtIZFqhJTgos+YvrNcrweJBAG1UeIli1ajRw1pue7fWxsbOkjiHUi6+Dg8Pnnk3q8G3r+fMyxY4frFAHOfmuu6EWS6KkoBnAwTRtc2rlT6MiRH3Xt0g3qhOHh/Tt1Crly9RIcbgWTWqCW5KzZ0VNamblWDha44qgePe3rdGJ5SmBSLK1MyjtGBxPiwc6Dw7xn0Nmq5IEeJEYSOJaUf+xK9q43pDjn9eNn5fF0DhFC4foBTZbhDNhoBMFmjR1HdLL6gCj37tVv0ufTvLy80MxGYLQcHByGDxvVKaTb4aMHT/x13EhREuAwHnBbmABBQBQJgiNa5olAIODiCSJwwfDhI4cPG+3h4YEgqdIP4t8msFWr1j1Ce2/YsJYVjWJc6wa93ry512cTp4QEd7GztcMwMunlsWs5+yyIJv18pvg36w2G+9Tp6OPHj9AJSrRv1bVu3Zqj1AkxXErJ6zzI78fh5lHd3AZOK1yx6f+yKr1KWozjpLXQIbzlrHoqJA76jujsNqL8TWFSQTRGkfcLz/nb964f5w5CB0im7Uk1XpWE+Gc5WcHtzZt7TZk8A4AIcoiz3k1eXl5jRo1v3bqN4cUdkW8TKCYUTThOoGFv3AZOhX7H2N+1sbEdOmQEBBHki8qvCAXC4OCQPn0HvC2BIXDBtKmz+vV9387OLq8qZXPyJxdebH4jrSqTFEQ/Xbr/4cxKSbGXl9fkydPC3hsIdlhZIELCTWI7W/svZ84JDHyH+yKH46wzTThzSsPoIRj9JMTNpTKpOi91sGtEMwt3M4GFBSEiYRJ5xM8Kc18pDSheHzEsWYqa2NraMBQZdlIcJyenFt5+qWkp2P8oqdAdGJhibm6Gai7qlmiSIs3NTIcgDAXK0tLSwdEew7AnJXHH05YTlJQihBQlE2AEhVFZlY+23f3ss3e22Fk4u7q50eaGFDm0qYTUJlbWnTp1mT7tSxcXJx0PVelAdhauQkL0RiqrqC08nb6is/sIWwtnEWEnFAgxJIbdQdT8iw67VR00l8IYxX8Q/YPzxavMM4BiitBMKLIyw3jS5l1m9Bu7S02818hmj5TVrfYl1dmYTIoRApwkiTpDQoZhdWqalBSLpZV2FnQiZWV9BvmpHIoiBYSgXbvgiRM+Cw4OYmfGMyyaOIg8PGzaPS+9SRHE41eXnhZfEZnZOYjcXa397SycLQW21hZO9iI3OwtnOpJVWA/x61BGKCQs/nFC9Q/GEXUpxRvtHnsjIVy9PxvWeWicfSijJAQB8rtQQkrAPAxJMSw++enwNq0DPvhg0PBhw0mqnr2GarK6Hf/VYtwRA3xmnJS+zq96KhUISZIUS8pzJGW5lSmAczNcaCGwcbJq4WnTtov7GAvCsv55HFJKvmHk8eVxxBQqibpFlYcMPaCZXTKmsWCKHCYEGEbhuIB2W5AkScf74hb1/RfyRC1NmlgNHz7yg/Ahbu5udDiyDiptQ6TSztx1fLtfHxaeSy+7mV/5tJYUV8kqMDp+DsdIkpJUSktrKkqyKpLvFJyO8PvGx7Yzzb8QxrkBk43HEeMjCCgeqaqYk+n18H+TJ4VdU8pEZS65jrsMx+UpoCiKoAiwCy8FEXpSiQTuevR/f8iHI4bD/DI6qbSawVYb3slP/bZzDgt0CquVVVZIiqtqX1W9Ka2RVYjr9JRnLyuf1khLMAyrlpQde7ro/0KOWAgsFfqIEHsbgQX/oziCLi4ImjCVVR4h1HlGGF4SlVXsNNSjMrEHhxDgGI694/zBg8LzryVFMGM2gREkRXk1be/apA2GkT4tvZtY2Xp4NJ84YXJwcIhIZA5TFhlH9VBpN6JCSoqEtiKhLWbpg6hUmFhW8azkRsyLX2pJsUxW+6g4Ntg5Ak2YwNs1JtVHWGtLvdquJMnjiGrPCDxUXVxcfO3a1aFDI0HCWsZMQ7NDJ1y/8Vb4pNOU1JQUl2IYZmfuOrnD3ut5+27kHZJiFE5iVmZN+3lNlic3xbB+fft279YDxwmAIGylwwSA+Ffq0ufltywFNmPbrrGzcIXHbZDg1zpwaefcP73sZkpxHIlR4tpype0G+PxHgci/ob4vW01RrqJGO9iPZi0y4ezC6zkLNEqaTCbTqoHjdagh27hpfdKthAkTPvP3b8eubvnqVdGFCxd+P7CLY9Zl+kiuwVwqQDEhKdmG31aXlRf3CO1tZ2vXs/mnHV2HnEn/2da8WXjLWfXVDYKRc9egJNVQ9wOOTrW0/I20qkZWmV/1lK6eh5YNYtZgBUcrzAQipAqnGsOTIvjzvsaya1TWUjKB+qqI5iZNsM8P5hKB4YqSWkDgtJSYRqNCtBxZwqVJt24kJSWOGDFq8OBhPi28QfS3WCxOuH714MH9z56l6poR2lBDAOPl8/LyVv20rGuXq5FDI7t1725t5jiqzXLglTSZ/UWC8g64apSEHg1Pm7aZ5XcxDDv3fIOtv7NrkzbIzQRcegqqn2VW3APf8rBpK7e/FLmOQGHgejiCE40nq/O/TR9RF+ZgDHlChFWIYW9IeWgoaexTvwQhkGEkjoHsG3BlE+oEQ9qYJDGcPHL0UML1K0MGf9irV7+c3OzTp6MVlXQxNSn4dRga7q4QdTcQuOBmYtzNxEsDw0cMGhxOl7mSn8Vnuz8MupDINTuYDJXQmFr5HecP7hScrpaUVUvKDj6e06ppN3ebABsLZXHY12+K8l6nPC+/VSOrJDDcpUlLZ0s/jJXkUQ5M8gxJMCie10eM4x8xUjSR1okBKlqZ4MgvnXaEwDCZ8kW66LccIEB5jDgvL2/z1g3nzv1dXFJcZ8goczgSHKFEMS5SjqKlNUEMOwHKmb+jk25d69ev/5jR4x3sHVRqQAaUBDp5P4IZOF3FRtUQAL++nYXrCP+l0U+Xvpa8JClpSnHck5IrDK0ZHBbHMKyphevwNkvAUXVFXVc6hJIiZGAnAWZmxRv1Ub1/w36NukpaBvezAkGRkmLanY6ZLG8AOBAoX5t0P6zFccGHE6P+eTyC43OQacZ12YQOLJUIxUAucEKXToZAFr0qPPTH3qTEG0OHjhwcESGsU9SExltFKBxalBi7W9jBSu7WbT55Z8OdlyeeFMeV1uTK6OKKNHDISBIDVqqtuUtbp/c6u30oEloD2CVw5YYOqKam9MvIa/rx/hGj6SNs81ipnhjaz0rgGIhTMGWYEO2FqTOf5PnXtCu3pMLPiin9KZqer8XW0LGUDDP8ROMgkpoRqv51Qs4t7XHEMeHzF89++fWn02eiP/10Urdu3YUCoUpOGjroGC7DhfW8G7hqNIeGD4lh1mZ2PZtP7O7+cYUkXyytrKgtLKp6/kZW42nb1tbcWSgQ2Zo5KlK9wsRuoOinQqWicFxevk+I4VICb9RT9Z+HIxRFCgQCS0tL1LGq0pdR/7SlYYRKgJvhuJAi3wDHpwlSotXp1QSOUVIKI+wtPLgwKTQT2ts7Y1iK+uqCaue/3nne5G+hCAI3Y2ycNdBFApkkcDOSktUrLYhjqWkp338/r2fP3hMnTvH29jaSVlJUk/mi/I68di/LviBwQkbJ5BnLadcvgAahQOggaF6noWAB8mI3OLrpU38DiHaR5FWmpJbEg/B5L1u6sj0uJRtxJjSMu/7ZqAjHiU6dOpubCzWYwfJzegKhr09rA+pAGIXZWTSzFtqji5UplK86XYQQCixa2Icguq76xUEgHDJkiJ2tPcwSpDHJPoFEQJHsbM/o1zU8B7zrnXdCunfvhqHZOtSTq6urLrBFwORDFNhDxUlwhaRkcVcuTpg4etfOnVlZWYYV7Bb2XQQkVSOrPPR47p9P5meU32aMOU4IGLJXByg4RArFT7kKI1QmxAEJW+WwiOVVpfz5ZP6+hzOraksICve0aU/Is8AKG398tmDRokWNh5ujxw69fv2a7lacRn2K/qxUIps39xr/0efjx3+KK4wXXGO+mpYtfR0cHIoKCkvLSjTcZmdn169vf/umDvJXq1k46cJUAq+mHYuq0sukxbSo4MAwoFMx09KNUziG12neNG80yZ8JPsA7YdABpaoVJE5hCm8chZH2Fm5D/BY4W7VUasIaEczLy7tNm8Cyssr8vByqjm0KowRIf1LQ1YfOCBV5NehaXEiZHvm4sHgmnZq5DPwg4otJUW5u7mBZxrVlT/P0bC4S2RQU5r5+/ZqitN8PeUPurPeVe/dv37p9g8DN3NzcRSJRffEgMb0SAbWx751T+bC8tojCyLKa3Kcl1yreFDpZ+dB+jTp6/OpCemkSjpOWQttObsMVvQTzhpAkpehAuSTgiGVUp1iJpa8vZ+04/+K34upMoHl423UYG7hGeXPjX90bVST/2HGRSDJEeWVWMNOsm9h+8MHg8AERfn5+bBNGpV0Df8vKyoEVKtlaNEWRXl4tli5Z7dPCR5sKrlRBHxadu5534FV1FiYQEhQFanGq9LzCi/VLc5IwzYQi2yspA6JH58ICaeJxnLAya9rRZVDP5hMRjZqr8V9bW3stPg7EgNBLd729D9i9HK0MxZ/YVd2IgR9E0nux73Cvd6m4R5qWlnHs2NHYC2foVGb16r0j7+WiYshTfwsIs3btggcNjAgP728oxeRhYd1wl4hzgc/bUmjnbRtkIbSuqH2VVXFXRtZSFNXBZZAiAZqidB4b62BFXsX1hJz9t15GV0pLBRhFklgzK68OLoM7u47A/lERrY2ovi9JkePGD0dxBCqovXv1ixw6Mjg4ROtDNInCo7t/RZ86F3uCVUicbN68Dkc4WNdIWCGda/NG7gFQXq9O4RcIcZLE6VK/tIdfAOEDOuoBZIDCnUClV1TnJEESYaTkOCEgzP2aduvpNQGpz8g1rhHtkNzc3CtXLh48tJ8Rk6q5jrr68zjKTP11hkz7zmPHfNSla1fUzanrYRZQJzz6r8NxVy6qYY8jdCplxtxM1L17KEy+2QAHldKxmpR/5HruoRppCa7IWgDQn6BwC2GTqI77zAXWckdpvUBBqdJ4BC4SOqLsRfmDmPS15bV5BG4moaSWAuuubiO7eXz0Tzxl2ij0EZhgdey44Ui2XgJUY504YXLHjh1VxjtrllR49hc+XyyuvXf/7vbtm56mPkIt8+bNvRT6iGZ5VfrY5M+ksPLal9dzDz4oipFQUiFFgGL0ADvQaFeYYl5+YrW+kkLS6T1hYXASp7ys2/ZrEeVu7SfPGA7DRvRN0pmVlXX46METJ45qOK3HTR+Rk1Mz588+m9wjtLednZ1+yM4AnarKyqRbN3fu2pKV9UIDh5qdxIzro0eNnzr1/xoWUVJvJ7tEnJ388uTjVxdryRqcLoomJEQeNu36eE9ytkT1WZjqHcn5rvCzimUVR54syK96SlISGSYv3tzFfQS9YJD/RN9lI9JHUBwBYvrh8NGRkR9qPjGhR/iZWCyOifl7/+87iopeAS8X0Ee02jXyyOX6kWCAgRJx9plnq7MqH9FWST37BWgZMI4eTgygd4CK4qA8CbCnrc2d+vlMaWXXQ7HCwwpKTCzjruiBD1KZ9EnKky1bNz18mKzwWWrZ3wU2BVLCQp7XY8iQ4WPHfIwiiB4RpSqPNdTUVEdHH0W0J9X2l7p5Xs/tZWv/7Tc/gEoaekuL0pGhLLtFiKUV4I9vZNUySmIusKqqLbWzcKadJvLtYZAaXhnMToMIKJp1++VxKCEuTVoOb7OETo9G1BMz3q7RG03Gjot8mV9gY2PbI7Tv1KlRdnY28Ny3RkVDy7PRyvLwK69fV+zesz0u7mLRq5fu7p6rVvyqTQEmWaXwkeID9M8npXHnnm+olpQpPCACgBR0Fq96OogMI8GZTgLDKRyDhkxXtxG0K0QlXkgVpzy0CJm2JCzkmb9PHTi4Nzs7S6U/QsNEbWJl3a5dSFTUtDrMZWlGep/NRzL+YxhFkBiZn5e/e/eum4lXaTTRCiVM7HN2cu0e2nPip180tW9qCDNBnqmMjUdPSuKu5/z+qiZTRsoshE3e957u79gPxMXVbx0mlZH3i/++lrWnUloKFg8rs6b9W87wd+ipRCjEauZxRG99BDt2/M+7d5NHjRrTru07CgRRq+NxXPo0pJ8gKTL9Wfq+/Tt8fQNGjxoNzs5rwRHUxIDrVX2jI/bFxgdFZ4HThF2YgsBwGSWjCFxYN2EoiiAoSmZOiPyadhvQ8kuR0Eohggw1pKF9yzYi/vjz9wsXz7Kr/KiOQ6OIgIDAyKGjwsPDOIYdaQUU1g1gBxRWfiIfPrq/d+/vSUnXSEqmGTggw3a29iHB3UePGYVmMGrYmQnEvY1WAlUYrTEZ61KKL7+RVgHj1M3Kt7vnOLqUhNKieVISdyvvaFblIxDzbia0au80IKzFNNYqha5VvF2js/3JcEER9S1MQ70FU6HdMJ+vcfwoxH9GIWcf6ikOdU+olBSfSf859/VDseR1PaOGIHCyTqWgK5jLgIPNzcq3j/cXPnYh9ZKYUwxfXf1dEkq7SsKaOexKsVhaWvqff/4Re+G05onavLnXoA+GDh481MbGlvM2WUMWfwJRIeu0p7//PquskaieevfqN2hQZNcu3VRuDOkZdUlhTKOy3i5M3RUpKT2dviK19Bo4k43juJdt0Hs+051FPgXVz27kHoR/EhACb7tOA3xmyLNSK9eh+jbUPy2wC//HZXD7B1FGeVJ89j6Q4BeYOYxqnk0tXLt4jqZzYb1NHE9IuH7s+B9Jt24od1hByTiMaGJlPXhw5AcfRGjfFDcmlZSUXI6LPXBgb9GrQtY2cN2se6d952HDIt/t0dvc3NyEejSmXAIxLKMi6UbuHyBpAIlTlgJrJ0vvoprMGlklsGE9bQJ7NP/Yx66jEtH+afYLjyMmJ8U27cOic9dy9pbU5gsUR3JkGG4psO7kGkkf07JtDHpseXn57eTEbdt/y83NAS5VAjfr03sAw0B4u2ZvVlbWufOnjx07XFVdCZ0mTs2cJ33+f126dHFwcODmHjKsKo3Vs3Bx6ZOS+MsvtpXU5gPsoFPbE7YWLu96fhLoFAaPzyiiWsl/Ry4xHkeMDSV1/4ulFckvT4BIEwzDAhx7K6JCSKRY7Nvnt6Sk5PjxY0m3EqytrSMjR3YK6SwSCRWHTYm3hSCMPN6ZmZm7dm25fj3B0tLyww8/ihgcgTpTTcoq4hpTnMet66taWWXyyxO3XkZLyBoCF9ZbMFAr5l9EPI6YCEoAZMj3AmnvBrrh/VaVEVLzqmiyDC/a/CzovpvW7AQm6FLEJ0oxCneSMGu8wiWPurTIf+K5Nh5H3hahHlmF/1jpSMPkM4HCGnPeTdODCDdMMcDNDWeNpFglNSkkxZFSWyEV1xWDrtjh/tcoJjyOGFsTUab5VZwoZ4xAIwARRGlizY1GWp8QCTl567yxvCTykZXKPdb/RkOGQXy9KONBdP1KkTgyG8FpcRxNSkS+ZVbl7kmiMYAITC+msgIRGoWIRoho+IrR9E0UQUhkYQAklP+KY/VuoLB/X71HXh8xvgmtXO1V+VOpepO5MZs2jaxjG8FOh4rQD5Vanspg6H+Vo4THEZ544om3a3jiiSceR3jiiSceR3jiiSceR3jiiSeeeBzhiSeeeBzhiSeeeBzhiSeeeBzhiSeeeOJxhCeeeOJxhCeeeOJxhCeeeOJxhCeeeOKJxxGeeOKJxxGeeOKJxxGeeOKJxxGeeOKJJx5HeOKJJx5HeOKJJx5HeOKJJx5HeOKJJ554HOGJJ554HOGJJ554HOGJJ554HDEYgVphelQM06/ImIaqa8Zol2ke1fB36VFizoAvbci3Gig5xi5Vp+vzDc6PMeSwgc80Co6AmoloETatU71+sUXdOhG+iKRI+Fcuj9KjXVo7neNLtVao06mEHfulaP9z71VYElxv2dK129H3sjnX0DrGB/Qrelf/49hwdhs1o5jBqxGyH6ihi7iMV8NLJhrLrmH0tUou0WkJ7+c4wVR2E4ET8DlGrSYJeVApNFwGVZ3kcSltq1mwVHYjl15l9Juuhf71mzbsm9lYpgGbNE9pveenOiBTJ1pcUMyAFYg1w6g6EQWfVS7eGuYUR2pcdTk5yi56m7rPxoASxhzTg1ud7tE8pVU21iBN1gNBTPBSlXqKyuE2Rieoe6aug6tBXA3YXZq1PGMssYTJAILLusERF9XBv1FBBF39wJPVCZbWtUJzw9lfRFdddY/VbEtyXGoY8qd1CQVv1KBmc3mvViRSyZVKpaCBoMbWqhi9zXb8aZYBNp8Gsb/Y6gb6QYNBoG58G07G1Udyc3OTkhKzs3NSUlJevnxZXFxMkkrWLSwsHBwc3N3d27Rp4+Pj07t3L0tLKz3eIpVJqyqrmlg3gVeEAhNVopfKpPAz4EEoELJFHL2NIAiV6yrjW1lZWdevJ7x48eLp09T8/PzKykqSJAlCfoO1tbWLi4ufXytv7xYdOnRo166dHmupur+q5Fbdaq+SealMKpVI81/m29naOTg46Nqr9+7du3vvbk52dlras4KCgsrKSvSv1tbWjo6Ofn6tWvj4dAjqEBQUZNj1VoNeU1JS8uRJChDm7OycwsLC4uJiqVRKEAQQbIIgAHve3t4tW/p4e7fo3LmznZ2dUfUCkiJfV7x+9Ohh2rNnOdnZgLGioiLGbUBmPDw8AGPBwcGMoWkIP0bBkZqa6rNnz5458/f9+/clEkm99+E4hmEqX2ptbf3uu+8OGjQwNLSHTkpdTU31F19MzszMtLCwAFecnJx27tyhHypxlDOSIlf8+OOlS5fBxcrKyl69e/744woUwsCdYrF40qRJL1++BBe//fbbsLAwdfOQpMhzZ88dO3YsOTlZ69DguHz4vL29+/bt+37/9/zbBOotE/Ar48ePh9zOmjVr0KBBWrGjvLw8KSkpPT09/fmzFxmZJSUlGIaVlZUNGxY5f/4Cjm9Pf5YeExNz7ty5vLw80DTYQEZ7UfL09AwPDx80aJBnc08DaqCM1l26dPHcufMPHjyorq7WzA+DrKysAgIC+vfvP2BAfxsbW8MiCIMxdHJp5Q0y9v7770Ok05sxw+PInr17Dh08VFhYyLGj2RQUFDRl6uSuXbppnsYort+9c+eLLyajt3Xt2nXjxo1G8raSFHnir7+WLl2GNvDI0SM+LXzYd9a+qR0wYABcVBctWjRo8CCVXJ0+fXrPnj3p6el6rgk4PmDAgAkTJvj5+TVkkQkLCystLQWf582bO3LUKJVGE4DIy5cvnz5z8v69hwytAVB4ePjy5cu1vjErK2vXrp0nTpzkiJts0cJxPCJi8KRJX3h4eBgQRMrLy/fu3XvkyBGVrVOHJirF3t7efuzYMZ9OmMBWSPVTQPbu3fvXX3/BkdI811T+FVw0CGNc57lWLxeGYTcTb6xd87PKaYDjeJMmTVxcXKytraEGWFlZmZWVJZFIVDZy8ODBM2b8X7NmThznw8mTJxctWoR22cwvZ376yacGdGLB62lpaWPHjkV53rlzJ1Cw2SQWi0eOHJmXlwd+Xb58ef8B/Rk6SH5e/urVq69evcoeZjMzM3d396ZNm8J+q62tLS8vhw9k04QJE6b/33S9ZWLo0KE5OTng8/ffL4iMHMbulpqa6gMHDhw5chQsGOpo8ODBixcv1ty3O3Zs37ZtO9Bb4djBD87Ozi4uLtBwwDCsuLg4Pz9f5dQViUSTp0xmDLquSAqdCLGxsStXriwtLUWVI1RW7e3tnZycLC0t0aEpLi5mLKLoV1q3br1kyRIU6PWg2NjYtWvXauh5e3t7BwcHdK6xZYbBnq+v76JFCwMD2+rHklBvi5GxRm3YsGH37t1s+OjUqVPfvn3atm3n6uoCQQE+Nj8vv6DgZVzclcTExNTUVHSoTp06FR8fv2TJYmDmaBWFiIiI+/fvHTt2HD7h119+7dypE6NrOO4LqGsyMP7nzJmDitS0aVHt32nPXWTh88HPixcuLly4UCwWo/cEBAT06NGja9cuzZo5uXu4Q7cL+FlTU/2yoCArM+vy5UvJyXfAtIf87N69+86dOytWLHdxcdNglus6weDbT58+vXnzZpVABniwtrY2MzOrrKw0NzdjvBTt21eviv7zn/m3b9+GX4fYERwc3L9/f3d3d09PD4Z9WlNTnZOTm5mZee782eTbd8CCDIZDLBb/+suv9+/dX7ZsKfiWHuoYuB+VZ8AVeIW/v39QUFD30G4uzq6Ojo5N7ZsyOhawV1RUGB+fkJycnJqaiupQqampY8eOXbt2bc9ePbXuwam8vmnTpu3bt+M0oWAaEBAQFBTUpUsXd3d3R0dHtu/jjVj8sqAgPy/v5s1EMN1QmUlPT//kk09XrlwZFhamR6dp10fUbTqi82rhDwtjYmLQG8zMzMaNGxceHq4ZetGHX4u/unfPPiBVwNIDg/fdd9+NGDGCI9598vEnKSkp8Iq7u/vRo0fNzc0bro/Ai/O+mXvxwiXYb507d964aaOGfmfrI+Hh4fCZp0+dXrRoEbo4DBgwYNSoUeq0G5V20+XLl/fv3w8bDifzunU/BweHsIFDs6Bo0EdIkly+bNnJk6cYYmNvbx8Q2KZDUMdWrfycnJo5OjqYmVlUVlZaWJi5uLipfO+9e/dmz55dVlaGPsrX1/ejj8a+9957wJWg1WH86lXR6TNn9u3dB9V7QN7e3hs2bGDYONynx7p16/bv38+YqEOGRERGDgsKCtJprzc5+fbRo8diYmIY6//PP//cu3dvXTd0IbqhKy5kTCdUgowx/goY0xVKdPZfMF5QW1s7derUe/fuMaziKVOmeHl5cZmWDIqOPr527c+oNwvDMAAlXNpWUJA/fPiIN2/ewHa9F9bvp1WrdRotDfTHH4d++mk1On9OnjyheelThyNsJ0vr1q3nzp0THByih1EJePv11w1Qr8FxXCgUbtz4G3gg900cgCOAK4gjwCafOnUqWMcgtW/ffuTIkb169Wxibc1d0buZeOPLmV9JpVJ0rZ4xc8a4ceNUbnhpZvvVq6ItW7YcPx6NCrOzs/Pu3TvVoZiGh0dHH1+6dBmKyEFBQXPmzEYVW13DSR4/fvTjjytSUlJQNDl48CBjldUcoBQdfXzZsuWoJ7Vdu3bz5s3VwxiBT4aMoX89dOiQOsbUKnH67atDmj1nFgARoEGYmZktWbJk+fLlEETU7Vcz9rfh58jIYYcOHeratSu6v7NixYpr8Ve5xFy7uLitXv0TKk8XL1z6449DDTeYgVvkp59WA5bAz59+WgW1bl2B6cb160BeAbfDhw/bs2cPG0TUxY+w2Rs9esyff/4ZEhICtTmJRDJt2vS0tDR18SYa2IN9CG4rKy2bOHEiCiLOzs5LlizZvXv3oEGDbGxstUYlwImRlpY2fdr/SSQS+IqgoKDDRw5//PHHYLdL1yi4Zs2c5s9fsP6XdVZWSguosLAwKmp6TU01dyOOwImCgnwwV+Hex5AhEdt3bIdzVV2ICiO6nNEJgYFtd+/ZHR4ejqok33zzjUqTCrUBUaxctmw5RRPgbdCgQTt37VQJIloPuMEnQ8ZQy3TOnDkaQmD0xxF1xy5WrVqZEH8Dip2np+e+ffvANqFm7tmPRcXaw8Nj48aNw4cPQxXLObPn5ubmcpGw0NAekydPRufDTz+tfvz4EffgSwb/4H6xWDxz5kzUWp755UxgNTC+pXl+ymQyEInw3Xf/gRdnzZo1f/4CoZlQpSjA1YkhYexDMR4eHpu3bB40aBDkUyKRREVFvX5doXU4NIy+VCadNGlSZmYmnGB9+vQ5dOjQBwM/4P5YwHx5eXlUVBQqtWCi+rTwUXlOSrMoou96t0fPvfv2+vr6gsfiOJ6Zmblgwfc6rRybN29BPV+DBw9euHCRutYxgvfhGKmMrBcKhMuXL38vrB8cmszMzD1797BHXOWy8dtvv0EMAir/4sWLNTsc1GlMjIcTBAEYg9CZm5u7b98+nc6X6HwUAj43Jibmzz8PQ2nw9PTcsWM7UIe0nrNSuTAyvjV//oLRo0fDjpNIJGz8VkdTpkzp2bMnKqwzZ34JliYuMXzs0Eman/mFhYVwqX8vrN/HH3/M4J8LToEgl5WrVsCtxFmzZo0fPx4VIIZaCz8zoirR5qDO4MWLFw8ePBi+says7D/zv9OMleo2CwW0grDwh4UARICcTZ48ee3atWjQgVZQhm357rvvSktL4fIwevTohQsXMRCEcU5Ks4KGvsXb23vHju3u7u5w3b58+fIffxziCCI1NdV//x0D57m3t/fCRQs1TCSGA15ddC96548/rnB3d4fXt27ZWlNTzUYoxpMhY4A3Dw+P5cuXq1zAVEaEM+wAxsPBz5UrV7m5uUFdadPGTVW0fHJdbHTV7cFzS0pKli5dCv/atGnTrVs3Ozg66uo3Yi8yaJvnzp3bp08fCMMpKSkHD+7jyO2KFT86OzvDfikrK5v3zVxdzUjY0QcP7rt8+TLqvl2yeCn7WBeXTnd1dS0oyL8QexH8OmbMmPHjx2tdzNlCxl5z0K5bvHgxdLxRFJUQfyM6+riulh0tsu65ubmoN+777xd8MfkLtvqt1ZzBMOzIkSM3b95E/Whz585lcMXW7TUcoWC/xcbGdvPmzSKRCHoiV69ek5uby2W4ExOTQBQC+PXr2bPYuMDFWNBgWQgFwu+++xb1nZ09e1argx8wBsH966+/Zq/rGuSQSxMInACMgU6TSCRnz57TYabo6p4BH1auWgH8edBNALcY9VOe1Sljy5cvB3AA0OS//91cXl7O7g5211haWq1bvxY1QxLib+zYsZ3LmWsGPXz4cM2a9XBq4Tj+64ZfzS102wOC0llVXbl58xa4Vzd7zmzNSKGHwgh+XbNmjUgkgn9du/bnmppq7vkZAL1+Xbl161b468wvZ0ZGDlPJngZu4dqzZs0adEsFXVQ5HpviokV6eHgsXrwYqjxgc4TLQD97lgYFxt3d/d0ePRtiDKq7uVv37gEBAfDXmJizmh9O4MSzZ2lQfpycnHr26tmQE5LqvhIa2gMwBoQ8NjbW8DiCriqPHz+CyylFUWPGjEE3Fw1LIpFo0eKFcCqKxeK9e/dqFTXArX+bwO+++w6dwxs3bkpOvs3WsDScQ6utrUXXTLDUo8Y8R4Ja1ZW4qxcvXgKfly5bavA8KfCBDg4O//mP0gVTXV29e/cextaJ1qddvHgxPj4efB4+fJh+cX2AduzYAYPNcBxftWqVMXJzAAoLC+vTpw+cEpcvX37y9LHWd8HTADiOBwT6G4Mx0PORkZHwyqNHj6Bpo06RKSlRWoKBgYEMTc2A8gMZoyiKwZjB7Bo4DP/9729wZtrb28+eM9uoyT66dukGnB1AJn7//XegkmiY/FBAR4wYAZzkkOF5874BvcNlxSNwYt68eWjg4PDhw4AXUw8CG7GnTp2qqqqiA+cGgzh643XdoEGDAgICYNsPHDiAGr1c3nv69GkQmhEQEMDxpIxKevWq6OjRo9CTN3r0aLizqMGrqscsRfxr883MzKDHdNvWHVq/LhQKIYfNPb2MBCJgfwrF9/T054wNB/bQwEH09PRsoN6qThMnKZLBWGpqmiFxBG1YWlpaYmIiRMepU6eq8y0ZUDKmT58OPR0SieTMmROaJz/aQUuXLfX19YXqQGlp6bxv5nJJsQXOCqGx6q1bt27IXKIoSiqVVlZWAlybNOkLI3Ua2gNffz0LvA7H8erq6jNnzugEfBCCFy5c2BCWDh8+Ajd6RSLR1KlTUP+roY69og13cHAYNiwSCmpcXFxBQT53tVEoFBoJRDAMa968ub29PaoHqUvlJe8lUgYbYijGVMYTAcYgZuXn53PUdwhdDaroaGW0j7W19ZAhQ3TdBdAJQUDn+vn5hYSEwPeeOHFGpRKo0lQhcGLVT6vg0oTjeEL8jV07dzK+rjLg8tdffkVDY1DzXr9VFDahd+/eBjlRphVKgoNDAgIC4P5FdPRfjB1lrdxSFDV48OCGHAmpra09ceIE/HXIkAgYb2JAs469ko8d+xHalpiz5zi+i6IoaOMYcERQa93JyQmKVllZmWbNgiAEbOOrgUaNSvcWYAwuHuXlZVwT6Oj0bqlMirqXR4wYgYacG9a6YUzsiIgI2O+pqakwtkplIlIGJ97e3suWLUPjAjZu3HTv3j225KFHxWfPno0eQFi2bJmHhwcKTw1p7LDhkQZHXnUdOHr0aKiup6amgh1c7snTcBxH43H0oOvXrxcVFcH4PXR6G8qsU+l09PLyCgkJgWJz/tx5ze9q1qwZ/MwI2zU4yWQyKFpV1VWaB9HZxRleAZLPMGoamF4b/QDimwBjGk45NwhHbt++BaxlGAzD1h2MtK6Ghb1nZmYG1/Nbt24w9mvYETjonA8LC5swYQIa5zp79mwY7Mie0iDMAXbomDFjQNKQhmeyBE6lLp27GnAWaZ5aYWHvNWmiTPJ05coVjq8Go9ylSxc3d7eGtPry5UtQIWrXrh0a62yofKXq2jKQjpQDg/jkyRPNpk2rVn6w4Wk0GQ9Hpk+f/tVXX82ZU/cvtHuo5iDGFt4t4Ofnz5+jjOm9a6PSkiJwYvr06bNmzQKM9erV25B2DaSE+OtQ8fP19YW6bsNT2mmFEktLq85dlDHjN2/eZkRqsVGMcWXGjBlgdQJUWloKgh3ZC+OmTZtu3rwJrcT27duzwxwaIv09evQwNzc3YOJfzYqrpaVV125d4PVbtxI5vhRMv/7932+IDSKVSW/cuAkf2LdfX80KdsNVdJSCg0PQM5937tzT8JwOHTpAxY2iqM2bNxsPR3r37j1+/PixYz8eO/ZjPz8/zSFIHTp0MDMzg6347bffGt576hRSwNjoMeMAYwaza1DRQY949+zZU+8s4foJSqdOXeBy8fTp09raWq0hDIwrq1evhv4tsB2IBibLsTIhfvv27XAWWVlZgegDQznJ6a27AHXpV42hkpAUGdo9FE6n+/cesrtOg0oS1KFDQ0b5ScoTdMMrtHuoCUrMoKZNy5YtYVsePHig4WY7O7t+7/VFxYNj3KOxyc7OrldvZTDL1atX9+/f3/D6UFpDfnSYodzBvqam+tmzZ/B6SEiw8SaASvL3bwMhuaioCEZqc+8+Ozu79evXo+nnfv3l1+Tk29AsYhx7AWeI9Mgwqnlm+vsHNFwv5a7tEziBYkFlZSV349/JyYmd5E0nQmOonJ2duS9xhqK2bQOhnysjI0OzkHwxaTKUMRzH16xZj85Y7jUuDDIvUF8+ZAzQunXrDvx+QPMbOWalNsxKz30e3n9wH8YRmZmZedM2m2mgBLzC06M5qt0BHNHpvAyGYe3atZs9+0vU/p837xsQVUFS5Jw5c6Bvid6andSte3fDrp9CobB1az+jIgjDzwo2GlGvBAjc5OIcaeXXUlf7i5G7/NGjR2gMlSmVEfCi1q194bKRkZGh+QSgn58fPKYAvrJu3bqlS5YAxwrjBJ2GsmFai8BxHEH4Rj8/vwkTJqBDs27dusWLF0GPD8eM9gYPXdMBRwAr2Vk5sH/d3d2B701zUSjDukjc3N0Yu+76zcOxYz9Gj12WlpZ+8823BE7s2rkTTaTSPbRrVFRUw60YBvn4+FhaWhk1co+tkggFQi8vL6gXZGfncHGO4Dju1byFTqeH2DtZIMgKUOvWrU3TcLTt7u5eqFOsrLRMc42xL7/6Ej1HT8cZnBw1asyGDRsyXmRoOMzCnskG2X+Aj50xYwY4fokEQJwcMWLUhg0bVG7iqDzNaHB51s3PSlIkCEoBsujq6srGZiMp56h0OiJHAV+/fq2fWQhON6JxgYmJibNnz962bTu84uzszM5+ZBBq7uVpqH0frU1GR8TDwwPKHwh84gIlDg72epcKBgkHYAEEHMfd3d1NZgvDFzk5NUMTshQXF2s4kgvYXrpsKVj84V51ZWXl7t27R44Y+dVXX508eTIrK0vdIs9w/xvWl7xw0UKolSi8DTW7d+8eO3YsYCzjRYYGN4fxpE7IvRmvXr2CWAjO8+iUra+BXmXw09fXF+Zuqqgo12ldYpzHX7NmzZgxY6DlDI7zQtfJypUrYYIiw7bLztaOrRgbrwQsfDg4FQ6IXdxEvYevqX58gn4uflVUUaFMfdKufTuT6SOwEwID21paWsIMeyAVi7ryg3D+z5gxw8/Pb/ny5dXV1TDyiKKoa9euXb16Fcfx4OBgX9+WQUEd2vi38fb2VhnHZKiWotwCxlaskOedgLGCV2kCjHl7e4WEdAKMsROsqUs/bHQcgRlo4JWEhAQAK0YXBQInSWXQx927d+HiVl1dw2WeM3JDwJv9/PwW0YQGlYDP8+bNhQcNDC73MNm1ARcrLoDSrFkzGPhUXV3NMQ5NKBToxyd4eEVFZWVlJZyE/93wX2tra5N5WIHwSKVStPoaOKfO0PxVNi08PLxjx6C9e/cfPXoUHtuH8/b27dvJyckgBY+3t3dAQEDLlj6dOnV2dXUGZ98NVSaVHRUVHh7eqVPIrl27jx49iuamhIzdvn372LHjKhljTARDyZ6QezPKysrglVSauJQpMsgGB/uxFEURBM5dvtmoTFJkRETEs2fPfv/9d0Y635GjRhnPxY2GhJmSbG1t4Lr6+vXr2tpa7umv9c66/vp1BZqRGM3hYjJSJ5aMiaRSQ3FxcZs7d+7o0aNPnz4dExMD01+jmAIymyl2DzeZmZn5+Pj4+7dp4eMT2j2Une++ge4e8LNZMyeUsdzcXJWVMVQy5uvbKji4o4+Pj4VIZFIcUdgRFYxRYQyPkUp8qntsba2kgVYSfQ71FeP5r4qLjKogyEiZKXV7SBKJFHZmbW2tTCbFMHNdlRpd6fXrSrRow1spSs94KeMQlsrkYAzy8vKaMnVKVFRUQkL87dvJV69eff78ubq2SCQSuMr++suv9vb2Xbt2DQgI6Nu3r+b89VzUajZjUTTpxBj4FTDWuk3rvn36slOy6yqiOuAIOFUNz/AY/ECkHgtsQ+xMUIEJzfQFWpcQf2P16tWMnCNGsjXeysoMnY4G9+yy22WGZJwFNb2wt01WiHbA3fQA94SG9ujWvfuMGTOysrISExMzMjIePXqUkZFRVVWlDihLS0tjaFq/fn2nTp0GDRoEqylqrfTOvbdDQ3uEhvaYMWNGbm7u9evXMzIyUlJS0tPTgQ9FM2Mbft0QHBwcERExaPAgdVnpDIkjqHE4b97c99/v/5YFwspKVylHh+pm4o2NGzepVH0PHTrUvn17xubfv4CMqhSorGiPgleTJk1279ltZ2snEAjAYbC3Qk3tm+qK6Wy1xYsmcAXUJEt/lg7qh9+/fx/UGGH0NkVRt27dSkpK2rVr1+TJk0FNRXVv0V7nQU3Ndjd3N1ihBTD29MnTtLQ0yBhbAKBLZdeuXZ9//jlazpn7gifk0ongiQKBAIqFlVUTw0Z56rcAanC8a5aD8vLy+f9ZgHblzC9nwrLEoApvYGAg40SZ8dZwE1g6QDUAMmRubo4b53WMVgiEAnQ6ubq4GKl4u1E7X52AgYsWIpFPCx+fFj7gJKdYLC4sLExMTHzw4EFycjI6dWGa+Pnz58fExHz33TdoNlJdU0myJZ/xwdLSCjAGVkQ2Y4wHZmZm/vDDDzFnzyyYv8DJ2UUn/UjIXTJADBjoCw3FZU3njWc5O7iD99y5c9EKbGPGjPn444893D1ASnocx6VS6VdffXXk6BEDet3lbqbyCs2ripGoouI1VBBsbGzQ1K3Gm6V2drZwFlVWVubk5DawtK2RQITjEKjMMsH4okgkAtrKiBEjamqqU1JSzp8/n5BwHbhC4W1Xr159+PDh+vXr27Vrp6s/m61cc9FoIGPDPxz+RixOSUm5cOHilStXGHM5If7GuHEfr1+/PrBtoA7b/Ny73tLSEgoio97d21JGdDqHCm/bsmULWv0TJFsGuQUAcoNNyszMzKVLlhh8krPDXkzjLikoLIDRMTqZhA1BeQsLS/RidXW1KQ9kaZUcnU5dajjnre7cjaWlVXBwyNx58w4dOjh37hx3d3fUOVVWVhYVFQUC23WKN2FsV7PTd2l12coZmzv3zz//mDdvLhqTCVwnUVFR+Xn5Ogw391tBaCMQxPyXeW9dGdFjKoKyplu3boUzyszMbNWqVfDri5csBuVFwA0nT546feq0YTkvryg35RkTSIUFhTBpIEjGZTw2oJQ3c3Rs2rQpnDxFRUVvy8fcQNRWuf6rm/9sHcHS0mr06DGHDx/+/PPPYYwsRVHV1dUzZnzJOKqjdVDUlS7SWgGL/dlCJBo9eswff/wxYcIEFOOqq6tnzZplFBxxdXWFn18VFb/d9US/b5WXl8+b9w26F7hq1So0y5lQIFy2bBm6D7948WJGEHQDKS83/63s+8IaLhRFwcRfBmeDUZ7SxsbW1tYW9jYagvRPJK2JKTR/RSQSRUVFbd26xcrKCvZJenr6gd8PaE7yrPKZ+kX0sD0pJEWKRKIZM2Zs3boFjRJMT0/fs3cPx+mmAyseHkrlJysr6/XrCmNn4lEJog05SQmznAEaP348qPmOontQUNCMmTPQzamvvvpKQ15oXSk7O1tKh3IYu+tQksqk6JF5d3c34800dnJDRDSfNZ71RnO9AeNRcHDIzp07UdNy27Ztb8RiDZWDTWCBAsa2b98OGcNxfOeOnW8UZecNgyMkRYLKqdCCyszMUnnS0XgrAIETr19XgH8lJSVSmVRzAW3Gc7Zs2ZKYmAivtG/fHmpuDEXx008+De3RDd4JHCWGcmpUVVWBWCAj5Q1g68YkRWY8z8jJyYGKqymdnb6+vvC9Dx48NBl0oh5HIDPlNGkYQWNncoBv8fPz+/bbb1GRiIu7oq7GuAn4ga/w8/ObP38+1FsBY4bBEdi5Pi190GP7Dx7cQVVZ400JSMnJt99/vz/4N2rUqOJXRSpPqagU04SE+K1bt0JlEs1ypnK3/MflK0BjwRw4ceLkyZMnUczSezKAbDrGM23YbSFw4smTJ3DfxMzMzJQ4ArLVg5589uxZSUmJiW26tWvWApkZMGAAmtoOHc24uLhNmzZt27pty5YtcXFxJgC4DwZ+ABdmiqKuX7+uEsiuxV/dQtOmTZuMwRhbDsPDw2GtdcCYYfKzwtcIBUK0TM7Vq9dhs42kjzAeGx+fIFGQg4MD90qg5eXlIMsZXBiXLVsG419UirWNje1PP61CPSmLFy/OodN2NPyA0/379wyS54a7xn712hUYyerv729jY2tKHIFFPyQSCZgwJrNrSIo8e/asVCoFYtPStyVj/oAPly9f2r59+1aadu3aZQLeCJwYMEAZyZmamqrSdo67HLdt27atW7du375927ZtRvUYwA8DBvSHq05qaqrh87N27NgR0Q6SS4qL2SVgjITfJEWiJam6K9KUaU51B36dNWsWPHWKukW02rHTpkWhyQRmzJgBjKkGtigxMcmoiiujfH95efn1hBsQE2Gya9PYFx4eHq1atYJwfPHiRVP6RO/euVNWVgbf3rlTJ5Wp0kHONEBv3rwxgUsCJt8AlJeXJ5VI2Rs9aNfJZDIDMsauNg+xtV37dnDV4RgpRnB3w5AU2ePdHvC6RCK5cOECI5eB8VaVJ/R5AegBCu3RnX1eUyXzGzZsAFnOwHi0b9/+y6++5PJekiI//3wSqL8F+jQ3N3fhDwsbrkfk5OQ8fvxIv/xAOvUb6Jzz58+j8T69evUyXp0QlZz06KEUm/j4+PLycpNte58/fx5aVc7Ozv5I3hxUcpyc3KCumpWVpS5nmmHJyUlZlUYqldInJ5nzztGxGVzJMjIyigoLjKGSMHbZHOwd4aIrlUq5yKcOcS8ETvi08EFB9MCBg+wj+Uay9g8fPgwvNm3aNOidDozXqdwMS0iI3717N0QfOlpkhcq0mmznFrht5cqVYJcO9GxMTMyRI0caGISK4/jx48eNl4KEsd4eOKBMCOzu7h4UFGSa1CfwFSBgHC4/R44cNo2LpKam+syZv6Gp369fP3WZ0Hxb+cLqpWKx+MGDByYAWaGZEIKXulOvrVu3hkugRCJ58OCRkYQE7RkLCwtl5xCc9pgJXVXliIjB6LoaGxvLwBpj9HhJScnJk6fgrwMGDABh3ZrjbRjJ3ymKWrZsGfSqcAyLdnBwWLZsGVr5dcWKFWlpaQ2RM4qizp07DxJzGdvVGhsbm5mZCeW1f/+3cLrSz8+vffv28NcjR45K66+9RqI/Dx9Gk4ZpaLu3t7ezszOIY8Yw7PSZUyYAWalEmYIIzbSEqpOezT2dnZVqy99//20MJytDkt+8eaO8hzRc/Ai6Yg8cOBDd+t6wYYPB7Xz2/Ny0aSN6NiEyMlKDRQDZ+Pbbb9HCgrAmnropp46T3r17jxo1EkIAhmFz5sxpoKOksrJy//7fjZS8G6WNGzei3uKhQ4dib4NgEnYMwwoLC/colETjmcNisXjfXmX1GV9fX3SXgC0GwcHB8NeLFy7BsD2VnkiD8Iy6HgiCwNWc0+vSRVnDLC4uDmWsgemj1cVtFBS+1LUsOaHr+mZjYzt+/Hi4vuXm5m7ZssXgyyk6WmlpaSBJHHhpz549Qf0xlUcMIMFDNFA/nD1ntq69rzzXN2+et7c3qoj95z/fabA21ZkzZmZm8IDcnj17SoqL2TvWBpxXO3ZsR4Nx3wvrB6LCTByVT1Jkv/f6oYc4tm3bnpuba1g3DcPI/eWX9aWlpVBQP/vsM81vgdoKMIJ++XU94+iKwfOt379/H7U3VZ6cJHCiX79+qCaLbl0bVmOCT7uTrMxe6uLiYph9X7Zwf/rpp02aNIG7GFu3bk1LS9N8fokLKyqTbpMUCc7gQpo+fTobbhgBaTcTb2zduhV+RSQSrVmzhnv2XZU6DiygBehC7MU//jjEHgYNJhLA+MjISBB9LJFIFiz4XqWLR6f4FHU9//jxo40bN8GFBcfxL2d+xegBk4WEETjx9ddfo16Sb775xiDHnVUeM0lOvg0yp4Lm+/r6as0m07NXT2BBgK9cvHApLi6O0VEG2U+AQnvu3Dl4EdZ4Y49Lj3d7oAf8Ll++jAaS6L32qBMbyBjA04CAAMPs+7Irb4tEou+//x41NKKioqoQC4I9tNxTTjEi/5cuWQLr5lEUNXz4MDSGSmWO/7LSsnlz60HPjz/+CA7RcD/Ox+5rLy+vBQvmwzmJYdhPP61ml5LWvLpKJJL33us3cOAH4AlJSUlbNm9RN/E0Cwe7k9H7y0rLZs78Eg2ZiYqa6uHhodI5bRrq3bs3GiWckpKyfPmyhvPA/vqrV0XgFBWkb7/9RuuLCJyYNm0aeojuhx9+YFSZMsh+Avj6vn37QGoScLFPn77q3BZCgXD69OnodAOM6XQkR12/MWCIwAnAGMTTnj17GsyuYY9Zv/f6gZI8oCNKS0s//3xSSUlJQzRV9ld+++9vJ06chG9xdnaePXsOA4bZPQjdIuBb6CEa7oalyvUnMnJYeHg4mlFq5syZYtYBBM3NFwiE06ZNg3vJ27dvR4vIcp/kGrJpFRTkT5o0CZwkAi8KCAj4/PNJpscORrsWL1qKngQ7duz4unXrGmjtM3Te168rJk+ewkguExwcwuX5ERERfn5+aMKUSZMmv3pVxN7jaGAf3r1zZ8OvG+BcdXZ2RiMq2PUrwsPD0X1SwBiM3moIM4w1ODn5NmAMkLOzc5++fQyPI+jrFy5a6OvrC+dDenr6xIkT05+l6yGsKpXt5cuXgS1bOK5r164RiUSMzCOM52zatAm6RSiKCgoKAodo2LjL0UfDuHnxksVubspYg8LCQngeQeWUZlN+fj7wMUEwWrv2l02bNjVwrYNvfPz40YQJn6F7NJaWlmvXrtaq0xoVRAB7Dg4O69b9jDqM9u/fv3DhQrB9o/eJfviKrKyszz+fBNuO43j79u1Bql2Ok3/VqlWoypmXlzdx4mfQx2QQ50hy8u1p06ajiXK//fZboUCoLgAK6tSoWQ0Yy+FQF5H7GEHGYPNnz54tFAgNjyOM1XLjxt/Abhl4a05OztixY6HXgLtzhDEwOdk5U6dOBb5ViNnff78gMLCtZhv1xvXr27dvh3JgZWW1Zs0addaZHgozUDJRRxeoSg+arNJZwyaQmnTWrFlwhaEoavv27fO+mQuijPQWU5Ii9+/f//HHn4AyV1AgNm3axDhDYMoC7wwtPTg45LvvvoMNx3H81KlTEz6dAALzGrKuxsTEjBs3DgQrgrY7OTmBweII0CRFenl5LV68GN3hysvLGzduHIxv0LvfwBf379//xReTQTUc8Irhw4eh+jK7rCf46eXlBeIP0AVp3LhxaKLyhtDhP/+EjAHehgyJCAsL49hewaJFi7i/jJFq3MqqSd++fS9cuFBVVQX/FB+fcPv2bUdHBy8vb5Xf0kAlJSW7d+9esGBBdnY2+sWZX84cM3qMBk6AVTxp0hewIzAM+/nnta1bt0EHEi5TDelxR0dHOzvb+PgEeCUh4XpoaCjwbLP1XqlUevjwYVhFNCwsrFWrViRF9u3b99KlS7DcXMbzjOPHoymKDAwM1CMXf1xc3OJFi//66y+0f8zMzNavXxcS0knrUKJ06NAhyFXv3r38/QMa0l3wRfBDYGBg06Z28fEJUNMsLi4+dux4RUVFixYtbG11Pvvz8OHDNWtXb9++Ax19e3v7LVu3uLu5o+U1tbJKUmSb1m0cHR3j4+NRr1ZsbGxqaqqrq6ubqxsUJJ3o+vWEpUuXgfhD+PXOnTuvXLUS/sqQHwbbrVq1cnFxvnLlCsrYpUuXnj596kqTfgOUkBC/fPmPaJwnODyxdu1a7pNF/+zhsM0lxcVffTXryZMnjEeFhIQMHz68ffv2jLIdbKqpqU5NTTt37tzZs2dRyxY0Y8GC+ZGRw9SZpvDKhAkTHjx4AEVzzJgxRq0d8dVXX6Hnfdzd3Y8ePaqyspRYLB45ciQMFli+fDnYOyApsqy0bNKkSdCRDJj39PQMCwt7771+/hxc5VlZWcnJt6Oj/3r48CGj/52dnVeuXKkhaELlaBI4MXToUFjw6fvvF4DON7hj5eTJk8uXL4czH7RdJBINHPjB4MERrVv7ac4ITVJkfl7+gwcPTp85mRB/g/HX1q1br1//M0hWrB970dHHly1bzp4doT269X8/PDg4WKtUgwOi2dnZN2/eiI29AAvHQHovrN/Klat05VAzY0FBQVySk79+XZGZmaWOsT59+qz6aRUwtTjuqTWoCgF8em1t7bp1P4OdNhQCQCrQ9u3be3t7+fq2Aun8JBIJqGNSVFSUnZ2dk5OTmpqq8jiQr6/v/Pnzg4KCNMAH+Pzbf39D499btmx5iLY1DCj6DB5qaqojIoagqNenTx8A4VxwBM7bqsrKpcuWXoi9qLL5LXy8m3t6wVUadJ1EIikqyn/+PDMzM+v+/fvoIowyM3/+/Kb2Tbn3AGxgREREfn4+MDoWLJg/ZOhQI7lm09LSFi9eDAs2o5IDTve1oAnVUCQSSW5ebk52neDcvXtXZduHDx/29ddfg2JxDfGJ3rt3b/HixRDlUTIzM+vQoUPz5p4tW3o7ObmhdXkqKytfvsx/+fJlbm5eRkYGrECATgoMwyZPnjxlyhT9GHv48OGSJUvQ42ZwFpuZmb3zzjve3l4tW3q7u9cDFMjYy4L8Z2nP1TE2adKkqKgonbVOA1YzoXN8bHvw4AGbOfTUrMq/stFn1KhRU6ZM0VA7Ek7FpKTEaVHT0TE+evQoWC4MHqqPrts3E29Mn/Z/aBNmzZo1fvx4xks16CMQ7E+fOr19+3agBTA6jdFFmv+KYZinp2dUVBQMl9CjB1TqI0aCEqlMumf37r1798HIY3VSgXp8VPYJjuP+/v5ffPEFPMytB9vssdu2bdvvv//OKKOrwTLSelvPnj2nT5/ewBQwkDGApGyp4MIJ486ePXtOjZrs3yZQj20pw1dFiouL27VrF4omWvsXrfPm5uY2ePDgyMgh6tKLMAY7Ofn25MlT0IejC76R/IXwyRs2bNiNhHjDicfRrmGIbEzM30eOHAXrs7oe04AsAQEBI0Z8OHDgIHNz84Y0PyQkBD5z5pczP/3kU2N7YV+9Kjp48NCZM2cYi6RmuUevBwcHjxo1Cpx7aEjbVX43Kyvrr7/+0sAel0lrZWXVq1evIUMjunbppjfMsS27Y8eOQcY0sAH/xL5HJBL16dMHZUwP3gyDI+y33rt3LyEh4ebNm2lpaSDCQkNRcZFI5OPjExIS0rlLp9DQHuoKDql8V0JC/L17962ayG3pZo7NBg0aZMptiIMH99VK5D5tqUTi6OjIEUfUPfbxo8eXLl26fft2enq6hvoeUHELCAgICQnp1q0b2wDUT1Kjo4+XK/ysod1DfVv5GkkZYSPp5cuX7927e+1afFFRkUQi0aCGgAJ9HTt27BjcsVevXt7e3lwarl/hS/BZKpPGX4u/f//+zZs3MzMz2UPDnqtWVlaenp7BwcGBgYHdu3cHqbMa7mxiOvI1MqYSQSBj/v7+PXr0YNS0Y+gjXDrNMP4RDX8qLy9PT3+Wm5tXWFjAqOxt1cTKxdnFzc2tefPmaEu08q21hYaKF9L17SrfyAVHVH4ROMNycnIKCgsqyivgJo5UKrW1s23m2Mzb29vXtyV0BKiseKDHILJ7z6j9qW6lzcx8kZeXX1xcDI+cSqVSoVDYtKm1k5ObN00azN6GDCsjThRtPvhZXl7+4sWL/Pz8gsKC6qp685YgCEdHRycnJ3d3d09PD+AtZj/B4EoTuF5VWfn8eYZKxmhl39Xe3gFlrCFQa3R9hAu+cFkBNM9edvSaySI1uZcB1Ukf0UPCDD7DNcj6W+xhg7yay/okxwIdS9XpynnDm8NF4WpI1Vddv2sYsVBZB0hlAkiO+KKhUIi65CumjK1S+S4upcy4jJxOX9epouA/BUTU1eLXyrzmP3EJYlZ3IkyDcGpO767yMLdhQUTdWYqGZKvS9buEaURBp3JBugqZfg8xrKA3PGja4MfV9H6IyoY0/jp4mitRGq8ndTr8acBhajxDY1wc4Yknnv5HiMcRnnjiiccRnnjiiccRnnjiiccRnnj6f/buWIVBGAjAsIqLq+//niLCXZGCOHSoOQoWv2/smOHnUjVBRwB0BNCRBykeoQQ6IiIfvkK4dMUE6MjTnSNy/lDgDu8jgo7836ZGO9ARGueR84m+FgQdoWUYObY25hF0hG9FRmYsy3IUZNu2S9cew/2NluCnERn6oe+HeZ7Xdd1/iZimqXIwBNxx3M7Ibp+4w2wCFPY12XUpIkClI/tcYimA5o4oCFCeR0JKgHJH8v0/K0BjR0bzCFDsiIe+QL0jHvoCBa8AAAD//0mgUmwpwXyNAAAAAElFTkSuQmCC;fillColor=#A8DADC;strokeColor=#457B9D;fontColor=#1D3557;" parent="1" vertex="1">
          <mxGeometry x="699.78" y="50" width="255" height="140.42" as="geometry" />
        </mxCell>
        <mxCell id="UyWXllwboFjSRBBQRdUh-39" value="" style="shape=image;verticalLabelPosition=bottom;verticalAlign=top;aspect=fixed;imageAspect=0;image=data:image/png,iVBORw0KGgoAAAANSUhEUgAABdwAAAH0CAYAAAAnhe8sAAAAGXRFWHRTb2Z0d2FyZQBBZG9iZSBJbWFnZVJlYWR5ccllPAAAhGRJREFUeNrs3W2QJPd9H/aeAyiREhksyw/lSlLGAKTpcqUQLJKIAgHKmLNh2Vasw55tRX7Gnm3CjvPibq+KFYuS6u7exvLugabyQg++hWzZikoRDmdb5ShMbvGSIFk4FF/aJpchIVXZiXko2JZEEdeZ/07Pbs9Dz87s9HN/PlV9szez29Pz7//0w3f+8+teHMcRAAAAAACwnnOaAAAAAAAA1idwBwAAAACAHAjcAQAAAAAgBwJ3AAAAAADIgcAdAAAAAAByIHAHAAAAAIAcCNwBAAAAACAHAncAAAAAAMiBwB0AAAAAAHIgcAcAAAAAgBwI3AEAAAAAIAcCdwAAAAAAyIHAHQAAAAAAciBwBwAAAACAHAjcAQAAAAAgBwJ3AAAAAADIgcAdAAAAAAByIHAHAAAAAIAcCNwBAAAAACAHAncAAAAAAMiBwB0AAAAAAHIgcAcAAAAAgBwI3AEAAAAAIAcCdwAAAAAAyIHAHQAAAAAAciBwBwAAAACAHAjcAQAAAAAgBwJ3AAAAAADIgcAdAAAAAAByIHAHAAAAAIAcCNwBAAAAACAHAncAAAAAAMiBwB0AAAAAAHIgcAcAAAAAgBwI3AEAAAAAIAcCdwAAAAAAyIHAHQAAAAAAciBwBwAAAACAHAjcAQAAAAAgBwJ3AAAAAADIgcAdAAAAAAByIHAHAAAAAIAcCNwBAAAAACAHAncAAAAAAMiBwB0AAAAAAHIgcAcAAAAAgBw83NYX1uv1rN0C/J3/+38aDG82/tc/9tO3tUax4jjWCAAAAADQIEa4s7L/8Du/9aJWAAAAAACYJHBnJXEUDX73vfe2/vBPf7KvNQAAAAAATgjcWdmHv+eD4eaylgAAAAAAOCFwZ1WPhsriDz/00PYf/ulPbmgOAAAAAIARgTsrivvh3w9+9wc24ija0h4AAAAAACMCd1Y1CP889NBDoZ77Nc0BAAAAADAicGdpf/v/+jubcTz6+UPv/0C46f+hn/7ktpYBAAAAABC4s5J4kNym73xRuwAAAAAACNxZzeXxDx/+nu8d/zj4Qz/9yYGmAQAAAAC6TuDOUv7W5//HQRxH/fBzHM88rJY7AAAAANB5AneWlYTqo7T94XMPpR8zyh0AAAAA6DyBO6d66fN/eztO6refXDT1/dO/ZpQ7AAAAANBpAncW+tT/+bc2oijem74/XVYm/DycBh/9nFHuAAAAAEB3Cdw5Rfzq8J+NqftG/46C9qgXjafYKHcAAAAAoLME7mT6m7/+0vXhzWA8mj1OBe3B7/me7x12oDgE7ckUDT72uWcHWg4AAAAA6CKBO3P9zV9/aTuaqMseL/unt7QeAAAAANBFAndm/PVf/9RmnNRtH41mnxe2Zwbw/Y997tltrQgAAAAAdI3AnQmXfv1vbvai+G48Vbd9XlmZhx96KGs2ex/73LMbWhMAAAAA6BKBO8cu/R9/Y7MXR8dh++wY9sl7Pvj+92fNKvz9FS0KAAAAAHSJwJ0j2//yb2zHcfRmFMWpkenpi6TOKSGzuKz7tY997tlNLQsAAAAAdIXAnejFf/nXw4VOjy52Os7We8fFY05Ml5VZwp7WBQAAAAC6QuDeYX/t1y5t/LV/eenu8Mft4xB98ubUsjKnGHzsc88qLQMAAAAAdILAvaP+6q9t96MovhvF0SAdosepfyfumVNW5oPv/8AyTxUuoNrX4gAAAABA2wncO+iv/tqLm1EUvxlH0WZmafYlyso8fO6hZZ9SaRkAAAAAoPUE7h3zV37txa2jke1RlFwcNU6VjymkrEyw9bHPPbut9QEAAACANhO4d8hf/rW/th1F8atx1DsO209uVi8rE68WvIfSMpvWAgAAAADQVgL3jvjL/+KvbkdxfOvknlSsHs+OWV+mrMyKQsj/6sc+9+yGtQEAAAAAtJHAvQP+0r/4K9fjaBS2z8/K54xaX6KszPvf975VF6U/nO4K3QEAAACANhK4t9xf/Od/JQTt1ybvDbF67/jnk5vVysq8/33fderzx8n0IB5N78XR5nC6Zc0AAAAAAG0jcG+xv/DP/3IItrcn7oznhOjJP2ctKxNHc4P1o2n8/ziamP/WR/7Bs0J3AAAAAKBVBO4t9aP/7C/dio/C9vg4HI/njFs/cbayMulQfU6wvsi20B0AAAAAaBOBewv96D/7i8nI9nhB+J1PWZk1Cd0BAAAAgNYQuLfMjxyH7QsUUFbmrHrDZf2o0B0AAAAAaAGBe4ukw/aQhffikzi9qLIyDz/00FLL1ktN51JTct/2H/oHz+5ZgwAAAABAkwncW+LP3/kLV6Io3g4/H4XtqWi9yLIyH/ru90/M8ZRg/fjZxvNITVc++tlnt61JAAAAAKCpBO4t8CN3fnQ7iuLjEeJLVXrJqazMacH6VKg+Mc1xS+gOAAAAADSVwL3h/txrP7r9II6OaqBPh9hllZUZP/eSofpphO4AAAAAQCMJ3Bvsz772P2wNb47C9pNSLSdh+mllZU4eO3tZmTWC9UWE7gAAAABA4wjcG+rPvvYjm8ObW5Oj1adD8sV6cTw/Vl+xrExBhO4AAAAAQKMI3Bvo4ms/shlH0d0oijfG9x2Xi1mxrMx8ZysrU4AQum9Z4wAAAABAEwjcG2br9p8PIXsoI7Mx/VgVZWVKEEL3TWseAAAAAKg7gXuDJGH73TiKjgLok9Hm1ZWV+eD731/0yz56zUJ3AAAAAKDuBO7NsheFsD2eP9K8irIyD597qIzXLXQHAAAAAGpP4N4QL9z+c9fjKN4e/z8rKm9pWZngqJTORz/77IbeAAAAAADUkcC9AS68+ue2hzfX5j121rIy6VHw65WVKTV03xw+392PfvYZoTsAAAAAUDsC95r74Vf/bAiZ92bKwKxZVubk/vXLyhQjzpiO6te/qmcAAAAAAHUjcK+xH/7VixtRHIdwee6I7irLyuQTtMcLpoUGH/3sM7f0EAAAAACgTgTu9RbC9v5p8XMVZWV68aI5z1vClUP102x/9LPPXNdFAAAAAIC6ELjX1J/51Yt7w5vByT1xVLeyMvN/N/dgfZFrH/3sM9t6CwAAAABQBwL3GvqhX93aHt5cOY6q4+zQuvqyMqUE6zPLOZ4eRNGtxz/7zKZeAwAAAABUTeBeMz/0qy+E8HhvOsCua1mZje/53kLaYSpUn5jmRPx3H//sM329BwAAAACoksC9Rv70//7CRhxH4WKgG/MD8nzKykQ5lpVZd1x7VrC+4rj5jV4cvfqRl5/Z0IsAAAAAgKoI3GukdzSyvbeZjr+LKCszvi+PsjLLyiNYD0sURtXPm4bCNwNu6UUAAAAAQFUE7jXxp3/lwvbwZnsyeq5/WZlozgj6ooL1Jf546yMvP7OnNwEAAAAAVRC418Cf+pUf3oyPRrePxPFodHkzysrEVQTri1z5yMvPbOtVAAAAAEDZBO41EEe947rt6TIwzSgrc7qCgvVF9j7y8jObehYAAAAAUCaBe8X+5K/88F58VH88jFyfidijRpSViU6prx6X3qzh4qm3XEQVAAAAACiTwL1CP/grPzwY3lwJP88E2bUuKxNPlJWpKFQ/jYuoAgAAAAClErhX5E/88p8JJWRSgfBJwF7/sjKNES6iekVvAwAAAADKIHCvzq0ojvvj8Ps44G5gWZmaU88dAAAAACiFwL0Cz//yf78VR/HWdHjdmLIy8fi34ujhhxrRhV5Vzx0AAAAAKJrAvWTP//IPHV3Qc/6ji8rKxPUpK5Pyvd/9/iY0ez9Szx0AAAAAKJjAvWQPot6tKIqPRlsfxdxJ6ZbTy8pMUlZmZeq5AwAAAACFEriX6I//8g9t9aJ4ayKsbkFZmQZRzx0AAAAAKIzAvSTn/7c/vfHguKxJb8FvFldWZvo38ior0zC31HMHAAAAAIogcC/PtSgel5JJ/1teWZnj4eyn/H2Ly8oEm0frAgAAAAAgZwL3Egx+6U8NelF0VD98MlhPlFVWJprzcLR8WZl4YmR+PBPgN8iVj7z8zEDPBAAAAADyJHAvx63Z8erNKyuzytwb4FWlZQAAAACAPAncC/bcL/2p68Ob/vRVS5WVqVwI22/poQAAAABAXgTuBXrul/5kf3hzOfycHq3evrIyjbX1kZef2dJTAQAAAIA8CNyLFUZQH5ctOVNZmTiuRVmZ2TnGrVlHj99UWgYAAAAAWJ/AvSA/8Et/chBH0WBuOL5KWZnjOVZbViZaUFamSeJ4ZlJaBgAAAADIhcC9MPFMiNvasjJ1bP14/pRh6/Gbzwz0WQAAAABgHQL3Anzyn/7g9eFNf16+q6xMfrJC9fhsi6W0DAAAAACwFoF7zn7gn/7gRi+5UOrCcLxFZWW++33vK7RNcwzVF+kPp2t6MAAAAABwVgL33MV7w382sgLhNpaVef/D+QTuJQXri1x5/OYzm/owAAAAAHAWAvccPftP/sRmHEfb6fuUlZnz19UH64vs6ckAAAAAwFkI3PO1N46ulwrHW1JWJnO8fb2D9SyDx28+c0VXBgAAAABWJXDPybP/5PlBFMWD9H1dKSsTR40M1he55gKqAAAAAMCqBO45eZAqRTI3wI7m39eOsjKtE8J2pWUAAAAAgJUI3HPwzD95frsXRZuTAXjXysq0zrYLqAIAAAAAqxC45+BBFF2bvi+rXEv68bqXlemtUFampYxyBwAAAACWJnBf09O/+Me3ozjuh5+nA/MF/524L7OszEQKXn5ZmdmR9avPsVni6Wnw+M1PbOvlAAAAAMAyBO7rOxrdPh6xnmtZmShaq6zMotH1E3Nbu6xM08QZ0/z1+/jNT7iAKgAAAABwKoH7Gj7+i398O46ifvh54Qj2isrKnPx0trIyRx8YLFFWpp7iaMVgPUtYv1f0dgAAAADgNAL39ZzUbo+nY+mo8WVl0v+rb1mZXEL101w2yh0AAAAAOI3A/Yw+/ot/bDuK4v70mHFlZYpSSrCeJYTtLqAKAAAAACwkcD+jB6nR7bOj1E80uazM8QcGpZaVqTRYX2T78Zuf6Ov5AAAAAEAWgfsZ/HdHo9tHtdsntKyszOT/8ozYc6uvXrZrej8AAAAAkEXgfjZHweu8IFpZmelnaFyovkgY5T7Q/QEAAACAeQTuK/pvfvGPbcfJ6PZ5xVk6WVYmbl2wPldo5WE7GOUOAAAAAMwlcF9RL45fXPgLysq0YB3Pn5IXP/jInlHuAAAAAMAsgfsK/tt/fH4wvBnMjg/veFmZBkpGq88P1k9nlDsAAAAAMEPgvoIHUXQ53PZSdcvbWFamF61WVuaR7/lAbddZVrC+5lB9o9wBAAAAgBkC9yU99Y/P94c3W0v9csfKytRhsHtBwfrEaxxPD0aTUe4AAAAAwASB+/KOAtbske31KSuTFYgvW1YmrnFZmVPqq69tTrB+NM25FOzgMaPcAQAAAIAUgfsSnvxH5zfiZHT7OHCtc1mZ7LmPf8q3rEze1qyvvpQVgvVFjHIHAAAAAI4J3JcSb0dxtLHan3SrrMxZFF0GZry8OQTrWYxyBwAAAACOCdyXc/m0UezKymQrs756QcH6Ii96ewAAAAAAgcD9FE/8o0EoJdNPB9vKykyVlUluKrhw6UyoXkFZ+e3H9j7R904BAAAAAATup4ij6MU49Z/V/ni1sjJxxm0TyspUdOHSGnSQ8OlDrJY7AAAAACBwX+SJXxj0hzdby45iX7eszMldzSorc1YNDNZnp5Htx3af3vCOAQAAAIBuE7gvFG/34rmFWJSVmS4rs+DZWhSsL3LF+wUAAAAAuk3gvkCcuiCmsjKLy8rUtL764vVytmA9y2Wj3AEAAACg2wTuGf6rX3gulJLpT4/jVlZm3t/EzQrV40KWMoTtW945AAAAANBdAvdsR6Pbj0JtZWVOKStTsfJC9dO4eCoAAAAAdJjAfY4/8gvPzR2trKzM4rIyhatPsJ6l/9ju0wPvIAAAAADoJoH7XPH2ZNitrMxpZWXybf7aB+uLXPb+AQAAAIBuErjP9+JMWK6sTGZZmTNrdrCeZeux3af73kIAAAAA0D0C9yl/5Bf+aH94s5k1jruIsjK9ObNsVFmZ+JTX3c5gfRGj3AEAAACggwTuUx6kwtKyysqkf6OZZWU6GarP1RtN295JAAAAANA9AvdZW1kBurIy88vKdFEvY0psPL779La3EgAAAAB0i8A95Q//wh/dHN70T+5RVuasv9EWpwTri7zoHQUAAAAA3SJwT+nF8VFImh16KyuzaH6NXvfRmYP1LIPHXTwVAAAAADpF4J7yIOptjX9WVmbe41llZZqhFxUSrC/i4qkAAAAA0CEC98THXknKycRZ48Az7lVWpnZKDtUX2fbOAgAAAIDuELifSGpuJ2F16gFlZepZVqZGwXqWjcd2n97y1gIAAACAbhC4J+Io3hrdpu+bvB3/rKxMuWVlGhCsH7VBaJMwPUhNw/+7eCoAAAAAdITAfegjr/zAZhzKyYyVVFZm3sy6WlamgvrqZ7IgWB89NvsnW/2///SGdxkAAAAAtJ/AfWRrsoRLOWVlZh9rZlmZVTQmVI9WDtYX2fYWAwAAAID2E7iPvBD+WSVAV1bm5OHvfvjhmbk1LVifCdXPFqxnUVYGAAAAADqg84H7R175gf7wZjP8PBleF19WJs6YWdPKynzX+x5ufLBesM3+33+6b3MDAAAAAO3W+cA9juPB8c+pf8soKzP/sdXKyqTHYTelrExh6zJaUAYmrnxpt21uAAAAAKDdBO5JOZnU/yduF91Xh7IyM/NZsaxMnPG/1crKxGWur7zrq5dFWRkAAAAAaDk13MMFU+OMkd8dKCuT/VpPe9XFKrG+eln6/b//9Ka3GwAAAAC0V6cD98f2P7kVbueVfhmpf1mZk8cqLCuzRvJdg/rqZTLKHQAAAABarOsj3J+bd2eTyspE8+ZTclmZZdS8vnpZtmxyAAAAAKC9Oh24x3E0OPm53LIycWr+TS4rMz2PhtZXL4uyMgAAAADQYp0N3Pu3PrkxvDkOP8suKzPPKmVl4pqUlRmPphesL01ZGQAAAABoqQ6PcI9H9dtPDZZPv6+KsjKLlnn8n7qVleGIsjIAAAAA0FJdLikzU7+93LIy8dplZWb/X1FZGcPZV6GsDAAAAAC0VJcD90H2uO4yysrM18iyMpyh7wEAAAAAbdPJwP0P/sNn+3Ec9cf/72JZmV6Ub1kZFuslfSSZ1HEHAAAAgBbq6gj3QXZ5lHLKysyMOC+5rEz6L/MoK0PSwvH8aarhNh/7qaf7WgsAAAAA2qWrgftR/fbZsi3llZVZRFmZepsarT4ZrC9vYPMDAAAAAO3S1cB9dNHKJQZ1p8Py3pz70r/XpLIy49eTV1mZNsoK1nN62S/Y/AAAAABAu3QucP8v/+EzG3ESuHe5rEyUQ1mZtsTtBQfrWbZsfgAAAACgXbo4wn2QXTYmmvnfZLkYZWWabMn66qV57KeeFroDAAAAQIt0MXDfnPjfqmVl4sWhurIy1cqpvnpJ4udsggAAAACgPboYuD83LwiflllWZvY3F9/bibIy5afZFZWBOaN47hQrKwMAAAAArdLZEe5NLSszysC7U1amJcH6xPQgmYY/9x/9qe/v2wwBAAAAQDt0KnD/z//hMyFs35h5oEFlZVZRVlmZPLLvutVXX9yqpwfrD6KJYH1immKUOwAAAAC0RNdGuG8uCsKnFVFWJjtMb25ZmWU1rL56xhQtFayvQB13AAAAAGiJbgXucfTk5H+nfy6+rEy04L4o8/eaVVamDWVgph/JIVjPMrAZAgAAAIB26PAI9ynKyqxVVqZt9dULCNazbDz6U98/sCkCAAAAgObrWuA+iE4JwqflVVYmVlamBLnXVy+vXwIAAAAAjdeZwP2/+PlP9HtzItWyysrM0+ayMsWqvAxM3tRxBwAAAIAW6Ezg/iCKNsc/KyuT8Xqi9crK5K91wXqWgU0RAAAAADRfZwL3OF2/XVmZ1H/qUFamG8F6aMKs6Q/+PXXcAQAAAKDpulTD/clxKZVpysqsWVZmqVHuq9dXb1uwfoqBzREAAAAANFuXAvf+otHg8x7IGpFeRVmZpZZ9gULLysw83okyMGcN1rOo4w4AAAAADdelwP2ohvtZy8pEFZeV6c2ZWZ3KygjW1zawOQIAAACAZnu4Cy/yD/z8JyYumHruKEyeHcXdm/h5Muaefvzkt3oZfz85n5nQPOO5FzkpA9M7me/wptebvO/od4cP9Hq9UWDf66VK6czM4fh/o9uTVzhv2U5GwYfnPbn/QcP7SFzxpwChKR/9e98/+Pqnv3BgswQAABRy3tHraYQl7O5cCBnCVvLfhedoV/fuHLTwtW/kMKswj80Vfv8wmWbuH7bxoV55NnGOYce87cewv1wZ3tyfXndte19Qbd9r5P62rQ2Q3hD8gZ//RNhRvjr+/0NRUn+9lx7i3zv+uReNw+ReMq+TeY7neu7o0V7y8zjUPv6LyXmFOLs3et558xk/yeR9qfn1RvOL04/1opPQPPm5l/q7dBucPF/qsaMXP55vL/nooHf8u/Hxc0SpOaeXs3fcLv/xt74d/au3/21D3vAV9slT/j+0c/jpL9y0cQIAAIo+T2a+3Z0LISh+czj1c5jdYTQ/RE57fY35PxktF46vGn7XVQh27yU/h9t3ktv7At75igzch++V68ObayvM4l6yDot6P+T1fskyqGAVptusUX1e4N6BwP33//wnrp9LbQTGofXo96KJEPo49J4XuKfm2zuaT1bgfvJYOnA/F6UC+fQ8kyc5WY45wf1UoJ9elmQGk69r4vGTYP1c6rWOMvfe8cj2XurvRoF7PDHfySC/3oF7XYL1FQ9nbx9++gsXbZwAAICiz5OZb3fnwt7w5oqWaKRxIB+mt8Lt1b0797rcIEUF7sk3Id7U5Sp3mEyvJ/3+YNjn77et7zXRwx15nU9Ol3xRVia/sjJxhVXZGxqsZ9mMAAAAqMTuzoVBJGxvsjB6eRClRiIP12m4OYhqGEg23J4mqIV+MqX7/L1Un9ffK9KVwH3iKyPTFxmdG5amHkjXK88K1c8lofZk0J76vXChzd7JzMfB9vj3evHJKPns4H7+Y6uIUyPVo2SZMp8r7k3Uac/++KF4LQvWF20oAQAAqMY1TdBKg2h+IPmaUjSrSz6YGmiJ2tpMpivJ+rod+vpwui18L09XSsocvchzqcfLLCsz/rmtZWX+w2/9TvSv3/53a6+zmtdXL8v5w+TCqUrKAAAARZ0nM2l358LEtd/ojBBAjgPJ1o0GLqKkzPC9cjcSuDdV6OuvDPv57Sb1vSZ6uEsvtqqyMtlzy16+019HfcrKrP6mq/AAM+PnanvlhI0IAACAsimR0U3hHHw7mUKYvB+NRr7f1jSzktrtAy3RWOGDxa3hejwc3r4ynG4a9V6Mc21/gb//5z8xd0MQZ/yc9UvpkHje347KxsQz90UTj09G2NO/d1RW5pTnWHrZU3ozL2uyTkzm64lGZWWizOdb/OyhOeZNZUiP1j+XmtL3lyvOmGao4w4AAFCi3Z0L25ESn4yEvvDqsE98K1xAdzjpF5Mua4JWCP06lND62rCPXx9OBn/m7Fz7X2J83Gmm48049cOiIHx2lnEUnfY7C+YVz85m7nziqXlESSDfm/MieoueJ+N23uuZKFw/8zoyPoGIBOuTrb5UsJ7lSZslAACAUr2oCZgSsqRQAzsEkneTkkOMRkjTrn5+HLxrjvx0IHCfHDE8e8HU2TB0NrSOl3o8ninEMn/Oi+LXZaPZyTA++TeevW90fzz+IfWaZ+fQS/1v3kcKWR9YlBGu1ytYj6McgvVFGzsAAABKoEQGSwj9I4x6/1rybYiuvldCO8gs2ukoeE/6uO1hDlofuD+IokeyglBlZU5mUFRZmVVkher1C9YL35EDAABQDiN2WVZ/ON1Kys10sQzHQBfoRB+/m5RT8uHKGjoxwn1ROK2szJwFOWNZmWW1sAwMAAAAzaSsJ6sal+F4s2Mj3l1cszuuJP3bdQbPqBfH7QwWe71RbPt7f/7pu8OfBr1UjJsOdcehbxjxHf4k/Vvnjuc1vn/0O2PnUv95aPx4dDLz47+PTp796Ll6vePnPXqe3uRyhcfPzSxrenl6E8t/Mo9RsZjR8vZOlnmqTcZ/30vPIdyX3B8fPVeczPdknuN5pV9PeOA//ta3o3/99r+bXQcZP1envn09TrXU8Ofz/8+nv3DQ1vcmAABQ7XkyJ5KLYqanR5PbEDQZ4ckyDofTpat7dw7qtmB55gph+5EqK7PpvdIZoW/vV9n3Grm/bXvg/vt+7umjiijjcHv8b/owI4TlRyVWepND/s+lfz+VpI+PUdLB92iEdi/5OT4O1WfC8uT3wjI9FM2fz/hJJu9LzS8J5OP0Y0nIvihwPwnP54TxRy++d/LhQ/JvOoQff/DQS0f1R4H770T/5u3/N9XCle9SatsvT75hsLDe//lvCNwBAICCzpNZXhIw9pPpudTPXXAvmj+qeRy4MukgGoWTh3VZoLwD9yXeK8L4dro57Nc7VfW9Ru5vuxK4p4PiYDJYP/qL5O+iiRD6JKye/J3x/45HjUcnAf04cE8/z+Qo91Hgfi6aHqEeTYTq6VHsWaPc08F5L71gx7/bm1nWk8C+N7F8o8x9HLWnSrxMjXJPfwAQ/Mff/nb01SRwL3G3Uev+FydtFJ9taW9849NfuC5wBwAAijhPZj1JbePxxVafTG6bFireS6a3ktto3RHaqXYZGyS34/B1PLVZ+IDi5WFbXq/DwpQZuJ/SNwbJuh+/X+r8gc1hMgWvn+Hvn0xtDwYt6tv7w359qYq+18j9bZsD99/3c0+HN/PX5gXuysrkV1am2MC9MWVg8lxagTsAAFDIeTLFSGodD4bTi1G9w8Qb0Sg4O6ywrfrRKHwN7fVo0l5tGzEfPsQIo93vVbkQdQncM/rAdvJ+6ddonZ0frrP7BW0f+kk/fzK57TewXy8dugvcWxy4/96fe3ow3BzcPVrRysqM5lNAWZnf/vZ3on/1jX+77m6gtn2pwGA9y8E3Pv2F8wJ3AAAg7/NkipeEa5ejUaBYJ2eqxVxiuw2iURAZSveEn9tQimRn2OY3q3ryugbuqXUe1nG4QOe1Gqyrx8r8ICp57aGfv5Dc9hvSp5cK3QXuLQ7cf8/PPT04lwrcyywrcxTNdqiszFf+zW8su7mvbZ+ZDtYrXFKBOwAAUMh5MuVJAuRbUT2CtNtX9+5cbFj7jb81EAL4rQZ3hYPhdLGIkdOnqXvgnlrX28l7pSorlUspsL+/mPT1fs379Kkf3gnc2x24Xx9uDq6NSrQ0r6xMeoNW97Iyk4F7q+url+H+Nz79hQ8L3AEAgLzPkylXMoo1DASsumTKY3W6mOcZ23EQjUYDh0CyaaPfQ9tfLLvETFMC92Qdh5HuexWtn6eqLv8z1Rahr1+O6v1B08I2E7i3PHAf/nhtHFB3sazMvNHoRZSV+cq/ebtW67+CMjC5+sanv9ATuAMAAHmfJ1O+JCz+WlRdSHxwde/O+Za1Zwgiw2jgQcMWv9SyPk0K3JN1e7eKdTpcJ72a9vV+NCq3s13DxTuMRqH7/aL7XhOda/fLixfeE2c9Fs//vTh7C7Zw/ulH40W/Fy9a8vF9cWo542T8+ezMegtaIz7tdU28nt7UfXFqGeJarOE4Wc4HyfRe6ucHqd9pTrcVtAMAALRFEkhd0hL5tWcIrZMPER4bTqFG+v2GLP6t3Z0Le9Zippc1wURfP0xK3YR+flCzxetH9ai9X0stD9yP6nwtDFung+/eUiF9vOTjp31AtkRsvWT4OhnGx6k/nQ3Hjz9lOg7s47lzSI8Nj09pu6JNB+vvtSVYnzcN/cH/5eMDmycAAIB2uLp35/bw5p6WyL1dQyC5E40CyXB72IDFvrK7c+GWtZf5PrmvJeb28/AB08Watc+VpPwNU861/yWehMW9eHHEnT36ff7Q86wR6emx4L04nrkvmnh8hRHwC+5bauR+Sm/md3oTf5D5eo5ed+/U+Z99bY2mB6cE683qgtnBei9jAgAAoHWqGr37etsbNhn1fnM4heA9jAiue2i7HcqnJOVxmOSDqex+Hj6QqNtod9/YmONcF1+0sjLLl5XpHT1XvmVlssrApIP11oxWF6wDAAAwclsTFC+pkR5CyRtRvYP3wXASus96XRMs7N/3k9Hu+zVZpM1hH962Zia1PXA/vgq4sjKTz7JsWZn03FctK9Pa+uoZofp4becUrA9sngAAANojqeVu9G5JbT2crg9/fCqq9wcdIbcSuk861ARL9fHwTY66XBtCLfcpbQ/ckw2WsjJllJXpSn31cdsZsQ4AAMCKBO4lSmpfh7rXYTqs6WIK3ScdaoKl+/d+VI/QvT/sv1vWyIlWB+6rjGqf+5iyMsej308rK9Ol+uqCdQAAAM7o65qgfEnt6zDa/WZNF1HoXp37De/b+zXp15d1pRPtDtyn0t/mlJWJT38xp8wpr7Iy03NftaxMbTpC8+qrP2LzBAAA0DpGuFckKTOzM/wx1L+uY8gaQvdb1pT35Bn6dujXVZdOGuzuXOjrTiOtDdw//LPfP7WSm1RWJmpkWZnKtasMzKbNEwAAQOvc1wTVurp35yAaXVT1oIaLt7W7c0HozllcqsH2RVmZRJtHuPfDP8rKlFVWpkTqqwMAAABnlIx2DyPdb9Rw8bZ3dy5ct5ZYtU9Ho2sVVOlFa2Kk7RdNVVampLIyha089dUBAACAAlzdu3M9GoWUdfvmwbXdnQvbHV0tvgVy9v58EFVbWmbTdQhGznXr5S4uK5M14r1pZWWizGWvaVmZ5tVXBwAAAFoguaBqGO1+WLNF29vdubDZwfXhOgfr2an4+QdWQUcC93jdxxpWVmbei1i9rMzkpwmnlZU5fSXEgnUAAACgdpKQ96moXhfQDCOFbxkxzIp9+XB4s1/hIjxnLXQlcFdWJvWny5aViSbmMD33hR82qK+eh4EmAAAAaJ37HXnOxklqYIeR7nUK3cMIdxdRZVU3Ku6znXeuey9ZWZlCysqorw4AAAALVVQuQ4mO5ddPHUP3rd2dC1esHVbox4fDm4OKnl7gHrU7cJ/4yo2yMquVlZn53yllZYTqAAAAQNPVNHQPF1HtWzus4JWKnndDGaRWB+7xxCcqysqsVlYmWqesDGfvteNJ4wIAAEAlahi6hwDzVWuGFdyu8Lk7P8q9tYF7fMqjysrMWqesDKv3z3Gw/iA1HZe910QAAABQmRqG7pu7OxeuWzOs0H9va4lqtDxwzx51Pv/3T3lMWZkFZWXI6juCdQAAAGieVOhelwvPXlZahhW8XtHzDrre8K2+aOrMqG5lZVJ/mm9Zme/9wHd1+o00DtUF6wAAANAeNQvdQ2mZW9YKS3LB5Iqc6+5LV1Ymz7Iy3ek1C4L1SLAOAAAAbXN1704ILndqsjiD3Z0LW9YKS/TbA61QjTYH7gfKysx/EQvLysSntFoHyspklYERrAMAAEA3Xd27sz+8uVmTxdmzRliSUe4VaP0Id2VlViwrk5r3qmVlmtg31FcHAAAAlnF1704Y5V6HALPvAqos6b4mKN+5br98ZWXipVrp9LIy9V7Lzaiv3puaAAAAgNq5FNUjxAwXUN2wOjjF65qgfB0Z4a6szPQf9ha+vjOUlanJum5CffVexrR0RwQAAAAqkdRzv1GDRQlh+xVrBOqnEyPclZUpvqxMmeuyKfXVlw7W500AAABALV3duxNquR/UYFGMcl9f20uuHFrF5TunCZSVqWNZmSbVV88nWJe6AwAAQINcqsEyGOW+vrda/voOK3jOzl+otUMj3JWVmf7DOpSVaUp99XF7FROsxzZOAAAA0CBX9+4cRvUoLWOUO3XT+Qu1tjlwnwgslZUptqxMvMRzN7m+eoHBuo0TAAAANFMoLXNY8TIY5U7dGOHe1hf2zqfeWCGwVFZm3bIyUTxZBiZuc331fIN1AAAAoIGu7t0J2VMdRrm/aG1QE4fJ+6LTOlPDve1lZeaNoC+zrMwHPvBdE2Vg2nXh0qWSdwAAAKBjru7d2Y+qv4Bqf3fnwra1QQ0okRx17KKpbS4r06tBWZkq1aQMDAAAANA9RrnDyOuaoP2B+8Hyv6qszNplZQpWo/rqZTi0eQIAAID6u7p35yCqfpT7YHfnQt/aYLpflPx8tzV5ywP3+SPY8ysr00sS5/aUlZk/un1hqx2XlcmP+upHvm7zBAAAAI1Rh1Hu21YDFbp3de/OoWZoe+C+xH3rlJVZ7neaVFYmKrWsjPrqAAAAQBsko9yrrl+trAzTnizxuV7R3CNtLynz+mqxq7IyRZSVUV8dAAAA6ICXK37+cPHUTauBdJ8o8bmUk0m0/6KpysqUWlZGsJ6bA5snAAAAaI6re3f2hzf3K14Mo9xJK+sDmNvKyZxoe+B+T1mZxXPKrazMdPovWAcAAAC6p+pR7ltWAcHuzoVBh/p9rbQ9cD/6VHG1sikNKysTL57fovuy2uMsZWWOb+cOoResn7XvAgAAAI2yX/HzN7qsTMkhcduV1ZYHyTUMSDzc8td3ePTvuN7JhMk75/7K0o/FURwP/+2d/N74bzL/NiTlvd7M/OOZ54yPwu3enN9b/r6TeRyNUu/1JpZpvCjzWuP4p+SXMlstTi896/rG3/3iveh/1g556vV6S//u80883h/e3P/8V75a6w8+hsuZ3nmG5b1nTU+0z0Y0+fW5tdoojm3jmvy+XuG935+623urPduEsD24nGwXzle9jU+2UYNkeZ4bTtPbrGlhee8lt29Fo/Jz95Z5HbZf9d8OJf1zw7YH+yxovlBWY3fnwkFUXtg5zyCq/gKuVO+Fkp7nhqae1OrA/d2X3jj80M98fG7oPX1fKv+e+3jW32b93rzQOyvgjyfuWaasTG9eJH5y4D/9YpaaU/K/5E8zn+U4sJ9XaR4af+ISDkpCvbvtaDQq4VKNlmscyPSjjEBm+HvjHw+T6fXkIOug7h8erNk+06HVvBPQ6TYaB1ehnUJwFUKrA++CTgQToa88kvSX0wLO6X6Tfn+NQ8/DpP84oanv9mEr2banT3r3qtjGJ6Hqi6lt1io2Uq8hvKZryTzDtuu14XR72A8PrfXaH2eE9f5ocpu5v1py23No39WpfVYULRHe2WdBbbwSVRu4h6D1ptXQXbs7F/pROfXb941un/VwB15jOKjozwTs0aJo+2RE+FEJl152xB1nznNq9Pf4x1QWnjU6/VwSameOWE+W6fiZJkLy2fktM+p+tfYZ/05v7sVWWV5GWSIHwOWf0ITg4vLUSe/28LGdKoLqVED0QnKQtrHiLNInaeN53ksO+loRyKwZWkXRZHCVPkENV1UfB1dKOzW3f0x/CJPnyU4/ta3Ymuo/B8k2PHzYdaAPVdoHxtvQrYxtaGnb+GQ/czlZln4BTzFIpr0kfH9l+Lr29YLabIeeW2Nftey2597UtufQGmj0PmvzDMd+9llQP+G84laFzz/Y3bkQtiXe291VRi3/0L92NPWszgTuysosKiszWva1y8qQ2T/m/XzKBoviw4/xiMdFJ8CbyclIWSdb6YAob5vJFAKZ/WgUyBw0cL1tJ+utX+BBSZhuDZ/vdtJOt71rGtE/BtHJh1RV1awcJNOVZJla9UFXzdf/OLBaFLKXuo0fLtN4ezUouw8OnzuMfr8heK/s+OKFktf7eB+/nSxH2N4cfYDclH198n55cri8Ox3pK/ZZ0HJX9+7c3925cDuq9gKmg2R/QDddLuE5dkJf19SzuhC4hwOHgbIyp7+OdcrKcKZgPYsD3GJObNYdEV3kco1HPm6U9LThpHY7GQm5U/evFScjVS9H5X8l8yh8T4KLUJNu3zupln3jhZLfP6tIf9A1DjL2jSLMbf33k3X/3BlPZvsFLFPoh1eiYj8YXPa13UqC9x0n24X3wyK/wXDW9R/64ZXh8t2PTsL32zVtw+vRqETSvZb3Ffss6J7XomoD903HAN20u3Nhu4TjkttX9+44R87Q2sB9fHGo/+xnP/5OViytrMziDw5WLyvTDTkG61m+3saLm+V9ccMlQ490EFOrE5uKRj5OC8/95nBZQm2/G3U6oUrW33Y0W+qnquDi1p/4rz8SlmWnrqMF89xulP1+XbFvVPEhVd5BRjgwfVkN3TNtFwap7fq624b7OS/blaRv1qlfhjZ6dbj9CifblwRnue+jTvumXB2Ml3U7Cd/D9ueVOmx/kna8FZ2EUZst7Cv2WdBtVZeVeS59XO8i6p1S9Oj2w+iU6yGd5ZyyTX20CyPcD6LkolLKyswvK5Ne9lXLypyMgm+fEoL10UYonrvh4mwnNeOAfVDXk7YkaL8W1WcUXBBCojCS+2LVJ1M1Dq3GJ5936/gBRQfe23X6ACYP4bWMv2Vyw0UPF6738L4rquzC/ZyW83pNt1lpYf8YSs1cUiZrrXUd+uH44upNNN7HXkm+vfVyVFH5kOSYbW96mx4C6qYHu/ZZwFhSVuZeVG3pKDomGd1eZJ8Lx9AXlZJZrCM13OcVdBmpqqxM1oj0KsrKzJ3vCmVlmhy3lxaqr/YEhzZNS5/MbEaTFyQrYkeS1/KGnV7dgva0sFxvJhcRvFnR+qxr0D6tNh9QdOB93k/eN00bGbjKSdCgKeWdStoOpLfpmzVf3rmBYY2F9n11uNwhMLtuC7PyPvxy1K4R2P2k/+4l1ywp5YLhyYcW1xYct200uJ90aZ8leIflvVbl/mN358Lm1b07zlk6IrlQ7l7BT3NJnzpd6wP3d1/64uGHfub7jv9fl7IyUcbvN7GsTBMumlrTYD3LoU1T5klMONB/MiopiMkj/GpgIBNOvMNFyy6VHGTsNezkNKzPN5PRovveoYWFFtsdecmDpD+FvrTTlW9PJMHbZmq7XvZ28v4a/fNW1NxRY9eGr+HRMrfzDe6j21G9PyzPS/qC4QfD29ej0beE7+WxPUrKqowvVt9vYT/p4j5r0LV9FqzhIBpXXahG2AYLR7vjVsHn1SFs923JJTzckdd5cHxSpKxMIWVl6qJhwfpc3/yxLx5Gf7fzJ7jp0evjIGajYa/hqO5l1MxAJnxtOCo6jEnCtlsNP/kO4UTfaFGhRV7vvWj07YkbVXzTpIRt+jhcH/9cqbN8qJq6uGPj+1ryfrsoLJu7nrejbgTt8wyS6VrSFofRaDBIeL+8kzq3yjJ+vz+Seq9vtLSf2Ge1cJ8Febu6d+dgd+dClYvwpLXQDcN+dvRN7AKf4pKLpC6vK4H7obIyq6h/WZkK66sX/Yo69clzEkqPT8werdmJ2VlHPm4kJ19Xmn4SVVTo3oLRodOMFl2/T4y/+ritNY62f+GbJqFueePC0NRI1rBN70ctCdta8gHhtPCa7g6np7ztWr2e19VPpvQ++1rH+4l91vx91qUqrgcADXFQ4bnPpuZvv6Rue5GlZITtKzrXkdf5Vvo/0xnq4kz1JEw+KuEy9RdZwW+c9Qxx1rPM/jwqGxPP3BdNPD51X7x4fln3xWdun+LEU9OD1JS+f13jkkHzpmJf0dxX0fqD1BC2DqcwKvhbw/++mZzshx3DlaheI9nPMvIxhExfi5ofto+F0P1Wzuv/etJGg5Z17e3ktXH2PiG4mBTeI19LtitNWI+bw+lusl0fj/is0zZ9nde2l+yr+i3sZ5t5b+cbuo43htOrLV7P2GeVsc96syn7LGjCuWWe+3rN3267OxfCNriosD0M/hG2n0FXRrhPbtyUlcm9rMw62lAGJvsVreytlp+khJOTWy18Xf2oXSO200KQfP/zX/nqzpptNIjaP2owjHQ/VNNdn8hRIy5ymYxqvxs1K1w/XPJ13erAiWopZcRq3H+3omLqnd5PzkFeT/rbYcZ7fPpbfl13r6b9xD5r+X3WzXWPG6GFwr7gSoXvTVoqGdleVMYSjmXOu0Dq2XQscFdWZnmnl5U5d9ROo8B+2TnO+zlvDQnWG3WSkfOJStteV9jBNe2Cn6u6Mnydb50lSG5RiZ1lhW9v3MvjgrttVlId7MNkej11wDheL/3oJDRpQumT8GFOqL95qW4lZpL3eNPC9nH/WPS6riR9tCsnqSF0f71rHxgmo/u3c55taMPXhm257AXFbk+9n8LxUijPsdXBkOR+Hcto2Wed6bgxLJ9rREBNzvPDCOhQS95qaJfhet0r8Dw79JeLw35jO35GnQjc333pi/c/9DPfd5g6UJkN2KNF0fbJiPCjEi697Ig7zpxn6n8ZT5Y1Ov1cEmpnjlhPlul4Phkh/mkj4Bd9cLDKSPYW11evPABouBdbdpIeTnJuRcVelKRO9lYNkjs8Guzu8LU/5iRzbp8IfeHVqLhRnCG4ei0cIJ6ljmyyfKHfPpfc1qnvhm1NKMl1vmZ9q1WhYAe37Wtt522LJtwYTjfXeX8mf3s7mS518OKtBzXcHrwaFfcNxjbvswbJ8dB5x0NwdOHUw4ovnGqUe4ukSsgUdU51Y9hnr2vp9TzcodcaDuC2j/+nrMzaZWXiVFmZcY31vDV8tPrKvvljX2rzSW7TdvL3FpzgDJITsC4duByFUMueOCU1j69E3TQO7C46zCjlfRNCipeH0/66J/VJ4LGfTOOSIpej+oTKm0mAcbFGF6brt6iPdqWETC7b+Yav5zy/lRHOMQq5WGTyjYP9DgXvr3Vkn/VKtOaHMwv2WS8m57x12We9meyzfPMPqr9w6m2roNmSoH18blKEsK2+pIRMProUuCe1sZWVWd4KZWXWXDldC9YXbNza7OWoWSMG38k4AbseFf+14rraTF77zilBRpcDq7GtUBd4hZICrVbQ9RtCUPFykbXNk4AgjDLdSbZfdQi8xgHG+ZoEGIct6aNF1fFu4nY+fFh6vY0vroAQtZTrK4Tgfbjst6P2l2i7XZN+Utg+K8ohaD9lnxWmnRp9SBOe/26N9lngmIlG2d250E/OQ14s8Bz7aB9lVHu+znXotc7s4ONT/j/96PjxoxIuU3+RVUYlznqGOOtZZn8elY2JZ+6LJh6fui9ePL+s++I12mcZ47I801P+OXicMTWrj7bJ8CD7IBqN+G3KqLlHp06+NobT3ai7YfvYlSSwyDpBvRsJ28duJV9H77SkRnLewUXYnjxV1oVEQzgSAq/h9Njwv5dqcMK0UaP+dbuhJ5CHqT4aAsyufWtpkWtJqYq2bYvG+6i81vOlMi9mnGyHdhp2LLWK/Tp8syL5hl5h+6yyXmMN91l3HRNB9PUKn/s5zb/QC7s7FyrfRoVwPYxiH07Xh9Orw+lrw7vDVGT5mP3h9JiwPX+dGeH+7ktfPPjQz3zf5J1nKCuzzEj2k8e6U1ZmWkvrqxftrba/D8No3+HBdjjpCJ/Qji8IVlfhAnKvJcs8iPIPY8YXw7o/Z90/mTxXP6rn18fDiehjqZPTjeQgYNtudeYEs7UjRZcMLoq4IOHO8H15s8Lt2Hik6fiimlUZl5eptPxHeO5QLiBq3jdb+gX20TYIfftSi7ZF429f5eVSVReYTY5LDqNmXqx4kRv2Wa3eZ21EarrDQWTwVl2F44Rv7e5cSF+wOu31Fc/x520D5x0nP3fK40UKxzGhVvuh1V+Mhzv2esMGbrBOWZlFulxW5nikeiHirvTPTnzNMjnIDhv3/SSorXP4/upwGfPc/rye3N5b9mQjaaPNVBv1a9Au4cKNt4av4VKyfEWOaj+I5n8oMfZI8tz9qJ4fToSRovs1qrfd5OAi9INafCU9ef9eT0KMKoPm8Lzhw8DzFbdHWCdPJSOIL0fNCN4Hw+X9WtS9izovK3zofKMN265Uzfa83KgqbE+/50JwGbUndL9ZdV+zzyptnxX67FM2sVA63zBZvp0G844bW/L6xlnMy4L24vXiuN1hZi8VMH/oZ77venT8iWIveXw2yj43dc+5if/2juvwhJHr51LzGv3tiYfC70SjJzg3Z/69aJx/nyzLeJl7qfmN/3cuOhmF3ptall7ye2GZHjq+r3c8z3MnDTIx7/Hce8ljRzXZ04/1kvmmljX9d6P26UX/37f+09G0nrjTb8Zv/tiXjjtSG9+XvVM+7EmC23Cic7lFAUg4sQkXALud12ie1EUct1v4NghtdBAlH0ysepKalEBIfzhRlwPLELgXPlI0z+1Gb+UPZ7sTXGRsu6r+hkcpfWzF92LRtSbrJpy0hP75VnTy7aX70302VZIrtMujyW1dT+Jq1a/WeH++meNxRdg3na/R68v7ArBVuJds3+9X2I6d2WcV9Ho7t23Jw+7OhbJP+M5f3btzENG19X5suP7Xzv/WPUdYoZ0GUb4flpMcxwynnTpfFLVNWVjXAvfUm3Y69D4xHaJPhvInAfW4VEwvI3A/N/69aLI0S28irE4tSy9KLdPJ8p0E9Ccj1M/Nm1cSuJ9Lvbpz6XkeLfN0SJ/8Xqq9etFkC51LL9jx8vQm5vHv7//WCoF7bDM352Tjmz/2pafauJE5y845CSRejJoZKofQ5eWo4FqkSaB1LWp+8B7a6OiDibwvMJqMtg39aFCD1/nhosOEugTuXQsupvrbrQoX4VLVo24XbKtC+N6mD1PT267wAeHaH6omF22t24eFwWNNHuWeXHtlkOM6f6xu5TCSY6amhhL3km3XvQrbzz7LPqsSAnfrvWwCd7KOY4d9ozbHNgL3Jr3AqQ3Ch37m+1IvOAmvp7YZ0yH65O8sDtzTxV9GYfls4D4ZcKej65PQ/VxquR9KPW80NWJ9MnCPjkfAn4sm5zOxXDP3nRa4j27j4+XtHT82/t1vzQ3cBesruPnNH/vSThs3MuvsnBsWKocD2BvJxWHLPtEOJ0z9hnWJ0E6vlHGylbTRtaja4P1G0RfXq0Pg3tXgIvX6t5L3YxWBae3bquEfpo6FbVbuHxCm2mhcau1aTbbrN8q8MGjObXk9yrdWbqW1uEt+rWUI76FLRrZXvk2u8oLRTzWlrYogcO/seg/fuqrk238Cd07ZJx99M7/q8L1NWdi5DnakmZ1MfMr/px8dPx5qlsdTfxFnzCfOeoY461lmfz4KvON45r5o4vGp++LF88u6L165feI5Eyt4SxPMCqPqkq+cPpaEHHXdpoSTq/Nlh+1JG4XnfCrZSTbBfnKCdb6skU2hjZISADvJyXAVXmz7+3V44n4lyj9IvdSkk/EkhD1fUT8LgcmtmrfPQWqbfrPC9+OqDqPRBR3DN1UuFRW2J20UytCEb0g9ljxn1W3UyG1XUmolzwD6sK5he9JvrkfNuRbQ+LjpYsVh+7Z91tExZFX7rOBW8iEjdImLBlNH40FD4cKxrw6nLU2yvi4G7rNXF56bDU9F5HH2o4ui5eOLjManh95ZT7j47+KlAvSs54qn5hGed3xJ1OPHkgd7c+YUL9EGLH3yQfYJwTh4P1+jE8rDqMKgfap9QkBzMarvhxJRsmyPJWHVvYraKYQlT1XUh/rJ6OdWSl7bXs6zvVlksFlgP7tXYYCxmYx0bcI2PXwANg7e63xSHEY1h23X9bLDwSREfariY4Smbrvy/vDpRgNe806Jxz+PJdPFpG1uL+in46+t7yTHAZUfN6W+HWifVfE+K2reNzMA2i4c94XQ/WvD6fpw8sHoGXWxpEzYsb+Z+o2jf8soKzN58dR2lZX59/f/U/Tv175oamfd/+aPfenD6TuUlDn1ROl6hQfo4YTk5bp+xb4GF8KaFk6qb1R9cj3VRlVd5PJ28sFIIaoqKZOUfgr71TwPxu4N2+qpJm/zkpDy1YqevlFf00/6UNh2DWq0WDeTbdf9mrRRlfu9Rl3gsIDa1OFD7Q835LWXcQzQmPYocZ91mHwrpcn7rLD9rap8QydLyygp003D9R7OQa5U9PTnd3ZfW6sPKCnTSeMPzm8MtyGHRT+ZkjIN9u5LX7wXzfkEv4yyMpnP0IKyMg/eM8Z9DQ58VpSE3TcrWldP1bmebRKK1KFPhe3spTqMZJvTRveTdtov+am3WvrV6SLqv+40vVGSkY5VhZR7DWurw6Ts08Wo+q9a30u28zt1ujhmst+pqj81ZoR76gPVPO036O1Uxkj8jYZ/Y6uIfdalqOGSY7WqXsetCLrjHU1Aw4R95vZwCiPebw2nviZZzrmOvu6DmXuUlVmrrMzvfPs73k1n97omONOJQQjkDkt6unFZgRAeHzageaoOrULQ+FhZNdrX6ENVhO6DNr0Pk1G3eV/4ab9uH9Ks0cf2o2rCukEyyrdp7TWugV+VsK5qe8HDpD9VEYhtJDXRm+BKlH+Y+kqD3kOHJW1zmtIfythn3W7ZPquKAS2bTdxnAXRQ2Fa/qdTMcroauL928uP0+PTpR7L/v0h8pp+TfzNGpKfG1S/17PGiJT/T1zTmLZ+R7WcR2jA1HWiRM3u5hOc4qm1Z54ulzTlhCmH7xQqeejyq/WKdRoaeYicqt6b7C2158xVwUcKxG1GLJB/sVBHgXmviNyqSsLuK7e1Oco2J+zVvn/2omtC99iOak/5+OefZHjaw1EUZx0bP2WdNHEe0aZ9V9nHR2J4LqAI0wkayP33TxVUX62rgPveCNsrKrFdWhjnrL54/pdx/+zNfuqelzqzotjsKrptYVzIZbVXmxbtCW52v+6j2Oe00/nCirJCtTQclRXwFfL8h3yJZ1aWo/G+d9KPqaoSuq+wRxZca9qFq2M6WvbxNCFi3ovxHtx80cP9/r4Tjo759Vqv3WVV8U3KjwfssgC4KxwLh4qp3lZmZr5OB+7svffH+3ANRZWXOXFam65YI1rPc1nprnVQWfSL8csNPpMocdfVyUy94lazjstqqSaUZMhX0tfygVaPbU33sXkWv7XKDR7mX5XbTPihM2qjsUaiDBjRLEaOXm1r2r+gPrRp1Yj3cDl4paJ/1ctRCyXGRfRYAyx4jhtHu25pi0sMdfu2vnBx4HcfhM8Vapu+b9ztZ0r+7/M/Jv3G4AvS854+H/+9Fy5WVSb+mOUs+fpKVzFu+7gTvBVwwWf32ettv+gnT8MQlvIYydn4HDW+r/WFbvRiVEyqF52jsN1sKKttw1IdaOlJw3MduJn2szA9cxiMGrzewyUJf6JfwPE0uBxGW/W6J7/3Nun6wmnyQWUR/aeq2Ogzo2Cu4zQdNqF2e7LOK+DDmXlMHGqywz3ohKvfDtibvs6AJfLN+uTa6n0xvnXEeT0az37jrR838dtgq2+9wQdXwjcidq3t37utK3Q7c5x6Irhawp+LvMKK5lx1xLy4r01v4ZPMC+nB7LoxC7/Um7pv4vWSZjuczJ8TP/NtTHluufZopLvfzgwObofrubFsS/oURStsl7WSbLoRXb5bwPE82vJ32Clrfr0Ttd6mkPpb2YiRwb+V2PoSdJX6oGgxqfLJ+uaA2buw3t4Z9Iyx7kR/wNWW/f62gZW3l6PaKjoum38vXIyB3IQTd2dUOWceE4Th92EaF7/d3dy5sJvulfjI9mdxutqAdwzHp5vA1Xhy25WHXO1VXa7iHsjKHkbIyc15Hd8rKrFEGJreN+tuf+VLnN0I11op1k4RJ+yU81WYL2uqetlrs+Sce70fFhXutL7FVYh9L6w/X23bEPK+14DWUWfbh0Rq3w6Cgk+8mO+j6vizZZxVVF9w+qxgb9llAFceEZYTtQXie4XQwnPaH0/XhFMLpp4ZTiNmeikYDdMK297ChbRmOD95MPljotHNdf1Od/Dh92dPpR7L/v0h8pp+Tf+Os5z++XOtSzx4vWvIzJcyLl69uahCsV3UixHreatFrKSNUerIlbVXGKOsmH3xcK2i+t5ML2HZBCEjLfq0v2qTP1fivVicfqpZ1PFHLbVeB5WSavk0qumzhI/ZZnbBTwXvhcgTQQUkYH4L4MNr+seFdYRoH8E3a74QR/He7Xte964H7/rw7VwvYU/F3vDjiXlxWZvEvZY1Y78XxzH3RxONT98WL55d1X3zm9ilPjYP1LK9FUILhSWEYhXVYwk61DW11EJUQwoXat01rm4JHt7/WofdjeC+WXYpgkKw/JrUlMCurP9X1w8Ktgubb9A9k7nW0P4z3WRsF7rM6cw2m5IOFsvdZm224wDzAukJZllQA/+HhXRej5oTv47ru211df50O3JWVyXqVq5eVKSvXzgrV4+ZVtrn/9me+dGAXQomK/upzm06Myhjl3m9guxR5sNS17eHNCp7TiMEpTbjg45Kv43ZJJ151/WD1uYLm+07D+8Vh1J4Plc7iSoHzvt2xtrwZ+WYWNN2hJmi+q3t3bofwPToZ+d6EwQGdDd3P6bLpYEVZmVVf1fhPHzzIN/FuSajuQJ06KXo01ob350r6DWyXogLbw5ZcoHhpyYjB/ZKfdiuizUo5rqjpt3OMhM12r8Ov3T7LPgtIbbs0QXuEC+AmI99DzffzUf0HL+11saa7wD3jBEVZmcWj7qfv+/a3v3Omxu9AsJ5FORnKPlnyIc/ybXVYQkjxaJPaJLmAWVEfqhx0tKvdKPn5+r6i32qvd/FFJ6WSNqz+TPc62i+K3Gd19UOMssvK2GcBLCG5AGsI3escvI9ruve7tG46H7gnZWVmO6WyMjNlZSYemykrs1iHg/V5QjkZ4SdVKHQH3LIa0UUfrDStrV4ocN5vdfHNWPLFLsd8Rb+9ygoBBzV73X2rfqF3Ovq6i9xndfLDrWSfVfb5i30W5Oe+Jmi3VPB+qabrO4Tur+7uXOjMQAkj3EeUlYnjpZd/Zr7xySwE60s50ARUpOiTxH6L2qroELgxBxrJBylFfrW7yyUPSr94qs1gO33+K1/t6vvICFjb1+l91oZ9VhnnzKVQVoY2eqSl5zbURCg1E41qvN+s4eKF47a9rqwLgfuIsjLR8iPg5y6LUH0VysngxLv+Dks42GiKQk9423LhyjO+9rIudnnc75IwinYq4730SM1es/68WBdHNBYd0nb2WKqCfVa/Zd+ehKadA9BQSY33neGPF2t4LLC9u3OhEx+oCtyjo7Iycy8EE7eqrMziQH7+q8y3rAyjE5+3P/Olfc2AE+/an1QeaIVjz+mThSr7K/pGDNKmoOBRq4QpRZaTuZ9cQLTLyj6PGejSkAvnNh10de9OOM8IF1at24fFt7pQWkbgfmKmrMw8q4x6X/S75ZeVmf77fMvKsDS126mMEJlV+Wp+2ccfpXhSk7dWF2tL9wuc9yMtaJ8it7GHNX3N9lnt2mc9p8kBzu7q3p2wvw613euURYVzzGttb3uBe+Ldl754MO/AcZ2yMtN/0fayMixFORlojoMiZ96Qr0kPCp5/50e4Jx+E3W/ROoW2aPzX/gsejf31ur3e4X616G/w2GeNrhdx6H0IzerT4YKamr67khIzobzMfo0W68ruzoV+m9td4D5p5uJlysqcXlbmwYMHes6SB+lvf+ZLRrhTeT/UBLXRhAOMokeWuYDTSJn7BuEF0FZFb9/ss0YO7LPgzKooo+H8jyNX9+5ciuoVut9qc3sL3CelOt76ZWWmR5RP/26Tysos+hDgd779np6zcv+Cyvg6NE5066fUbz89/8TjA01u+26bcCrvk8UOarhMyo/YZ0FtVViz2vkfx5LQvS4DQQfD90Vrjy0F7imZF0895f/Tj8ZR9hxWLSsT16SszCkvmeW8ogmgURycFh84aeORg5Kfr6/JW6mMEWwbXWrQ5DoWVNff6rbPOrTaK9ln+fCftqiqLzveZtqlGvWLy21tZIH7rFqVlcn+wxqVldFnltrJvf2ZL9nROYCgWd7p8osvaUSZr7hGx3WWy9yW9bU6LEXQl73dqtXx13CfVca6OrTmK9ln+eCLtqiqLyuHxYRQ0z0ahe51OBfbbmstd4H7lHdf+mI4eDgY/U9ZmbVGvpNmdHtxBHbai2L0NUGpDkp8LmUXYDmNDtwL/OD0nnVln2WfBY3ZTh1qeqZd3bsT9uU7NVmcrTa2scB9vplwtIqyMscBd4VlZcjNviagJoxwYFl9TVCq1zUB1O5986QmnquOgbt9Vnv3WUa40xaPVPGkV/fuHGh6MvrGflSPa7K0sqyMwH2Od1/6Yuh0h+n7qigrc6oalZVhJHy/IHzgMTXtv/2ZLxlVDDSNEWXlKjPAGmju9vn8V77qhNp7ZVpRQWUdP7z34Uh791m+vUBbbLb8vUozXarBMvTbePFUgXu2pJa7sjKnlZX57d/+Tuc6R0awnvXJjHIyQBMZUVaiz3/lq4eRkk9QN/3nn3i83+DlL+rk9cA+yz7LPgtqs01u2vaaGrm6dydsz2/UYFEGbWtbgXu2/emDCGVlumfFYH3e+rn3zR//sp0cNFPXR4QYUdbiPvf8E48Lp2iDMo6xmnwCWET5gvt1u2BqW0/U7bMm9lmOSWi03Z0L4birimMv5URZxs2o+g9RX2hbowrcM7z70hdDZ3s5fV/XysrMG2GfXVam2eaF6isG68fTg9QUT/UhoFGM3KJsvqIP9dtON/kEsIj3+W3djoQ67lD/464DTc9pru7dmck/KzBoW7sK3BdLPuXpZlmZXkao3tSgPWu0em/NUP3B1GNTJ4FOSoDGMZKsMl/XBLC8kkZaN/kEsIhlf62G+6y+d0MlDEyAeu9LDpNyIbCM/aoXYHfnwqBNDSpwXyAZ5T4RmHatrEwT5VAGJmu0+rxQfZGXf+PHv+xAFGgiI8mq4cJWUL/3zcbzTzy+3bRGKeiD01BOpo6DSfreBvZZUHNVXNjZ4D+Wlnw4U3WfadWgL4H76SYuHqCszGxZmfe+86CSFVOjYD3LvrcPACvwIS2srozQ78UGtsuggHk6tiXtUBPA0qoIEl/X7KzolYqf/9E2NabA/RTvvvTFw9HBpbIyWYH8dwoO3Ausr55XsD73hOQ3fvzLDkKpowNNAPVU0wsRQt2VcUG4QQPLljxXwDxdm4j0Psu5Dixhd+dC2H9UsQ9x3sdKru7dMcI9RwL35UyOcp96sJCyMvH8ebS1rEye9dVLDtadkAAAVKesQOFaUxrk+SceD2XBtvJuZwErc/hmFpyuihDxdnIhTFi571T43K0qaypwX8LJKPeRUsrKROuWlckK2ospK7OsMsrA1KAG/cFv/PiXjVIEOF1fE8zuQzQBLC/5ZkgZocJ2g0a5bxUwzxt6W+SC4rOc88DpXqjgOV/T7JxRlaWIjHDvqBvNKitz/IxLvbh4wU+nlZWZ+zqjqIllYJyQAJSrrwkgV4cdfd1ljcZqyij3vMOdMLr9wNvLBcWBMxm0eL9I+9jf50TgvqRklPtxkNqFsjLLeu933+tqsD7vBYXR7TZQAEAVDjv6ussayRdGudd69FUyCj/vEe6XvLXIoGQFLFBR/XblZDizYd/xzaWcCNxXc3N8UKGszMk83jvloqk1rK++nnjBZHQ7wCqe1AQzHOTCij7/la/ejsoL/m7VvDku533+o3a7fdYCb2kCWGirgudUToZ1HWiC9QncV/DuS18MB/KZF8NsU1mZ6aB9mbIyDamvvrzsUD1zo/QbP2F0O8AKfD1/1juaAM5kv6Tn2Xz+icev17EBkoulbuc4y8PIYBL7LGAdz5X8fCGzUk6GPPb/rEngvrqb487X5rIyqyTjLSgDs2qwnsUJCcBq+pqgMr5qTNu8XOJzXatpaZlQYz7PUPji57/yVdsK+yzgDHZ3LoTtcdkj3JWTIQ9f1wTrE7iv6N2X3ggbr6NgVVmZOHrvQYPi9fyC9XmMbq/OQBNAY/U1QTU+/5WvKl1D2/r0YVTuV6DvJiPKayH5AOBKjrPcsZ2wz6rR+9t5Fk1URTmZlzU7OTjUBOsTuJ/Buy+9sR9l1FjtWlmZ3/32e/VaOYvrqxfJ6HaAM6j7BQiBRinzeCyE7bUI3ZNlyLO2/P7nv/LVmw1a7/dLbGv7LGBZL5T8fPdc8JKcHGqC9Qncz24n/KOsTEWqCdWzGN0OtErJI8nUxHUQDXluu8qsXRvC1zqE7nvJsuTh3rAdLzVsvZcZMPW900qnPAaNs7tzIWwryh7hbnQ71IjA/YzefemNowP6OpaViUsuK1OoegXrWYxuB5xAnt1AE5TuUBPQYjslP984dK9k5PPwecPI9u2cZheC6/O60Knrm3IZsUsTlR2237+6d2dfs0N9CNwLOKCvuqxM9vKcXlamF61WVuZBXjXcmxGsz3Pb6HbgLBpQG7esDwSe1BtKd6gJaPG2NfTvsgdDjEP3UgOWIsL2Bl8k1T6rvQxQoIkul/x8RrfjHKVmBO5rePelN44O6NtUViZasazM7377wfINVl199SLteCcALVXWBwJGC5bv65qANvv8V756PSp/VGwoK/Pq8088/mrRJWbC/IXt9lkd8pYmoEl2dy4MonLLT4Vt900tTwsctunFCNzXdzOO53WKLpWVmbPQ7QrVM9f9b/zElw+9BQDW0q/DRQc7xtfz6YJQh7yKADmMcv/acLt2vYht23Ce28ObN6P8wvb9qPlhe1TiurbPKp/zLZqm9NHtV/fu+CYItvc1I3Bf07svvRE2bDOjnBtdViZevqzM8QPtDtazDurVbgfa7PUSn8uIQQezpauq5jblSMp2VfVNxBDIXotGwfutdftaMqJ9ezh9bfjfMLK9n9Ny3ggXSG1B2B6UOQp64B1WKh8S0xgVXCzV6HbapFXfwn3Y+lzfuy+9cfuRn/347fSGdTQyPUsIrHtTj5/8Rfpv4/m/MjGPELL3evOeZXI+4/rs50Jg3utN3Dfv96IlXsx7v/ugM+t5qgluvP0TX/YpMtBmhyU+12A4HWjycjTg+gFlMUq1/X19//knHu9Ho/C7qj62Habhchwm27nwYea9096HSUgfto3PRfmHN+EYNgTtt+2zziSsk9veYfZZMEfZ+xuj22mTVm3vBe752UkOilMnb5NJ9XQwPi/onmdcViaOeqcE+VN/N3zCXu8kxJ8sUDMZ8R+H98e/cXogH27f+077Avcl2vfw7Z/4sk+RgbY7LPG5ntPcpbXFgSamS0I99+efePzRKL8SLGfVT5bhaDmGyxRu7s85uQznEkV++yI836UWhphl7rMG3lnHHi14/sJ2GiMZ3V7mviZs9+QStEmrtvlKyuTknU+NLqCavq+pZWXi6AxlZRqolzEt4ZIeT4P1NQHL+PxXvnpQ4tMN1MR1IAsFbs/Csdt+DRctbPcGU1ORYfvNYVs81cYRwyXvszbts0o7rjzQxDRI2aPbbxjdTosyg/vD/nzYpkYUuOfonU+9cTN9Irs4kJ4XWMfRvL+No+z/HAfhp4bskxc97cXZF0c9/XmboxetFazPc/vtn/iyAz/sPOmKMg96Bpq7FK9rArooCd27OhIwbMvDhVF3Wv46y/wgYcu7qhRvtfFF7e5c8IFN+9ZpOMfaLvEpD67u3dnX8rQoMzhoWyMK3PM3Nfp5MqmeDsYzg/Vo9vd6UXzq7838XTwd4mcF7dOj2LMD+fR9v/Pb36lFo+ccqmeZe4FcgBYrM7x4QXMfKfpCngeamK5KAudLyTFdF4TXGS6M+ljJI8C7sM9SCm2kb59Vy339PAPdtVB7JT9f23OJvi5VqUcreM7WDQoSuOfsnU+9EQ70jkvLNKmszPS8likrU7aSgvUs4UKph3o50CFlHvgYLThS5Ki3cKFGXz2m08KFVIc356Nyv8FThfA6Q/mY6x1avWWOhrbPGukXOO/DYf917kXt7e5cGJS8Tbh5de9O20sE9vWszrX/QdsaUeBegHc+9UY4sD3aADaprMxpf1tmWZmKg/WjlxonbRqmB3F0z4VSgQ4q88Bn4/knHu90gDF8/f0Wrc+1+4O3H0VJapg/FbWzxEx4n4eg/VIHw0r7rHL3WUVvp2/bWtEQt0p8rrBdv6HJKVjZ38I5bOOHSAL34qRKy7SzrMx733mwVgMVUF99Zelg/UFqGgft8cnrdqFUoHOSUKrMEdFdLyvTL3j+rzjQh+Pt2/2kxEwY7d6Gk7z94RRKx5xv40VR7bM6uZ12zRFqb3fnwvWo3NHAl1wolYL7dOjPZQ98aeUHrAL3gqRLy7S1rMx731ku9q86VB8v72nB+gI3f/Mnv3xPrwY66qDE5+r6V/SLPGG739UQDhYJtc2HUxjtHgZXHDZs8Q+T843HOjqivfJ9VgmjvLu8zzLCnVrb3bkQPnS6VuJThlIyB1q+EI9ogmODCp7zlTY2pMC9QOPSMl0pK1ObYD0+c7C+6EQGoKvKHGEWvqK/3eG27hc4b8EFLBBqu4eLi0b1D97DyMb94XQxuRjqdUH7hNfK3GdF3f6g2D6LriuzlMy9q3t3djR5YXyz8kTZFwU/bOs1CQTuxbs4OjBuX1mZ733wvnoG61Gu5eYv/eZPftlXtmqq46OKoCxln/S+6AC3EC/rynC6VPB+MapP6HcYjerNh5D9w8lodoHkfAclP99l+6xCvKIrU2dJKZmyQtqQRyhxS1kGJT9fa89RBO4Fe+dTb4QD5BtNKCuTVas9q6zMBx+8r9C2yyoDU1CwPk8oJXOgF9eaT6KhYMnIyTJHHQyef+Lxrr63i3rdh8rJwMrbvtvDKYTuIXwPowrLHIARjj9DwB4ClseSkew7QvZa7rM2h/usQUebu1/gPss5GLW1u3MhvOfLLCWz09YRwNSub29G5V6TYPytvVZ6WJcq3jufeuPmIz/78ed6mV85DCF2b2qU+Ggs++RPc8q79GbnEcLoXm/es0zOp5fcnhv+QdxbPEY9+3nXF6d+iOuz2sLBulIyACNhpFmZIXgYMdipkTzPP/F4OLgt6ls7RrfDGSUB7s3hezTcvprTbA9SP7+euu9QeZhG7rNejMofWV+HfVa/wPUHtbS7c2Ejx33BMvav7t3Z1/KUuD8r08ttvgiwwL08l6IoHh749Y4PTKaD8XmB+DzjsjJxUlxm2ew7lJXp9U5C/MkCNZMR/3F4f/wbvYmQPtyuOsI9PnniOgXrWS4qJQNwLIyq3Cvx+baHJ/M3OhY8DYo8WdOFYW1nOS4M285Xkr+9N9ymOba0z2qLIj/Q6MI+S1nM5rpb4voLdduVkqFMZV6XJBwT3WxzYyopU5J3PvXGTN2tupSVic9YVuaDD74rc74l1Vcvyo3f/Mkv+8oWbfWcJmBVFXxFP7jmvZmLfSEfrCe5ZswqAe7BcHoqlKRJStMceB/aZ9lnLb3POuxA+222aJ11xu7OhVslrruwDTuv1Smxf4ewvV/iU7Z6dHsgcC/Rtz71Rjj4nihTMq82+vxHo7k/T//nODA/tXb79J+eHoNPP+/vf+h7qqyvnqv4ZLr3mz/55et6K1DyAUcTlF2WZDv5ynpXDAqar/Jo5Kpj78soqc/9tWj5kCWMdD7vugn2WfZZjVhvsJTkIqnbJT3d0WDNtoeRzvtqp8yLgLd+dHsgcC/Ztz71hbCh/v/Zu7/YyK77PuDnDndXsmzZayf+E1uRKLYJ0qasVmgTOHYCcWO2L0Wt3T4UbVFApG01T4WWfuhTrd0FCjQoCu3qPfJSaAsUfVnKT2m6hWbbxI7QWktlX1oUXnFRW5aN2NrETfxPXvaemTPkkEsuZ8g7d+6fz8e4niHFHXLO3HvPvd977u90t76xK5XeNxAP9/5ctmMc+2g2N3eH+Jv7/P7NXaPdd/50fPz43ffVKlQf/N17LUMb/VlrKckHNIEDL02ww1ood9LA6FIbGnaCtXBX1YPGvvFI22Y8bh+nfECc2PSCVUSf1YI+axKjfLsuVE2UMjaH9MLKZ5dCeXexxP3WaZOkhscc25S6ji+EyZa33O1iGy4oCdyn4+zgALDOZWVObM5UtoEPCNb3PUl6+0tfF0wwcEoTwLZUDmGt5F97Jo0ubbpJ1Uus5ej2lnzmVHsdPJUvN8J4AUssHXNZ6+mz9Fnt6rOc2zRbCtuvlPgrl4XtPbOaoFRllkXr5ut4K46XBO5T8M6zr/WuWg6+rm1ZmQo4ZLC+l9W3v/T1VWsnQOVOhtswYvCZCbym0e0HW9AEDIu12tOo9hi2jxtOrWhBfVYoN5hrWp/VtcpO1gsrnxW6j9deS6H8sH1Ny0/t855t6fteKPmYuDXHSwL3KXnn2dfWt1a0GpaV+YV339sbE//RmfdOvK02Q6HB+l7WnSTVloNGKFEKcMs+ETiVArBGmtCt+fHCvpGCMN62GEftjjuqfetY0gWuyvZZqyX/2ll91qG0rc+aVunKBXuG0UwpbF/V8rKFktfzkyWv5yttuoND4D5F7zz7WryNYrW+ZWVCeLBzrLD2mHCofr9QYvntL33dhCT1pBahNqN805jQ7Hws8dDQ9pzEBEUvCv9gNDFAzJer+dO4zB7heBJ9lj7rcC62sM+a1vrxlF3CwYTtrdXG7eN8KK98z1pbSskMCNynL46sXq9bWZn33T0RQpYd6g1PKVjf76+IddvVSMMBPowo3fLdncKvvhLLPTSpLdP7WSr4ZTfyRR1pGG0bvBD6o9rPaI3G9lnxOH8aJRr0WfqsKjqTRrSyj7x9YtBeVtgeL9aeFbbvaWEa20fL1vXYxudK+nVxX7/ctpVY4D5lqZ772bC5c2RM1cvKvG/z+IElZSoWrO/1V1x++0uv69wAxjeNA6Z4sahp9dzjQW7RJ77LabJAYB9xYst8eTP0R3YVsQ26mF1t0ygdqc/SZ1XVkia4V7wQkS9XS2yf3rx+arZXymxb5jlI9eqvlriuxwtLrdvXC9wr4J1nX9sIQ5OoDqtqWZkTmzO9rx/IjtUhWN/L+ttfel3ddoBDmFJd3N5J4uL8XCNOFNNIwaJvzb/ckEnnhJfablLb3aB8zKuh2Fuo42SrC1q40n3WNEZRxz7rXEO2HX1Wsaa5v3jOXmGnFLLGfqGsEc5xn3S6TbWsx/w8Zm0fE23fuD+Px0Jl3e2y3NZ1XeBeEd/vT6KaRgxWv6zMz999T4hj6x/szJTcUoeL97PBstlbeleTrXWN8AFNAFMTL1pOY6TClYYEW0WPFIzHEU2ZdM7t7tqucCWUjzmvlSvt4pT6rEtpQl591k4bweTe0xJH8Z7TDH2pXnsM28u6YB2P154Utt9/HZ3i72502aX03spc35fbfBeHwL1CvveF11bD0IjBSpeV6f/S8LGZ902gJTZDEcF6Z2jJBkt+oJ0vp9/+0utuXWwGI/nGCxtmtcJYXNC5j3QL+LROlq/WeUK69LcXGc71JgB3Wz763r23t3y5EYorH7OfhaaMZm5wnzWtu1uv1LzPmg3FX1A629Y+K9VNnrbzUx5FXIXPYVBC5koo72L16hcvfeXJNpbWGNM0182ToaEX0KcUtq+2eUUWuFfM977wWhzlvuMKUBXLyvz83Qd7P/Vg59gR3u3hi9GMEKzvZ+Wt5193NRkHL4zCBZ2DA4x4i353SgfDr9Y4wCh6Mq6VNDEg43lCExx6+6uFoVHtZe0rLgndK91nreqzDqXoOr/LLe+zqnA83isp0dYJVPP3He86ifN4lHn3SQwflwN12EbONe2CVHo/wvaSCdyrKd8Rb65XuazMic0YtGfhY8feO8LbOeJo9bAzVB8xWN/LxbeeN0lqw0yyw1jQvIc6ePd+WtlnTeU2/VoGGPnfe6ngfddqCpGa5Cnb+KHWLRcJ793WpjFKLYbur7qrTJ+lz2pNn1XVPm6U86hX2xS6x9AxX2LoWGb96o3QLyEjh6jXNnKlQet9vLBU5uADYXsicK+g733htUGN8Tv3Kytzz2SmJZWV+blYv30r6c7Cg9mxoZ+eQBmYYmZgXX3r+dcvWLsadSI9GwSi41oo4cC9SU6VsA7XXpqMblq36Q8CjFrUx00TvhY5+nUtb/8mjpaabdjvKXN7KMMHarCtnSx4WztMf/tmCt6X0t+DPqvtfVa3oX3WuKr0+cdj3TcrUuZmYlLQHgPUN0O5g6pWg3rt435WJ0M1Br4t5H/Lhbq3Zb7Ei6ZlXWDqlbgUtm8TuFfUcOgev96rrMywMsvKnNic2TH6vD/KvZD66pOyPsUDayZ7MjvpE40zDWuzJ2r++mWeZJZxoLfUoABjNQzNQTKFAONq1cs4pOCiyNEyQ5OtN0e6EDVb0q+bbVgQWtYJah36xlMV+kzidv9OrCMfRwvHMjexj0nLbECf1Z4+62zb1700QWfV+p3ehaAYzDVttPuuoL3M4+5B8LisXnutjzHOp222jut+PP6Io9rPlbjOnxa275Rtbm42+w1mWa3//p/7vU8udPq1lsJmNrhCsv2ehq+YzITtoLwz9Laz3v/C0Pez1DbbbZRt/Wx8zfTfY4ie/tvgO/H3/cpPPxR++8eP9v59lnXCKz/4X2H9R98Z+n3JZEP0cQ7uTr/1fL0mSW3idln0tpgmQJv0CfVqU0bipFDpzRIO8h9Po8fq3l5XSjgwj/ulJ4tqryL3G4fZXtM6VmZtwL3EOVAqN3nohIKL002ccC6VLygziFpuSnmDvO2ulniiWul2S2U7btTsI7yTtu2B2DfcHvq6O/zfmtDXVmA9KfMWe31Wyyf2TmF2XOdmK74fejFfLtc5KE5h4zNhOoNb4r46Bu2V3Ecf9Xxh0vla/tm9WcFtZCX/PC/XaN2P5fQWSvy1vX18UfuMJmVhAvca+PDvfbJ30BMD9374vf2etsPwfvgen8fQPcvCUIh+/8C9//3tL2a2/tXm1g91hl7r13/ysfBr+dIL6vPlv/3F7XD9LyrZn/SustVxklSB+4EnAjFQuFrSn96UAPlCKKeWbSxxcbbmbRUP8t4s66A8b6/TVdtvHHZ7LfHCzkH7/hhgrFVkfSr64k2Tw/bZFEaUuf4Utg22aL812M4er/J6mLdJs09ydn4W60PP39jj++ttDzv1WSO3SdEXPYXtSRppvVSjP3k1X1754qWvrNWkfWM/GM8RnwvTCWx7Fyvy9rrQ5JxhkvlaxbeRbqjwhZRUpz2u+wsl/+p4cW6lSutolQjca2I4dO/sE7j3R6enUe7Z8Oj3bDswz7ZHqw++joYD935wv2sU/Pa/CIs/fjT8tZ9+aCtwv/3TPwsvv1O5TLu2YXvTdjJFb4tp1NqrJZ4c1f5EYQptVts7A6Y0Sjue0KwcdR2rQuA+pfVtP2upXTemtC7Fk72rBa9LTQ7bp3mHRK3vZppi222NhKziOhnrpwcToO/1mQ2Oja8P7Vfu5J9ht40Nos/SZ01aGtkeg8QzNd5vxPXzlXzpVmnke962p9J+/pkw3btV4v6zsmFskecLk8jXaraNxPO2SlyISheZnkvtNjuF/cLyJNpB4F6nN9iQwD368O998tJmFs5Nu6zM2R/+1fDI3ff1ysnE7/353R+Hy3/6x1Vrrhi21/bEQeC+78lAHHFzfgonRb26k3Uc6Z5qkV+dQpv1Djzr1GaprS5N6YA9tlMMrlYPe2JalcC9YgHG4MD4YpnrYrqj5LmC33+Tw/altO1Nc32ZathV0/3WPSegVRmlO3TMcClwmP47bge3B8+bXr5Gn6XPmoQUIp6bQNtO23pa4kW7jS9e+kq3xPYcBOxPpMdpt2tcv1fqVLe6SoF7umAyKP1Tt23kTuoj30iP65O+GDU0oexTYToh+/BxwtlJvV+Be53eYIMC9+jnX/rklfwdLU2zrMwzf/mr4f2bD/TatpNGuf/ud/97+NHdd6vSTMtvPf/6ap0/Z4H7jpOA2TDd2wOHO9VBIFr5E89Udmcat5XtFsOXl0O/bMMdbTXyyfbYwVWVAvehdr1SoQPo2K4vT3IUZwqOz09gX9WY+SRSO51KJ82DE4YqnWStphChW9V9fWq/hQr0i/v1lWupDdemud9PI//fCRQeLDRxNHzFQvfa91mhgDv36iqFiM9VsH+bpI2h5XbYY06K+43+TiN1h9fDU6ntHkvfP1XBtow1vS/Wrdb9NAP3FBifScd/C6Ha8xkctq9cDzvLuw2+3vqZfJ1ZH3FbGKz3T6XvzVbg/U38ApPAvU5vsGGBexRD907IlrbeYyi3rMw//39PbpWTGSwvf/9GePMn0+lrdq3By9+uedjetJ3MuNtiCthPDXXEpyr4dtbTiWcMFNanHcqkUGEQwDxV0YPS4XYbnLBvTKm9ZsPO0QFVPhkarGfdcEAN3qoF7hUNMAYnhWspyFgv6D1OcnROHOl4oa77/tQ+w/v1U6E+AcRG2m+9kR43ilhnxmy/haGTrLq136ANu2F7tHSptcRLmgC7jQYB/MtVuquh4X3WK0WE7/qsYqUJCgfH4VUZdc1k9e6Iq0P5mEmcL4x6jjAUHMdt4rHQzIC9TVbTen+n6utolQjca+ojL30yP4HYDt3LKivz4bvvCf/4h7+yVU5mMMK9+xcb4dUfTHaurs19ng9ZfrsBYXvTdjL32xZT8DnoiJ9IB6t17Yi7oYRbsPcIr2Zr3GYbYTuAX5/UKK6h0aBPNOBgbz212xu717MqBu4VDjAGBiNRroftESj7BoLpvZwM5dzOXKmJ9Mb4vAd3jAwCiKYa3l/F0HG1gLaL69Ngcuu6BeuHab/BOn5ngutj3N/fCAKwSffl8U62y00Y0VyjPmsjLfqskryw8tlYHubpluyj2bvfulhWCZ2q5gy7zxF2bRe2jeaJfc5Kmeu9wL1Ob7ChgXv0kZd+Y2vUTlllZX7xZ+8L/+BHv7yjnEx/4tQ74ct/+vrRN64Dvr6PxoTtTdvJ7N4W08nvldCOicx6ZWiOOtKnZW0WTx5Xijhha9GEeb317L/8yTcuFL29FhhgxHW46MnYmn5St1zTeSPi1ffZln1e8cLX49ruUJaLuFhxQLvGfeN5u5V6HPNUZD+mzxpPbec6GtULK591t0y7j8lqH7QXlTMMnyPk28WZtK+kmefkF6cxP0GTsrCO9ai+vvv5r8V6rvdsAJujPN/c/s5+6/Pm1uP2TvUTP3t4R7gf0vO5Ex8abyMaWu4OLZu7llFP1poUtrdAPFhdaMl7HdRcO6ozLWqz2SJOcIdGtVvPKiCdhJ8O/dtwub94O/7pmobts6GdtwvParvptd0I+58LYWctYSbXF52PF47S3Rq1NdRnOb8Yrc96suFh+0IQtrdR3P5Pf/HSV043JWwveLuI+3wTkzdPvHh+MV+erNNkwFV1TBPU3kq+nNrMl0EIviOojl9k219splHuO769z4/v/Kf9Ue4PxHHv2aDUTBoxn75+/IEPhjd//M49r7fX8wIJ2+vnKU2gzUp4v25lrJh0y/vZxfm5eOvpeZ/RPeLJ3HLNQ4tZH6O2q6izQWmZMtflV/N9fSwxs1LzPms5fx9v6LP27bNWyp7XYkrcIdMecbuP2cKLda3RXqJzjl0at+6/mC+X6zYRcJUZ4V5z3/381+LG0Bs1uDvczgYj2Md4veHbN/b617GGe5QNatUM6r5nMXD/0H1HrE+AsJ22cJLHQWpzwpufnF9O/ZYRp33xhO5sXUe17+LEi6rud3rbmZYo1blY2i1N7F7ndSf2WU+GnfM26LP6fVbj+/E0un3Bx96K4+hYPeDxL176yoqwfSTPaILG7NMH6/4FYXuxjHBvgBS6n/3oUE33/Uaq73jeG7SeovnNnbXcw66fH4yMf//mAzsmVh2MdY//+K8/9JFw7c+/UdbbFrbXl4NWRun4Gc+f1emPTSfpT7Z8tHtczy9Oun51yWZtilR4v9PN9znxpPKK1ij1mC+G7rWu7z0oMaPPalyfNQqhYrPX6Vjq0Gj2Mb2w8tklx3y1182Xl5WNmSyBe4N85/NfW/7YS78Rny5NqqxMDNxDCNvTr6YR7vH/P3H8A+GDx94T3nn3h5N+q8J2aLbbmuBQJw21E0cOLs7Pxf15rAG51KLPqo2hBVRhn7Oa73PiQJUYurt7rBxxTpUbebvXvs63PquVztiEG7c+d0M/aOxqjkN7WhPUUjz+GVxkcqdxCQTuDfP2rtA9SwH7fuH6XmJZmcHs09tlZbLwyN2He1/tVU5msPzqez4a/vAHEz2WFrbXXzy4WWjZgR3jHwzQkvVsqE5unKAnjhxcavC+78X8/a7Zdm1/TK/t4jaY72/i770ajNArS7y4cTVv99Npn19bLeuzXm7zxeFUTsaFufpbD9shu5Dx6NtF3CZciKqXtbT+r2mKcgncG2gQum/mB4BFlpV5eJ9yMlk2mD41C7/1/scnFbjHg9sVYTs1ZLT24Q6MGS8A6DbgPcTOo2khxtZIkpZMLNfWbXcjUKu2i9tjHHEd+iPdBQfliCPdXw39euhN6Hf1Wc23oAlq26/E4+Lr8VG5GNtFCw325a+kbcBgtikRuDfU8Ej33jcKKCvzkbsP9b7eXU6m/53+sw8dfyj8lQd/LnzjR9874jvY3L3DOP328zcc+DXDess66nVtNt4BQhHhcarV25Z1rNukNzMUYqykPuy5UL9RqIOD3LW6j+ZkJNcr0lfUcXvvTvF39+ZAyvc1MXC/FIx2L8OpvL0v5W2/os/SZ9XAY5qgNuda60HAXtp+XBNU9nxwELDLzSpC4N5gMXT/xEu/cT0Lm1eKKCvz4bvvuW85md5I93z59YcfHSNw3zzoB4TtzQwmzo3Zeez3OpM+yN7rhOnkmAca3Sm02X7bUtnb0cIhT/qKcifsfSvw/doifn8aE5A+sc/fOkobvtLEHUU66b8cl8X5ubjNxYnLzlQ4yFhL2+pa3esUH+Eza9OFrkL3W3F9T2VOZrVb6ettLDHTTf3sc0EJiUk7l7f3K024M6vmfVY3bIfsG1bLPc1qgkqut3F9fSMes6vDTksNLjLF7UDAXmEC94b71ue/tvqJ/kj3K0ctK/ORzcEI97A1UepwOZnB///6+x8N//nO/w7f/+lf7nqFQ+1IYthupEWzTkjiie3pPf7TRp0P+PP3NLvHgfmdIkYK3afNat92+fta2GO7L0pss5NNO6mfcJtVdb8xOLBcSUFGbIOnw3Tv/NgI27csGxW4LYaoB5XoOOpFr3EuIO61b97LfhdZ4/p2vwC2W2Dphbg+LY1xjHRnj3Z5Y4TfUUa7jfLvX6zQPia23YV8/xID0xi8PxOEbZN0JU2i2sj9pj6rMbTRdAz6t+tD/daGkeu0fFvYSNtBV7PURxZHMjf6DWaZTzn38Zc+FQ/wrnay7ZPG7UIwIXS2hqtvB+5Ztv3fP7B5IvyzH/3N/Oc6vf+edTqhE/99fMy/F7/ZyZ/PdGZ6j//jB/83/Ifv/M+jnrAvtzVsb/p2Ceg7i5IuQMRAI94lMBsmF2jsuGXZiMB9P4/ZsB1U3mliHeAUoA2Opwq74Jm/7l53UK03JRjb/f6qfjE0/3uXQn/Eu9vnJ+Nivg5caOE+chp91rqa7ON7YeWzw/3ZOA66UDuKx0IxF/1mw3QvHu51gXz4wvrWxWNBYj1yhktffHrcu70nuf08NcLPTPrvPazh9f36ru2h1ReYmpSFCdxb5OMvfepU3hyvZmkHdlDg3v9+/4tf+tnJcPanv7RVNqbTe+yErJOlEL7TD9x734uhexb+ze3/Gr7540OdI15++/kbK23+rATugL7zSIHG7NBJ5uwYB+W7Twbj44agAtophe5XtMRExJOEx4203rfP2q/U3JH7LOcZQFvPEfZzhAtsI/V3yr6MTuBuh1Bbj3z5U/HA7dXQu8qXhc6gncIgaN8Zug8C90+/+/F8+UQK2lPI3kmhe9Yf5R4D9+HlrZ/8efjXb/7BASvgPd9a/vb5G6t2Mg6EAQDHx9OS7mS4Eoxwn6RWjnJ3ngEAzdfRBO3yzc99tTcJaeiVbNncqqy+32HX4Pu/ePfhrfHwWxOnDo+RH5o0dVDX/ZEHPxj+3ofn+2H+5t7LkPh3PSlsBwBgmhbn52Id9xtB2D5pz2gCAKCJjHBvsUe+/KlLWcjOjVJW5l/86NfuKSfTGR7h3qvfHp/3y8l0Ui33+PjvvvXH4avf/8b9/pRuvpz99nmTow4YeQIAOD4uV6ozfzUcva52PLbdmuRszH+7+3cPlxaZDc2bzPVsnBze2uc8AwCa5JgmaK9vfu6rK498+dNvZKk2ZTz2ynrDzrP0vP9zcXR77+Rsa9ke4T4Y5Z4Nng+NdO9/nYWlR3+zF8r/0ff+z15/xsVvn79xwacBAMC0LM7PnQn9Y+LDTna4mi+vFBAed0f8exfS08FjnKdiNtQvkH869O68BQBoDiPcCY9++dPxdtlY1/3kXqPcf/Nnnwi/9e4jIeuENEFqtlW3Pev0v57ZGtGeljR5au/7M/3Hr7y9Hta+9fXBr42j2eOo9q5P4F5GngAAjo8nL41qP58v5w75Ehfz5XKVJv9MYfxs6I+Oj8+rXBrnTt52H7QmOs8AgEYdbwvciR798qd7k6l2sv5kqv226/+35Z/8jfCx8N6tUjK9sjIjlpMZDtw7M8fCO+/+MPz+t9/Y+P231p9UQsaBMADg+HhajjgxajceJl+7eWujBu8zHucvhP4o+DiSf7Zif+LpvB271kjnGQDQmONtgTvDHrvy6UtZb4RPv90ezGbCyo//VgrbszRyfShszzo7R7anoD3+t5mZmX7oPhS4H5s5HkfFP7nw28+sa20HwgCA4+NpWJyfW8ofLoXDlZC5eO3mrQs1fu/xAkOcsLQq4Xut29N5BgCwW0cTMOz28h+t5A9nQ7/kS/jln31wq2Z77+QslZzJUn32MFSzfWtJJ3KDn+k/9sP5/OlFYTsAANMQR3vnSxzVfph67Rv58mTdw+H871/Pl5V8eTz/cjlfpn1s/oQ1EwBoEoE7955JLP/R2m+++/Gzj959OPztn32sH6oPT5k6eBoGYXsIwxOoht0BfLb1vfXTn1m+oIUBAChbGtkd5y1aOsQ/74Z+2N6ogSP5+1nNlydDf8DNxpT+jFlrJwDQJAJ39vTvn/1P3X/y019Z/+jmQ4NsPY1c33q29b9BCJ9t/cCOkD2Voul9f0XLAgBQtsX5uVg+JYbth6nXHkPp01WaGLVo+XtbSyPeL07h15+yhgIATSJwZ19Zlr04fjmZvb7uTbTa/e2/87muVgUAoEyL83OxVvvVcLh67bH0ynJb2iqVy4kj3jesOQAAhyNw537WwtCI9tHKyYR7gvf0jy5qTgAAypLqtcdR7ecO+RLL127euty2dktlc2Lovl7iZ2WUOwDQGAJ39vU7v/PCnSyEta24/ZDlZGLt9s/83S90tSgAAGUYqte+cMiXiGH7alvbL5XPOR3KC91PWmsBgKYQuHNfWZa9cpRyMiGWkwnhZS0JAEAZhsL2w46aXm1z2D4wFLpvWKsAAEYncOe+NkPo7iwn068nc0/Ivk85mf7SWdOSAABM2uL83FL+cCMcfsR0t0012w+SQvezWgIAYHQCd+7r2Wf/7UYWwvp2OZntUD1sf2tHOZmhoH1QTmZDSwIAMEkpbL9yhJcQLu8h1XSf9HxMd7Q0ANAUAncOlmXdHeVkwv3LyYQdj511DQgAwCQtzs/FoP3KEV9mOY3o5l5x8tiNSb14CvUBABpB4M7BsnA925oZde+w/Z5yMtsB/BsaEACASUlh+9IRXyaWklEGcR/pQsSLWgIA4GACd0ZYSeII974d5WT639kqJ9MZGt0ey8l0ehOmZkarAAAwEQWF7dFFrXmg1Qm97oamBQCaRODOgZY+97t3sizb2LucTNguNZPtUcO9kzmABgCgcIvzc+dCMWF7HN3e1aL3l0a5T+IuAOcLAECjCNwZUX+U+37lZDq7ysn0wvdOFk5/ZtkBNAAAhVqcnzuTP1wq6OVe1qIje2UCr+mOWACgUQTujCTLsts7y8n0y8gMysnE0ex7lJPZ0HIAABRpcX7uZDj6BKnD1G4f3STCcXM+AQCNInBnJFkI3RB2lZLZUU4m3FtOJhO4AwBQuBi2nyzotdZTqRRGkLfVJAJ3I9wBgEYRuDOSLD8QznaH6lvlZDpD5WQ6/cfOYPQ7AAAUY3F+biF/OFPgSwp7p9tmdyYU4gMATI3AnZH802f+1Z0sZGn0z+5yMtleo9vj4uAZAIAinS/49W5r0rEVeUdAV3MCAE0jcGdkMUDfLieTDZWT6S+dHYF7b9T7n2k1AACKsDg/dyp/WNASjfKKJgAAmkbgzsi2A/c0dWovZO/0x7v3Rrtvl5PZKisDAADFeE4TNI4JawGAxhG4M7IsiyPWh8vJ9L7ZC9c7u8vJhP5zAAAoyIImaJQ1E9YCAE0kEWVkWZZ1h8vJdIbqtodB0N5J5WT6o9y7Wg0AgKNK5WRmtUSjKCcDADSSwJ2R7S4n0x/NHrZGue81cSoAABTglCZo1GcRR7YrJwMANJLAnZH9w3/0L7uDcjLb4fvQSPfO1mSpW6E7AAAUYHZCr/uUph3d4vzcyfzhZAEvtaqcDADQVBJRxrJVn31H8N7Z+dgZ1HW3egEAUIjHJvS6Rs5Pp71e1JQAQFNJRBlLry77VtAeUv324dC9/7yjpAwAAMWZndDrnlycn5vVvCNbKOA14uj2DU0JADSVwJ2x9Eu2b5eT2atu+1bo3rF6AQBQeWc0wcieLuA1LmpGAKDJJKKMJ8s27ltOJks13TtGuAMAUJjrE3ztZzTvwdKdAEctKXPZ6HYAoOkE7owpu71zVPu9I9v7JWVi6D6juQAAqLpTi/NzarkfbOmI/z5Okmp0OwDQeAJ3xrK7nEy4T+huhDsAAAVZn/DrP6eJD3TUOwEuXrt5645mBACaTuDOeCtM1tnYnjD1PuVkOmq4AwBQmI0Jv/6SUe77y9tmKRxt4trutZu3LmtJAKANJKKMJcuyjbBP7fYd5WTS1wAAcFTXbt6KI9wnPTr6kpa+1+L83Mn84fwRXiJ+bstaEgBoC4koYzmwnEynM1RSxuoFAEBhuhN+/YXF+blzmvkesU1mj/DvL5ooFQBoE4ko49kRtMcSMtsj3TuDr1M5GSVlAAAo0PUSfsclpWW2pbY4yuj2NaVkAIC2kYgyrvUdJWOGwvcdZWYE7gAAFGutpN/zaiqj0mqpDa4e5bwhKCUDALSQRJSx/P2nz905uJxMf6R7pzOjwQAAKEQqS9It4VfFoFno3g/bZw/5b3t12/PP7I41FwBoG4E7Y9urnEy/pMxwOZmZ3nMAACjQyyX9nlhKpbWhe/6+r+QPC0d4ieU00S0AQOtIRBnbdjmZzt7hewrdTZoKAECRrt28tRr6o6fLMAjdZ9vUxilsXzrCS8Swfc3aCgC0lUSU8e0qJdOr6d4ZCtuzGTXcAQCYlBdL/F0xdL+xOD+30PRGjaP58yWWkVk6wsuspIsiAACtJRFlbFsh+17lZOLzmfTY6cxqLQAACnY5lDfKPRrUdL/Q1AbN31tvNH++nDnCy6xeu3nrstUTAGg7gTtj211OJttdTmarrMzMrNYCAKBIaSLOi1P41ecX5+caV2Imfz/nQj9sP3WEl4lh+7K1EwBA4M5hVpqs072nnMzWZKmdHc8BAKBoaST1xhR+9UK+vBlHu9d9QtU4qj1eQMifXgr9UfyHtSxsBwDYJhFlbDtGtA/KyQyed7bKyYSZmRmNBQDApEwz5D0fahq8xxH6aWLUG6F/AeFIn4Ga7QAAOwncGdt2KZnt0H24nEx/dPuMEe4AAEzMtZu3uqFfz31aYtA+HLzPVrm90oj2GLS/GY42MWoUy/qcFbYDANzrmCZgXL0SMjvKyWQ7yslsl5Qxwh0AgMm5dvPWyuL83EI4Wv3xoxoE77HG+1r++Eq+rKVa81OVLgLEiVCfKbCNNkI/bF+3BgIA3Evgztiy0Nm/nMxQ2N6ZOfaU1gIAYMLOhn55lCqUdjmTliuL83Pd/PF6vnTTaPxSpAsQcXk6FH8hIl5QWK7CxQQAgKoSuDO+LFvPsmyhN5p9uJzMVkmZGLb3nwMAwCRdu3lrY3F+Lobur1bsT1tISxz5Hr9eT8vtfOmmv7172BePJWJC/yJD/B2PhX64PsmR/hfzv/eCNQ4A4P6yzc3NZr/BLPMpT8BX//A/njw2c+zMzLHjTx87duLMseMnwvG0nDjxQDjxwIP58we6J08+flprja/p2yUA4Pi4aIvzc0v5w5Wa/vlxxPgoJVpm01KmjaCEjPMMAGD0422BO0d180/+4OTxY8dj6P708eMnzpw48WBIS/fh9/+iwN2BMADg+LgUNQ/dqyhOSntRCRnnGQDAGMfbAneK9K1vrp88dvz4mRPHH3z6gQcfOvPQQ7/gA3AgDAA4Pi6N0L0QG6Ffq72rKZxnAABjHm/rcAEAoEUnAC0YkJImDr0aqjGRat1czJfLRrU3k/N/ACjheFuHCwAALToBaMkdoGlS0TjS/ZRPfSTd0B/VvqEpmsv5PwCUcLytwwUAgBadALSo5OLi/Fwc4X4+X8755PcVJ0NdUT6mHZz/A0AJx9s6XAAAaNEJQAvnOEolZuJo91lrwJaN0J8QdVVTtIfzfwAo4XhbhwsAAC06AcjaOae90e5bNoKgvbWc/wNACcfbOlwAAGjRCUBLA/eBxfm52dAf7b7QsrfeDf2gvWsraC/n/wBQwvG2DhcAAFp0AtDywH0glZmJI94XGvw27+TLar68aDJUIuf/AFDC8bYOFwAAWnQCIHDfYXF+7lT+8Fy+LDXoba3ly8vXbt5a8wkzzPk/AJRwvK3DBQCAFp0ACNz3lGq8L+XLM/lyqoZvIYbrr8THazdv3fGJshfn/wBQwvG2DhcAAFp0AiBwP1Cq834mX54O1S05sx76ddmvG8nOqJz/A0AJx9s6XAAAaNEJgMB9bKnee1yeCv3R7ydL/hM20nI99EP2daPYOQzn/wBQwvG2DhcAAFp0AiBwP7JUfiYG77NpeSw9hnC4QD6G5+vp+Ua+3E6PG9du3upqcYri/B8ASjje1uECAAAAAMDRdTQBAAAAAAAcncAdAAAAAAAKIHAHAAAAAIACCNwBAAAAAKAAAncAAAAAACiAwB0AAAAAAAogcAcAAAAAgAII3AEAAAAAoAACdwAAAAAAKIDAHQAAAAAACiBwBwAAAACAAgjcAQAAAACgAAJ3AAAAAAAogMAdAAAAAAAKIHAHAAAAAIACCNwBAAAAAKAAAncAAAAAACiAwB0AAAAAAAogcAcAAAAAgAII3AEAAAAAoAACdwAAAAAAKIDAHQAAAAAACiBwBwAAAACAAgjcAQAAAACgAAJ3AAAAAAAogMAdAAAAAAAKIHAHAAAAAIACCNwBAAAAAKAAAncAAAAAACiAwB0AAAAAAAogcAcAAAAAgAII3AEAAAAAoAACdwAAAAAAKIDAHQAAAAAACiBwBwAAAACAAgjcAQAAAACgAAJ3AAAAAAAogMAdAAAAAAAKIHAHAAAAAIACCNwBAAAAAKAAAncAAAAAACiAwB0AAAAAAAogcAcAAAAAgAII3AEAAAAAoAACdwAAAAAAKIDAHQAAAAAACiBwBwAAAACAAvx/AQYAZXHIrnowi8MAAAAASUVORK5CYII=;fillColor=#A8DADC;strokeColor=#457B9D;fontColor=#1D3557;" parent="1" vertex="1">
          <mxGeometry x="1330" y="530" width="220" height="73.33" as="geometry" />
        </mxCell>
        <mxCell id="UyWXllwboFjSRBBQRdUh-40" value="" style="shape=image;verticalLabelPosition=bottom;labelBackgroundColor=#F1FAEE;verticalAlign=top;aspect=fixed;imageAspect=0;image=data:image/png,iVBORw0KGgoAAAANSUhEUgAAAgAAAAD6CAYAAADX7v+sAAAABHNCSVQICAgIfAhkiAAAIABJREFUeJzt3XuYJFV98PFzqe6eGXYRQRATYEEBuUQFglxdYKanu6tmdhHUVaKvd4kBg0b0lRe8RPH1ghqSGHk1GoIiiiER5bJT1bdZGF4v8RIgUQMIchMVFBdYdma6u+qc9w+qecdlZ6Z6pm8z+/08zzy7z+7pPr+uPlPnV6dOnSMEAAAAAAAAAAAAAAAAAAAAAAAAAAAAAAAAAAAAAAAAAAAAAAAAAAAAAAAAAAAAAAAAAAAAAAAAAAAAAAAAAAAAAAAAAAAAAAAAAAAAAAAAAAAAAAAAAAAAAAAAAAAAAAAAAAAAAAAAAAAAAAAAAAAAAAAAAAAAAAAAAAAAAAAAAAAAAAAAAAAAAAAAAAAAAAAAAAAAAAAAAAAAAAAAAAAAAAAAAAAAAAAAAAAAAAAAAAAAAAAAAAAAAAAAAAAAAAAAAAAAAAAAAAAAAAAAAAAAAAAAAAAAAAAAAAAAAAAAAAAAAAAAAAAAAAAAAAAAAAAAAAAAAAAAAAAAAAAAAAAAAAAAAAAAAAAAAAAAAAAAAAAAAAAAAAAAAAAAAAAAAAAAAAAA0E6y1wEAQBL5fP5PjTHrrbV7K6X2FkJsN8Y8aK19sFqtXiuljDpUbzGTyeSttfOWUUqJ6enpj1YqlQ91Igb0j7GxsV8rpfZdqIxSSlx//fV93786vQ5gqUZHRw8QQlxSqVT+rNex9FIul7uiXq9fefPNN2/pdSz9Znh4eExr/YpKpfK2XsfSS/l8/upUKvXezZs3P9TrWJKy1opCofAtrfV+QoijtNbOQh3whg0bxIYNG0QURb+01j7YaDR+UK1W/6pN4dSjKBIL1W+tFdbaRpvqQx+z1taMMQu2h5VC9TqApRgZGTkrlUrdPzAwcJbrur/tdTy94rrubZlM5k1r166dLBQK/7vX8fSTXC73rqGhoc0DAwNv9Tzvvl7H0yue592bTqfPEkL8cnh4+N29jmcx+Xz+Ks/zHtq4caN1HOcMKeWxQggniiJhjFnwJ4oiIaXcTyl14sDAwLs2bNhgPc+7O5fLfa7XnwvoRysuARgZGfmLwcHBq4UQIooiobV+jud5d/Q6rm4bGxu7R2v9kiiKRBRFIpVKvX94eDjf67j6QaFQ+GAmk/m7ZqeglFrned4tvY6r21zXfVhKeWCz8xwaGrq0X69aXNe9zvM8m0qlXiel/KPmFXer8TZfMycheEE6nX7H2NhYWCgUJjoUPrAiragEIJvNnjs4OPh5Y8zT/2aMEVrrFxYKhRN7GFpXeZ53n5Ty+Tseh4GBgU/2MKy+MDo6+tepVOriKPr/t4PjNvKyHobVdZ7n/U4ptc/cDtRaKzzPu7mHYT3D6Ojox13XrWmtTxfiqe+qnUlKMxmw1mrHcTzP80yhUPhS2yoAVrAVkwAMDw+/ZWBg4LK5nV5TPAT4gR6E1XWu696jlFq343GIT5pH9ySoPpHL5S4cGBj48NzOv8laK0ZHR/+xB2F1ned5j0gp99qxI7XWCqXUi3oU1jO4rvuTgYGBC6WU6Z39XrdbXId0HOdtnuc9etJJJ72g45UCfWxFJADWWjE4OHj5QicJx3Ge18WQeqJQKNyktX7+fMdBay02bdp0cJfD6gsnn3zy6ZlM5uM76/yFeKoNaa2P7HJYXee67s+UUnvPdxWtlHp2l0N6hhNOOOHUsbGx7UqpI+f7vjrJGCOklHvusccedxcKhUu6HgDQJ1ZEAjA2NvbDBMX26HggPXTWWWftn06nT10oCbLWiq1bt67vYlh9Y/fdd//UYleRSqnBLoXTE8PDw29xHOfwxdrIWWedtX8Xw/oDw8PDb95zzz1vEkIM9XI+QnOuQCqVep/rut/sWSBAD62IBEBKecRiJwtr7douhdMTv//97z+dZJhUKXVAF8LpO0qpFyZoI0NdCqcnHMd5fZI28sgjjxzVhXCeYXh4+Lzddtvtn5cyua9ToigSjuO8wvO8Yq9jAbptpSQAC564rbVCSjnQrXh6ZN5h3bmMMc/qQix9R8pEa26kOx1HL2mtk5bbq8OhPMPIyMhZQ0NDn13ukL+Ucqc/yxE/TZR3XfeaZb0RsMKslAQgSZn+uKTonKSfb7UfB8zDWpuoJ+zF70omk7l6qRP9pJRCKdVMcH5tjPmxtfY7xpgpa+33jTG3CSGe1FoLpdSSEoJ4JGBTPp//6yUFCaxAK3YlQAArg+d5D0spWx72V0o1H+P7XhiGV1YqlS8s9ppcLneJ1npYa/3SVm81xE9JnC2E+EhLgQIrFAkAgI5xXfc6pdQ+rVz9N4f1oyi6PgiCl7dSX7lcvqD590Kh4DuO4yZJBKSUwhjz6yAI9mulPmAlIwEA0BFnnnnmPvV6/fRWOn+llIii6He+7++93Hv7xWLRixc/ul9rfcB8ccSd/6+CIPjjZVUIrDAkAAA6YmZm5v8qlXyaUdz53xYEwdHL7fyb4vdZVygUvpFKpV6z4yREpZQwxvwyCIKePRo5H2utyOVyX9ZaHySl3F0IsaeUclAIkRJCTFtrtwshfmet3V6v16/ZsmULKxwuwlor8vn8lUqpA5RSa4UQuwkhBoQQs0KIbVEUbY+i6Lpqtfq3vY20O0gAhBDvfe9797n99tuPL5fLN/Q6FvSn0dHRw7XW64rFYtDrWFaCbDZ7muM4hySd9R93/v8eBMEJnYinWCyelcvl7sxkMh9qxhTX+UAQBOs6UedSFQqFolLqhI0bN+6eyWSecfsifuppjzi5OUQIIYaGhkbHx8e/GEXRbbVabfOWLVuWtTJqLpd7q+M4n7DW1hco5hhjtpRKpSXtyDoyMpLLZDJfW6gOKaU2xkwVi8XXLKWOpnw+f53W+pSNGzfukU6n570l5DiOSKVSp46NjV0aRdF3gyA4uV3JaD/aZROAbDZ7YSqVOl1Kedwdd9yh0um0GB8fF1EU/cD3/eNX85eOZLLZ7CdTqdSIUuqlzQlp4+Pjwhhzs+/7p/U6vn6WTqcvTTr0Hw/B39Opzr+pXC7/dT6f35ZOpz8dTy68PwiCAztZZysKhcL3U6nU8c39EBZKnnaWFAghhFLqqKGhoaM8zzsvDMPPlcvl9y8lFmvtWq313gt9h/H3ts9S3j+uY7DTdRQKhW87jvNyIcTTG0QliEsIIYTW+qSNGzda13U3B0GwYakx9LNdKgEYGRnZmEqlLlRKndg8oe/4i6aUOi7+0r8fBMEus8EQnjIyMvK2dDp9ttb6OCHETtuIlPLU8fFxa4yZ9H0/27Ng+5jW+uikV//W2hnf97uyhHWpVPpMLpdbp7V+Rb90/vl8/rOO45wnhEjUQS1kzoTH3TOZzEWe573O9/0DW30fKaVNMnnSLmNFJ2NMojqEEC0/P3rqqaeeOTQ0dKVSas1SHz9t/t5rrcc9z/u97/t7LumN+tiKWAegHTzP++HQ0ND1WusThZh/17Hml66UOmF8fNy6rjvV9WDRE67r3j80NPQlpdRxzT3m52sj8XryI3Eb4bbAHLlc7ktJ+wWttYiiaElXqUtVLpfP65cJf67r3p5Op8/rxOqI8XbI6zzPi/L5/LltffM+VigUPrZ27dprpZRL7vznin/Xn+15Xl0IIay1nd+5qkt2mQRACPGCVrYabZ7klVLrx8fHbT6fr3Q4PvSY1vqA5j70ScxpI4WxsTGbz+ev63CIK4LjOC9NcgyllCIMw5+XSqVdYsLVjjzP+5XW+sWd3BAp/h5UOp2+LJ/Pr/odUwuFwt+lUqmLWvk9TiKed5FyXfcJKeWz+mUp6+XaZRIAa+29S3ydMMYIx3GyY2NjtlAoTLQ7NvQHY8zdS5n7MWdjmdPjROBfOxDeiiGlfEkLCcClXQip73ie9xsp5fO6sQ2yEE+NBqTT6Y9ms9n3daXCHsjlch9Mp9Pv6lRCFScBa4UQq+ZWwC6TANRqta+18kjSjponecdxvDgR+HYbw0MfCMPwxuW0keYIUyqVelU87HpVG8NbETZt2nRw0iTKGLM9yep+q43runcopZ7b7avIKIrE4ODgJevXr1/WjPp+dPLJJ5+WTqcvDsOw16GsKLvMJMAtW7ZcWigU/sxxnGOXk3U3X+s4zss9z7PGmGuW+4hKX7BWNA499Cah9R5CiIwQopuPQVhh7Yy1dlYIMa3r9Sv1ffdd2cX6hRBClMvld4+NjZ2ulHp+G9qISqVSr/M879VRFH21VCq9tW2B9rGtW7e+M5PJLFouXunvR10Iqa8UCoXLtdYvbLV9NZOq5p/N5KHVJCKKIrFmzZorhBD/0tIL+9zuu+9+bavHYsdj2rTUY7sS7TIJgBBCFIvFlxYKhVtTqdRRyx0mmpMIvNrzvFcaY75eLBbf0I44u61x0EEXOUcc8THhOK1Pt20XKZ/OOOTgYLZ+2GFXqDC8zLn77nd2M4yJiYkXuK77C631Qcsdno1fn0qlUm/xPO+1xpgrisXiqp6MpbU+MunwfxRFu9QE202bNu09MzPzllbOPc0RqSiKbjPGPGqt/bUx5hGt9eFKqUGl1DFKqd1bmd8kpRx0XfffgyA4fkkfpM8UCoVvKKWe3cpjp/EaEA8aY34SRdGPrbW3CyGeFEIco7U+Vmv9QqXUEf20dXUn7FIJgBBCFIvFo/P5/GWO45wrxPKzvLjRacdxXu+67muMMV8tlUpva0OoXREefPDHdDp9UWhMX20jKIVQOp0+r3Hooc9L3XXXpm7WHQTB8wuFwtccx3ltO04AcRsZcBznHM/zXh+G4T+Vy+V3tyXYPqOUWvzyP1Yulz+0K6238eSTT34v6edtlms0GleVSqXXL1Q2l8ud6TjO3yul9k/SCca3Mo8bHh5+9ZYtW1b8Fsha69ck7fzjlR/vm56efuPk5OTOEtA/eKKnUCj8KJVK/WknJ2r20i4zB2CuUqn0jomJCWmMuUVrvez9xIV4+lGRdCqVeqvrutP5fP6yNoTaUeEhh1ys0+mLGn3W+Qvx1J7GjacmX74qWrfurG7XXywWX7d582ZpjPlxO9uIEGJNOp3+K8/zHhsdHf34st+0z1hrB5OUa274s6vIZrNnaK1fkCSZjDuphycmJuRinb8QQpTL5W/5vn9AGIZfcJxk13TGGJHJZD6cqHAfc1332qTtSGstwjC8wvf9g+bp/J+hWCweW6vVLoq3ol51dskEoCkIglNuvPFGaYz5QZsTgcFUKnWu67pPjI6O/k0bQm27xsEHX6BTqQ82ujQLeTmMUgf1qu4gCI6t1WqHRlH0X21OBJ6VyWQu9Dzvd7lc7kPLftP+kU5SqFuz3/tFKpX6YJLPHD8Z8YsgCPZttY5isXjO7OzsBUk6q3gU4PD3ve99a1utp59IKb0kx1VrLWq12qeKxeJbWq2jXC5/YmZm5m2rMQnYpROApiAIjr/hhhuUtfbWNicCazOZzPme523NZrMfa0OobTGzbt2bnHT6k/3e+aeUEo0w/Fbq3ns/0cs4yuXyz4vF4oufeOKJU4wxd7S5jeyVTqc/4rrub0ZGRt7ThnB7Sko5kKSctXam07H0E631MUmu/q21TxSLxRcstZ5yufyper3+lSRPsxhjxG233bZiH1mNR1UWbW9KKdFoNG6eu1V0q6rV6uWNRuOflvOUUD9aXZ9mGaSU1vf9Y7Zu3fonxpiftPlqb4+BgYGLXNf97cjISM8X49BDQ1eE/d75SykaYfjd9F13vaLXsTRNTU3dEgTB4U8++eQZxpi729FG5iwm9NyhoaHPeJ734MjIyF+0KeSus9Y2EhZNNFKwGmSz2U8mKRdfpZ6x3PpKpdKbjDH3J2mbWuujl1tfrziO884kV//GmFqxWDxtufUVi8Wzoyh6aDXduiIB2MF3vvOdnwZB8KJt27aNGGPubGcioJR6ztDQ0Ec9z/v16OhoL0/y9X5uwikpRd2YW9N33XVyr2PZmZtuuum6IAgOmZ2dfaO19v52JQLx0q37DQ0Nfd7zvHtPO+20l7cp5G6qJSmklFp946nzcBznpMWu/uOh/59MTk5uaUedtVrtA4tdrVprhdZ6yRvt9JqUctHbJEopEYbh1e2qs9Fo/D0JwC7g5ptv3hIEwWGPP/74q6y197T5JL/vwMDA513X/Umbwm3N9u1/qaXsyy8/7vxvy9x55zG9jmUxlUrlSt/3D5yenv5LY8xDbW4jB65Zs+bbrut+t03hdkuiBGA1nUQXo5R63mJl4gTgH9tV5+Tk5FVRFD282HG21opsNtvyffF+oJQ6PEliVS6X39yuOqvV6qeNMUlHufpeP/YBfeWWW275pu/7B8/MzLzVGPNAO0/ySqkjXdetrV+//pQ2hZtI+oEHvlTftu2VVohHUkqJlJTCkVLo5o8Q3f2J608pJUJjKpk771xRw5KTk5OXBUGwX61Wu8AY84hSqm1tRGt9ouu6T6yUZ5GT3tu31orR0dEVuW5Gq6SUByX5/iqVyufaWa+1NtEFhpQy1856u2WxEY7mhMp212ut/eFqSWB3uXUAlqparf6zEOKfs9nsO9Pp9AVa6z9qZfGNnbHWCqVUes2aNVvEU31h12R++ctrhRDX2sMOOzJsNC62Wu8rlMpIIYaEELpb3Y0UQghr69aYJ2W9/vXUfff9Q5eqbrtyufwpIcSnstnsh9Pp9HlKqT3bsZiQUmrt+Pj4diHEbm0JtIOMMY84jpNkG1khpfwzIUTXV3zsNqWUXug58njP+wfbXW8YhrdkMpnsQt9FfBvgue2uu9POPffcfe+///5Fy1lr235cjTFPrpbJgCQALapWq58VQnw2m81emE6n362U2ns5i8XEJ0Lled5/+r7/4vZGuzh5xx0/FUK8stv1rmbVavXDQogP53K5SxzH+YvmSm1LFSeKQ67rbgmCYLhtgXaAlPJ6IcSrk5R1HOdPOhzOSvJYu98wXt0uiRV3OXvPPfcclmTNA2tt21fwsdb+Qkq5KlYIXB1pTA9Uq9VP+L6/T61W+6i1dutyNxrSWr+ojeGhD5TL5Qt8339WrVb7rBBi+3I3GlJKndau2DqlVCp9LcnwaNzm98tms8/vQlgrQaK5E61Ip9P3JCy64hKAKIp2T1LOdqaXfqQD79kTJADLVKlUPuT7/p61Wu0zUsptSz3JW2vFyMjI/2hzeOgDlUrlXb7vr6nVal8UQtSW2kaUUuJHP/rRUHuja78oih5MkgQYY0QqlWrbDO2VzFrb9gV5ZmdnT0hYtL+fCd4JrfUvk5RTHRirl1Ie2u737BUSgDapVCr/c2JiYvd6vf45KeV00nbX3JjCGCPWr19/fYfDRA9VKpW3+74/0Gg0viyECFttI2EY1o899tjpjgbZBsaYnyYpN2dN+r583LNb4tuAiz4p0KpUKpUoATC9W5ZxyVfnQRD8R5JySqlOrDex92oY/heCBKDtyuXyeRMTE7vV6/UviXmu9pondK21sNbeXa/Xv+D7vvzIRz7yRPcjRreVSqU3+76fajQaVwshTII28rNarfaZIAgSb7TTS/vuu++bkyY38Zr03+5wSH8gm81euGHDBpvNZl/XjfrCMFz0/r7WOtGQdiuUUovuzBjfy97ZXIEwSR3LmQ2fTqcT7RsxX71JHnEUQhy11Drmo7Vue7LWKyQAHVIul//c9/2Ber1+pRBiRms994R+VxiG19x4443S9/1DyuXyOb2OF91XKpVe6/u+rtfr3xRChM02opQS1tqf1uv1K+M2cmSlUvmfvY43qa985Su/Mcb8poW5AM9xXbcrWwOPjo6+dmBg4ONRFImBgYGrRkZG/qoL1S66Kp+1VuTz+S+3s1Ip5XEJt2a+difx/DZhHcvpQw5JUmi+zxBF0fbFXqu13q3dV+vNbYJXA54C6LByufxGIcQbPc87OgzDvcvlcqnXMaG/lMvlVwkhhOd5J9fr9VS1Wr2pxyEtW6PR+Fo6nX5PkhOleWrXx/WFQuEbxWKxYzs/5vP5c1Op1GXNEW9jjBgaGvrb0dHRvSqVygc7Va8x5jdKqZcsUkZorV8lhHhTO+osFApfUUrJJKP75XL5Ozv+28DAwJ0Jdy7cY2kRCqGUOjHh/gjb5vn3nymlXrrQexhjxNjY2C1CiPVLjXOufD7/9Xa8T79gBKBLfN+/lc4fC/F9/zurofMXQohyufxea23i+QpRFIlUKvUa13X9TsSTz+e/MLfzn1vvwMDABwqFwv/pRL1CCGGM+XySWyJKqd0KhcIX21GnUuq1i3X+UkoRRdFO52vceOONtycZtZBSLnnRLinlort8xjHsdDVMY8x9SWJUSr2sXVfsWutXraadLEkAAHREo9G4pJUtVOOVD13P8x5oZxye592ZTqffPt+JO04+znFd99/aWW9TpVK5LgzD2cXKxU9FnL3cPSA8z3tQSrno6G58//978/1/FEWLzgOQUopcLtfyCobxBNBEcxRKpdKndvZ/pVLp1UlvM42NjT3caow7cl33p1LK1HLfp5+QAADoiHK5fHEURfe2MlEs3iJ5//HxcVsoFJbVIRcKBX98fNxKKQ9daCU+IZ5KAhzHeWUH5yJUkxyHKIrE0NDQNaeeeqq3lEpc171VKbVfwqF1USwWz16gyH8uFnN862Kh99gpz/MeSLiT34KT/ZK0r3gUYB/XdRM9ObAzruteq7VeNff+m0gAAHSM7/vPb3UxluYWyY7jvHJsbMy6rvu90dHR/5Xktfl8/nLP8/5jw4YNVmvttrJcdzwSsP6UU045vZV4kwiCYEPSRMham95tt90mcrlcom2EmzzPe0hrfVSSjjV+9LiyUJkwDO9IErNSKu26bqJJg0IIUSgUvq+13j/hEwo/XCTGq5OuOaG1PnpsbCzR+gFzua77A631matp6L9p1UwCtNauuNWsOoTjgL4ShuF7BwYG/iYMEz1Z9rTmCVcpdUImkzlhw4YNnwjDcEZKeb8QYtpaG0kpB4QQa6SUB8VPTzy9kVKrtNZidnb2Y1NTUx1ZjyMMw+scx3l5ko7EWivS6fQFnue9sdFofL1SqbxnZ+VGRkaG0+n0h7TWpzUTpySMMSIIggU3ASqXy6/bsGHDa5PEqpR6ztjYWC2KosuLxeK5OyuXzWbPT6fTFyil9kkSp5RS1Gq1yUVifL/rum9XSu21WEIRjyb88fj4uA3D8IYgCE5fKHnI5/OXa63fIKV0VmPnL8QqSgCEEG1f83mFau0suwuRUq7O3+IWdXs703K5fGk+n39hOp3+86V0zHP32pBSDkopD4v//gdllvLeTVpr0Wg0/q1cLn9gyW+yiGKxeMbY2Nh28dSGW4uKO6x9M5nM+ePj4+cbYx6x1j4qpZwVQjxbSrm/lFK30vEL8dRnrdfrlyUpG4bhbUqpo5Js7iSESDuOc874+Pg5xpi7rLVbhRCRlHKNlPLFzfXzk8YaRVG9Wq0uOvLTaDQuHhwc/Psk33+zLWmtN27cuNF6nveoEOIeY8xsfH4YlFLuq7Ve14x1tQ37z7UibgEkmc0qhFjVi+hYa5MuzLH4Flm7qFZmpa9Qi55Z4wWGEq3U106lUuntYRh+q5VJgfNpnsTn/ixH3Pl/vVgsblp2cIvYtm3bG1o5Bs1OKE4G9lFKHS6lPFpKeaC1VrfaQcVb5N5RKpX+Mkn5er3+jlZW050T66FKqeOVUidJKV/camcaj+Yk2imyWq1+Noqi77cS55yEcS8p5XFa61OUUqcppY6XUq6LoqilpGqlWhEJgLV2wZW04u00k258sVL9Osm9rnK5nCiz39XEVx939zqOTkpyrz2KIlMqlZLuEtdWQRC8IgzDL7cjCWiX5tVwsVjsyqqAt9xyyzfr9fqlSzkGy0164t+Bx4MgODzpayYnJ78bRdFkq0vqLyfW+Hz++0UmKP4B3/dPNMY8vpSVCdudUK4kKyIBEEI8Ot8XGzeWRrFY7OttUpfLGPOzhf5fay2iKPpyl8LpO1EUzTsCFD/vvK1YLK7qbY+ttb9a6ASotRbGmM90MaRnCILgzTMzMx9RSi1rGdnliuuuzc7OviHp1XC7lEql94RheFU3E6G485/2fb/lhXt8388aY7Z26/uSUort27e/rNXXTUxM7GGtDTsZZ3wcV83QwIpIAIwxDy30/9u3bz+jW7H0SrVa/fR8DTveKOa7QRC8ucth9Q1r7c92dnziX9hGPp9/bg/C6qpSqfTW+dqI1lqEYXhtsVi8oMthPUO1Wv1wrVZbZ619tAObtS1IStlcjvu/fN8fqFQqX+1qALEgCF7faDQ+340kIJ7x/5jv+7st9T1839/TWjvb6SQgvh3zjqmpqf9u9bXx7Y0jhBD1TsQZH8cfW2uLvUxe22lFJACNRuNf59swpV6vv2ZqamqiB2F1XRRFz7jCU0qJKIp+GATBLr2jWhRFt+54bOLOP9y+ffvx559//kyPQusaKWU9iqJnLDgTd/6bgyDomxGQSqXygO/7z2k0Glcl2dhluZqbK1lrfzs7O/sW3/df3NEKEygWi+dOT0+/WwhhOvX545HB24MgePZy38v3/UEhxNZOJG3NNrBt27azS6XSkldlLJfLP5+YmMhYa3/bzjjj8+ztQRAcK4RYciLVb1ZEAjA5Ofm5KIqevgfe/LNWq22qVCrX9DK2bqrX65fNbdRxo/xeEATH9TCsvlAul881xjyxQxupb9++/ZipqalbexpcFzUajS/NvaqMr6iuC4JgQw/DmlepVHr9xMSEjKJostlJt7MznHPFf3+j0fiE7/v7VCqVK9pWwTJNTk7+ne/72hhzm9a6bZ89TnbqMzMzHw+CoG074k1MTOwZRVHFcZy2xNr8fowxD0xMTMibb775n9oQpvB9f58oiq5b7jFtxhdF0dXtPI79YkUkAEII4fv+HxljtsUNu/HYY4+dWq1WO7J0Z7+qVqsfD8Pwq47jNBvlRBAEJ/U6rn7x8MMPrxdC1OM28uTmzZszU1NT/9XruLqpUqm8MwzDstZaOI4jGo1pGvYGAAADLklEQVTGFcVise9vkRWLxezExIRsNBrfsNbe19wZsZXRgWbZ5klbCLHdGHPL9PT0qb7vH1gqlS5aYnh6biwL/Cz5fBoEwdEzMzObjDE/mfvZW9FMoIQQtUaj8Y0gCDLVavX9S41pgVhzjz/++DHGmNuXEuvc78gY89D09PQHgiBY14E4z5BS7mut/VGrcc5NHLdt2+YFQTB3PQSdoC20++N0xMqIco5cLvfNcrncN0OZvTA6Onq2lPKIcrn87l7H0o/y+fy3SqXSmb2Oo5dyudxFQginXC5f3OtYliqXy31ea/0nUsoDpJQHNBf62VHz+fIoih4SQjxgjHk0k8m884Ybbri3HXGMjIx8NJVKvcwYM++D5lJKZ3Z29otTU1Nt2S0ul8v9m+M4hyuljpj773PWQ5hbtwjD8DEhxH/XarWrt2zZ8g/tiKGFWP/FcZzDhRAvijvNBctHUfQLY8w9s7Oz75+amlpwpb92yufz12itj9zxmM4VTxieNcb8x8zMzCU7WxQqm83+jVLqGLHw2jPpcrl8Sjvi7qQVlwAA2HVZa8Xpp5/+0unp6T92HOfhIAi+t1KutpbKWiuy2ey7pJQv0lrvJYQYNMY8KoT4lRCiUqlUij0O8WnWWpHL5V4hpXyJtfbZUsqUMeb3SqlflEqly/vlu4rjPEcIsb8QYq940aKfV6vVy3scGgAAAAAAAAAAAAAAAAAAAAAAAAAAAAAAAAAAAAAAAAAAAAAAAAAAAAAAAAAAAAAAAAAAAAAAAAAAAAAAAAAAAAAAAAAAAAAAAAAAAAAAAAAAAAAAAAAAAAAAAAAAAAAAAAAAAAAAAAAAAAAAAAAAAAAAAAAAAAAAAAAAAAAAAAAAAAAAAAAAAAAAAAAAAAAAAAAAAAAAAAAAAAAAAAAAAAAAAAAAAAAAAAAAAAAAAAAAAAAAAAAAAAAAAAAAAAAAAAAAAAAAAAAAAAAAAAAAAAAAAAAAAAAAAAAAAAAAAAAAAAAAAAAAAAAAAAAAAAAAAAAAAAAAAAAAAAAAAAAAAAAAAAAAAAAAAAAAAAAAAAAAAAAAAAAAAAAAAAAAAAAAALB6/D8dl4ydCjn6TQAAAABJRU5ErkJggg==;fillColor=#A8DADC;strokeColor=#457B9D;fontColor=#1D3557;" parent="1" vertex="1">
          <mxGeometry x="969.39" y="491" width="190.78" height="93.16" as="geometry" />
        </mxCell>
        <mxCell id="8JSbVjjb48YtrDuy43W2-2" style="edgeStyle=orthogonalEdgeStyle;curved=0;rounded=1;sketch=0;orthogonalLoop=1;jettySize=auto;html=1;entryX=0.5;entryY=1;entryDx=0;entryDy=0;entryPerimeter=0;fontColor=#1D3557;strokeColor=#457B9D;fillColor=#A8DADC;" edge="1" parent="1" source="8JSbVjjb48YtrDuy43W2-1" target="UyWXllwboFjSRBBQRdUh-16">
          <mxGeometry relative="1" as="geometry">
            <Array as="points">
              <mxPoint x="1440" y="840" />
              <mxPoint x="1440" y="840" />
            </Array>
          </mxGeometry>
        </mxCell>
        <mxCell id="8JSbVjjb48YtrDuy43W2-1" value="&lt;font style=&quot;font-size: 18px&quot;&gt;WEBCrawler&lt;/font&gt;" style="rounded=1;whiteSpace=wrap;html=1;fillColor=#A8DADC;strokeColor=#457B9D;fontColor=#1D3557;" vertex="1" parent="1">
          <mxGeometry x="1335" y="1040" width="210" height="100" as="geometry" />
        </mxCell>
        <mxCell id="8JSbVjjb48YtrDuy43W2-7" value="" style="endArrow=none;html=1;rounded=1;sketch=0;fontColor=#1D3557;strokeColor=#457B9D;fillColor=#A8DADC;curved=0;" edge="1" parent="1">
          <mxGeometry width="50" height="50" relative="1" as="geometry">
            <mxPoint x="1190" y="990" as="sourcePoint" />
            <mxPoint x="1640" y="990" as="targetPoint" />
          </mxGeometry>
        </mxCell>
        <mxCell id="8JSbVjjb48YtrDuy43W2-8" value="" style="endArrow=none;html=1;rounded=1;sketch=0;fontColor=#1D3557;strokeColor=#457B9D;fillColor=#A8DADC;curved=0;" edge="1" parent="1">
          <mxGeometry width="50" height="50" relative="1" as="geometry">
            <mxPoint x="1190" y="1160" as="sourcePoint" />
            <mxPoint x="1190" y="990" as="targetPoint" />
          </mxGeometry>
        </mxCell>
      </root>
    </mxGraphModel>
  </diagram>
</mxfile>
